<svg width="116" height="99" viewBox="0 0 116 99" fill="none" xmlns="http://www.w3.org/2000/svg">
<path d="M34.8234 33.2734L36.3593 32.407C36.5047 32.325 36.6717 32.2916 36.8385 32.3113C37.6158 32.403 37.8948 33.4628 37.2618 33.9194L36.243 34.6544C36.0689 34.78 35.8665 34.857 35.6539 34.8786L35.5354 34.8906C35.0701 34.9378 34.6479 35.1785 34.3617 35.5598L33.7919 36.3191L33.4495 36.6812C32.5156 37.6689 31.6578 38.7336 30.8837 39.8659L30.8207 39.9581L30.2175 40.6685C29.937 40.9988 29.7606 41.4141 29.7113 41.8599C29.6408 42.4977 29.8357 43.1459 30.2464 43.6387L30.4968 43.9392C30.819 44.3259 31.233 44.6153 31.6936 44.7757C32.0447 44.898 32.4139 44.9422 32.7771 44.9053L33.6237 44.8194C34.1622 44.7648 34.7075 44.7803 35.2469 44.8654C35.895 44.9676 36.5299 45.1708 37.1277 45.465C37.3415 45.5702 37.5506 45.6871 37.7539 45.8151C37.9258 45.9235 38.0938 46.0399 38.2568 46.1637C38.3884 46.2636 38.5167 46.3683 38.6413 46.4775C38.6823 46.5134 38.7229 46.5498 38.7631 46.5867L39.003 46.807L41.7023 49.2848L46.7379 53.9584C46.7379 53.9584 46.0598 54.2347 45.7015 54.3075L45.0051 54.4489C45.0051 54.4489 45.0234 54.4457 44.7454 54.4766C44.5276 54.5008 44.5806 54.4901 44.5806 54.4901C44.473 54.4175 43.9891 54.208 43.7301 54.1048C43.6395 54.0686 43.5445 54.0498 43.4487 54.0439C43.353 54.038 43.259 54.0101 43.1636 53.9978C43.0576 53.9842 43.0829 54.051 42.8572 54.0739C42.5795 54.102 41.3787 53.4145 41.1644 53.2171L40.0923 52.2295L37.0544 48.9218L35.6612 47.679C34.8836 46.9853 33.8175 46.7951 32.8995 47.1862C31.9769 47.5793 30.9052 47.385 30.127 46.6836L29.7599 46.3528C29.3754 46.0063 29.0639 45.5787 28.8468 45.0994L27.9116 43.0346L27.8936 42.99C27.4454 41.882 27.6569 40.6214 28.4317 39.7832L31.2278 36.8573L33.1543 34.6393C33.6328 34.0883 34.1967 33.6269 34.8234 33.2734Z" fill="#A6A5A4"/>
<path d="M71.1465 26.1515L71.7517 26.8869C73.3895 28.8769 72.7598 31.9061 70.5085 32.8679C70.137 33.0266 69.7957 33.2509 69.4988 33.5313L68.2084 34.7503C67.719 35.2126 67.2627 35.7123 66.8432 36.2456L65.506 37.9456C65.0747 38.4938 64.6896 39.0813 64.3547 39.7014L63.1885 41.8608C62.6731 42.8153 62.4686 43.9296 62.6053 45.0391L62.6967 45.7809C62.8938 47.3802 62.1785 48.9192 60.8734 49.7037L60.7288 49.7907C60.2255 50.0932 59.8147 50.5372 59.5405 51.0752C59.0117 52.1123 57.9967 52.764 56.8647 52.793L55.7523 52.8216C55.2831 52.8336 54.8455 53.0478 54.5414 53.4143C54.0715 53.9808 53.3041 54.1627 52.6243 53.8687L52.5141 53.821C51.9826 53.5912 51.3891 53.6225 50.8985 53.9062L50.2318 54.2919C49.6684 54.6178 48.987 54.6537 48.3767 54.3897L48.133 54.2844C47.5881 54.0487 47.1864 53.6164 46.7379 53.9584C46.1741 54.3882 44.5806 54.4901 44.5806 54.4901L44.4384 54.3901C44.0558 54.1209 43.6002 53.9985 43.1509 54.0441L40.339 54.3293L35.8263 55.0652L31.0201 55.5527L26.4398 55.7391L24.2699 55.9593C23.3928 56.0482 22.5593 56.3721 21.848 56.9003C21.1368 57.4285 20.3033 57.7523 19.4262 57.8413L19.2567 57.8585C18.2027 57.9654 17.2059 58.3732 16.3728 59.0382L15.8942 59.4203C15.0741 60.0749 14.1356 60.5509 13.1307 60.8217L12.5034 60.9908C11.7317 61.1987 10.9859 61.4929 10.2783 61.8683L6.1577 64.0547L3.70118 65.662C2.83216 66.2306 2.0849 66.9793 1.50274 67.8646L0.690236 69.1002C0.140457 69.9362 -0.0930693 70.9657 0.0336935 71.9946C0.187819 73.2456 0.859508 74.3788 1.86707 75.0874L2.86896 75.7921L4.56694 76.735C5.12547 77.0451 5.72477 77.2601 6.3418 77.3715L7.48108 77.5771C8.05597 77.6809 8.5864 77.9879 8.98409 78.447L9.62307 79.1847C10.0565 79.685 10.7498 79.8168 11.2972 79.5031C11.64 79.3066 12.052 79.28 12.426 79.4301L13.2206 79.7488L14.9721 80.5426C15.4475 80.7581 15.9842 80.7266 16.4186 80.4579C16.8321 80.2021 17.3395 80.1606 17.7994 80.3451L19.5628 81.0525C20.1946 81.3482 20.8967 81.4083 21.5503 81.2228L22.2587 81.0218C23.1297 80.7746 24.0561 80.7826 24.9395 81.0452L25.4539 81.1981C26.2969 81.4486 27.1717 81.5323 28.033 81.4449L32.4139 81.0006C32.8657 80.9548 33.3233 80.9728 33.7747 81.0543C34.3045 81.15 34.8424 81.1581 35.369 81.0786L41.7904 80.108C42.5652 79.9909 43.1786 79.8428 43.8207 79.3868L46.9666 78.2333C46.9666 78.2333 49.6341 77.5541 50.7311 76.6015L51.7708 75.6988C52.2531 75.28 52.7674 74.9034 53.309 74.5724L56.0424 72.902L58.3249 71.6586C59.0924 71.2405 59.7454 70.6286 60.2278 69.8755L60.8441 68.9132C61.3172 68.1745 62.0792 67.7002 62.9317 67.6137L63.058 67.6009C63.7013 67.5357 64.2909 67.2209 64.713 66.7174C65.0338 66.3346 65.2427 65.8607 65.3158 65.3499L65.3209 65.314C65.5027 64.0438 66.4663 63.083 67.6823 62.9597L68.3109 62.8959C69.098 62.8161 69.8288 62.4625 70.3889 61.8904L71.1743 61.2148C71.1743 61.2148 71.9978 59.8425 71.8441 59.3597C71.5553 58.4529 72.2257 57.5595 73.1229 57.6557L73.9027 57.7394L76.212 57.7272C78.4669 57.7154 80.6323 56.9324 82.3829 55.496C83.286 54.7549 84.0596 53.8555 84.6717 52.8349L87.2354 48.5602C87.4547 48.1946 87.6234 47.7969 87.7368 47.3785C88.3969 44.9424 90.7955 43.567 93.1501 44.2746L93.4471 44.3638C93.8882 44.4964 94.3428 44.5629 94.7973 44.5613L98.8091 44.5473C100.407 44.5418 101.996 44.382 103.557 44.07L108.271 43.1275L114.34 41.5304C114.834 41.4003 115.203 40.978 115.286 40.447L115.315 40.259C115.351 40.031 115.302 39.7944 115.179 39.5974C114.995 39.3045 114.674 39.1403 114.349 39.1733C113.232 39.2866 112.122 39.48 111.029 39.7519L107.95 40.5178L100.873 41.7918L94.9795 42.3896C94.2433 42.4643 93.4947 42.3468 92.7995 42.0475L92.7164 42.0118C90.7838 41.1798 89.6085 39.0702 89.8831 36.9265C90.2243 34.948 91.3669 33.2509 93.0165 32.2725L93.1196 32.2113C93.7669 31.8274 94.3466 31.3322 94.8357 30.7456L96.5035 28.7451L98.7456 25.2942C98.7969 25.2153 98.8186 25.1185 98.8067 25.0218C98.7795 24.8012 98.5884 24.6396 98.3798 24.6607L97.795 24.72C97.5771 24.7421 97.3753 24.8418 97.2226 25.0026L90.5898 31.9873L91.1264 31.3895C92.2311 30.1587 93.2204 28.8176 94.0813 27.3839L94.8799 26.0538C95.085 25.7122 95.2662 25.3547 95.4218 24.9841L96.8876 21.4945C96.9702 21.2979 96.9605 21.0691 96.8613 20.8746C96.5441 20.2527 95.6674 20.414 95.6086 21.105L95.6038 21.1616C95.5945 21.271 95.5614 21.3758 95.5072 21.468L94.4218 23.3132C94.0416 23.9595 93.5917 24.5558 93.0805 25.0908L91.0537 27.2118L89.0189 29.8083C88.546 30.4119 87.7304 30.5806 87.0473 30.216C86.5451 29.948 86.198 29.4338 86.1263 28.8512L86.0009 27.8333C85.8941 26.9669 86.0884 26.0999 86.5476 25.3932L87.6199 23.7429C87.9768 23.1935 88.3928 22.6904 88.86 22.2431L91.5244 19.6921C91.5539 19.6638 91.5856 19.6383 91.6193 19.6156C92.2722 19.1755 91.8866 18.0876 91.1058 18.1668L91.0227 18.1752C90.9173 18.1859 90.816 18.2196 90.7252 18.2743L88.884 19.3811C88.1648 19.8134 87.4979 20.3329 86.8962 20.9293L84.6387 23.1673C84.5597 23.2456 84.49 23.3336 84.4309 23.4296L83.8845 24.3171C83.3575 25.1732 82.0797 24.8297 81.9526 23.7979C81.9324 23.6338 81.9471 23.4683 81.9955 23.3133L82.8655 20.5324L84.463 16.6191C84.5416 16.4266 84.5693 16.2138 84.5433 16.0025L84.4708 15.4137C84.43 15.0826 84.143 14.84 83.8299 14.8717C83.6194 14.8931 83.4414 15.036 83.3676 15.243L82.5101 17.648L81.5665 20.6642L80.8984 23.13C80.8023 23.4845 80.7763 23.8582 80.822 24.2286L81.0759 26.2902C81.1218 26.6622 80.8737 26.9927 80.5219 27.0284C80.4281 27.0379 80.3383 27.0692 80.2586 27.12L79.2916 27.7371C77.5061 28.8765 75.1657 28.5256 73.6668 26.8937C73.3545 26.5536 73.0897 26.1687 72.881 25.7513L71.9657 23.9212C71.5068 23.0036 71.1194 22.0501 70.8074 21.0705L67.6295 11.0912L64.8861 1.63438L64.5815 0.920746C64.323 0.314912 63.725 -0.0557838 63.1073 0.00687084C62.7486 0.0432554 62.4957 0.380249 62.5424 0.759543L62.5941 1.17907C62.6048 1.26537 62.6249 1.35041 62.6541 1.43244L63.615 4.12754L65.5511 11.302L68.0122 19.5357L70.4759 25.0657C70.6505 25.4575 70.8763 25.8232 71.1465 26.1515Z" fill="#A6A5A4"/>
<path d="M62.6967 45.7809L62.6053 45.0391C62.4686 43.9296 62.6731 42.8153 63.1885 41.8608L61.8196 37.3271C61.7764 37.087 61.6701 36.8623 61.5129 36.679C61.1908 36.3034 61.0966 35.7733 61.2708 35.317L65.1739 25.0955C66.0091 22.9084 66.2021 20.4877 65.7289 18.1385L65.4762 16.884C65.4514 16.7609 65.4127 16.6409 65.361 16.5266L65.0868 15.9213C64.9734 15.6709 64.723 15.5197 64.4651 15.5458C64.2502 15.5676 64.0667 15.7096 63.9843 15.9177L63.8423 16.2769C63.7598 16.4856 63.7311 16.7151 63.7592 16.9429L64.0364 19.1929C64.2587 20.9972 64.0047 22.8141 63.3026 24.4429L62.4328 26.4605L60.2858 32.5192L59.2969 36.2353L59.1257 36.9836C58.7868 38.4655 58.7097 40.0094 58.8982 41.5393L59.1402 43.5039C59.2712 44.5671 60.4798 45.5501 61.6919 46.4305C62.8188 47.249 62.8708 47.1941 62.6967 45.7809Z" fill="#A6A5A4"/>
<path d="M38.7631 46.5867L39.003 46.807C39.2954 47.0112 39.6539 47.0852 39.9943 47.0043L40.5519 46.8719C40.9921 46.7673 41.4327 47.0961 41.4915 47.5729C41.5275 47.8657 41.7133 48.1192 41.9745 48.2322L43.2198 48.7706C43.4943 48.8894 43.7521 49.0498 43.9846 49.2464L45.5426 50.5641L47.728 52.2895L49.115 53.5671C49.2764 53.7158 50.0284 54.2259 50.2318 54.2919L50.8985 53.9062C51.3891 53.6225 51.9826 53.5912 52.5141 53.821L52.6243 53.8687C52.9208 53.9969 53.4616 53.936 53.7699 53.8855C53.9243 53.8603 54.0703 53.8017 54.2055 53.7223L52.9402 53.0926L49.993 50.3908L46.7968 47.9336L43.3063 45.7631C43.0756 45.6197 42.8097 45.5566 42.5478 45.5831C42.2238 45.616 41.8963 45.5114 41.6373 45.2924L41.3694 45.0658C41.0422 44.7891 40.6467 44.6202 40.2346 44.5812L39.5087 44.5126C38.9993 44.4644 38.4994 44.3184 38.0339 44.0817L37.2626 43.6895C37.035 43.5738 36.8418 43.3924 36.706 43.1673L35.7576 41.5951C35.5048 41.1759 34.9093 41.2573 34.794 41.7268C34.7627 41.8543 34.7757 41.9909 34.8307 42.1123L35.8394 44.3395C35.9517 44.5874 36.1164 44.8064 36.3205 44.979C36.407 45.0522 36.5 45.1164 36.5979 45.1708L37.1277 45.465C37.3415 45.5702 37.5506 45.6871 37.7539 45.8151C37.9258 45.9235 38.0938 46.0399 38.2568 46.1637L38.2601 46.1657C38.3786 46.2404 38.4895 46.3283 38.5907 46.4277L38.6413 46.4775C38.6823 46.5134 38.7229 46.5498 38.7631 46.5867Z" fill="#A6A5A4"/>
<path d="M62.5042 66.9847C62.6063 67.1393 62.7672 67.2443 62.8813 67.3895L68.214 74.1758C68.3944 74.4052 68.5495 74.6552 68.6761 74.9205L69.0024 75.6041C69.2384 76.0986 69.2757 76.6665 69.1057 77.1762C68.967 77.592 68.9654 78.0493 69.1012 78.476L69.2129 78.8264C69.2845 79.0513 69.3801 79.2677 69.4979 79.4713L69.9475 80.2489C70.0865 80.4893 70.2419 80.7191 70.4122 80.9365L71.5394 82.3746C71.7526 82.6466 72.0583 82.82 72.387 82.8552L72.9224 82.9126C73.4137 82.9653 73.8128 82.5327 73.7491 82.0163C73.7409 81.9494 73.7404 81.882 73.7478 81.8156L73.7589 81.7146C73.8223 81.1412 73.5942 80.5647 73.1579 80.1957L72.1246 79.3217C71.3967 78.706 71.0726 77.7048 71.3007 76.7763C71.3988 76.3771 71.3965 75.9546 71.2942 75.5495L71.0603 74.6231C70.978 74.2972 70.8704 73.9782 70.7386 73.6693L70.6362 73.4295C70.3445 72.7461 69.9765 72.0995 69.5401 71.5041L67.8255 69.1645L65.8323 66.8634L64.8715 65.9655C64.7114 65.8159 64.5434 65.887 64.6166 66.0974C64.7014 66.3412 64.8095 66.6022 64.713 66.7174C64.3784 67.1165 62.2421 66.5878 62.5042 66.9847Z" fill="#A6A5A4"/>
<path d="M70.02 61.2929L79.5512 61.8559L83.6334 62.0658C85.6874 62.1713 87.6756 61.4481 89.1921 60.0436L92.7091 55.9502C92.8938 55.7353 93.0423 55.4884 93.1487 55.2195L94.0222 53.011C94.2935 52.325 93.8053 51.5451 93.0908 51.5235C92.716 51.5121 92.3736 51.7222 92.2036 52.0679L91.273 53.9611C91.1666 54.1774 91.0437 54.3837 90.9053 54.578L89.5706 56.4514C89.1045 57.1055 88.5937 57.7228 88.0419 58.2987C87.1337 59.2464 85.9997 59.9215 84.7506 60.2581C83.8233 60.5081 82.853 60.5659 81.8925 60.4286L78.7947 59.9857L73.8023 58.9623L72.2993 58.6363C71.7156 58.5097 71.6539 58.7624 71.8441 59.3597C71.9978 59.8425 71.1743 61.2148 71.1743 61.2148L70.02 61.2929Z" fill="#A6A5A4"/>
<path d="M36.2183 88.5554L32.5209 89.7967C31.6081 90.1031 30.8504 90.7651 30.399 91.6504L30.356 91.7348C30.0137 92.4061 29.8808 93.1797 29.9757 93.9494C30.0575 94.6138 29.9699 95.2833 29.7219 95.8883L29.2218 97.1082C29.1351 97.3196 29.1045 97.5535 29.1331 97.7856L29.1913 98.258C29.2218 98.5052 29.3914 98.713 29.6197 98.7828C29.81 98.8409 30.012 98.7939 30.1557 98.6582L30.4753 98.3563C30.655 98.1866 30.7866 97.9677 30.8564 97.7225L31.3403 96.0247C31.4358 95.6894 31.4848 95.3399 31.4858 94.9867L31.4864 94.8027C31.4889 93.9263 31.826 93.0998 32.422 92.509C32.735 92.1987 33.109 91.9639 33.5195 91.82L39.3581 89.7735C40.2603 89.4573 41.1349 89.0652 41.9737 88.6012L42.6856 88.2074C43.0122 88.0267 43.3245 87.8198 43.6198 87.5884C44.6644 86.77 45.4726 85.6646 45.9605 84.3867L46.7068 82.4322L48.1079 77.8893C47.4591 78.1079 46.9666 78.2333 46.9666 78.2333L43.8207 79.3868C42.5901 83.8919 40.4552 87.133 36.2183 88.5554Z" fill="#A6A5A4"/>
</svg>
