<svg width="44" height="32" viewBox="0 0 44 32" fill="none" xmlns="http://www.w3.org/2000/svg">
<path d="M11.4395 18.07L11.5037 18.151C12.154 18.9707 12.1038 20.1436 11.386 20.9049C11.222 21.0788 11.0295 21.2236 10.8169 21.333L10.5318 21.4796C10.1305 21.686 9.76723 21.9593 9.45763 22.2877L9.06617 22.7028C8.64419 23.1504 8.1403 23.5129 7.58179 23.7706C7.24915 23.9241 6.93513 24.1152 6.64584 24.34L6.4536 24.4893C5.79391 25.002 5.04703 25.3912 4.24894 25.6382L3.97951 25.7216L2.5 26.3403L0.325148 27.1255C0.1052 27.2049 -0.0285594 27.4281 0.00507917 27.6595C0.0397494 27.898 0.241969 28.0764 0.482942 28.081L0.644784 28.0841C0.702732 28.0852 0.760587 28.0789 0.816952 28.0654L1.98265 27.7863C2.39774 27.6869 2.79614 27.5276 3.1653 27.3134L3.65149 27.0312C4.0284 26.8125 4.45804 26.7013 4.89373 26.7096C5.4135 26.7196 5.92227 26.5594 6.34256 26.2534L11.1072 22.7847L12.0711 21.9248C12.906 21.18 14.0679 20.9223 15.1394 21.2443L15.6087 21.388C16.6584 21.7092 17.792 21.2754 18.359 20.3354L19.1414 19.294C19.2486 19.1514 19.4293 19.0846 19.6035 19.1233C19.8734 19.1832 20.0278 19.4681 19.9307 19.7269L19.6928 20.361L18.7127 22.7686C18.2733 23.6809 17.4451 24.3457 16.4593 24.5773L15.4714 24.8093L13.322 25.577L12.3741 25.9013C12.1116 25.9911 11.8611 26.1126 11.6281 26.2632L11.0077 26.664C10.8482 26.767 10.7226 26.915 10.6469 27.0892L10.5125 27.3981C10.4138 27.6249 10.4832 27.8897 10.6803 28.0389C10.8708 28.1831 11.1336 28.1838 11.3248 28.0406L12.5107 27.1523C12.7659 26.9611 13.0553 26.8205 13.3633 26.7379L15.7134 26.108L17.4942 25.3532C18.0076 25.1356 18.4831 24.8376 18.9028 24.4704C19.5558 23.8991 20.0571 23.1749 20.3619 22.3625L20.672 21.536C20.718 21.4134 20.7508 21.2863 20.7697 21.1567L20.9522 19.9104C21.0045 19.5532 21.3444 19.3118 21.699 19.3802C21.8769 19.4146 22.0316 19.5234 22.1239 19.6793L23.1419 21.3976L23.9052 22.9505C24.2508 23.6535 24.6932 24.3047 25.2196 24.8849L25.846 25.5755C26.2874 26.062 26.8337 26.4419 27.4435 26.6864L27.5435 26.7265C28.2561 27.0122 28.8706 27.4983 29.3126 28.126L29.381 28.2232C29.5754 28.4993 29.7252 28.8043 29.8249 29.1269L30.007 29.7168C30.1167 30.0719 30.0955 30.4546 29.9472 30.7954L29.7188 31.3204C29.6562 31.4643 29.669 31.63 29.7529 31.7626C29.9347 32.0499 30.3509 32.0578 30.5435 31.7777L31.0532 31.0367C31.1716 30.8645 31.2369 30.6613 31.2409 30.4524L31.2538 29.7769C31.2616 29.3663 31.1932 28.9579 31.052 28.5723L30.7098 27.6382C30.4231 26.8555 29.7664 26.2664 28.9573 26.0661C28.4187 25.9328 27.9396 25.6247 27.5948 25.19L27.2604 24.7684C27.0569 24.5118 26.8234 24.2807 26.5648 24.0799L26.1326 23.7444C25.5453 23.2885 25.0417 22.7341 24.6442 22.1059L24.3 21.5619C24.2395 21.4664 24.1914 21.3635 24.1567 21.2559L23.8897 20.428C23.7376 19.9561 24.0953 19.4747 24.591 19.4842L24.8059 19.4883C25.086 19.4937 25.3088 19.7251 25.3034 20.0052C25.3016 20.0966 25.3246 20.1868 25.3699 20.2662L26.9789 23.0886L27.0528 23.239C27.4202 23.9865 28.0351 24.5838 28.793 24.9293C29.2414 25.1337 29.727 25.2441 30.2197 25.2535L32.0069 25.2877L33.7814 25.25C35.262 25.2186 36.7325 24.999 38.1576 24.5967L38.926 24.3032C39.453 24.1018 40.0461 24.1794 40.5036 24.5095C40.6284 24.5996 40.7402 24.7064 40.8359 24.827L41.3431 25.4665L42.1453 26.3507C42.3005 26.5218 42.5194 26.6213 42.7503 26.6257C43.2134 26.6346 43.596 26.2664 43.6049 25.8033L43.6064 25.7245C43.6091 25.5833 43.5792 25.4435 43.519 25.3158L43.4863 25.2463C43.322 24.8978 43.0057 24.6449 42.6295 24.5613L42.2057 24.4672C41.8299 24.3838 41.4838 24.2002 41.2041 23.9358L40.4396 23.2135C40.1946 22.982 39.8722 22.8502 39.5353 22.8438C39.4401 22.8419 39.3449 22.8502 39.2514 22.8683L37.8796 23.1344C37.3708 23.2331 36.8703 23.3702 36.3823 23.5445C35.443 23.8799 34.4599 24.0767 33.464 24.1286L32.6954 24.1686L31.4592 24.1449C30.6974 24.1304 29.9542 23.9073 29.3104 23.4999C28.9148 23.2496 28.5642 22.9345 28.2732 22.5677L27.0191 20.9865L26.6941 20.5768C26.5119 20.3471 26.7792 20.0341 27.0346 20.1781L30.2804 21.4925C31.4606 21.9704 32.7184 22.228 33.9915 22.2523C35.7891 22.2868 37.565 21.8554 39.1465 21.0002L40.2112 20.4245C40.5874 20.221 40.9329 19.9652 41.2373 19.6646L41.3398 19.5635C42.1134 18.7997 42.558 17.7639 42.5788 16.677C42.6067 15.2198 41.8715 13.8539 40.6398 13.0746L38.9326 11.9945L38.1587 11.6355C36.7563 10.9849 35.216 10.6868 33.6721 10.7672L33.1191 10.796C32.042 10.8521 30.9919 11.1532 30.0486 11.6762L28.5305 12.5181C28.4322 12.5726 28.3213 12.6001 28.209 12.598C27.6205 12.5867 27.3603 11.852 27.8105 11.4728L28.9542 10.5094L30.0486 9.41491C30.5662 8.89727 31.2722 8.61269 32.0041 8.6267C32.2178 8.6308 32.4302 8.66032 32.637 8.71466L34.9809 9.33073L37.7725 9.86946L38.9692 10.1224C39.8165 10.3015 40.7002 10.1217 41.4102 9.62571C41.5695 9.51443 41.7181 9.38857 41.8541 9.24975L42.5036 8.58661C42.6571 8.42993 42.851 8.31892 43.0638 8.26593L43.3172 8.20286C43.6875 8.11064 43.95 7.78139 43.9573 7.39978L43.9618 7.16407C43.9679 6.84773 43.7163 6.58638 43.4 6.58032C43.2539 6.57752 43.1122 6.63065 43.004 6.72885L41.9505 7.68486L41.2349 8.17066C40.645 8.57108 39.9455 8.77877 39.2328 8.76512C38.7246 8.75539 38.2248 8.6334 37.7693 8.40788L37.2715 8.16142C36.4882 7.7736 35.6288 7.56381 34.7549 7.54708L31.6806 7.48821C30.1508 7.45892 28.679 8.07309 27.6239 9.18106L27.0201 9.815C26.7126 10.1379 26.4524 10.5026 26.247 10.8983L25.0718 13.1627C24.963 13.3724 24.7447 13.5022 24.5086 13.4976C24.0986 13.4898 23.8086 13.0938 23.9248 12.7005L23.9625 12.573C23.9736 12.5357 23.9876 12.4994 24.0045 12.4643L24.6739 11.0745L25.4957 9.7387C25.865 9.13845 26.1756 8.504 26.4232 7.84415L26.7223 7.04682C26.8367 6.74193 26.9878 6.45213 27.1724 6.18381L27.5823 5.58777C27.8474 5.20227 28.239 4.92165 28.6893 4.79454C28.9379 4.72436 29.1706 4.60677 29.3746 4.44826L29.5536 4.30919C29.7692 4.14164 29.9622 3.9469 30.1279 3.72981L30.7162 2.95883C30.8865 2.73564 31.0206 2.48705 31.1137 2.22217L31.7239 0.485148C31.7801 0.325172 31.7184 0.147578 31.5751 0.0569236C31.3354 -0.0947346 31.022 0.0739375 31.0166 0.357539L31.0078 0.817898C31.0054 0.93993 30.9673 1.05859 30.8981 1.15916L30.1256 2.28244C29.9796 2.49483 29.8169 2.6953 29.6391 2.88196L28.994 3.55935C28.7019 3.86604 28.3201 4.07217 27.9035 4.14808C27.2944 4.25906 26.771 4.64565 26.4858 5.19515L26.1067 5.92567L24.4505 8.80558L22.9276 11.688L22.1949 13.2367C22.133 13.3674 22.0003 13.4496 21.8558 13.4469C21.683 13.4435 21.5359 13.3202 21.5025 13.1507L21.0122 10.6627C20.972 10.4587 20.9137 10.2588 20.8382 10.0651L20.6837 9.66924C20.3603 8.84044 19.8083 8.12043 19.0919 7.59292C18.7718 7.35721 18.4231 7.16307 18.0541 7.01514L16.4913 6.38858L15.7363 6.14388C15.5335 6.07815 15.3222 6.04268 15.109 6.0386C14.5454 6.0278 14.008 5.79795 13.6109 5.39775L13.2105 4.99425C13.0191 4.80139 12.7949 4.6441 12.5485 4.52976L11.7669 4.16718C11.5786 4.0798 11.3594 4.08983 11.1798 4.19404C11.0192 4.28728 10.9073 4.44608 10.8735 4.62876L10.8636 4.68231C10.8112 4.96647 10.9256 5.25565 11.1583 5.42699L12.0781 6.10426C12.263 6.24042 12.4652 6.35126 12.6795 6.43387L13.3494 6.69217C13.5666 6.77589 13.7574 6.9162 13.902 7.09854C14.0957 7.34277 14.3705 7.50952 14.6766 7.56859L15.7136 7.76871C15.9463 7.81362 16.1747 7.87836 16.3964 7.96221L17.1652 8.25306C17.9142 8.53639 18.5594 9.0405 19.0155 9.69865L19.1054 9.82836C19.1843 9.94225 19.2526 10.0632 19.3092 10.1896L20.5915 13.051C20.6697 13.2253 20.5398 13.4217 20.3488 13.418C20.2711 13.4165 20.198 13.3804 20.1497 13.3194L19.2489 12.1838C18.6302 11.4037 17.6953 10.9408 16.6998 10.9218L16.4046 10.9161L15.166 10.8924C14.927 10.8878 14.6893 10.9293 14.466 11.0146C13.7072 11.3045 12.848 11.0689 12.3432 10.4325L12.0356 10.0447C11.9377 9.92124 11.8285 9.80715 11.7094 9.70395L8.89877 7.26865C8.09521 6.5724 7.20629 5.98127 6.25344 5.50952L6.03259 5.40018C5.55135 5.16193 5.05096 4.96448 4.53669 4.80993L4.18495 4.70422C3.78596 4.58431 3.40042 4.42351 3.03447 4.22438L1.94323 3.63059C1.8072 3.55657 1.65536 3.51638 1.50052 3.51342L1.17867 3.50726C0.823631 3.50046 0.530301 3.78276 0.523502 4.13781C0.519565 4.34346 0.614256 4.53859 0.778249 4.66275L1.02272 4.84784C1.12353 4.92416 1.23538 4.98469 1.35442 5.02733L3.56009 5.81745L5.27849 6.65914C6.68272 7.33028 7.99295 8.18254 9.17571 9.19415L10.8746 10.6472C11.0043 10.7581 11.123 10.8813 11.229 11.015C11.8505 11.7985 11.9789 12.8648 11.5612 13.7735L11.307 14.3264C11.0973 14.7826 10.9841 15.2772 10.9745 15.7793L10.958 16.6442C10.9481 17.1609 11.1183 17.665 11.4395 18.07Z" fill="#A6A5A4"/>
</svg>
