<svg width="47" height="33" viewBox="0 0 47 33" fill="none" xmlns="http://www.w3.org/2000/svg">
<path d="M33.7224 16.3649L33.67 16.2758C33.139 15.3742 33.3503 14.2195 34.1662 13.5644C34.3527 13.4148 34.5632 13.2979 34.7889 13.2189L35.0915 13.1129C35.5175 12.9638 35.9149 12.7433 36.2669 12.4607L36.7118 12.1035C37.1915 11.7184 37.7405 11.4288 38.3292 11.2505C38.6799 11.1444 39.0172 10.9985 39.3347 10.8157L39.5457 10.6942C40.2698 10.2775 41.0632 9.99496 41.8877 9.86032L42.1661 9.81486L43.7168 9.40606L45.9791 8.92818C46.2079 8.87985 46.3712 8.67726 46.3698 8.44342C46.3683 8.20241 46.1926 7.99787 45.9546 7.96008L45.7947 7.93469C45.7375 7.9256 45.6793 7.92384 45.6216 7.92943L44.4286 8.04518C44.0037 8.08639 43.5872 8.18926 43.192 8.35054L42.6715 8.56295C42.2681 8.72761 41.8272 8.77854 41.3968 8.71021C40.8834 8.62869 40.3574 8.71722 39.8989 8.96233L34.7015 11.741L33.6283 12.4598C32.6987 13.0824 31.5124 13.1774 30.4955 12.7107L30.0505 12.5038C29.0551 12.0408 27.8725 12.3142 27.1813 13.167L26.2628 14.0906C26.137 14.2172 25.9488 14.2584 25.7816 14.1961C25.5226 14.0995 25.4089 13.796 25.5408 13.5531L25.8638 12.9579L27.1665 10.7084C27.7274 9.86537 28.6394 9.32112 29.6477 9.22765L30.6581 9.13398L32.8929 8.67004L33.8764 8.47949C34.1488 8.42672 34.4137 8.34089 34.6653 8.22391L35.3349 7.9125C35.5072 7.8324 35.6519 7.7032 35.751 7.54112L35.9267 7.25361C36.0556 7.04264 36.0234 6.77082 35.8488 6.59582C35.68 6.42676 35.4198 6.38984 35.2107 6.50532L33.9136 7.22161C33.6345 7.37577 33.3285 7.47517 33.012 7.51447L30.5975 7.81433L28.7297 8.31644C28.1912 8.4612 27.6792 8.6908 27.2129 8.9966C26.4873 9.47244 25.8909 10.1206 25.477 10.8832L25.0559 11.6591C24.9935 11.7741 24.9435 11.8955 24.9069 12.0212L24.5543 13.2305C24.4533 13.5771 24.0833 13.7693 23.7415 13.6526C23.5701 13.5941 23.4319 13.4649 23.3619 13.2978L22.5905 11.4556L22.0486 9.81232C21.8033 9.06832 21.4548 8.36239 21.0135 7.71513L20.4883 6.94482C20.1182 6.40201 19.6295 5.95043 19.0592 5.62421L18.9657 5.57071C18.2993 5.1895 17.7577 4.6233 17.4065 3.94064L17.3521 3.83493C17.1976 3.53467 17.0913 3.21198 17.0371 2.87869L16.938 2.26937C16.8783 1.90251 16.9521 1.52642 17.1459 1.20929L17.4445 0.7208C17.5264 0.586858 17.5366 0.421057 17.4717 0.278095C17.3313 -0.0314823 16.9202 -0.0967601 16.6908 0.1541L16.0838 0.817845C15.9428 0.972063 15.8501 1.16429 15.8173 1.37068L15.7114 2.03791C15.647 2.44347 15.6585 2.85746 15.7452 3.25883L15.9553 4.23121C16.1313 5.04594 16.7006 5.71999 17.4744 6.02992C17.9894 6.23621 18.4215 6.60743 18.703 7.08548L18.9761 7.54921C19.1423 7.83132 19.3417 8.09244 19.5702 8.32695L19.952 8.71885C20.4708 9.25134 20.8932 9.8699 21.2003 10.5469L21.4662 11.1332C21.5129 11.2362 21.5464 11.3446 21.5659 11.456L21.7162 12.3128C21.8018 12.8012 21.3812 13.2286 20.8915 13.1509L20.6792 13.1172C20.4025 13.0733 20.2138 12.8133 20.2577 12.5367C20.2721 12.4464 20.2617 12.3539 20.2279 12.269L19.0234 9.25172L18.9709 9.09258C18.71 8.30155 18.1834 7.62523 17.4804 7.17851C17.0644 6.9142 16.5987 6.73796 16.112 6.66068L14.3466 6.38038L12.5838 6.17306C11.113 6.0001 9.62632 6.01479 8.15932 6.21678L7.35781 6.40156C6.80802 6.52832 6.23135 6.36974 5.82368 5.97968C5.71248 5.87329 5.61648 5.75207 5.53837 5.61946L5.12414 4.9161L4.45158 3.92973C4.32144 3.73887 4.11833 3.61014 3.89019 3.57391C3.43275 3.50128 3.00304 3.81323 2.93042 4.27067L2.91805 4.34854C2.89592 4.48796 2.90625 4.63061 2.94825 4.76538L2.97109 4.83868C3.08574 5.20655 3.36418 5.50066 3.72523 5.63526L4.13206 5.78692C4.49269 5.92136 4.81018 6.15096 5.05081 6.45133L5.70841 7.27217C5.91911 7.53518 6.22029 7.71019 6.55311 7.76304C6.64718 7.77797 6.74257 7.78294 6.83768 7.77787L8.23307 7.70341C8.75057 7.6758 9.26523 7.60904 9.77265 7.5037C10.7492 7.30098 11.75 7.24165 12.7436 7.32757L13.5103 7.39388L14.7315 7.58777C15.484 7.70724 16.1893 8.03066 16.7708 8.52287C17.1281 8.82532 17.432 9.1858 17.6695 9.58919L18.6937 11.3282L18.9591 11.7788C19.1079 12.0315 18.8 12.3046 18.5669 12.1268L15.5333 10.3774C14.4303 9.74132 13.22 9.31282 11.9624 9.11315C10.1867 8.83122 8.36831 9.01363 6.68399 9.64263L5.55012 10.0661C5.1494 10.2157 4.77193 10.4215 4.42901 10.6771L4.31357 10.7632C3.44205 11.413 2.85888 12.3776 2.68841 13.4513C2.45987 14.8907 2.99974 16.345 4.11221 17.2866L5.65421 18.5918L6.37121 19.0541C7.67058 19.8918 9.15499 20.3994 10.6953 20.5326L11.2469 20.5803C12.3215 20.6733 13.4031 20.5199 14.4095 20.1319L16.0292 19.5074C16.134 19.467 16.2476 19.455 16.3586 19.4726C16.9399 19.5649 17.0964 20.3284 16.5982 20.6419L15.3325 21.4385L14.0977 22.3716C13.5137 22.8129 12.7752 22.9975 12.0522 22.8827C11.8411 22.8492 11.6348 22.7906 11.4375 22.7083L9.20093 21.775L6.51027 20.8565L5.35988 20.441C4.54532 20.1468 3.6453 20.203 2.87371 20.5964C2.70059 20.6846 2.53606 20.7888 2.38224 20.9075L1.64747 21.4748C1.47387 21.6088 1.26647 21.692 1.04838 21.7152L0.788781 21.7427C0.409222 21.783 0.103894 22.0729 0.0440414 22.4499L0.0070745 22.6827C-0.0425397 22.9952 0.170559 23.2887 0.483044 23.3383C0.627354 23.3613 0.774969 23.3282 0.895684 23.2458L2.071 22.4442L2.84674 22.0617C3.48616 21.7464 4.2076 21.6372 4.9117 21.7489C5.41369 21.8287 5.89184 22.0184 6.31191 22.3045L6.77099 22.6173C7.49336 23.1094 8.31563 23.4357 9.17889 23.5727L12.2157 24.0549C13.7268 24.2948 15.2692 23.8894 16.4671 22.9375L17.1524 22.3929C17.5015 22.1155 17.8096 21.7902 18.0676 21.4265L19.5437 19.3457C19.6804 19.1531 19.9145 19.0546 20.1477 19.0917C20.5527 19.156 20.7854 19.5882 20.616 19.9617L20.5611 20.0828C20.545 20.1182 20.5261 20.1523 20.5046 20.1846L19.6499 21.4689L18.6518 22.6786C18.2032 23.2222 17.8081 23.8078 17.472 24.4272L17.0657 25.1757C16.9104 25.4619 16.7208 25.7281 16.501 25.9684L16.0128 26.5022C15.6971 26.8475 15.2705 27.0714 14.8071 27.1353C14.5511 27.1705 14.3044 27.2549 14.0805 27.3838L13.8841 27.4968C13.6474 27.633 13.4294 27.7993 13.2354 27.9915L12.5464 28.674C12.347 28.8716 12.1798 29.0993 12.0512 29.3488L11.2073 30.9851C11.1296 31.1358 11.1662 31.3202 11.2956 31.4298C11.5121 31.613 11.8458 31.4892 11.8902 31.209L11.9624 30.7543C11.9816 30.6337 12.0357 30.5215 12.1181 30.4314L13.038 29.4253C13.212 29.2351 13.4008 29.059 13.6026 28.8986L14.3349 28.3166C14.6665 28.0532 15.0731 27.9016 15.4962 27.8839C16.1148 27.8579 16.6865 27.5472 17.0447 27.0423L17.5209 26.371L19.5584 23.747L21.4641 21.102L22.4034 19.6691C22.4826 19.5482 22.6254 19.4851 22.7681 19.5077C22.9388 19.5348 23.0675 19.6773 23.0772 19.8498L23.2199 22.3816C23.2316 22.5892 23.2617 22.7953 23.3098 22.9975L23.4082 23.4109C23.6143 24.2763 24.0617 25.0656 24.6986 25.6868C24.9831 25.9644 25.3018 26.2048 25.6468 26.4022L27.1083 27.2382L27.8223 27.5847C28.0141 27.6777 28.2186 27.742 28.4291 27.7754C28.9859 27.8638 29.4864 28.1656 29.8246 28.6167L30.1655 29.0716C30.3285 29.289 30.5289 29.4757 30.7572 29.6229L31.4813 30.0898C31.6558 30.2023 31.8742 30.2226 32.0665 30.1441C32.2385 30.0739 32.3712 29.932 32.4298 29.7558L32.447 29.7041C32.5381 29.4299 32.4647 29.1277 32.2578 28.9259L31.4402 28.1283C31.2758 27.9679 31.0908 27.8303 30.89 27.7189L30.262 27.3707C30.0585 27.2578 29.8888 27.0926 29.7707 26.892C29.6126 26.6234 29.3634 26.4204 29.0684 26.3197L28.0689 25.9785C27.8446 25.9019 27.6272 25.8063 27.4192 25.6927L26.6979 25.2986C25.9951 24.9147 25.4256 24.3265 25.0646 23.6117L24.9934 23.4709C24.9309 23.3472 24.88 23.218 24.8413 23.0849L23.9658 20.0741C23.9124 19.8907 24.0681 19.7141 24.2568 19.7441C24.3336 19.7563 24.4009 19.8022 24.4404 19.8692L25.176 21.1182C25.6813 21.9761 26.5434 22.5634 27.5268 22.7196L27.8184 22.7659L29.0419 22.9601C29.278 22.9976 29.5191 22.9893 29.7521 22.9356C30.5436 22.7531 31.3621 23.1049 31.7743 23.8049L32.0255 24.2313C32.1055 24.3671 32.1979 24.4952 32.3017 24.6138L34.7497 27.4133C35.4496 28.2137 36.2485 28.9218 37.1272 29.5204L37.3309 29.6591C37.7747 29.9615 38.2431 30.226 38.7311 30.45L39.0649 30.6032C39.4436 30.777 39.8032 30.9894 40.1382 31.2371L41.1372 31.9756C41.2617 32.0677 41.4066 32.1285 41.5595 32.1527L41.8774 32.2032C42.2282 32.2589 42.5576 32.0197 42.6133 31.669C42.6455 31.4659 42.5787 31.2595 42.4334 31.114L42.2167 30.8969C42.1274 30.8074 42.025 30.7321 41.9129 30.6734L39.8373 29.5867L38.2513 28.5162C36.9531 27.6578 35.7728 26.6331 34.7408 25.4681L33.2585 23.7946C33.1453 23.6669 33.0448 23.5286 32.9582 23.3815C32.4507 22.5198 32.4705 21.446 33.0095 20.6036L33.3375 20.091C33.6081 19.668 33.7884 19.1937 33.8671 18.6978L34.0028 17.8434C34.0838 17.333 33.9847 16.8102 33.7224 16.3649Z" fill="#A6A5A4"/>
</svg>
