<svg width="54" height="53" viewBox="0 0 54 53" fill="none" xmlns="http://www.w3.org/2000/svg">
<path d="M45.5554 5.92781L45.1274 6.4347C44.87 6.7395 44.4296 6.81015 44.0926 6.60074C43.8382 6.44262 43.5163 6.44078 43.2584 6.59595L43.1043 6.6887C42.9951 6.75441 42.8981 6.83865 42.8176 6.93758L42.6205 7.17963C42.244 7.6422 41.5847 7.75415 41.0809 7.44104C41.0012 7.39153 40.9159 7.35177 40.8267 7.32257L40.3616 7.17026C39.765 6.9749 39.2817 6.53241 39.0338 5.95463C38.8571 5.54282 38.5588 5.19561 38.1789 4.9595L37.4664 4.51674C37.1085 4.29426 36.781 4.02602 36.4922 3.71874L35.623 2.79355C35.4719 2.63272 35.3329 2.4608 35.2073 2.27918L34.4447 1.17628C34.351 1.04077 34.3073 0.876645 34.321 0.711875L34.3387 0.498448C34.3575 0.272847 34.2105 0.0676317 33.9916 0.0137757C33.6369 -0.0734497 33.3251 0.268888 33.4441 0.614832L33.6384 1.17936C33.6542 1.22531 33.6742 1.26967 33.6982 1.31187L34.0157 1.8699C34.4402 2.61586 34.9868 3.28459 35.6328 3.84829L37.1659 5.18618C37.2913 5.29564 37.3925 5.43013 37.4631 5.58117L37.9996 6.72877C38.117 6.97988 37.9366 7.27018 37.6595 7.2761C37.5857 7.27767 37.5132 7.25785 37.4507 7.21897L36.7597 6.78953C36.6171 6.70095 36.4676 6.62398 36.3127 6.55945L34.3408 5.73829L32.3685 5.19058L30.3029 4.7403C30.2028 4.71846 30.1344 4.6257 30.143 4.52312L30.2786 2.89591C30.2876 2.78782 30.1312 2.76398 30.1067 2.86972C30.1052 2.8762 30.103 2.88251 30.1001 2.88849L29.6448 3.82126C29.4097 4.30282 29.4796 4.87664 29.823 5.28448C29.9759 5.46605 30.1742 5.60359 30.3977 5.68322L31.1179 5.9398C31.5429 6.0912 31.9921 6.16382 32.4438 6.15418C32.9214 6.14398 33.3961 6.22581 33.8421 6.39523L34.9769 6.82632C35.0174 6.84173 35.0564 6.86106 35.0933 6.88396L36.4915 7.7529C36.653 7.85327 36.5837 8.10346 36.3933 8.10753C36.3564 8.10832 36.3201 8.09839 36.2888 8.07895L35.8362 7.79768C35.1815 7.39076 34.4239 7.17234 33.6518 7.16634C33.217 7.16296 32.7839 7.09246 32.3712 6.9573L31.4566 6.65785L30.1867 6.20541C29.9032 6.10443 29.655 5.92388 29.4715 5.68517L28.2593 4.10764C28.1774 4.00117 28.0143 4.00986 27.9431 4.12448C27.9085 4.18017 27.9043 4.24945 27.9319 4.30862L28.4456 5.40739C28.6636 5.87374 29.0245 6.25761 29.4758 6.5034L30.898 7.27784C31.4387 7.57229 32.0371 7.74586 32.6522 7.78673L33.9844 7.87525C34.0992 7.88287 34.2077 7.92972 34.2919 8.00796L35.1487 8.80474C35.4475 9.08257 35.1069 9.56262 34.7463 9.37195C34.6875 9.34085 34.6209 9.32728 34.5544 9.33291L24.314 10.1997C21.6159 10.4281 18.951 10.9649 16.3715 11.7996L14.7532 12.3232L11.1724 13.3702C9.60774 13.8277 8.09844 14.4598 6.67295 15.2545L5.96315 15.6503C4.80416 16.2965 3.73203 17.0889 2.77318 18.0081L1.91925 18.8266C1.54578 19.1846 1.21862 19.5882 0.945443 20.0278L0.860953 20.1637C0.197107 21.2319 -0.0959838 22.4887 0.0274847 23.7377L0.0376421 23.8409C0.148914 24.9665 0.85943 25.9405 1.89463 26.3865C2.35114 26.5832 2.8486 26.6671 3.34528 26.6311L9.34617 26.1963C11.134 26.0668 12.9061 25.7645 14.6378 25.2938L17.6115 24.4854C21.3005 23.4826 24.8551 22.0307 28.1959 20.1624L32.6754 17.6574C32.7159 17.6347 32.7539 17.6076 32.7885 17.5766C33.3601 17.0648 34.1707 17.8237 33.7001 18.4299L32.152 20.4241L26.5105 26.9053C25.4242 28.1532 24.4909 29.5266 23.7305 30.9962C22.9627 32.48 22.3769 34.0508 21.9859 35.6742L20.9648 39.9138L19.6232 46.538L19.5535 47.3751C19.5074 47.928 19.7326 48.4676 20.157 48.8212C20.4112 49.0331 20.5976 49.315 20.6935 49.6325L20.8383 50.1119C21.1323 51.085 21.8487 51.8714 22.7886 52.2526C23.8235 52.6722 25.0011 52.5494 25.9328 51.9247L28.6665 50.0917C29.8027 49.3298 30.7645 48.3339 31.4873 47.1709L34.1231 42.9297C34.9435 41.6096 35.6693 40.233 36.2948 38.8103L37.9281 35.0955C38.4472 33.915 38.7862 32.6636 38.9338 31.3836L40.4656 18.1017C40.5411 17.4465 41.174 17.0045 41.8118 17.1614C43.5528 17.7962 45.142 18.7859 46.4797 20.0682L49.8138 23.2644C49.992 23.4009 50.2145 23.1598 50.0648 22.9924L45.9953 18.4411C45.9475 18.3877 45.8923 18.3413 45.8315 18.3035L44.6618 17.5765C44.502 17.4773 44.3505 17.3652 44.2087 17.2415L42.7931 16.0061C42.688 15.9144 42.6421 15.7718 42.6737 15.6353C42.7521 15.2961 43.2059 15.2304 43.3738 15.5338L43.5902 15.9248C43.6354 16.0065 43.7008 16.0753 43.78 16.1246L44.5503 16.6033C44.7345 16.7177 44.9276 16.8171 45.1279 16.9005L45.9293 17.2343L49.7087 18.4531L53.2757 19.7838C53.3177 19.7995 53.3649 19.7832 53.3886 19.745C53.42 19.6945 53.3978 19.6282 53.3426 19.6072L47.3822 17.3429C47.0619 17.2212 46.7542 17.0689 46.4633 16.8881L44.2229 15.4958C44.1199 15.4318 44.0401 15.3366 43.9948 15.2239L43.558 14.1375C43.4885 13.9648 43.6805 13.8027 43.8383 13.9007L44.6919 14.5877C44.943 14.7897 45.2285 14.9446 45.5348 15.0449C45.7378 15.1114 45.9319 15.2019 46.1131 15.3145L46.6791 15.6662C46.787 15.7333 46.8894 15.809 46.9852 15.8926C47.4683 16.3143 48.1021 16.5211 48.7422 16.4661L51.8944 16.1954L48.8859 16.3022C48.3998 16.3195 47.9371 16.0981 47.6462 15.709C47.5356 15.5611 47.3985 15.4353 47.2418 15.338L46.3856 14.8059C45.8974 14.5024 45.4848 14.0915 45.179 13.604L44.7143 12.8632L44.4346 12.3316C44.2795 12.0369 44.2927 11.681 44.4692 11.3969C44.5482 11.2698 44.6562 11.1633 44.7843 11.0863L44.7994 11.0772C45.1242 10.8817 45.5298 10.884 45.8504 11.0832L46.1625 11.2772C46.5311 11.5062 47.0165 11.3914 47.2469 11.0208L47.2571 11.0043C47.3726 10.8185 47.5579 10.6871 47.7709 10.64L48.5025 10.4781C49.0126 10.3652 49.4388 10.0137 49.6481 9.53329C49.7841 9.22116 50.014 8.95903 50.3054 8.78364L50.9657 8.3862L52.2969 7.42326C52.4635 7.30282 52.4556 7.05212 52.2819 6.94417C52.1973 6.89158 52.0913 6.88679 52.0018 6.93157L51.1962 7.3349C51.158 7.35402 51.1176 7.36831 51.0759 7.37753C50.9442 7.40669 50.8066 7.38332 50.6923 7.31229L50.6423 7.28124C50.4794 7.17998 50.3992 6.98578 50.4426 6.79794C50.482 6.62775 50.6157 6.49515 50.7859 6.45749L51.2116 6.36334C51.3907 6.3237 51.477 6.11793 51.3797 5.96281C51.3584 5.92894 51.3298 5.90044 51.2958 5.87936L51.2267 5.83638C51.0901 5.75152 50.9256 5.72347 50.7682 5.75831L50.2986 5.86227C50.0627 5.91449 49.819 5.91875 49.5818 5.87476L48.0952 5.59896C47.9437 5.57086 47.795 5.5292 47.6511 5.47452L47.3273 5.3515C47.0693 5.2535 46.7881 5.23313 46.5179 5.29291C46.2626 5.34943 46.0273 5.47536 45.838 5.65682L45.5554 5.92781Z" fill="#A6A5A4"/>
</svg>
