<svg width="55" height="47" viewBox="0 0 55 47" fill="none" xmlns="http://www.w3.org/2000/svg">
<path d="M51.6221 33.2561L50.9756 33.1073C50.5868 33.0178 50.3226 32.6584 50.3547 32.263C50.379 31.9644 50.2334 31.6772 49.9775 31.5189L49.8246 31.4243C49.7162 31.3572 49.5969 31.3095 49.4721 31.2831L49.1667 31.2185C48.5832 31.0952 48.1821 30.5601 48.2302 29.9689C48.2378 29.8754 48.2341 29.7813 48.2193 29.6886L48.1421 29.2054C48.043 28.5855 48.2155 27.9533 48.6159 27.4686C48.9013 27.1231 49.0737 26.6991 49.11 26.2533L49.1779 25.4172C49.2121 24.9971 49.3008 24.5832 49.4421 24.1859L49.8674 22.9898C49.9413 22.7818 50.0306 22.5796 50.1347 22.3849L50.7668 21.2023C50.8444 21.057 50.9704 20.9431 51.1232 20.88L51.3211 20.7981C51.5303 20.7116 51.6456 20.4871 51.5934 20.2678C51.5088 19.9125 51.0618 19.7917 50.8085 20.0558L50.3953 20.4867C50.3617 20.5217 50.3314 20.5598 50.3048 20.6005L49.9538 21.1381C49.4845 21.8567 49.1398 22.6486 48.9338 23.4808L48.4451 25.456C48.4051 25.6176 48.3318 25.7691 48.2298 25.901L47.4546 26.903C47.2849 27.1222 46.9443 27.0945 46.8123 26.8507C46.7771 26.7859 46.7616 26.7123 46.7676 26.6389L46.8335 25.828C46.8471 25.6607 46.8472 25.4926 46.8337 25.3253L46.6622 23.1962L46.2474 21.1917L45.7032 19.1488C45.6768 19.0498 45.7281 18.9466 45.8232 18.9073L47.3323 18.2837C47.4326 18.2423 47.3823 18.0923 47.277 18.1189C47.2706 18.1206 47.264 18.1215 47.2573 18.1216L46.2196 18.1432C45.6838 18.1544 45.2055 18.479 44.9998 18.9709C44.9083 19.1899 44.8766 19.4291 44.908 19.6643L45.0092 20.4221C45.0689 20.8693 45.2097 21.302 45.4249 21.6993C45.6524 22.1194 45.7967 22.579 45.8499 23.0531L45.9855 24.2594C45.9903 24.3025 45.991 24.346 45.9875 24.3892L45.8541 26.03C45.8387 26.2196 45.5845 26.2724 45.4938 26.1049C45.4763 26.0724 45.4685 26.0356 45.4715 25.9989L45.5147 25.4678C45.5771 24.6994 45.4249 23.9258 45.0772 23.2365C44.8813 22.8482 44.746 22.4309 44.6774 22.002L44.5255 21.0517L44.3471 19.7154C44.3073 19.4172 44.3544 19.1139 44.4828 18.8416L45.3313 17.0421C45.3886 16.9206 45.3062 16.7795 45.1717 16.7686C45.1064 16.7633 45.0428 16.7912 45.0029 16.8429L44.2606 17.8022C43.9456 18.2093 43.7692 18.7058 43.7571 19.2196L43.7187 20.8385C43.7041 21.454 43.8234 22.0655 44.0683 22.6312L44.5988 23.8564C44.6445 23.962 44.6525 24.0799 44.6214 24.1905L44.3046 25.3169C44.1942 25.7097 43.6115 25.6263 43.6162 25.2184C43.617 25.1519 43.5986 25.0865 43.5632 25.03L38.1094 16.3194C36.6724 14.0244 34.9764 11.9 33.0544 9.98761L31.8488 8.78791L29.2801 6.08223C28.1578 4.9 26.9055 3.84682 25.5468 2.94254L24.8703 2.4923C23.7656 1.75708 22.5706 1.16599 21.3147 0.733615L20.1963 0.348524C19.7071 0.180114 19.1985 0.0737338 18.6827 0.031805L18.5232 0.0188371C17.2697 -0.0830538 16.0179 0.231047 14.9637 0.911983L14.8765 0.968218C13.9264 1.5819 13.3852 2.65917 13.4619 3.78376C13.4957 4.27969 13.6486 4.76045 13.9078 5.1857L17.0386 10.3236C17.9714 11.8543 19.0506 13.292 20.2611 14.6167L22.3399 16.8916C24.9187 19.7137 27.8353 22.2109 31.0246 24.3276L35.3008 27.1657C35.3395 27.1913 35.381 27.2127 35.4244 27.2293C36.1409 27.5036 35.8367 28.5715 35.0824 28.4302L32.601 27.9655L24.2573 25.9122C22.6508 25.5168 21.0026 25.3149 19.348 25.3107C17.6773 25.3064 16.0125 25.5038 14.39 25.8984L10.1527 26.9291L3.64814 28.7653L2.87186 29.0861C2.35904 29.298 1.98221 29.7449 1.86175 30.2841C1.7896 30.607 1.62413 30.9018 1.38565 31.1322L1.02555 31.4802C0.294549 32.1867 -0.0771253 33.1834 0.0136986 34.1936C0.113693 35.3058 0.761435 36.2969 1.74308 36.8398L4.62328 38.4327C5.82044 39.0948 7.14593 39.4947 8.51079 39.6056L13.4878 40.0102C15.037 40.1361 16.5931 40.152 18.1444 40.0577L22.1949 39.8114C23.4822 39.7332 24.7501 39.4624 25.9559 39.0083L38.4681 34.2968C39.0853 34.0643 39.7678 34.425 39.92 35.064C40.1516 36.9025 39.9982 38.7685 39.4695 40.5445L38.1518 44.9711C38.1119 45.1921 38.428 45.2797 38.5085 45.07L40.695 39.3696C40.7207 39.3027 40.7367 39.2324 40.7425 39.161L40.8541 37.7884C40.8693 37.6009 40.8997 37.4149 40.9449 37.2322L41.3962 35.4084C41.4297 35.273 41.5354 35.1669 41.6713 35.1326C42.0088 35.0473 42.2748 35.4207 42.0817 35.7088L41.833 36.08C41.781 36.1576 41.7497 36.2472 41.7421 36.3402L41.6687 37.2441C41.6511 37.4603 41.651 37.6775 41.6684 37.8937L41.7381 38.7591L42.3825 42.6775L42.8303 46.4582C42.8355 46.5027 42.8716 46.5372 42.9165 46.5409C42.9756 46.5457 43.0245 46.4956 43.018 46.4369L42.3059 40.1008C42.2677 39.7603 42.2624 39.417 42.2901 39.0756L42.5038 36.4465C42.5136 36.3257 42.5618 36.2111 42.6413 36.1193L43.4077 35.234C43.5296 35.0933 43.7615 35.1899 43.7464 35.375L43.5259 36.4484C43.4611 36.764 43.4539 37.0888 43.5048 37.4071C43.5385 37.6179 43.5467 37.8319 43.5294 38.0446L43.4755 38.7088C43.4652 38.8355 43.4447 38.9611 43.4141 39.0845C43.2601 39.707 43.3659 40.3652 43.7076 40.9094L45.3898 43.5888L43.9191 40.9621C43.6814 40.5378 43.6667 40.0251 43.8797 39.5884C43.9606 39.4224 44.0098 39.243 44.0247 39.0591L44.1064 38.0544C44.153 37.4814 44.3298 36.9265 44.6235 36.4316L45.0697 35.6796L45.4146 35.1878C45.6058 34.9151 45.9283 34.764 46.2617 34.7911C46.4108 34.8033 46.5549 34.8506 46.682 34.9293L46.697 34.9386C47.0194 35.138 47.2028 35.4998 47.1723 35.876L47.1425 36.2423C47.1073 36.6748 47.4314 37.054 47.8664 37.0893L47.8857 37.0909C48.1038 37.1086 48.3053 37.2134 48.4446 37.3812L48.9232 37.9578C49.2569 38.3599 49.7644 38.5781 50.2873 38.5446C50.6271 38.5228 50.9653 38.6073 51.2545 38.7863L51.91 39.1918L53.3751 39.9353C53.5583 40.0283 53.7777 39.9067 53.7943 39.7028C53.8023 39.6035 53.7581 39.5071 53.6774 39.448L52.9503 38.916C52.9158 38.8907 52.8846 38.8613 52.8574 38.8285C52.7712 38.7247 52.7291 38.5917 52.74 38.4576L52.7448 38.3989C52.7603 38.2077 52.8963 38.0475 53.0832 38.0003C53.2526 37.9575 53.4316 38.0157 53.5429 38.1498L53.8214 38.4854C53.9385 38.6265 54.161 38.6092 54.2544 38.4517C54.2748 38.4173 54.2871 38.3788 54.2903 38.339L54.2969 38.2578C54.3099 38.0976 54.2596 37.9385 54.1567 37.8144L53.8495 37.4443C53.6951 37.2584 53.5799 37.0436 53.5106 36.8126L53.076 35.3644C53.0317 35.2168 53.0008 35.0655 52.9836 34.9125L52.9449 34.5683C52.9141 34.2941 52.8036 34.0346 52.6269 33.8218C52.4599 33.6205 52.2403 33.4689 51.9924 33.3835L51.6221 33.2561Z" fill="#A6A5A4"/>
</svg>
