<svg width="54" height="53" viewBox="0 0 54 53" fill="none" xmlns="http://www.w3.org/2000/svg">
<path d="M45.5554 5.92779L45.1274 6.43468C44.87 6.73948 44.4296 6.81014 44.0926 6.60072C43.8382 6.4426 43.5163 6.44076 43.2584 6.59594L43.1043 6.68868C42.9951 6.7544 42.8981 6.83864 42.8176 6.93757L42.6205 7.17962C42.244 7.64218 41.5847 7.75413 41.0809 7.44103C41.0012 7.39152 40.9159 7.35175 40.8267 7.32256L40.3616 7.17024C39.765 6.97488 39.2817 6.5324 39.0338 5.95462C38.8571 5.5428 38.5588 5.19559 38.1789 4.95949L37.4664 4.51673C37.1085 4.29424 36.781 4.02601 36.4922 3.71872L35.623 2.79353C35.4719 2.6327 35.3329 2.46078 35.2073 2.27917L34.4447 1.17626C34.351 1.04075 34.3073 0.876629 34.321 0.71186L34.3387 0.498433C34.3575 0.272832 34.2105 0.0676165 33.9916 0.0137604C33.6369 -0.0734649 33.3251 0.268873 33.4441 0.614816L33.6384 1.17934C33.6542 1.2253 33.6742 1.26966 33.6982 1.31185L34.0157 1.86988C34.4402 2.61584 34.9868 3.28457 35.6328 3.84827L37.1659 5.18617C37.2913 5.29563 37.3925 5.43012 37.4631 5.58115L37.9996 6.72876C38.117 6.97987 37.9366 7.27016 37.6595 7.27608C37.5857 7.27766 37.5132 7.25783 37.4507 7.21895L36.7597 6.78952C36.6171 6.70093 36.4676 6.62396 36.3127 6.55943L34.3408 5.73827L32.3685 5.19056L30.3029 4.74028C30.2028 4.71844 30.1344 4.62568 30.143 4.5231L30.2786 2.89589C30.2876 2.7878 30.1312 2.76397 30.1067 2.8697C30.1052 2.87618 30.103 2.88249 30.1001 2.88848L29.6448 3.82124C29.4097 4.3028 29.4796 4.87662 29.823 5.28447C29.9759 5.46603 30.1742 5.60358 30.3977 5.68321L31.1179 5.93979C31.5429 6.09118 31.9921 6.1638 32.4438 6.15416C32.9214 6.14396 33.3961 6.22579 33.8421 6.39521L34.9769 6.82631C35.0174 6.84172 35.0564 6.86104 35.0933 6.88394L36.4915 7.75289C36.653 7.85326 36.5837 8.10345 36.3933 8.10751C36.3564 8.1083 36.3201 8.09837 36.2888 8.07893L35.8362 7.79766C35.1815 7.39074 34.4239 7.17232 33.6518 7.16633C33.217 7.16295 32.7839 7.09245 32.3712 6.95728L31.4566 6.65783L30.1867 6.2054C29.9032 6.10441 29.655 5.92386 29.4715 5.68515L28.2593 4.10763C28.1774 4.00116 28.0143 4.00985 27.9431 4.12446C27.9085 4.18015 27.9043 4.24944 27.9319 4.3086L28.4456 5.40738C28.6636 5.87372 29.0245 6.2576 29.4758 6.50338L30.898 7.27782C31.4387 7.57227 32.0371 7.74585 32.6522 7.78672L33.9844 7.87523C34.0992 7.88286 34.2077 7.9297 34.2919 8.00795L35.1487 8.80472C35.4475 9.08255 35.1069 9.56261 34.7463 9.37193C34.6875 9.34083 34.6209 9.32727 34.5544 9.33289L24.314 10.1997C21.6159 10.4281 18.951 10.9649 16.3715 11.7996L14.7532 12.3232L11.1724 13.3702C9.60774 13.8277 8.09844 14.4598 6.67295 15.2545L5.96315 15.6503C4.80416 16.2965 3.73203 17.0889 2.77318 18.008L1.91925 18.8266C1.54578 19.1846 1.21862 19.5882 0.945443 20.0278L0.860953 20.1637C0.197107 21.2319 -0.0959838 22.4887 0.0274847 23.7377L0.0376421 23.8409C0.148914 24.9665 0.85943 25.9404 1.89463 26.3865C2.35114 26.5832 2.8486 26.6671 3.34528 26.6311L9.34617 26.1963C11.134 26.0668 12.9061 25.7645 14.6378 25.2938L17.6115 24.4854C21.3005 23.4826 24.8551 22.0307 28.1959 20.1624L32.6754 17.6574C32.7159 17.6347 32.7539 17.6076 32.7885 17.5766C33.3601 17.0648 34.1707 17.8237 33.7001 18.4299L32.152 20.4241L26.5105 26.9053C25.4242 28.1532 24.4909 29.5266 23.7305 30.9962C22.9627 32.48 22.3769 34.0508 21.9859 35.6741L20.9648 39.9138L19.6232 46.538L19.5535 47.3751C19.5074 47.928 19.7326 48.4675 20.157 48.8212C20.4112 49.0331 20.5976 49.315 20.6935 49.6325L20.8383 50.1119C21.1323 51.085 21.8487 51.8714 22.7886 52.2525C23.8235 52.6722 25.0011 52.5494 25.9328 51.9247L28.6665 50.0917C29.8027 49.3298 30.7645 48.3339 31.4873 47.1709L34.1231 42.9297C34.9435 41.6096 35.6693 40.233 36.2948 38.8103L37.9281 35.0955C38.4472 33.915 38.7862 32.6636 38.9338 31.3836L40.4656 18.1017C40.5411 17.4465 41.174 17.0045 41.8118 17.1614C43.5528 17.7962 45.142 18.7859 46.4797 20.0682L49.8138 23.2644C49.992 23.4009 50.2145 23.1598 50.0648 22.9924L45.9953 18.4411C45.9475 18.3876 45.8923 18.3413 45.8315 18.3035L44.6618 17.5765C44.502 17.4772 44.3505 17.3652 44.2087 17.2415L42.7931 16.0061C42.688 15.9144 42.6421 15.7718 42.6737 15.6353C42.7521 15.2961 43.2059 15.2304 43.3738 15.5338L43.5902 15.9247C43.6354 16.0065 43.7008 16.0753 43.78 16.1246L44.5503 16.6032C44.7345 16.7177 44.9276 16.8171 45.1279 16.9005L45.9293 17.2343L49.7087 18.4531L53.2757 19.7838C53.3177 19.7995 53.3649 19.7832 53.3886 19.745C53.42 19.6945 53.3978 19.6281 53.3426 19.6072L47.3822 17.3429C47.0619 17.2212 46.7542 17.0689 46.4633 16.8881L44.2229 15.4958C44.1199 15.4318 44.0401 15.3366 43.9948 15.2239L43.558 14.1375C43.4885 13.9647 43.6805 13.8026 43.8383 13.9007L44.6919 14.5877C44.943 14.7897 45.2285 14.9446 45.5348 15.0449C45.7378 15.1113 45.9319 15.2018 46.1131 15.3145L46.6791 15.6662C46.787 15.7333 46.8894 15.809 46.9852 15.8926C47.4683 16.3142 48.1021 16.5211 48.7422 16.4661L51.8944 16.1954L48.8859 16.3022C48.3998 16.3195 47.9371 16.098 47.6462 15.7089C47.5356 15.5611 47.3985 15.4353 47.2418 15.3379L46.3856 14.8058C45.8974 14.5024 45.4848 14.0914 45.179 13.6039L44.7143 12.8632L44.4346 12.3316C44.2795 12.0369 44.2927 11.6809 44.4692 11.3969C44.5482 11.2698 44.6562 11.1633 44.7843 11.0863L44.7994 11.0771C45.1242 10.8816 45.5298 10.884 45.8504 11.0832L46.1625 11.2772C46.5311 11.5062 47.0165 11.3914 47.2469 11.0207L47.2571 11.0043C47.3726 10.8185 47.5579 10.6871 47.7709 10.64L48.5025 10.478C49.0126 10.3651 49.4388 10.0136 49.6481 9.53328C49.7841 9.22114 50.014 8.95902 50.3054 8.78362L50.9657 8.38618L52.2969 7.42325C52.4635 7.30281 52.4556 7.0521 52.2819 6.94415C52.1973 6.89157 52.0913 6.88677 52.0018 6.93155L51.1962 7.33488C51.158 7.354 51.1176 7.3683 51.0759 7.37752C50.9442 7.40667 50.8066 7.3833 50.6923 7.31228L50.6423 7.28122C50.4794 7.17997 50.3992 6.98577 50.4426 6.79793C50.482 6.62774 50.6157 6.49514 50.7859 6.45747L51.2116 6.36332C51.3907 6.32369 51.477 6.11791 51.3797 5.9628C51.3584 5.92893 51.3298 5.90042 51.2958 5.87934L51.2267 5.83637C51.0901 5.7515 50.9256 5.72346 50.7682 5.7583L50.2986 5.86225C50.0627 5.91447 49.819 5.91874 49.5818 5.87475L48.0952 5.59894C47.9437 5.57084 47.795 5.52918 47.6511 5.4745L47.3273 5.35148C47.0693 5.25349 46.7881 5.23311 46.5179 5.2929C46.2626 5.34942 46.0273 5.47534 45.838 5.65681L45.5554 5.92779Z" fill="#A6A5A4"/>
</svg>
