<svg width="33" height="31" viewBox="0 0 33 31" fill="none" xmlns="http://www.w3.org/2000/svg">
<path d="M0.021327 23.397L0.458506 29.0039C0.516184 29.7437 1.18678 30.3826 2.06533 30.5349L2.29022 30.5739C2.95144 30.6885 3.59906 30.4431 3.90026 29.9638L4.79711 28.5368C5.10228 28.0512 5.98727 28.1613 6.18819 28.7098C6.42666 29.3608 7.53959 29.3477 7.6527 28.6926L8.30425 24.9185C8.37191 24.5266 8.65905 24.1962 9.07967 24.0263C9.42864 23.8853 9.80645 23.8726 10.1518 23.9567C11.3387 24.2455 11.4775 25.7905 11.7395 26.9839L11.8391 27.4371C12.0349 28.3287 12.0448 29.4451 12.8232 29.9218C13.3086 30.2191 14.1117 30.2119 14.6787 29.9787C15.2669 29.7369 15.3289 29.0099 15.3366 28.3738C15.3443 27.7376 15.3405 27.0815 15.5814 26.4928C15.8041 25.9483 16.2024 25.6465 17.0861 25.7996L17.1898 25.8176C18.4391 26.0341 19.3077 27.0441 19.13 28.0735C18.8499 29.6962 21.0458 30.9498 22.6856 30.1032L30.0195 26.3166C31.6777 25.4604 32.6793 23.9571 32.7053 22.2853L32.8788 11.137C32.8853 10.7182 32.6613 10.3073 32.2707 10.0211L31.622 9.54588C30.9112 9.02516 29.8405 9.31471 29.7114 10.0626C29.6198 10.5934 29.0233 10.9331 28.3791 10.8215L28.1261 10.7776C27.3421 10.6418 26.797 10.008 26.9085 9.36205L27.3654 6.71579C27.3948 6.54555 27.4052 6.37239 27.3967 6.19848L27.3252 4.74617C27.2614 3.4508 25.665 2.52242 24.2339 2.94838L24.1401 2.97629C23.6813 3.11285 23.3134 3.39329 23.1109 3.7609L22.0886 5.61658C21.6244 6.45917 20.0931 6.23191 19.8719 5.28761C19.8502 5.19486 19.8445 5.10087 19.8548 5.00852L19.9024 4.58399C20.4047 0.10061 12.8575 -1.84974 10.8003 2.23185L9.50207 4.80769L0.980004 19.2802C0.238934 20.5387 -0.091046 21.9557 0.021327 23.397Z" fill="#A6A5A4" fill-opacity="0.58"/>
</svg>
