<svg width="37" height="32" viewBox="0 0 37 32" fill="none" xmlns="http://www.w3.org/2000/svg">
<path d="M35.1422 14.2449L36.6906 8.83909C36.8949 8.1259 36.4897 7.29225 35.7199 6.8416L35.5228 6.72624C34.9434 6.38707 34.2511 6.38989 33.8016 6.73326L32.4631 7.75566C32.0076 8.10356 31.217 7.69019 31.2203 7.1059C31.2243 6.41244 30.1771 6.03452 29.8424 6.6086L27.9141 9.91573C27.7139 10.2591 27.3295 10.468 26.8762 10.4797C26.4998 10.4894 26.1411 10.3687 25.8468 10.1686C24.8369 9.48198 25.246 7.98635 25.4172 6.77656L25.4822 6.3174C25.6101 5.41329 25.9904 4.36364 25.4279 3.64437C25.077 3.19563 24.3219 2.92081 23.7093 2.94056C23.0742 2.96105 22.7622 3.62018 22.5328 4.21344C22.3034 4.80671 22.0779 5.42269 21.6467 5.88974C21.2479 6.3217 20.7694 6.46482 19.9951 6.01155L19.9042 5.95834C18.8095 5.31753 18.3484 4.06684 18.8743 3.16487C19.7034 1.74289 18.084 -0.201316 16.2523 0.0169341L8.05971 0.993057C6.20729 1.21377 4.74406 2.27092 4.13592 3.8279L0.080513 14.2108C-0.0718042 14.6008 -0.00551602 15.0642 0.260512 15.4693L0.70227 16.1419C1.1863 16.8789 2.29038 16.983 2.67248 16.3277C2.94367 15.8626 3.62113 15.7534 4.18562 16.0838L4.40733 16.2136C5.09426 16.6157 5.3836 17.4006 5.05359 17.9666L3.70156 20.2854C3.61458 20.4346 3.5443 20.5931 3.49159 20.759L3.05146 22.1446C2.65889 23.3805 3.83013 24.8098 5.31954 24.9125L5.41714 24.9192C5.89465 24.9522 6.33718 24.8184 6.65527 24.545L8.26093 23.1651C8.99 22.5385 10.3452 23.2882 10.2226 24.2504C10.2106 24.3449 10.1832 24.4349 10.1412 24.5178L9.94843 24.8988C7.91225 28.9227 14.3014 33.3957 17.6538 30.2933L19.7695 28.3354L32.8066 17.7654C33.9403 16.8462 34.7442 15.6345 35.1422 14.2449Z" fill="#A6A5A4" fill-opacity="0.58"/>
</svg>
