<svg width="31" height="33" viewBox="0 0 31 33" fill="none" xmlns="http://www.w3.org/2000/svg">
<path d="M1.94186 4.21818L0.382298 5.80655C-0.31999 6.64198 -0.0167521 7.91943 0.986301 8.35104L3.64615 9.49557L8.39047 10.8991C8.59741 10.9603 8.79943 11.0371 8.99482 11.1288L10.6854 11.9224C11.6269 12.3643 12.1052 13.4277 11.8113 14.4251C10.9811 17.2426 9.83985 19.9585 8.40862 22.5227L7.65168 23.8788L6.89676 25.2545C5.67155 27.4871 6.47361 30.2922 8.69434 31.5413C10.1077 32.3362 11.8324 32.3364 13.2445 31.5418L14.2385 30.9825C16.2959 29.8247 17.5874 27.6643 17.6342 25.302L17.7067 21.6384C17.7179 21.0707 17.8049 20.5072 17.9654 19.9627L18.476 18.2298C19.0582 16.2538 20.979 14.9863 23.0243 15.2283L27.2068 15.4913C28.8426 15.5942 30.2277 14.3012 30.2383 12.6613C30.2423 12.0425 30.0454 11.4389 29.6771 10.9414L26.9746 7.29005C24.845 4.41282 21.8371 2.30734 18.4063 1.29239L15.9968 0.579576C15.0918 0.311824 14.1622 0.135588 13.2221 0.0535156C9.02781 -0.31267 4.89092 1.21466 1.94186 4.21818Z" fill="#A6A5A4" fill-opacity="0.58"/>
</svg>
