<svg width="48" height="43" viewBox="0 0 48 43" fill="none" xmlns="http://www.w3.org/2000/svg">
<path d="M33.0874 24.9411L33.0803 24.838C33.0087 23.7941 33.7143 22.8559 34.737 22.635C34.9707 22.5845 35.2113 22.5742 35.4485 22.6045L35.7666 22.6451C36.2142 22.7022 36.6683 22.6828 37.1095 22.5875L37.6672 22.467C38.2685 22.3371 38.8891 22.3238 39.4954 22.4277C39.8565 22.4895 40.2234 22.51 40.5892 22.4885L40.8322 22.4743C41.6662 22.4254 42.5022 22.5277 43.2999 22.7761L43.5692 22.8599L45.1389 23.188L47.3761 23.7725C47.6023 23.8316 47.8389 23.7235 47.9423 23.5137C48.0488 23.2975 47.9831 23.036 47.7872 22.8957L47.6555 22.8015C47.6084 22.7678 47.5572 22.7402 47.5031 22.7194L46.3843 22.2892C45.9859 22.136 45.5673 22.0417 45.1417 22.0092L44.5812 21.9663C44.1467 21.9331 43.7296 21.7815 43.3753 21.5278C42.9525 21.2253 42.4425 21.0692 41.9228 21.0833L36.0314 21.2436L34.7501 21.4064C33.6401 21.5474 32.5366 21.1017 31.8359 20.2294L31.5305 19.8453C30.8473 18.986 29.6673 18.7015 28.6676 19.1551L27.4331 19.5703C27.2639 19.6272 27.0771 19.5798 26.9555 19.4493C26.767 19.2471 26.8011 18.9248 27.0277 18.7665L27.5829 18.3787L29.7542 16.9495C30.633 16.4465 31.6921 16.3676 32.6357 16.7351L33.5813 17.1033L35.7876 17.688L36.7524 17.9575C37.0196 18.0321 37.2949 18.0739 37.5722 18.0818L38.3105 18.1028C38.5004 18.1082 38.6876 18.0574 38.8487 17.9568L39.1345 17.7782C39.3442 17.6472 39.437 17.3897 39.359 17.1551C39.2837 16.9284 39.0675 16.7789 38.8288 16.7887L37.3484 16.8491C37.0297 16.8621 36.7116 16.8141 36.411 16.7077L34.1174 15.8959L32.2222 15.5094C31.6758 15.398 31.1152 15.3743 30.5614 15.4393C29.6996 15.5403 28.8763 15.8532 28.1649 16.3501L27.4413 16.8557C27.334 16.9307 27.235 17.0169 27.146 17.1129L26.2898 18.0367C26.0443 18.3015 25.6274 18.3079 25.374 18.0507C25.2468 17.9217 25.181 17.7443 25.1931 17.5636L25.3273 15.5709L25.5777 13.8588C25.6911 13.0836 25.6952 12.2964 25.59 11.5201L25.4649 10.5962C25.3766 9.94515 25.1416 9.32268 24.7775 8.77583L24.7178 8.68614C24.2923 8.04711 24.0612 7.29845 24.0524 6.53077L24.051 6.4119C24.0472 6.07424 24.0964 5.73809 24.197 5.41575L24.381 4.82647C24.4917 4.47167 24.7259 4.1683 25.0411 3.97138L25.5267 3.66804C25.6598 3.58486 25.7431 3.44113 25.7491 3.28427C25.7619 2.94458 25.4234 2.70229 25.106 2.82403L24.2663 3.14617C24.0712 3.22101 23.9023 3.35149 23.7807 3.52143L23.3875 4.0708C23.1485 4.40471 22.9735 4.7801 22.8716 5.17787L22.6245 6.14153C22.4175 6.94894 22.6251 7.80644 23.1785 8.42974C23.5469 8.84462 23.7673 9.36992 23.8053 9.92342L23.8421 10.4603C23.8645 10.787 23.9261 11.1097 24.0255 11.4217L24.1917 11.943C24.4175 12.6513 24.5185 13.3934 24.4903 14.1363L24.4659 14.7796C24.4616 14.8926 24.4431 15.0046 24.4107 15.1129L24.1618 15.9465C24.02 16.4215 23.4526 16.6157 23.0494 16.3271L22.8746 16.202C22.6468 16.0389 22.5943 15.7221 22.7573 15.4943C22.8105 15.4199 22.8427 15.3326 22.8503 15.2416L23.1228 12.0041L23.147 11.8383C23.2676 11.0142 23.0991 10.1737 22.6701 9.45971C22.4164 9.03725 22.0787 8.6713 21.6779 8.38446L20.2244 7.34409L18.7405 6.37012C17.5025 5.55755 16.1662 4.90565 14.7638 4.43009L13.9643 4.23683C13.4159 4.10427 12.9711 3.70449 12.7809 3.17327C12.7291 3.02837 12.6974 2.87702 12.6869 2.72348L12.631 1.90911L12.4707 0.726075C12.4397 0.49716 12.3156 0.291178 12.1278 0.156725C11.7512 -0.112853 11.2273 -0.0260655 10.9577 0.350567L10.9118 0.414679C10.8297 0.529472 10.7751 0.661677 10.7524 0.801006L10.74 0.876774C10.678 1.25708 10.7955 1.64467 11.0582 1.92656L11.3542 2.24418C11.6166 2.52574 11.7979 2.8731 11.8787 3.24939L12.0997 4.27768C12.1705 4.60716 12.3616 4.89841 12.6356 5.09455C12.713 5.14998 12.7961 5.1971 12.8835 5.2351L14.1648 5.79269C14.64 5.99948 15.1301 6.16999 15.6311 6.30275C16.5951 6.55825 17.5168 6.95288 18.367 7.47419L19.0231 7.87646L20.0285 8.59613C20.6481 9.03956 21.1342 9.64432 21.4342 10.3447C21.6185 10.775 21.7289 11.2333 21.761 11.7004L21.8991 13.7138L21.9349 14.2356C21.9549 14.5281 21.5574 14.6347 21.4284 14.3714L19.4978 11.4498C18.7958 10.3875 17.905 9.46284 16.8696 8.72174C15.4076 7.67529 13.6996 7.02501 11.9119 6.83415L10.7083 6.70566C10.283 6.66025 9.85338 6.67542 9.43231 6.75071L9.29057 6.77605C8.22042 6.96739 7.26737 7.56923 6.63464 8.45324C5.78635 9.6384 5.61868 11.1806 6.19245 12.5203L6.98776 14.3774L7.42223 15.1116C8.2096 16.4421 9.31018 17.5601 10.6282 18.3682L11.1002 18.6576C12.0197 19.2214 13.0557 19.5681 14.1293 19.6712L15.8573 19.8372C15.9691 19.848 16.0761 19.888 16.1675 19.9534C16.6461 20.296 16.4445 21.0489 15.8587 21.1065L14.3704 21.2527L12.8486 21.5349C12.1289 21.6684 11.3859 21.5031 10.7906 21.077C10.6168 20.9526 10.4584 20.808 10.3188 20.6461L8.73596 18.8109L6.74035 16.7858L5.89733 15.8996C5.30041 15.2722 4.47029 14.9199 3.60426 14.9265C3.40994 14.928 3.21619 14.9476 3.0255 14.985L2.1146 15.1636C1.89939 15.2058 1.67668 15.1875 1.47126 15.1106L1.22677 15.0191C0.869286 14.8854 0.466521 15.0081 0.244367 15.3185L0.107157 15.5102C-0.0769974 15.7675 -0.0177109 16.1253 0.239574 16.3095C0.358393 16.3945 0.50522 16.431 0.650014 16.4113L2.05977 16.2201L2.92468 16.225C3.63758 16.229 4.33169 16.454 4.91141 16.869C5.32473 17.1648 5.66751 17.5484 5.9152 17.9922L6.1859 18.4773C6.61184 19.2406 7.20131 19.9002 7.91208 20.4089L10.4124 22.1986C11.6566 23.0891 13.2175 23.4165 14.7146 23.1009L15.5712 22.9204C16.0075 22.8284 16.4285 22.6753 16.8219 22.4654L19.0729 21.2647C19.2813 21.1536 19.5347 21.1702 19.7268 21.3077C20.0603 21.5464 20.075 22.037 19.7564 22.2953L19.6531 22.379C19.6229 22.4035 19.5908 22.4255 19.557 22.4448L18.2182 23.2112L16.7844 23.8466C16.14 24.1322 15.5247 24.4792 14.947 24.8828L14.2489 25.3705C13.9819 25.557 13.6932 25.7102 13.3892 25.8268L12.7138 26.0859C12.277 26.2535 11.7953 26.263 11.3522 26.1127C11.1075 26.0298 10.8492 25.9949 10.5913 26.01L10.365 26.0232C10.0924 26.0392 9.82301 26.0904 9.56355 26.1755L8.64203 26.4777C8.37527 26.5652 8.12393 26.6941 7.89723 26.8597L6.41053 27.9457C6.27361 28.0457 6.22389 28.227 6.29064 28.3829C6.40231 28.6436 6.75611 28.6821 6.9212 28.4515L7.18919 28.077C7.26023 27.9778 7.35885 27.9016 7.4728 27.8579L8.74564 27.3696C8.98631 27.2773 9.23392 27.2042 9.48615 27.151L10.4015 26.9581C10.8159 26.8708 11.2473 26.9171 11.6337 27.0906C12.1985 27.344 12.8488 27.3219 13.3951 27.0305L14.1213 26.6431L17.1173 25.2077L20.0049 23.6945L21.4859 22.8331C21.6108 22.7605 21.7668 22.7678 21.8843 22.852C22.0249 22.9526 22.0762 23.1375 22.0078 23.2962L21.0028 25.6244C20.9204 25.8152 20.8552 26.013 20.8078 26.2154L20.7109 26.6292C20.508 27.4954 20.5551 28.4014 20.8468 29.2419C20.9772 29.6175 21.1546 29.975 21.3749 30.3059L22.3081 31.7074L22.7917 32.3366C22.9216 32.5056 23.0757 32.6546 23.2491 32.7786C23.7075 33.1068 24.0202 33.6005 24.1208 34.1553L24.2223 34.7146C24.2708 34.982 24.3665 35.2385 24.5049 35.4724L24.9436 36.2138C25.0494 36.3925 25.2357 36.5084 25.4427 36.5242C25.6279 36.5383 25.8101 36.4708 25.9414 36.3394L25.9798 36.3008C26.184 36.0964 26.2535 35.7932 26.1588 35.5203L25.7843 34.4411C25.709 34.2242 25.6051 34.0183 25.4753 33.8289L25.0694 33.2366C24.9379 33.0446 24.8601 32.8209 24.8442 32.5887C24.8228 32.2777 24.6908 31.9846 24.472 31.7626L23.7307 31.0104C23.5643 30.8416 23.4127 30.6588 23.2775 30.4642L22.8086 29.789C22.3518 29.1314 22.1055 28.3505 22.1024 27.5497L22.1018 27.3919C22.1012 27.2533 22.1135 27.115 22.1384 26.9787L22.7021 23.8943C22.7365 23.7063 22.9547 23.6181 23.11 23.7293C23.1732 23.7745 23.2129 23.8457 23.2183 23.9233L23.3175 25.3694C23.3856 26.3627 23.894 27.2737 24.7036 27.8532L24.9437 28.025L25.9511 28.7461C26.1455 28.8852 26.3649 28.9856 26.5972 29.0418C27.3868 29.2326 27.9615 29.9134 28.0171 30.7239L28.0509 31.2176C28.0617 31.3748 28.0871 31.5307 28.1268 31.6832L29.064 35.2821C29.3319 36.311 29.7297 37.3017 30.2479 38.2301L30.368 38.4453C30.6296 38.9142 30.9302 39.3603 31.2665 39.779L31.4966 40.0653C31.7575 40.3901 31.9842 40.741 32.173 41.1123L32.736 42.2197C32.8062 42.3578 32.9086 42.4769 33.0345 42.567L33.2963 42.7544C33.5851 42.9611 33.9867 42.8946 34.1934 42.6058C34.3131 42.4385 34.3456 42.2241 34.2807 42.0289L34.1841 41.7379C34.1442 41.6179 34.0863 41.5046 34.0124 41.4021L32.642 39.5017L31.7025 37.8348C30.9253 36.4864 30.3281 35.0419 29.9263 33.5383L29.349 31.3786C29.305 31.2137 29.2769 31.045 29.2652 30.8748C29.1968 29.877 29.6949 28.9255 30.5537 28.4132L31.0764 28.1014C31.5076 27.8442 31.881 27.5007 32.1733 27.0924L32.6768 26.3889C32.9776 25.9686 33.1228 25.4568 33.0874 24.9411Z" fill="#A6A5A4"/>
</svg>
