<svg width="130" height="142" viewBox="0 0 130 142" fill="none" xmlns="http://www.w3.org/2000/svg">
<g filter="url(#filter0_dg_1208_163)">
<path d="M17.027 7.47665H21.0391C23.3039 7.47665 25.3242 8.86382 26.0859 10.9419C26.8477 13.02 28.868 14.4071 31.1328 14.4071H41.83C44.5396 14.4071 46.7752 12.3407 46.9176 9.70432C47.06 7.06797 49.2955 5.00146 52.0051 5.00146H53.2351C55.986 5.00146 58.4282 6.71652 59.2981 9.25919L60.7744 13.5741C61.5149 15.7385 61.6351 18.0587 61.1222 20.2848L60.3639 23.5762C57.953 34.0397 62.7575 44.822 72.2499 50.2505L76.8565 52.8849C78.7403 53.9622 80.5083 55.221 82.1339 56.6424L96.9229 69.5735C98.6418 71.0765 100.473 72.4531 102.401 73.6921L115.917 82.3779C120.579 85.3741 123.385 90.4518 123.385 95.8936C123.385 102.072 119.776 107.712 114.082 110.432L104.498 115.009C99.8755 117.217 94.7961 118.364 89.6484 118.364H79.6531C73.1105 118.364 66.775 120.599 61.7489 124.68L56.8308 128.673C53.3011 131.539 48.6107 132.656 44.1222 131.699C38.5326 130.508 34.1388 126.3 32.8201 120.875L31.7748 116.575C30.8775 112.884 28.9897 109.491 26.3046 106.744C22.4134 102.763 20.2429 97.4768 20.2429 91.9794V88.038C20.2429 83.57 19.1352 79.1681 17.0139 75.2068L15.797 72.9344C14.709 70.9026 13.1848 69.1227 11.3281 67.7157C7.33551 64.6901 5.00024 60.038 5.00024 55.1099V49.7675C5.00024 46.7427 6.03984 43.805 7.95322 41.4229C11.6492 36.8217 11.8988 30.4294 8.57226 25.5679L7.82018 24.4688C6.02795 21.8495 5.49427 18.5597 6.33424 15.52C7.63343 10.8184 12.0297 7.47665 17.027 7.47665Z" fill="#D8D8D8" shape-rendering="crispEdges"/>
<path d="M21.0391 8.47665C21.0391 7.80999 21.0391 7.14332 21.0391 6.47665C19.7017 6.47665 18.3644 6.47665 17.027 6.47665C11.7759 6.41189 6.72685 10.1364 5.37037 15.2536C5.17095 15.9751 5.04099 16.7153 4.98221 17.461C4.76784 20.1151 5.48379 22.8348 6.99488 25.0335C7.24557 25.3998 7.49627 25.7662 7.74696 26.1326C10.8048 30.4534 10.5537 36.7227 7.17359 40.7967C5.14411 43.3094 3.99179 46.5284 4.00024 49.7675C4.00024 51.5483 4.00024 53.3291 4.00024 55.1099C3.96858 60.314 6.57794 65.4127 10.7242 68.5127C12.4519 69.8203 13.8957 71.4993 14.9155 73.4065C15.3211 74.164 15.7267 74.9214 16.1324 75.6789C18.1631 79.4618 19.2473 83.7465 19.2429 88.038C19.2429 89.3518 19.2429 90.6656 19.2429 91.9794C19.2213 97.7067 21.5816 103.375 25.5895 107.443C28.1235 110.029 29.9534 113.297 30.8031 116.811C31.1515 118.245 31.5 119.678 31.8484 121.111C33.1967 126.888 38.1555 131.511 43.9138 132.677C48.6074 133.699 53.7335 132.502 57.4611 129.449C59.1005 128.118 60.7398 126.787 62.3792 125.456C67.205 121.521 73.4233 119.351 79.6531 119.364C82.9848 119.364 86.3166 119.364 89.6484 119.364C94.9132 119.367 100.177 118.184 104.929 115.911C108.123 114.386 111.318 112.86 114.513 111.334C120.361 108.62 124.451 102.394 124.385 95.8936C124.428 90.158 121.277 84.5793 116.457 81.5366C111.952 78.6414 107.447 75.7461 102.941 72.8508C101.059 71.6411 99.2653 70.2934 97.5811 68.8207C92.6515 64.5103 87.7218 60.2 82.7922 55.8896C81.1136 54.4217 79.2879 53.1232 77.353 52.0168C75.8174 51.1387 74.2819 50.2605 72.7463 49.3824C63.9149 44.5158 58.9226 33.6105 61.3383 23.8008C61.5911 22.7036 61.8439 21.6065 62.0967 20.5093C62.6516 18.1179 62.5185 15.571 61.7205 13.2504C61.2285 11.8121 60.7364 10.3738 60.2443 8.93548C59.2734 5.99309 56.2822 3.96251 53.2351 4.00146C52.8251 4.00146 52.4151 4.00146 52.0051 4.00146C48.9451 3.92993 46.0283 6.51138 45.919 9.65037C45.8542 11.7044 43.9146 13.4549 41.83 13.4071C40.7291 13.4071 39.6283 13.4071 38.5274 13.4071C36.0625 13.4071 33.5977 13.4071 31.1328 13.4071C29.3465 13.4295 27.6112 12.2602 27.0249 10.5977C26.1478 8.12698 23.6142 6.44552 21.0391 6.47665C21.0391 7.14332 21.0391 7.80999 21.0391 8.47665C22.8254 8.45431 24.5606 9.62361 25.147 11.2861C26.024 13.7568 28.5576 15.4383 31.1328 15.4071C33.5977 15.4071 36.0625 15.4071 38.5274 15.4071C39.6283 15.4071 40.7291 15.4071 41.83 15.4071C44.89 15.4787 47.8069 12.8973 47.9161 9.75826C47.9809 7.70427 49.9206 5.95365 52.0051 6.00146C52.4151 6.00146 52.8251 6.00146 53.2351 6.00146C55.4798 5.97204 57.659 7.47057 58.352 9.58289C58.8441 11.0212 59.3361 12.4595 59.8282 13.8978C60.5061 15.8699 60.6188 18.0295 60.1478 20.0603C59.895 21.1574 59.6422 22.2546 59.3894 23.3517C56.7621 34.0157 62.2009 45.8597 71.7535 51.1186C73.289 51.9967 74.8246 52.8748 76.3601 53.753C78.1807 54.794 79.8977 56.0153 81.4757 57.3952C86.4053 61.7056 91.335 66.016 96.2646 70.3263C98.0231 71.864 99.8954 73.2709 101.86 74.5334C106.365 77.4286 110.871 80.3239 115.376 83.2192C119.651 85.9193 122.423 90.8443 122.385 95.8936C122.443 101.615 118.844 107.117 113.651 109.529C110.456 111.055 107.261 112.581 104.067 114.107C99.5854 116.25 94.6176 117.367 89.6484 117.364C86.3166 117.364 82.9848 117.364 79.6531 117.364C72.9739 117.35 66.3049 119.676 61.1186 123.904C59.4792 125.235 57.8398 126.566 56.2004 127.897C52.9461 130.564 48.446 131.618 44.3307 130.721C39.2794 129.698 34.9599 125.651 33.7918 120.639C33.4434 119.206 33.0949 117.772 32.7465 116.339C31.8116 112.472 29.7989 108.881 27.0198 106.045C23.3657 102.336 21.2236 97.1819 21.2429 91.9794C21.2429 90.6656 21.2429 89.3518 21.2429 88.038C21.2477 83.4166 20.0796 78.8032 17.8955 74.7347C17.4899 73.9773 17.0842 73.2198 16.6786 72.4623C15.5212 70.2978 13.885 68.3967 11.9321 66.9187C8.2638 64.1747 5.97278 59.6837 6.00024 55.1099C6.00024 53.3291 6.00024 51.5483 6.00024 49.7675C5.99324 46.9853 6.9816 44.218 8.73286 42.0492C12.6547 37.3305 12.9493 30.0135 9.39755 25.0032C9.14686 24.6368 8.89617 24.2704 8.64547 23.904C7.39392 22.0838 6.79766 19.8229 6.97602 17.6182C7.02483 16.999 7.13272 16.3848 7.29812 15.7863C8.41168 11.5542 12.6433 8.41659 17.027 8.47665C18.3644 8.47665 19.7017 8.47665 21.0391 8.47665Z" fill="#989694" fill-opacity="0.1"/>
</g>
<defs>
<filter id="filter0_dg_1208_163" x="0" y="0" width="129.386" height="141.035" filterUnits="userSpaceOnUse" color-interpolation-filters="sRGB">
<feFlood flood-opacity="0" result="BackgroundImageFix"/>
<feColorMatrix in="SourceAlpha" type="matrix" values="0 0 0 0 0 0 0 0 0 0 0 0 0 0 0 0 0 0 127 0" result="hardAlpha"/>
<feOffset dx="1" dy="4"/>
<feGaussianBlur stdDeviation="2"/>
<feComposite in2="hardAlpha" operator="out"/>
<feColorMatrix type="matrix" values="0 0 0 0 0 0 0 0 0 0 0 0 0 0 0 0 0 0 0.25 0"/>
<feBlend mode="normal" in2="BackgroundImageFix" result="effect1_dropShadow_1208_163"/>
<feBlend mode="normal" in="SourceGraphic" in2="effect1_dropShadow_1208_163" result="shape"/>
<feTurbulence type="fractalNoise" baseFrequency="0.99900001287460327 0.99900001287460327" numOctaves="3" seed="5591" />
<feDisplacementMap in="shape" scale="8" xChannelSelector="R" yChannelSelector="G" result="displacedImage" width="100%" height="100%" />
<feMerge result="effect2_texture_1208_163">
<feMergeNode in="displacedImage"/>
</feMerge>
</filter>
</defs>
</svg>
