<svg width="273" height="337" viewBox="0 0 273 337" fill="none" xmlns="http://www.w3.org/2000/svg">
<g filter="url(#filter0_dg_1216_4)">
<path d="M86.6522 53.0837L58.4284 16.5058C56.5851 14.1168 54.3629 12.0201 51.8429 10.2921C32.2369 -3.15193 5.0033 10.3023 5.0033 33.4323V181.351C5.0033 188.395 11.716 193.678 18.9108 192.296C24.3456 191.253 28.2577 186.672 28.2577 181.351V178.933C28.2577 177.721 28.0951 176.514 27.7737 175.341L25.6739 167.681C23.9585 161.423 23.0901 154.98 23.0901 148.509V121.785C23.0901 119.975 23.2727 118.17 23.6355 116.394L26.4029 102.845C27.4805 97.5688 32.2973 93.7633 37.8974 93.7633C42.6871 93.7633 46.9942 96.5627 48.773 100.832L50.3481 104.612C51.4515 107.26 51.854 110.129 51.5198 112.963L48.9283 134.939V150.286C48.9283 158.216 49.9188 166.118 51.8784 173.822L59.7804 204.888L63.8013 232.531C65.5646 244.622 70.7921 256.006 78.9007 265.412L79.6122 266.423C85.3472 274.58 98.2029 273.444 102.29 264.419C102.885 263.106 103.239 261.705 103.339 260.277L105.256 232.669L103.662 207.811C103.381 203.428 106.132 199.387 110.427 197.875C115.192 196.198 120.519 198.086 123.007 202.331L130.787 215.609C132.02 217.713 132.963 219.963 133.591 222.301L135.813 230.566C136.454 232.951 136.778 235.404 136.778 237.867V238.867C136.778 244.813 138.873 250.583 142.721 255.242C145.156 258.188 146.888 261.58 147.833 265.18C148.899 269.243 150.16 273.372 152.883 276.57C158.638 281.937 161.788 286.385 159.833 291.052C158.804 293.507 157.512 295.944 157.512 298.607C157.512 300.374 157.553 302.216 157.453 303.98C157.11 310.032 155.927 324.227 156.23 324.625C161.066 330.977 172.093 327.221 177.888 321.658C179.468 320.141 182.937 296.52 183.567 294.462C185.406 288.462 185.33 282.071 183.351 276.113L178.952 262.866C176.627 255.865 179.442 248.235 185.839 244.199C193.389 239.436 200.744 252.251 205.286 259.937L215.521 277.255C219.03 283.192 225.312 286.941 232.202 287.211C235.038 287.322 238.184 287.103 238.195 284.265C238.224 277.096 234.397 260.328 236.503 256.879C238.764 253.177 249.273 244.644 253.656 245.486L260.693 246.837C263.957 247.464 267.003 245.066 267.003 241.87C267.003 239.107 263.74 238.092 260.977 238.067L248.614 237.955C242.342 237.898 236.222 236.019 230.999 232.548L226.644 229.653C221.688 226.359 218.384 221.097 217.571 215.201C216.662 208.61 211.851 201.59 205.933 204.633C204.631 205.302 203.458 206.241 202.511 207.43C201.759 208.374 201.184 209.437 200.813 210.571L198.26 218.37C196.633 223.338 192.768 227.342 187.731 229.276C180.213 232.163 171.613 229.897 166.684 223.731L157.966 212.826L139.362 190.502L132.666 183.89C126.527 177.828 127.077 168.028 133.858 162.634L134.697 161.966C137.65 159.617 141.545 158.664 145.308 159.369L149.795 160.21C155.368 161.254 160.55 157.156 160.55 151.705C160.55 148.686 158.913 145.885 156.23 144.311L142.086 136.013C135.916 132.394 130.93 127.182 127.696 120.973L123.806 113.505C122.122 110.271 120.717 106.91 119.604 103.456L118.833 101.061C114.652 88.0739 107.664 76.079 98.3263 65.8597L86.6522 53.0837Z" fill="#D8D8D8" shape-rendering="crispEdges"/>
<path d="M59.2201 15.8949C58.6923 16.3021 58.1645 16.7094 57.6367 17.1167C67.0446 29.3093 76.4526 41.502 85.8605 53.6946L85.914 53.7583C89.8053 58.017 93.6967 62.2756 97.588 66.5343C99.5432 68.6741 101.402 70.9007 103.156 73.2073C109.603 81.6779 114.623 91.2357 117.882 101.368C118.139 102.166 118.396 102.964 118.653 103.762C119.784 107.277 121.214 110.694 122.919 113.967C124.216 116.456 125.512 118.946 126.809 121.435C130.14 127.851 135.357 133.236 141.58 136.876C146.295 139.642 151.009 142.408 155.724 145.174C158.034 146.502 159.572 149.063 159.55 151.705C159.687 156.445 154.606 160.254 149.979 159.227C148.484 158.947 146.988 158.667 145.492 158.386C141.524 157.629 137.245 158.646 134.075 161.184C133.795 161.406 133.515 161.628 133.236 161.851C126.163 167.056 125.471 178.645 131.964 184.601C134.196 186.805 136.428 189.009 138.66 191.213L138.594 191.142C144.795 198.583 150.996 206.025 157.198 213.466L157.185 213.45C160.091 217.085 162.997 220.72 165.902 224.355C171.011 230.87 180.458 233.236 188.09 230.21C193.239 228.264 197.506 223.969 199.21 218.681C200.061 216.082 200.912 213.482 201.763 210.882C202.098 209.859 202.62 208.897 203.293 208.053C204.128 207.003 205.192 206.137 206.39 205.522C211.608 202.686 215.946 209.977 216.58 215.338C217.394 221.438 220.95 227.103 226.091 230.486C227.542 231.451 228.994 232.416 230.446 233.381C235.79 236.943 242.182 238.906 248.605 238.955C252.726 238.992 256.847 239.03 260.967 239.067C263.305 239.058 266.125 239.999 266.003 241.87C266.082 244.373 263.366 246.419 260.881 245.855C258.536 245.404 256.19 244.954 253.844 244.504C245.501 245.327 240.46 250.641 235.65 256.358C233.538 266.585 237.173 275.189 237.195 284.261C237.403 286.077 234.606 286.331 232.242 286.211C225.806 286.006 219.618 282.313 216.382 276.747C212.97 270.974 209.558 265.201 206.147 259.428C203.805 255.47 201.456 251.428 198.391 247.803C196.845 246.013 195.125 244.27 192.859 243.101C190.656 241.865 187.466 241.851 185.305 243.354C178.787 247.288 175.443 255.912 178.003 263.181C179.469 267.597 180.936 272.012 182.402 276.428C184.31 282.131 184.385 288.423 182.611 294.169C180.724 303.327 179.666 313.245 177.195 320.937C171.895 325.912 161.935 329.972 157.026 324.019C157.519 318.542 158.01 310.724 158.452 304.036C158.555 302.193 158.512 300.383 158.512 298.607C158.503 296.252 159.706 293.923 160.756 291.438C163.346 284.634 157.36 279.63 153.565 275.839L153.645 275.922C151.082 272.919 149.848 268.93 148.8 264.926C147.812 261.15 145.976 257.606 143.492 254.605C139.848 250.219 137.762 244.564 137.778 238.867C137.778 238.534 137.778 238.201 137.778 237.867C137.779 235.317 137.441 232.768 136.779 230.306C136.038 227.551 135.297 224.796 134.557 222.041C133.904 219.611 132.921 217.272 131.65 215.103C129.056 210.677 126.463 206.252 123.87 201.826C121.201 197.149 115.069 195.102 110.095 196.932C105.614 198.422 102.286 203.067 102.664 207.875C103.195 216.161 103.727 224.447 104.258 232.733L104.258 232.6C103.619 241.803 102.98 251.005 102.341 260.207C102.251 261.517 101.922 262.809 101.379 264.006C98.0527 272.189 85.1964 273.255 80.4302 265.848C80.193 265.511 79.9559 265.174 79.7188 264.836L79.6581 264.759C71.7821 255.652 66.5098 244.303 64.7908 232.387C63.4506 223.173 62.1103 213.958 60.77 204.744L60.7496 204.642C58.1155 194.286 55.4815 183.931 52.8475 173.576C50.9126 165.973 49.9272 158.13 49.9283 150.286C49.9283 145.17 49.9283 140.055 49.9283 134.939L49.9215 135.056C50.7853 127.731 51.6491 120.406 52.513 113.08C52.8698 110.087 52.4329 107.005 51.2712 104.228C50.7462 102.967 50.2211 101.707 49.6961 100.447C47.7943 95.7708 42.8613 92.7105 37.8974 92.7633C32.16 92.6643 26.5203 96.8772 25.4231 102.644C24.5007 107.161 23.5782 111.677 22.6558 116.193C22.2801 118.032 22.0899 119.909 22.0901 121.785C22.0901 130.693 22.0901 139.601 22.0901 148.509C22.0889 155.066 22.9749 161.623 24.7095 167.946C25.4094 170.499 26.1094 173.052 26.8093 175.606C27.1064 176.689 27.2579 177.811 27.2577 178.933C27.2577 179.739 27.2577 180.545 27.2577 181.351C27.3386 186.14 23.4514 190.498 18.7222 191.314C12.5947 192.705 5.82335 187.667 6.0033 181.351C6.0033 132.045 6.0033 82.7385 6.0033 33.4323C6.0033 33.1894 6.00641 32.9476 6.01258 32.707C5.75981 11.1039 34.397 -1.71933 51.2773 11.1168C53.6925 12.7721 55.8506 14.8009 57.6367 17.1167C58.1645 16.7094 58.6923 16.3021 59.2201 15.8949C57.3043 13.4109 54.9922 11.2383 52.4084 9.46736C34.3644 -4.21596 3.81621 9.37054 4.01324 32.6557C4.00662 32.9134 4.0033 33.1723 4.0033 33.4323C4.0033 82.7385 4.0033 132.045 4.0033 181.351C3.81438 188.996 11.8872 194.916 19.0994 193.278C24.674 192.321 29.3497 187.141 29.2577 181.351C29.2577 180.545 29.2577 179.739 29.2577 178.933C29.258 177.632 29.0821 176.331 28.7382 175.077C28.0382 172.524 27.3383 169.97 26.6383 167.417C24.9507 161.265 24.0889 154.887 24.0901 148.509C24.0901 139.601 24.0901 130.693 24.0901 121.785C24.0899 120.043 24.2664 118.301 24.6153 116.594C25.5378 112.077 26.4602 107.561 27.3827 103.045C28.2843 98.2599 33.0198 94.6789 37.8974 94.7633C42.1146 94.7171 46.2724 97.3234 47.8499 101.217C48.375 102.477 48.9 103.737 49.425 104.997C50.4564 107.464 50.8428 110.193 50.5267 112.846C49.6629 120.171 48.7991 127.497 47.9352 134.822L47.9283 134.939C47.9283 140.055 47.9283 145.17 47.9283 150.286C47.9272 158.296 48.9335 166.306 50.9092 174.069C53.5432 184.424 56.1773 194.779 58.8113 205.135L58.7908 205.032C60.1311 214.246 61.4714 223.461 62.8117 232.675C64.5857 244.973 70.0271 256.681 78.1433 266.065L78.0827 265.987C78.3199 266.324 78.557 266.661 78.7941 266.999C84.4313 275.647 99.2188 274.44 103.201 264.832C103.841 263.421 104.229 261.894 104.336 260.346C104.975 251.143 105.614 241.941 106.253 232.739L106.254 232.606C105.723 224.319 105.191 216.033 104.66 207.747C104.353 203.861 107.044 200.059 110.759 198.819C114.882 197.294 119.982 199.022 122.144 202.837C124.738 207.263 127.331 211.688 129.924 216.114C131.106 218.131 132.019 220.304 132.625 222.56C133.366 225.315 134.107 228.07 134.847 230.825C135.464 233.119 135.779 235.493 135.778 237.867C135.778 238.201 135.778 238.534 135.778 238.867C135.761 245.034 138.02 251.151 141.95 255.879C144.254 258.662 145.952 261.943 146.865 265.434C147.934 269.481 149.202 273.78 152.122 277.219L152.201 277.302C156.082 281.021 161.013 285.792 158.911 290.665C157.931 293.041 156.529 295.576 156.512 298.607C156.513 300.413 156.552 302.189 156.455 303.923C156.152 310.992 155.073 316.946 155.434 325.231C158.255 329.092 163.582 329.486 167.575 328.438C171.713 327.397 175.484 325.299 178.58 322.38C182.235 312.617 182.575 303.703 184.523 294.755C186.419 288.617 186.339 281.888 184.3 275.797C182.834 271.382 181.367 266.967 179.901 262.551C177.65 256.149 180.573 248.555 186.372 245.045C189.899 242.567 194.121 245.783 196.87 249.101C199.768 252.525 202.087 256.487 204.425 260.446C207.837 266.218 211.249 271.991 214.66 277.764C218.232 283.908 225.061 287.983 232.163 288.21C233.461 288.251 234.799 288.281 236.235 287.898C236.942 287.698 237.724 287.361 238.335 286.678C238.956 285.999 239.202 285.053 239.195 284.269C239.041 275.01 235.862 265.252 237.357 257.4C241.245 252.477 247.7 246.939 253.467 246.468C255.813 246.918 258.159 247.368 260.504 247.819C264.073 248.629 268.091 245.703 268.003 241.87C268.086 240.085 266.623 238.505 265.252 237.938C263.853 237.296 262.414 237.09 260.986 237.067C256.865 237.03 252.744 236.992 248.623 236.955C242.585 236.909 236.576 235.064 231.553 231.715C230.101 230.75 228.649 229.785 227.198 228.821C222.53 225.748 219.3 220.604 218.562 215.065C218.094 211.864 216.941 208.758 214.842 206.168C212.946 203.537 208.615 201.836 205.476 203.743C204.033 204.484 202.742 205.533 201.729 206.807C200.91 207.834 200.272 209.008 199.863 210.26C199.012 212.859 198.16 215.459 197.309 218.059C195.798 222.752 191.996 226.595 187.373 228.343C180.521 231.066 172.011 228.919 167.465 223.106C164.559 219.471 161.653 215.836 158.747 212.201L158.734 212.186C152.533 204.744 146.332 197.303 140.13 189.861L140.065 189.79C137.833 187.586 135.601 185.382 133.369 183.178C127.718 177.972 128.309 167.982 134.481 163.416C134.76 163.194 135.04 162.971 135.32 162.749C138.025 160.581 141.711 159.699 145.124 160.352C146.62 160.632 148.115 160.912 149.611 161.193C155.32 162.461 161.696 157.771 161.55 151.705C161.578 148.335 159.614 145.1 156.736 143.449C152.021 140.683 147.307 137.917 142.592 135.151C136.68 131.694 131.736 126.584 128.583 120.511C127.286 118.022 125.99 115.532 124.693 113.043C123.04 109.869 121.653 106.556 120.556 103.149C120.299 102.351 120.042 101.553 119.785 100.755C116.457 90.4045 111.33 80.6436 104.748 71.9966C102.957 69.6419 101.06 67.3691 99.0645 65.1852C95.1731 60.9265 91.2818 56.6679 87.3904 52.4092L87.4439 52.4728C78.036 40.2802 68.6281 28.0875 59.2201 15.8949Z" fill="#989694" fill-opacity="0.1"/>
</g>
<defs>
<filter id="filter0_dg_1216_4" x="0" y="0" width="273.007" height="336.938" filterUnits="userSpaceOnUse" color-interpolation-filters="sRGB">
<feFlood flood-opacity="0" result="BackgroundImageFix"/>
<feColorMatrix in="SourceAlpha" type="matrix" values="0 0 0 0 0 0 0 0 0 0 0 0 0 0 0 0 0 0 127 0" result="hardAlpha"/>
<feOffset dx="1" dy="4"/>
<feGaussianBlur stdDeviation="2"/>
<feComposite in2="hardAlpha" operator="out"/>
<feColorMatrix type="matrix" values="0 0 0 0 0 0 0 0 0 0 0 0 0 0 0 0 0 0 0.25 0"/>
<feBlend mode="normal" in2="BackgroundImageFix" result="effect1_dropShadow_1216_4"/>
<feBlend mode="normal" in="SourceGraphic" in2="effect1_dropShadow_1216_4" result="shape"/>
<feTurbulence type="fractalNoise" baseFrequency="0.99900001287460327 0.99900001287460327" numOctaves="3" seed="5591" />
<feDisplacementMap in="shape" scale="8" xChannelSelector="R" yChannelSelector="G" result="displacedImage" width="100%" height="100%" />
<feMerge result="effect2_texture_1216_4">
<feMergeNode in="displacedImage"/>
</feMerge>
</filter>
</defs>
</svg>
