<svg width="210" height="160" viewBox="0 0 210 160" fill="none" xmlns="http://www.w3.org/2000/svg">
<g filter="url(#filter0_dg_1220_9)">
<path d="M24.078 64.2134C25.0089 64.4772 25.8262 65.053 26.3477 65.8681C27.5326 67.7201 26.8881 70.1897 24.9611 71.2483C23.9886 71.7826 22.9118 72.38 21.8562 72.9774C18.5507 74.8481 16.0246 79.6398 15.6526 83.4197L15.6167 83.7848C15.117 88.8625 19.7671 92.9211 24.7307 91.7393L30.8647 90.2787C38.2821 88.5126 43.9826 96.8068 39.6756 103.099C37.8061 105.83 37.7695 109.388 39.3127 112.316C39.7355 113.118 40.1401 113.922 40.5264 114.728C43.7842 121.526 51.5042 125.833 58.5837 123.245L60.7868 122.439C67.7927 119.877 75.3963 124.34 76.576 131.706C77.6582 138.462 84.9104 144.759 95.2053 147.881C99.3644 149.142 103.814 149.819 108.199 149.857L125.728 150.008C130.558 150.05 135.233 149.526 139.51 148.463L140.929 148.11C149.933 145.873 156.37 141.171 158.568 135.225C159.163 133.616 160.075 132.083 161.285 130.656L170.901 119.317C173.494 116.26 177.626 113.883 182.767 112.491C193.148 109.681 198.906 103.023 197.371 95.6056L196.617 91.9628C195.2 85.1163 205.037 79.8617 202.831 73.2271C202.069 70.9353 201.444 68.7092 200.943 66.6905C199.581 61.2115 196.303 55.9839 191.449 53.1006L167.43 38.8322L152.895 28.4389C147.128 24.315 139.205 25.0637 134.312 30.195L125.843 39.0773C115.529 49.8934 98.2555 37.1109 105.584 24.0863C111.576 13.4366 100.542 1.29741 89.3708 6.24864L73.0242 13.4933C69.3357 15.1281 65.0938 15.4277 61.2121 16.5278C54.8646 18.3265 47.2615 22.9362 42.1844 22.8923L30.8691 22.7946C24.5528 22.74 18.7157 24.0809 14.3933 26.5795C11.5238 28.2382 9.42436 30.3486 8.2645 32.7401L6.77199 35.8172C4.70687 40.0751 4.42928 44.7241 5.963 49.3644L6.38033 50.6271C6.7471 51.7368 7.29259 52.8358 8.00836 53.9069C11.0323 58.4322 16.8978 62.1781 24.078 64.2134Z" fill="#D8D8D8" shape-rendering="crispEdges"/>
<path d="M5.43084 50.9409C6.06383 50.7317 6.69682 50.5225 7.32981 50.3133C7.1907 49.8924 7.05159 49.4715 6.91248 49.0506C5.48846 44.8639 5.71223 40.2031 7.67175 36.2536C8.16924 35.2279 8.66674 34.2022 9.16425 33.1765C10.3349 30.7609 12.4769 28.8396 14.8938 27.4453C15.6022 27.0357 16.3413 26.6659 17.0968 26.3351C21.371 24.4795 26.1438 23.7612 30.8604 23.7945C34.6322 23.8271 38.404 23.8597 42.1757 23.8923C49.5612 23.3418 55.1663 19.2066 61.4848 17.4899C65.2623 16.4101 69.4534 16.1474 73.4294 14.4076C78.8783 11.9927 84.3271 9.57777 89.7759 7.16287C99.2572 2.15084 110.604 14.6348 104.713 23.5959C101.131 29.2821 103.004 37.5524 108.503 41.3259C113.719 45.4811 122.176 44.8549 126.566 39.7674C129.39 36.8066 132.213 33.8459 135.036 30.8851C139.353 26.1799 147.192 25.4392 152.314 29.2524C157.159 32.7168 162.004 36.1813 166.849 39.6457L166.92 39.692C174.926 44.4481 182.932 49.2042 190.938 53.9603C195.551 56.7062 198.662 61.6757 199.972 66.9316C200.525 69.1564 201.158 71.3628 201.882 73.5426C203.845 79.5858 194.538 83.8245 195.638 92.1655C195.889 93.3797 196.14 94.594 196.392 95.8082C198.175 103.739 189.987 109.707 182.505 111.526C177.941 112.779 173.386 114.899 170.139 118.67C166.933 122.45 163.728 126.23 160.522 130.009C159.305 131.442 158.293 133.083 157.63 134.878C155.054 141.6 147.719 145.39 140.688 147.14C140.215 147.257 139.742 147.375 139.269 147.493C134.864 148.584 130.295 149.046 125.737 149.008C119.893 148.958 114.05 148.907 108.207 148.857C103.909 148.817 99.6075 148.168 95.4955 146.924C87.675 144.515 79.1623 139.582 77.5634 131.547C76.5811 123.844 67.648 118.601 60.4434 121.5C59.709 121.768 58.9747 122.037 58.2403 122.305C51.7903 124.772 44.285 120.474 41.4282 114.296C41.0335 113.473 40.6229 112.657 40.1974 111.85C38.8246 109.296 38.8629 106.008 40.5008 103.663C45.4976 97.2412 38.4195 86.9426 30.6331 89.3059C28.5884 89.7928 26.5437 90.2796 24.499 90.7665C20.4319 91.9069 16.032 88.0667 16.6119 83.8827C16.6239 83.761 16.6358 83.6393 16.6478 83.5176C17.1046 79.7708 19.207 75.7546 22.3488 73.8477C23.3749 73.267 24.4074 72.6935 25.4426 72.1247C26.2393 71.6897 26.9132 71.018 27.3489 70.2186C28.1843 68.7261 28.1334 66.7681 27.19 65.3292C26.5349 64.2994 25.4868 63.5698 24.3507 63.2513C18.3243 61.5153 12.3325 58.4242 8.83981 53.3513C8.2026 52.398 7.68157 51.378 7.32981 50.3133C6.69682 50.5225 6.06383 50.7317 5.43085 50.9409C5.84779 52.2023 6.45415 53.381 7.17692 54.4625C11.1465 60.1793 17.4826 63.3323 23.8053 65.1755C24.5104 65.3734 25.1306 65.8169 25.5053 66.407C26.0549 67.246 26.0846 68.3777 25.5949 69.2576C25.3389 69.726 24.9508 70.1139 24.4796 70.3718C23.4386 70.9438 22.3995 71.521 21.3637 72.1071C17.3491 74.6401 15.2677 78.8611 14.6574 83.3218C14.6454 83.4435 14.6335 83.5652 14.6215 83.6869C13.8698 89.1783 19.6229 94.1996 24.9623 92.7121C27.007 92.2252 29.0517 91.7384 31.0964 91.2515C37.2023 89.3693 42.7958 97.5079 38.8504 102.534C36.7551 105.544 36.745 109.654 38.4281 112.782C38.842 113.568 39.2412 114.36 39.6246 115.16C42.8285 122.07 51.2575 127.054 58.9271 124.184C59.6615 123.915 60.3958 123.647 61.1302 123.378C67.2102 120.927 74.7641 125.36 75.5886 131.864C77.617 141.391 86.7673 146.249 94.9151 148.838C99.2183 150.139 103.698 150.815 108.19 150.857C114.033 150.907 119.876 150.958 125.719 151.008C130.427 151.046 135.155 150.572 139.751 149.434C140.224 149.316 140.697 149.198 141.17 149.081C148.509 147.22 156.456 143.358 159.506 135.572C160.078 134.023 160.961 132.583 162.048 131.303C165.253 127.523 168.459 123.743 171.664 119.964C174.497 116.657 178.715 114.632 183.028 113.457C190.8 111.584 200.391 105.041 198.35 95.403C198.099 94.1887 197.848 92.9744 197.596 91.7602C196.213 85.5789 205.703 81.4427 203.78 72.9117C203.073 70.7856 202.454 68.6269 201.913 66.4494C200.488 60.7662 197.155 55.3493 191.96 52.2408C183.954 47.4847 175.947 42.7286 167.941 37.9725L168.012 38.0188C163.167 34.5544 158.322 31.0899 153.477 27.6255C147.579 23.2365 138.56 24.0888 133.588 29.5049C130.765 32.4657 127.942 35.4265 125.119 38.3872C121.245 42.7999 114.272 43.289 109.693 39.7182C104.939 36.3831 103.368 29.5711 106.456 24.5766C113.322 14.0565 100.092 -0.499527 88.9656 5.3344C83.5167 7.7493 78.0679 10.1642 72.619 12.5791C69.0923 14.1434 64.9925 14.4286 60.9395 15.5656C54.3294 17.4237 48.3798 21.498 42.193 21.8924C38.4212 21.8598 34.6495 21.8272 30.8777 21.7946C25.9346 21.7629 20.9192 22.4994 16.2946 24.5031C15.4767 24.8612 14.6713 25.2638 13.8929 25.7137C11.2431 27.2465 8.77935 29.3988 7.36474 32.3037C6.86724 33.3294 6.36974 34.3551 5.87224 35.3808C3.68275 39.7702 3.43652 45.0766 5.01351 49.6783C5.15262 50.0992 5.29173 50.52 5.43084 50.9409Z" fill="#989694" fill-opacity="0.1"/>
</g>
<defs>
<filter id="filter0_dg_1220_9" x="0" y="0" width="209.038" height="159.01" filterUnits="userSpaceOnUse" color-interpolation-filters="sRGB">
<feFlood flood-opacity="0" result="BackgroundImageFix"/>
<feColorMatrix in="SourceAlpha" type="matrix" values="0 0 0 0 0 0 0 0 0 0 0 0 0 0 0 0 0 0 127 0" result="hardAlpha"/>
<feOffset dx="1" dy="4"/>
<feGaussianBlur stdDeviation="2"/>
<feComposite in2="hardAlpha" operator="out"/>
<feColorMatrix type="matrix" values="0 0 0 0 0 0 0 0 0 0 0 0 0 0 0 0 0 0 0.25 0"/>
<feBlend mode="normal" in2="BackgroundImageFix" result="effect1_dropShadow_1220_9"/>
<feBlend mode="normal" in="SourceGraphic" in2="effect1_dropShadow_1220_9" result="shape"/>
<feTurbulence type="fractalNoise" baseFrequency="0.99900001287460327 0.99900001287460327" numOctaves="3" seed="5591" />
<feDisplacementMap in="shape" scale="8" xChannelSelector="R" yChannelSelector="G" result="displacedImage" width="100%" height="100%" />
<feMerge result="effect2_texture_1220_9">
<feMergeNode in="displacedImage"/>
</feMerge>
</filter>
</defs>
</svg>
