<svg width="288" height="310" viewBox="0 0 288 310" fill="none" xmlns="http://www.w3.org/2000/svg">
<g filter="url(#filter0_dg_1209_171)">
<path d="M59.3436 111.117L58.7912 111.917C56.8995 114.658 56.2476 118.035 56.988 121.259L58.0992 126.098C58.6141 128.34 59.7764 130.393 61.4492 132.015L62.7336 133.26C67.5895 137.968 75.6495 137.202 79.4683 131.67L84.532 124.333C86.0453 122.141 86.9933 119.625 87.2958 117L87.5948 114.405C88.1093 109.939 91.1216 106.119 95.421 104.48L98.8721 103.165C104.876 100.876 106.936 93.6183 102.992 88.6488C102.356 87.8477 101.592 87.1513 100.728 86.5867L94.9454 82.8047C91.1479 80.3213 86.407 79.6266 82.0295 80.9121C77.6521 82.1977 72.911 81.5031 69.1136 79.0197L67.3737 77.8819C63.8999 75.6101 61.26 72.3203 59.8376 68.4906L55.5964 57.0717C51.9013 46.7786 53.4008 35.3977 59.6439 26.3527L59.8805 26.0098C61.6047 23.5117 63.6491 21.2379 65.9642 19.2429L77.1988 9.56192C80.3907 6.81142 84.4582 5.21302 88.7196 5.03457C98.5036 4.62487 106.944 11.6686 108.021 21.1411L108.529 25.6176C109.08 30.4637 107.376 35.2938 103.885 38.7874C99.9139 42.761 98.2882 48.4256 99.5679 53.8301L100.417 57.4147C101.77 63.1302 105.308 68.132 110.312 71.4044L113.217 73.3046C116.183 75.2443 119.55 76.5282 123.079 77.0662L126.122 77.5299C131.338 78.325 135.927 81.326 138.655 85.7263C141.435 90.2097 141.989 95.6719 140.164 100.594L138.893 104.023C137.424 107.984 137.089 112.261 137.925 116.395C139.762 125.482 146.965 132.645 156.262 134.63L159.73 135.371C160.735 135.586 161.717 135.897 162.659 136.3L170.338 139.586C175.211 141.671 176.963 147.536 173.997 151.833C173.637 152.355 173.339 152.915 173.109 153.502L172.635 154.712C168.971 164.056 173.098 174.594 182.228 179.204L182.824 179.505C185.053 180.631 187.057 182.137 188.74 183.951L190.934 186.316C195.17 190.882 197.886 196.594 198.725 202.689C199.416 207.712 201.388 212.494 204.46 216.588C208.266 221.662 213.593 225.464 219.707 227.473L232.284 231.606L245.692 234.32C246.429 234.469 247.176 234.563 247.927 234.601L253.649 234.888C258.129 235.114 261.671 238.671 261.758 243.036C261.813 245.748 263.224 248.265 265.539 249.779L273.424 254.936C277.614 257.675 280.434 261.996 281.201 266.849C282.093 272.491 280.11 278.2 275.886 282.156L271.889 285.899C269.818 287.838 267.435 289.433 264.832 290.621L263.921 291.037C261.798 292.006 259.862 293.323 258.198 294.93L257.49 295.614C252.667 300.273 245.63 302.027 239.094 300.199C235.612 299.225 232.493 297.292 230.114 294.633L224.767 288.656L211.143 272L195.292 246.143C191.359 237.994 183.47 232.319 174.312 231.051L171.652 230.683C164.871 230.298 159.369 235.942 160.122 242.511L160.37 244.675C160.523 246.012 160.454 247.364 160.165 248.678L157.287 261.775C157.207 262.136 157.058 262.479 156.846 262.786C155.928 264.117 154.074 264.47 152.705 263.575L150.612 262.206C150.283 261.991 149.979 261.742 149.706 261.464L145.095 256.781C140.794 252.411 137.316 247.339 134.822 241.797L134.244 240.514C133.597 239.076 133.058 237.594 132.632 236.08C130.527 228.598 125.727 222.099 119.109 217.771L115.86 215.646L105.132 209.795C101.897 208.03 100.61 204.135 102.184 200.87C103.796 197.527 107.833 196.022 111.331 197.46L119.129 200.667C121.186 201.513 123.404 201.927 125.636 201.883L143.142 201.533C144.532 201.505 145.913 201.304 147.251 200.935C155.489 198.66 160.499 190.557 158.708 182.405L158.393 180.973C157.682 177.737 156.038 174.764 153.653 172.403L148.851 167.651C145.144 163.982 142.899 159.15 142.518 154.019C141.961 146.507 137.432 139.814 130.56 136.344L124.567 133.318C122.619 132.334 120.82 131.09 119.224 129.623L115.829 126.504C112.411 123.364 107.646 122.021 103.036 122.9L102.426 123.016C96.6448 124.118 92.2401 128.696 91.491 134.382C91.364 135.346 91.3458 136.32 91.4367 137.288L92.7069 150.808C93.0373 154.325 92.5815 157.87 91.3706 161.198L88.0739 170.26C87.0296 173.13 84.4542 175.213 81.3627 175.687C78.5081 176.125 76.0763 177.939 74.9006 180.507L74.2525 181.922C72.8052 185.083 72.9476 188.721 74.6383 191.768L75.9464 194.126C76.7409 195.558 77.7471 196.869 78.9329 198.017L83.1797 202.127C86.6672 205.503 89.0381 209.816 89.9872 214.511L90.6179 217.631C90.7979 218.522 90.8041 219.437 90.6362 220.33L89.7981 224.785C89.2299 227.805 85.6655 229.266 83.045 227.552C82.8054 227.396 82.5823 227.216 82.3789 227.017L79.9827 224.669C74.5954 219.389 70.9333 212.677 69.4579 205.379L69.3611 204.9L68.3557 201.933C65.5547 193.668 58.9698 187.133 50.5322 184.245L40.5446 179.46C35.8712 177.221 31.5619 174.324 27.7555 170.863L25.8655 169.144C23.1885 166.71 20.9073 163.894 19.1003 160.793L15.8227 155.168C13.8994 151.868 13.1873 148.029 13.8034 144.285L14.1475 142.194C14.7808 138.345 13.5238 134.428 10.7514 131.612L6.34054 127.131C4.75673 125.522 4.53697 123.058 5.81246 121.21C7.66503 118.526 11.6771 118.399 13.7097 120.96L14.859 122.409C15.2681 122.924 15.7598 123.372 16.3154 123.735L16.7143 123.996C20.9268 126.751 26.6337 125.663 29.4611 121.567L32.1504 117.671C32.6106 117.004 33.1306 116.378 33.7042 115.801L42.8865 106.554L48.9079 99.6289C50.6619 97.6115 53.4899 96.8169 56.0813 97.6132C58.6915 98.4153 60.5458 100.673 60.7743 103.326L60.9321 105.159C61.1133 107.263 60.5531 109.365 59.3436 111.117Z" fill="#D8D8D8" shape-rendering="crispEdges"/>
<path d="M57.9682 111.349C58.5169 111.728 59.0655 112.106 59.6142 112.485C59.7983 112.218 59.9824 111.952 60.1666 111.685C61.4922 109.776 62.135 107.395 61.9284 105.073C61.8758 104.462 61.8232 103.851 61.7706 103.241C61.5419 100.195 59.2569 97.5033 56.3751 96.6573C53.4987 95.7451 50.1323 96.6591 48.1532 98.9728C46.1461 101.281 44.139 103.59 42.1319 105.898L42.177 105.85C39.1162 108.932 36.0554 112.014 32.9947 115.096C32.3813 115.713 31.8223 116.386 31.3274 117.103C30.4309 118.402 29.5345 119.7 28.6381 120.999C26.2581 124.606 20.8291 125.604 17.2617 123.159C17.1286 123.072 16.9956 122.985 16.8626 122.898C16.5142 122.671 16.1936 122.401 15.9105 122.098C15.8169 121.998 15.7274 121.894 15.6423 121.787C15.2592 121.304 14.8761 120.822 14.493 120.339C12.2106 117.294 7.07364 117.443 4.98946 120.642C3.44534 122.782 3.74635 126.002 5.62789 127.833C7.09818 129.326 8.56847 130.82 10.0388 132.313C12.5436 134.824 13.7582 138.543 13.1608 142.031C13.0461 142.728 12.9314 143.425 12.8167 144.122C12.156 148.067 12.9383 152.228 14.9587 155.672C16.0512 157.547 17.1437 159.422 18.2363 161.297C20.0982 164.494 22.457 167.398 25.1928 169.884C25.8228 170.457 26.4528 171.03 27.0828 171.603C30.969 175.138 35.3768 178.094 40.1125 180.361C43.4417 181.956 46.771 183.551 50.1002 185.146L50.2084 185.191C58.1535 187.86 64.7605 194.301 67.4086 202.254C67.7438 203.243 68.0789 204.232 68.414 205.22L68.3809 205.098C68.4132 205.257 68.4455 205.417 68.4777 205.577C69.9793 213.07 73.8245 220.053 79.2828 225.383C80.0815 226.166 80.8802 226.948 81.679 227.731C81.9298 227.977 82.2045 228.198 82.4977 228.389C85.4567 230.484 90.1986 228.653 90.7808 224.97C91.0602 223.485 91.3396 222 91.6189 220.515C91.8106 219.499 91.8033 218.446 91.598 217.433C91.3878 216.393 91.1776 215.353 90.9674 214.313C89.9871 209.42 87.4592 204.865 83.8752 201.409C82.4596 200.039 81.044 198.668 79.6284 197.298C78.519 196.225 77.5684 194.989 76.8209 193.641C76.3848 192.855 75.9488 192.069 75.5127 191.283C73.9872 188.576 73.8501 185.154 75.1618 182.338C75.3778 181.867 75.5938 181.395 75.8098 180.923C76.8222 178.672 79.0563 177.035 81.5143 176.675C84.8483 176.194 87.872 173.816 89.0136 170.601C90.1125 167.581 91.2114 164.56 92.3104 161.54C93.5669 158.094 94.0485 154.367 93.7025 150.715C93.2791 146.208 92.8557 141.701 92.4323 137.195C92.3484 136.302 92.3652 135.401 92.4824 134.513C93.0989 129.314 97.452 124.907 102.613 123.998C102.816 123.96 103.02 123.921 103.223 123.882C107.435 123.056 112.01 124.324 115.153 127.241C116.284 128.28 117.416 129.32 118.547 130.36C120.215 131.893 122.096 133.19 124.117 134.21C126.114 135.219 128.112 136.228 130.11 137.236C136.493 140.393 141.05 146.988 141.521 154.093C141.902 159.45 144.331 164.608 148.148 168.362C149.748 169.946 151.349 171.53 152.949 173.114C155.172 175.307 156.752 178.142 157.416 181.188C157.521 181.665 157.626 182.142 157.731 182.619C159.54 190.043 154.376 198.124 146.984 199.971C145.727 200.318 144.426 200.508 143.122 200.533C137.287 200.65 131.452 200.767 125.616 200.883C123.531 200.926 121.437 200.536 119.509 199.742C116.91 198.673 114.31 197.604 111.711 196.536C107.929 194.893 103.039 196.633 101.283 200.436C99.4341 204.04 101.096 208.856 104.653 210.673C108.229 212.623 111.805 214.574 115.381 216.524L115.313 216.483C116.396 217.191 117.479 217.9 118.562 218.608C124.869 222.706 129.654 229.108 131.67 236.351C132.109 237.914 132.666 239.444 133.332 240.924C133.525 241.352 133.717 241.779 133.91 242.207C136.456 247.869 140.029 253.062 144.383 257.482C145.919 259.043 147.456 260.605 148.993 262.166C149.318 262.496 149.678 262.79 150.064 263.043C150.762 263.499 151.46 263.955 152.158 264.412C153.893 265.591 156.487 265.125 157.669 263.354C157.952 262.944 158.156 262.478 158.264 261.99C159.223 257.624 160.182 253.258 161.142 248.893C161.454 247.475 161.529 246.004 161.364 244.562C161.281 243.84 161.198 243.119 161.116 242.398C160.274 236.613 165.791 231.156 171.595 231.681L171.515 231.674C172.401 231.796 173.288 231.919 174.175 232.042C182.765 233.173 190.672 238.748 194.391 246.578L194.439 246.665C199.723 255.285 205.007 263.904 210.29 272.523L210.369 272.633C214.91 278.185 219.452 283.737 223.993 289.289L224.022 289.322C225.804 291.315 227.587 293.307 229.369 295.3C231.876 298.109 235.206 300.155 238.824 301.162C245.527 303.087 253.181 301.23 258.185 296.333C258.421 296.105 258.657 295.877 258.893 295.649C260.477 294.118 262.329 292.862 264.336 291.947C264.64 291.808 264.944 291.669 265.248 291.531C267.931 290.307 270.418 288.648 272.573 286.629C273.905 285.381 275.237 284.134 276.57 282.886C280.943 278.854 283.165 272.587 282.189 266.693C281.402 261.571 278.299 256.9 273.972 254.099C271.343 252.38 268.715 250.661 266.086 248.942C264.091 247.657 262.789 245.374 262.758 243.016C262.754 238.179 258.435 234.019 253.699 233.89C251.792 233.794 249.885 233.698 247.977 233.602C247.276 233.567 246.578 233.479 245.89 233.34C241.421 232.435 236.952 231.531 232.482 230.626L232.596 230.656C228.404 229.279 224.212 227.901 220.02 226.523C214.18 224.615 208.936 220.905 205.26 215.988C202.315 212.072 200.378 207.404 199.716 202.553C198.861 196.259 195.987 190.276 191.667 185.636C190.936 184.848 190.204 184.059 189.473 183.271C187.705 181.364 185.593 179.782 183.275 178.613C183.076 178.512 182.877 178.412 182.678 178.312C174.319 174.334 169.986 163.643 173.566 155.077C173.724 154.674 173.882 154.271 174.04 153.867C174.242 153.351 174.505 152.858 174.82 152.401C178.201 147.861 175.94 140.656 170.731 138.666C168.172 137.571 165.612 136.476 163.053 135.381C162.05 134.952 161.005 134.621 159.938 134.393C158.783 134.146 157.627 133.899 156.471 133.652C147.866 131.916 140.558 124.83 138.905 116.197C138.105 112.27 138.431 108.126 139.83 104.37C140.254 103.227 140.678 102.084 141.102 100.941C143.038 95.8206 142.416 89.8267 139.505 85.1994C136.645 80.5439 131.649 77.336 126.273 76.5414C125.258 76.3868 124.244 76.2322 123.23 76.0776C119.864 75.5665 116.61 74.3308 113.765 72.4677C112.796 71.8343 111.828 71.2009 110.859 70.5675C106.155 67.5145 102.663 62.6395 101.39 57.1843C101.107 55.9894 100.824 54.7946 100.541 53.5997C99.3178 48.6184 100.933 43.0942 104.592 39.4943C108.229 35.8998 110.132 30.6018 109.523 25.5047C109.353 24.0126 109.184 22.5204 109.014 21.0283C108.079 11.1368 98.4469 3.41027 88.6778 4.03545C84.2564 4.21178 79.9017 5.90175 76.546 8.80437C72.8011 12.0314 69.0562 15.2584 65.3114 18.4854C62.9433 20.5254 60.8338 22.8675 59.0576 25.4417C58.9787 25.556 58.8998 25.6703 58.8209 25.7846C52.4703 34.8437 50.8384 47.0123 54.6552 57.4096L54.6589 57.4199C56.0727 61.2262 57.4864 65.0325 58.9002 68.8388C60.3908 72.8759 63.232 76.3786 66.8264 78.7188C67.4064 79.0981 67.9863 79.4773 68.5662 79.8566C72.567 82.4945 77.7263 83.2375 82.3113 81.8716C86.3425 80.6695 90.8891 81.3264 94.3981 83.6416C96.3258 84.9023 98.2534 86.163 100.181 87.4236C100.951 87.9267 101.639 88.5522 102.209 89.2705C105.765 93.3951 103.674 100.511 98.5159 102.23C97.3656 102.669 96.2152 103.107 95.0649 103.545C93.4679 104.153 91.9842 105.066 90.7255 106.227C88.4563 108.306 86.9454 111.217 86.6014 114.29C86.5017 115.155 86.4021 116.02 86.3024 116.885C86.0216 119.344 85.1186 121.727 83.709 123.765C82.0211 126.211 80.3332 128.656 78.6453 131.102C75.4225 136.057 67.5531 136.773 63.4297 132.542C63.0015 132.127 62.5734 131.712 62.1453 131.297C60.6278 129.83 59.5417 127.926 59.0738 125.874C58.7034 124.261 58.333 122.648 57.9626 121.035C57.2792 118.122 57.9004 114.943 59.6142 112.485C59.0655 112.106 58.5169 111.728 57.9682 111.349C55.9425 114.253 55.202 118.028 56.0134 121.483C56.3838 123.096 56.7542 124.709 57.1245 126.322C57.6792 128.754 58.9658 131.005 60.7531 132.733C61.1812 133.148 61.6094 133.563 62.0375 133.978C67.0158 139.056 76.3732 138.216 80.2913 132.238C81.9792 129.792 83.6671 127.347 85.355 124.901C86.9476 122.599 87.9711 119.9 88.2893 117.114C88.3889 116.249 88.4886 115.384 88.5882 114.519C88.8787 111.926 90.1525 109.466 92.0812 107.698C93.1507 106.711 94.4132 105.933 95.7772 105.414C96.9275 104.976 98.0779 104.537 99.2282 104.099C105.559 102.009 108.192 93.1397 103.775 88.0272C103.071 87.1391 102.222 86.3683 101.276 85.7498C99.3481 84.4891 97.4204 83.2285 95.4927 81.9678C91.492 79.3299 86.3328 78.5868 81.7478 79.9527C77.7166 81.1548 73.1698 80.498 69.6609 78.1828C69.081 77.8035 68.501 77.4242 67.9211 77.0449C64.673 74.9302 62.115 71.7718 60.775 68.1425C59.3613 64.3361 57.9475 60.5298 56.5338 56.7235L56.5376 56.7338C52.9404 46.9305 54.4751 35.471 60.4668 26.9207C60.5457 26.8065 60.6246 26.6922 60.7035 26.5779C62.3821 24.1452 64.3765 21.9306 66.6169 20.0005C70.3618 16.7735 74.1067 13.5465 77.8515 10.3195C80.8611 7.71563 84.7795 6.1922 88.7615 6.0337C97.5671 5.46995 106.202 12.4341 107.027 21.254C107.196 22.7462 107.366 24.2383 107.535 25.7305C108.072 30.2235 106.399 34.8949 103.178 38.0805C99.0459 42.1419 97.2061 48.4118 98.5948 54.0605C98.8777 55.2554 99.1607 56.4502 99.4436 57.6451C100.835 63.6072 104.649 68.9213 109.765 72.2414C110.733 72.8747 111.702 73.5081 112.67 74.1415C115.758 76.163 119.284 77.5012 122.929 78.0548C123.943 78.2094 124.957 78.3639 125.971 78.5185C130.792 79.2307 135.26 82.1071 137.805 86.2533C140.397 90.3756 140.947 95.693 139.226 100.246C138.803 101.389 138.379 102.532 137.955 103.675C136.428 107.775 136.071 112.305 136.945 116.593C138.753 126.026 146.719 133.725 156.053 135.608C157.209 135.855 158.365 136.102 159.521 136.349C160.461 136.55 161.382 136.842 162.266 137.22C164.825 138.315 167.385 139.41 169.944 140.505C174.074 142.096 175.815 147.713 173.174 151.265C172.772 151.847 172.436 152.477 172.178 153.137C172.02 153.54 171.862 153.944 171.704 154.347C167.728 163.857 172.558 175.72 181.777 180.097C181.976 180.197 182.174 180.298 182.373 180.398C184.483 181.462 186.403 182.9 188.007 184.631C188.738 185.419 189.469 186.208 190.201 186.996C194.249 191.344 196.936 196.943 197.734 202.825C198.443 208.016 200.515 213.006 203.66 217.189C207.587 222.439 213.177 226.392 219.395 228.423C223.587 229.801 227.78 231.179 231.972 232.556L232.086 232.586C236.555 233.491 241.024 234.396 245.494 235.3C246.279 235.459 247.077 235.559 247.877 235.6C249.784 235.696 251.692 235.791 253.599 235.887C257.374 235.992 260.762 239.294 260.759 243.056C260.799 246.082 262.471 248.994 264.992 250.616C267.62 252.335 270.249 254.054 272.877 255.773C276.752 258.282 279.514 262.45 280.213 267.005C281.081 272.247 279.111 277.821 275.203 281.426C273.87 282.674 272.538 283.922 271.206 285.169C269.211 287.038 266.906 288.576 264.417 289.711C264.114 289.85 263.81 289.988 263.506 290.127C261.295 291.135 259.253 292.52 257.503 294.211C257.267 294.439 257.031 294.667 256.795 294.895C252.307 299.291 245.403 300.972 239.363 299.236C236.104 298.329 233.109 296.486 230.86 293.966C229.077 291.974 227.295 289.981 225.512 287.989L225.541 288.023C221 282.471 216.458 276.919 211.917 271.367L211.995 271.478C206.712 262.858 201.428 254.239 196.145 245.62L196.193 245.708C192.178 237.261 183.67 231.275 174.449 230.061C173.562 229.938 172.676 229.815 171.789 229.692L171.709 229.685C164.788 229.054 158.119 235.586 159.129 242.625C159.211 243.347 159.294 244.068 159.377 244.789C159.517 246.013 159.453 247.26 159.188 248.464C158.229 252.829 157.27 257.195 156.31 261.56C156.259 261.794 156.161 262.019 156.023 262.218C155.459 263.084 154.118 263.336 153.253 262.738C152.555 262.282 151.857 261.825 151.159 261.369C150.891 261.193 150.642 260.99 150.418 260.763C148.881 259.201 147.345 257.64 145.808 256.079C141.617 251.825 138.181 246.83 135.733 241.386C135.541 240.959 135.349 240.531 135.156 240.103C134.53 238.713 134.008 237.276 133.595 235.809C131.447 228.093 126.353 221.286 119.656 216.934C118.573 216.226 117.49 215.518 116.407 214.809L116.339 214.768C112.763 212.818 109.187 210.867 105.611 208.917C102.929 207.538 101.717 203.976 103.085 201.304C104.377 198.479 108.089 197.136 110.95 198.385C113.55 199.454 116.149 200.523 118.749 201.592C120.931 202.491 123.298 202.931 125.656 202.883C131.491 202.766 137.327 202.65 143.162 202.533C144.632 202.504 146.099 202.291 147.517 201.899C155.85 199.824 161.745 190.654 159.684 182.19C159.579 181.713 159.475 181.236 159.37 180.758C158.622 177.332 156.846 174.149 154.356 171.693C152.755 170.109 151.155 168.525 149.555 166.941C146.07 163.512 143.862 158.816 143.515 153.945C142.997 146.13 137.986 138.899 131.011 135.451C129.013 134.442 127.016 133.434 125.018 132.425C123.16 131.487 121.432 130.294 119.901 128.887C118.769 127.847 117.637 126.808 116.506 125.768C112.893 122.417 107.666 120.975 102.848 121.918C102.645 121.956 102.442 121.995 102.239 122.034C96.2894 123.08 91.2227 128.178 90.4995 134.251C90.3628 135.288 90.3431 136.34 90.4411 137.382C90.8645 141.888 91.2879 146.395 91.7113 150.902C92.0294 154.26 91.5869 157.686 90.4309 160.856C89.332 163.877 88.2331 166.897 87.1341 169.918C86.2447 172.427 83.8639 174.315 81.211 174.698C78.1214 175.151 75.2882 177.212 73.9913 180.09C73.7753 180.562 73.5593 181.034 73.3433 181.506C71.7675 184.884 71.934 189.009 73.7638 192.253C74.1999 193.039 74.6359 193.825 75.072 194.611C75.916 196.133 76.9883 197.527 78.2374 198.735C79.653 200.105 81.0686 201.476 82.4842 202.846C85.7856 206.03 88.1071 210.217 89.0071 214.709C89.2173 215.749 89.4275 216.789 89.6377 217.829C89.792 218.591 89.7974 219.382 89.6534 220.145C89.374 221.63 89.0947 223.115 88.8153 224.6C88.4906 226.848 85.4585 228.054 83.5924 226.715C83.4079 226.595 83.2356 226.456 83.0788 226.303C82.2801 225.52 81.4814 224.737 80.6826 223.954C75.5024 218.895 71.8602 212.277 70.4381 205.181C70.4059 205.021 70.3736 204.861 70.3413 204.701L70.3082 204.579C69.9731 203.59 69.6379 202.601 69.3028 201.612C66.4536 193.058 59.3596 186.155 50.8561 183.299L50.9643 183.343C47.6351 181.748 44.3059 180.153 40.9766 178.558C36.4142 176.373 32.1692 173.526 28.4283 170.123C27.7982 169.55 27.1682 168.977 26.5382 168.405C23.9512 166.053 21.7226 163.309 19.9643 160.29C18.8718 158.415 17.7793 156.54 16.6867 154.665C14.8962 151.612 14.2064 147.935 14.7902 144.447C14.9049 143.75 15.0196 143.053 15.1343 142.356C15.8403 138.239 14.4007 133.851 11.464 130.91C9.99375 129.417 8.52346 127.923 7.05318 126.43C5.82452 125.226 5.63649 123.17 6.63546 121.778C7.97198 119.682 11.4516 119.577 12.9264 121.582C13.3095 122.065 13.6926 122.548 14.0757 123.03C14.1943 123.18 14.3188 123.324 14.4489 123.464C14.8425 123.885 15.2868 124.258 15.768 124.572C15.9011 124.659 16.0341 124.746 16.1671 124.833C20.6045 127.86 27.2865 126.646 30.2841 122.135C31.1805 120.836 32.0769 119.538 32.9733 118.239C33.4004 117.62 33.8833 117.039 34.4138 116.505C37.4745 113.423 40.5353 110.341 43.5961 107.259L43.6412 107.211C45.6483 104.902 47.6554 102.594 49.6625 100.285C51.1166 98.5789 53.6398 97.8851 55.7876 98.5691C57.9412 99.2027 59.613 101.196 59.778 103.412C59.8306 104.023 59.8832 104.634 59.9357 105.245C60.1009 107.104 59.588 109.011 58.5206 110.549C58.3364 110.816 58.1523 111.082 57.9682 111.349Z" fill="#989694" fill-opacity="0.1"/>
</g>
<defs>
<filter id="filter0_dg_1209_171" x="0" y="0" width="287.416" height="309.91" filterUnits="userSpaceOnUse" color-interpolation-filters="sRGB">
<feFlood flood-opacity="0" result="BackgroundImageFix"/>
<feColorMatrix in="SourceAlpha" type="matrix" values="0 0 0 0 0 0 0 0 0 0 0 0 0 0 0 0 0 0 127 0" result="hardAlpha"/>
<feOffset dx="1" dy="4"/>
<feGaussianBlur stdDeviation="2"/>
<feComposite in2="hardAlpha" operator="out"/>
<feColorMatrix type="matrix" values="0 0 0 0 0 0 0 0 0 0 0 0 0 0 0 0 0 0 0.25 0"/>
<feBlend mode="normal" in2="BackgroundImageFix" result="effect1_dropShadow_1209_171"/>
<feBlend mode="normal" in="SourceGraphic" in2="effect1_dropShadow_1209_171" result="shape"/>
<feTurbulence type="fractalNoise" baseFrequency="0.99900001287460327 0.99900001287460327" numOctaves="3" seed="5591" />
<feDisplacementMap in="shape" scale="8" xChannelSelector="R" yChannelSelector="G" result="displacedImage" width="100%" height="100%" />
<feMerge result="effect2_texture_1209_171">
<feMergeNode in="displacedImage"/>
</feMerge>
</filter>
</defs>
</svg>
