<svg width="133" height="98" viewBox="0 0 133 98" fill="none" xmlns="http://www.w3.org/2000/svg">
<g filter="url(#filter0_dg_1209_165)">
<path d="M7.76121 50.4676L6.38142 53.0528C4.27741 56.9951 4.5716 61.7456 7.14687 65.4128C8.71575 67.6469 11.0112 69.3009 13.6631 70.1084L25.8279 73.8122L37.3612 77.437C40.0624 78.286 42.3093 80.1418 43.611 82.5992C46.7489 88.5225 54.6936 90.1185 59.9803 85.8875L62.9005 83.5504C63.5882 83 64.2197 82.386 64.7861 81.7171L80.7014 62.9214L84.0498 59.6591C89.9248 53.935 96.4981 48.9346 103.623 44.7698L111.228 40.3239C112.554 39.5488 113.821 38.6822 115.019 37.7306L119.161 34.4426C124.082 30.5362 126.938 24.68 126.938 18.4958V14.8044C126.938 12.6225 126.191 10.5028 124.816 8.78055C121.904 5.13209 116.773 3.95885 112.498 5.96399L109.962 7.15378C107.452 8.33111 105.376 10.2331 104.015 12.601L102.635 15.0022C100.337 18.9993 96.2713 21.7363 91.6214 22.4159L87.7395 22.9832C82.526 23.7451 78.6691 28.1086 78.6691 33.245C78.6691 34.8559 78.2841 36.4447 77.5447 37.8855L71.3835 49.8913C69.2572 54.0346 65.2245 56.9366 60.5346 57.6982C54.0993 58.7431 47.7171 55.5766 44.7994 49.8913L42.3454 45.1093C41.835 44.1147 41.2469 43.1596 40.5863 42.2527L34.2696 33.5807C31.8426 30.2488 27.9091 28.2691 23.7156 28.2691C20.8055 28.2691 17.9803 29.2246 15.6963 30.9815L15.1934 31.3683C11.6414 34.1005 9.56898 38.2671 9.56898 42.6764V43.2626C9.56898 45.7708 8.94892 48.2422 7.76121 50.4676Z" fill="#D8D8D8" shape-rendering="crispEdges"/>
<path d="M5.49921 52.582C6.08735 52.8959 6.67549 53.2098 7.26364 53.5237C7.72357 52.6619 8.1835 51.8002 8.64343 50.9384C9.89973 48.5905 10.5717 45.9289 10.569 43.2626C10.569 43.0672 10.569 42.8718 10.569 42.6764C10.5668 40.5616 11.0918 38.4509 12.078 36.5778C12.9787 34.8603 14.2615 33.345 15.8031 32.161C15.9708 32.032 16.1384 31.9031 16.306 31.7741C18.4052 30.1531 21.0581 29.2639 23.7156 29.2691C27.5004 29.2473 31.2551 31.1056 33.4613 34.1695C35.5669 37.0602 37.6724 39.9508 39.778 42.8415C40.4067 43.7046 40.9684 44.6163 41.4557 45.5659C42.2737 47.1599 43.0917 48.7539 43.9097 50.3478C46.9294 56.3973 54.0967 59.8421 60.6949 58.6852C65.5653 57.9232 70.0304 54.7752 72.2732 50.3478C74.3269 46.3459 76.3807 42.344 78.4344 38.3421C79.2409 36.7743 79.6708 35.011 79.6691 33.245C79.5845 28.693 83.3596 24.5419 87.8841 23.9727C89.1781 23.7836 90.472 23.5945 91.766 23.4054C96.5952 22.7251 101.076 19.7663 103.502 15.5005C103.962 14.7001 104.422 13.8997 104.882 13.0993C106.136 10.9087 108.093 9.13035 110.387 8.05911C111.232 7.66251 112.078 7.26592 112.923 6.86932C116.632 5.06214 121.51 6.14788 124.035 9.40443C125.255 10.9255 125.942 12.86 125.938 14.8044C125.938 16.0348 125.938 17.2653 125.938 18.4958C125.97 24.3258 123.13 30.0583 118.539 33.6594C117.159 34.7554 115.778 35.8514 114.398 36.9474C113.235 37.8707 112.006 38.711 110.723 39.4606C108.188 40.9425 105.653 42.4245 103.118 43.9065C95.9537 48.0935 89.2961 53.1501 83.352 58.9428C82.2358 60.0303 81.1197 61.1177 80.0036 62.2052L79.9382 62.2752C74.6331 68.5405 69.328 74.8057 64.0229 81.0709C63.4975 81.6915 62.9112 82.261 62.2756 82.7696C61.3022 83.5486 60.3288 84.3277 59.3554 85.1067C54.8717 88.9204 47.1034 87.4148 44.4947 82.131C43.0778 79.4357 40.5502 77.3801 37.661 76.483C33.8166 75.2748 29.9721 74.0665 26.1277 72.8582C22.0642 71.6209 18.0093 70.3863 13.9544 69.1517C12.9648 68.8506 12.0165 68.4165 11.1441 67.8634C9.89855 67.0747 8.80982 66.042 7.96523 64.8381C5.63078 61.5873 5.34298 57.0332 7.26364 53.5237C6.67549 53.2098 6.08735 52.8959 5.49921 52.582C3.22408 56.7332 3.56816 62.1491 6.3285 65.9875C7.32613 67.4095 8.60954 68.6258 10.0734 69.5527C11.0987 70.2027 12.2118 70.712 13.3718 71.065C17.4268 72.2996 21.4817 73.5342 25.5366 74.7688C29.3725 75.9745 33.2169 77.1828 37.0614 78.391C39.4678 79.1381 41.5605 80.8465 42.7274 83.0673C45.9186 89.4705 55.1904 91.2485 60.6051 86.6682C61.5785 85.8892 62.5519 85.1101 63.5253 84.3311C64.2607 83.7426 64.9399 83.083 65.5492 82.3633C70.8543 76.0981 76.1595 69.8329 81.4646 63.5677L81.3992 63.6377C82.5154 62.5502 83.6315 61.4628 84.7477 60.3753C90.5745 54.697 97.1019 49.739 104.127 45.6331C106.662 44.1511 109.197 42.6692 111.733 41.1872C113.096 40.3901 114.404 39.4963 115.641 38.5138C117.022 37.4178 118.402 36.3218 119.783 35.2258C124.832 31.2665 127.974 24.9399 127.938 18.4958C127.938 17.2653 127.938 16.0348 127.938 14.8044C127.944 12.4052 127.094 10.021 125.598 8.15667C122.494 4.16767 116.59 2.86542 112.074 5.05866C111.228 5.45526 110.383 5.85185 109.537 6.24845C106.883 7.48803 104.609 9.55021 103.148 12.1027C102.688 12.9031 102.228 13.7035 101.768 14.5039C99.6528 18.226 95.7249 20.8283 91.4767 21.4264C90.1828 21.6155 88.8888 21.8046 87.5949 21.9937C82.1644 22.6741 77.5706 27.6824 77.6691 33.245C77.6704 34.693 77.3184 36.1392 76.655 37.429C74.6013 41.4309 72.5476 45.4328 70.4938 49.4347C68.5454 53.2836 64.6458 56.0431 60.3743 56.7111C54.5863 57.7282 48.3083 54.6939 45.6891 49.4347C44.8711 47.8407 44.0531 46.2467 43.2351 44.6528C42.7003 43.6105 42.084 42.6104 41.3946 41.664C39.289 38.7733 37.1835 35.8826 35.0779 32.992C32.4894 29.4003 28.1151 27.2447 23.7156 27.2691C20.6257 27.2634 17.5393 28.2955 15.0866 30.1889C14.9189 30.3178 14.7513 30.4468 14.5837 30.5757C12.8181 31.9317 11.3437 33.6717 10.3074 35.6477C9.17267 37.8026 8.56628 40.2376 8.56898 42.6764C8.56898 42.8718 8.56898 43.0672 8.56898 43.2626C8.5713 45.5999 7.98273 47.9337 6.879 49.9967C6.41907 50.8585 5.95914 51.7202 5.49921 52.582Z" fill="#989694" fill-opacity="0.1"/>
</g>
<defs>
<filter id="filter0_dg_1209_165" x="0" y="0" width="132.938" height="97.2305" filterUnits="userSpaceOnUse" color-interpolation-filters="sRGB">
<feFlood flood-opacity="0" result="BackgroundImageFix"/>
<feColorMatrix in="SourceAlpha" type="matrix" values="0 0 0 0 0 0 0 0 0 0 0 0 0 0 0 0 0 0 127 0" result="hardAlpha"/>
<feOffset dx="1" dy="4"/>
<feGaussianBlur stdDeviation="2"/>
<feComposite in2="hardAlpha" operator="out"/>
<feColorMatrix type="matrix" values="0 0 0 0 0 0 0 0 0 0 0 0 0 0 0 0 0 0 0.25 0"/>
<feBlend mode="normal" in2="BackgroundImageFix" result="effect1_dropShadow_1209_165"/>
<feBlend mode="normal" in="SourceGraphic" in2="effect1_dropShadow_1209_165" result="shape"/>
<feTurbulence type="fractalNoise" baseFrequency="0.99900001287460327 0.99900001287460327" numOctaves="3" seed="5591" />
<feDisplacementMap in="shape" scale="8" xChannelSelector="R" yChannelSelector="G" result="displacedImage" width="100%" height="100%" />
<feMerge result="effect2_texture_1209_165">
<feMergeNode in="displacedImage"/>
</feMerge>
</filter>
</defs>
</svg>
