<svg width="1645" height="956" viewBox="0 0 1645 956" fill="none" xmlns="http://www.w3.org/2000/svg">
<g opacity="0.2" filter="url(#filter0_ig_764_2)">
<path d="M34.9884 183.829C41.3006 169.59 53.0636 148.614 69.3265 133.925C81.4152 123.006 86.8392 90.843 76.5275 78.0595L69.0403 68.7776C63.8198 62.3057 62.036 53.5021 64.293 45.3479C67.2758 34.5715 76.6503 27.1628 87.3031 27.1628H109.932C114.963 27.1628 119.969 27.9016 124.806 29.358L205.481 45.3413C215.817 48.4535 225.827 52.6499 235.36 57.8648C238.661 59.6703 242.037 61.3442 245.551 62.6936L254.714 66.2112C258.229 67.5606 261.607 69.2354 264.907 71.0411C300.767 90.6596 342.287 95.2864 381.159 84.117C387.73 82.2292 394.521 81.0627 401.356 81.3265C408.191 81.5902 414.981 80.4243 421.551 78.5367C442.118 72.6283 463.63 71.0833 484.832 74.0341L578.381 87.0538L638.751 102.662C647.021 104.699 700.422 108.474 698.362 117.155C696.333 125.707 714.665 134.643 722.768 136.832L904.642 192.679C909.389 193.733 914.239 194.292 919.102 194.197C933.485 193.917 947.629 192.691 959.054 189.097C969.677 185.755 979.449 180.056 990.344 177.727L990.55 177.683C1011.38 173.23 1042.1 166.663 1037.52 158.945C1025.17 138.113 882.33 116.999 861.325 110.489C846.22 105.808 800.694 119.714 773.396 129.508C768.43 131.29 762.934 129.338 760.084 124.696C755.838 117.783 759.39 108.525 767.003 106.663L815.399 94.824C818.823 93.9865 822.326 93.5636 825.841 93.5636H955.617C966.859 93.5636 978.019 94.8368 989.05 97.1216C1057.64 111.329 1137.85 135.693 1175.16 116.516C1225.82 90.4767 1085.41 79.318 1138.54 59.7884C1191.67 40.2587 1230.11 114.395 1320.31 93.5637C1326 92.2496 1381.76 40.5108 1418.03 24.559C1438.56 15.5307 1474.45 0.42687 1496.1 6.3322C1558.17 23.2627 1668.31 102.232 1633.27 131.245C1617.13 144.603 1538.58 181.725 1503.08 193.422C1498.46 194.943 1493.98 196.747 1489.52 198.68C1457.56 212.545 1393.62 223.758 1374.27 223.758C1368.44 223.758 1348.81 219.469 1338.65 214.837C1334.75 213.062 1330.89 210.801 1326.72 209.817C1322.55 208.832 1318.87 206.487 1315.8 203.525C1301.42 189.679 1282.05 183.103 1262.76 185.437C1257.15 186.116 1251.91 188.404 1246.98 191.145L1239.07 195.539C1231.62 199.679 1225.04 205.209 1219.71 211.825L1218.94 212.779C1215.08 217.563 1211.98 222.907 1209.2 228.38C1203.85 238.91 1202.48 239.67 1211.5 259.822C1219.41 277.488 1209.72 292.51 1201.22 309.868L1175.16 363.073C1135.62 443.796 1102.26 417.756 1084.96 395.623C1067.66 373.489 1123.26 348.751 1138.09 326.618C1152.92 304.484 1123.26 279.747 1149.21 253.707C1169.97 232.875 1144.68 232.875 1129.44 235.479C1117.91 237.215 1093.88 256.402 1024.69 274.109C981.776 285.092 951.43 299.07 913.911 299.07C892.92 298.761 869.591 296.098 850.198 290.466L731.609 269.629L660.422 231.192C655.28 228.415 649.712 226.544 644.244 224.482C640.764 223.17 637.416 221.538 634.27 219.536C628.019 215.556 620.022 210.054 612.227 203.449C603.366 195.94 592.986 190.046 581.464 188.335C575.901 187.509 570.182 187.561 565.031 189.804C559.608 192.165 553.739 195.543 550.815 198.343C539.097 209.569 542.448 217.127 550.815 231.296L555.884 239.881C565.069 255.436 564.003 276.054 547.419 281.551C541.231 283.602 533.853 284.954 525.252 284.954C520.77 284.954 520.019 285.3 515.913 283.332C475.555 263.986 456.67 217.209 415.267 200.496C363.911 179.764 386.699 187.087 371.679 187.087C356.099 187.087 329.395 223.464 321.822 245.632C320.101 250.67 317.994 255.2 316.087 258.82C313.049 264.586 311.699 271.243 313.219 277.572C315.462 286.912 323.396 293.829 333.013 294.831L352.093 296.818C356.36 297.262 360.528 298.378 364.441 300.124C369.22 302.257 373.536 305.293 377.149 309.062L382.566 314.715C384.775 317.02 387.243 319.132 389.644 321.301C410.713 340.337 432.695 385.444 412.638 406.677C385.885 434.998 321.148 434.728 321.148 447.748C321.148 466.695 322.14 487.231 310.827 501.957L307.747 505.967C297.742 518.99 297.955 537.673 308.253 550.439L321.148 566.426C328.548 575.599 338.39 582.22 349.401 585.432L412.637 603.875C447.85 614.146 455.924 606.98 484.622 589.124C488.596 586.651 492.315 583.785 495.759 580.616C524.617 554.057 552.942 535.427 555.393 517.725C557.619 501.647 557.149 476.877 536.372 465.929C517.107 455.779 505.488 448.677 499.02 443.803C488.44 435.831 507.091 428.615 515.913 418.544C525.48 407.623 539.939 403.072 553.623 406.677L579.745 413.559C590.123 416.293 599.471 422.278 606.555 430.725L625.28 453.052C634.778 464.379 651.28 465.196 661.745 454.858C672.695 444.04 672.435 425.649 661.212 415.147C625.325 381.566 578.381 337.003 578.381 334.43C578.381 321.894 587.452 311.427 599.299 310.292L605.677 309.681C614.247 308.86 622.738 311.954 628.996 318.178L663.613 352.606C703.304 392.081 761.587 402.631 811.503 379.376L830.849 370.364C841.253 365.517 852.115 361.849 863.254 359.42L869.695 358.016C878.105 356.182 886.361 353.641 894.386 350.417L1022.16 299.07C1025.97 297.538 1030.21 297.713 1033.9 299.553L1034.28 299.744C1043 304.099 1045.41 316.002 1039.13 323.724C1037.58 325.625 1035.62 327.1 1033.41 328.023L850.198 404.104C846.936 405.468 824.652 422.733 822.484 425.641C817.728 432.019 819.633 432.31 825.563 437.331C828.436 439.763 841.47 442.526 845.579 442.526C849.687 442.526 859.195 440.884 863.254 440.361C867.267 439.844 879.485 434.06 885.61 432.568C895.6 430.135 924.06 419.929 931.785 414.146L945.198 404.104C958.009 394.511 973.337 389.358 989.053 389.358H1010.64C1021.66 389.358 1032.18 394.156 1039.73 402.617C1054.48 419.171 1054.1 445.082 1038.86 461.142L1034.83 465.392C1030.29 470.169 1024.88 473.871 1018.94 476.286C1014.76 477.988 1010.41 479.313 1006.32 481.219L992.357 487.718C988.264 489.623 983.991 491.232 980.054 493.439C977.494 494.874 975.031 496.508 974.397 497.51C971.487 502.11 986.658 510.589 991.333 513.097L1016.79 526.376C1032.25 534.67 1033.16 527.423 1043.88 513.048C1049.5 505.51 1057.6 500.469 1066.58 498.921L1104.71 492.345C1114.88 490.592 1125.29 493.127 1133.69 499.4L1137.94 502.571C1145.65 508.324 1150.23 517.659 1150.23 527.612C1150.23 540.065 1143.08 551.283 1132.15 556.006L1109.06 565.978C1093.32 572.776 1097.75 590.165 1110.53 602.008C1111.06 602.499 1111.61 602.963 1112.17 603.399C1115.47 605.927 1119.35 607.598 1122.86 609.824L1144.38 623.488C1147.88 625.714 1151.57 627.672 1155.53 628.952C1174.3 635.026 1194.42 635.099 1213.31 629.082L1222.52 626.145C1230.25 623.686 1237.36 619.481 1243.39 613.826L1254.41 602.008C1259.52 597.204 1262.21 585.732 1256.98 581.069C1253.3 577.786 1238.22 578.454 1234.09 581.069L1199.05 602.741C1192.41 606.938 1184.31 607.68 1177.08 604.751C1159.94 597.803 1155.41 574.462 1168.6 560.988L1181.12 548.199L1186.58 541.623C1201.48 523.67 1196.6 495.731 1176.66 484.452C1169.19 480.231 1163.41 473.283 1160.44 464.924C1156.37 453.492 1157.94 440.677 1164.64 430.713L1185.2 400.13C1192.22 389.69 1201.9 381.558 1213.12 376.674L1227.79 370.289C1242.92 363.704 1260.32 367.361 1271.9 379.559C1283.51 391.79 1286.96 410.194 1280.65 426.162L1267.71 458.888C1266.82 461.137 1265.74 463.297 1264.48 465.343L1254.41 481.753C1248.16 491.921 1252.23 505.565 1262.86 510.151C1265.42 511.252 1267.91 512.545 1270.42 513.051C1273.9 513.75 1277.39 512.271 1280.85 511.49L1281.08 511.439C1284.53 510.658 1287.9 509.514 1291.3 508.537C1309.5 503.312 1329.14 508.484 1342.9 522.473C1366.83 546.806 1365.88 587.508 1340.84 610.567L1276.54 672.292C1266.72 681.336 1259.87 693.429 1256.98 706.832L1253.22 724.268C1250.65 736.163 1254.32 748.596 1262.82 756.869C1273.64 767.396 1289.85 768.89 1302.24 760.505L1390.37 700.876C1395.64 697.306 1402.01 695.971 1408.18 697.138C1426.11 700.53 1434.59 722.444 1424.02 738.085L1409.17 760.056C1397.4 777.483 1399.48 801.365 1414.07 816.244L1424.22 826.593C1426.06 828.476 1428.09 830.146 1430.28 831.574L1436.36 835.551C1450.71 844.938 1643.02 934.418 1633.27 948.951C1623.57 963.403 1415.92 897.043 1402.73 886.083L1376.56 864.342C1367.53 856.841 1337.96 837.22 1326.53 835.942C1297.29 832.674 1246.66 825.305 1222.52 843L1221.95 843.307C1209.03 850.231 1194.17 852.26 1179.56 851.081C1169.7 850.285 1163.55 850.285 1156.99 848C1154.71 847.204 1159.14 849.088 1156.99 848C1159.22 848.918 1154.83 846.911 1156.99 848C1130.12 836.949 1139.71 817.18 1163.47 798.283C1161.05 802.31 1167.08 795.412 1163.47 798.283C1169.78 787.78 1169.17 782.452 1163.47 771.567C1157.1 759.414 1131.69 755.211 1118.61 756.869L1050.63 761.499C1045.39 761.855 1040.32 763.473 1035.84 766.214C1024.41 773.216 1025.5 788.422 1038.93 788.45C1040.07 788.453 1041.16 788.345 1042.27 788.134L1099.8 777.221C1110.87 775.9 1120.57 785.031 1120.57 796.777C1120.57 805.972 1114.53 813.942 1106.02 815.972L1022.32 835.942C1000.88 841.057 978.548 840.179 957.533 833.394L794.993 780.922C784.737 777.611 779.426 765.703 783.551 755.269C786.37 748.14 792.982 743.495 800.312 743.495H883.015C886.525 743.495 890.029 743.266 893.495 742.809L1002.56 722.643L1088.4 704.338C1100.21 701.818 1126.64 706.068 1138.32 709.21L1156.99 716.025C1160.56 716.986 1174.28 713.916 1177.08 711.387C1181.71 707.201 1178.75 697.905 1173.93 691.966C1171.11 688.507 1166.75 686.926 1162.46 685.639L1109.05 669.595C1104.76 668.307 1100.65 666.519 1096.59 664.647C1081.84 657.841 1067.06 655.76 1059.73 671.221C1055.23 680.707 1046.92 687.563 1037.11 689.899L1002.56 698.119C985.145 702.263 967.019 701.696 949.869 696.47L900.76 681.507C884.59 676.58 873.461 660.98 873.461 643.244C873.461 630.194 879.527 617.972 889.699 610.529L896.36 605.654C909.966 595.698 927.191 592.973 942.971 598.28L964.487 605.515C977.425 609.867 984.176 590.479 972.542 583.368C968.594 580.954 964.017 579.004 959 575.874L925.128 555.092C907.032 543.802 900.391 529.89 882.72 541.904C876.648 546.032 871.326 551.402 867.174 557.633L861.828 565.657C843.784 592.737 813.444 607.673 782.156 604.879L772.446 604.012C764.14 603.27 756.143 600.349 749.183 595.516L729.969 582.172C716.61 572.893 713.328 553.727 722.769 540.114C726.724 534.41 732.49 530.39 739.019 528.785L753.712 526.376C760.22 524.776 764.59 525.651 771.237 526.376C779.004 526.376 779.196 526.252 787.229 511.607C789.748 507.014 780.042 502.681 775.587 499.891C773.871 498.817 772.61 498.488 766.104 497.291C759.572 496.09 738.197 499.456 734.798 499.456C708.415 499.456 709.268 513.656 687.983 529.174L546.372 652.939C537.259 659.582 525.137 666.388 515.733 670.88C510.499 673.38 504.915 674.96 499.222 676.078C486.932 678.491 468.479 682.062 455.602 684.549C445.76 686.449 436.261 689.812 427.418 694.532L417.616 699.765C414.374 701.888 406.529 713.937 405.781 717.881C404.355 725.394 415.043 734.896 422.061 736.899L501.214 764.492C532.76 773.494 566.496 771.287 595.725 755.88C614.259 746.111 629.418 736.972 627.803 734.137C624.097 727.627 522.781 734.137 493.127 727.627C476.674 724.015 483.836 718.106 494.992 713.376C505.006 709.131 515.855 707.777 526.632 707.142L687.11 697.681L756.256 689.781C777.105 687.398 811.515 696.899 803.254 717.211C800.389 724.255 727.338 731.055 687.478 733.857C684.994 734.031 682.842 735.717 681.968 738.173C680.722 741.673 682.452 745.568 685.8 746.803L695.98 750.558C701.252 752.502 705.27 757.071 706.709 762.759L707.557 766.107C709.403 773.402 710.838 780.271 711.023 786.699C711.353 798.126 702.483 806.885 692.835 813.123L682.252 819.965C674.218 825.16 665.144 828.534 655.64 829.778C643.744 831.335 627.604 833.39 618.916 834.304C615.034 834.713 611.15 835.072 607.291 835.66L560.225 842.824C550.022 844.377 539.641 844.383 529.437 842.841L480.773 835.489C477.636 835.015 474.532 834.33 471.524 833.326C457.484 828.64 433.219 819.137 418.517 813.874C414.613 812.477 410.816 810.816 407.197 808.801L316.628 758.374C313.009 756.359 309.232 754.562 305.167 753.738C293.656 751.406 281.671 753.107 271.085 758.685C267.122 760.772 263.992 764.175 262.549 768.415C256.063 787.473 249.698 818.917 263.571 827.059L301 852.961C310.844 858.738 311.722 873.307 302.651 880.35C299.99 882.416 305.957 880.35 302.651 880.35C296.951 884.332 290.08 886.822 283.303 885.268C280.912 884.719 278.56 883.986 276.267 883.071C272.757 881.672 269.328 880.056 265.747 878.846L189.176 852.961C159.768 839.56 131.03 835.748 100.385 845.6C67.7194 856.103 32.0305 853.962 19.9039 852.617C11.7985 851.718 7.69753 847.391 5.95229 841.96C1.50525 828.123 13.4718 815.468 24.6333 806.802L37.1629 797.073C48.0644 788.609 54.4997 775.189 54.4997 760.919C54.4997 755.267 53.487 749.665 51.5148 744.409L41.6245 718.047C36.9855 705.683 41.8426 691.615 52.9374 685.282C59.4111 681.587 67.1035 681.095 73.9535 683.939L84.2807 688.226C96.132 693.145 103.922 705.202 103.922 718.625C103.922 729.176 108.758 739.079 116.906 745.212L127.022 752.825C139.836 762.47 162.452 740.951 162.452 740.951C162.452 740.951 199.061 687.699 189.176 676.85L103.7 597.502C92.3252 586.942 86.9823 570.908 89.5955 555.173C92.335 538.677 103.387 525.066 118.43 519.662L122.158 518.323C138.453 512.469 156.466 516.001 169.672 527.64L205.128 558.888C210.912 563.985 219.681 562.172 223.209 555.151C225.726 550.141 224.724 543.985 220.835 540.07C209.307 528.465 193.244 511.402 189.176 503.687C182.998 491.969 174.349 473.741 182.998 447.702C187.539 434.031 200.132 415.502 211.629 400.575C220.476 389.088 233.852 382.973 247.793 382.818C250.334 382.789 252.881 382.534 255.303 381.77C257.726 381.007 260.526 381.047 262.583 379.564C265.102 377.748 266.655 373.928 268.207 370.657C271.053 364.659 267.013 352.855 261.535 349.442C242.703 337.708 238.242 332.289 229.95 327.92C226.644 326.178 223.799 325.65 221.414 325.848C214.185 326.45 210.508 334.932 206.243 341.112L194.994 357.41C187.17 368.747 176.358 377.415 163.901 382.337L156.452 385.281C148.004 388.619 138.775 389.085 130.062 386.613C118.151 383.234 108.179 374.649 102.663 363.023L100.794 359.084C96.4235 349.873 95.195 339.358 97.315 329.305C99.9464 316.827 107.506 306.126 118.095 299.891L143.46 284.954L149.587 280.528C169.933 265.826 186.52 246.059 197.877 222.98L213.813 192.709C218.576 180.164 228.205 170.365 240.27 165.789L247.93 162.883C250.715 161.826 253.169 159.977 255.019 157.541C256.321 155.825 257.25 153.938 257.824 151.98C262.007 137.731 242.074 133.327 227.293 135.544L217.53 137.008C208.64 138.342 199.581 137.83 190.845 135.717L188.428 135.133L177.577 132.745C172.869 131.71 168.045 131.051 163.255 131.603C159.644 132.02 156.067 132.748 152.561 133.783C150.291 134.679 148.154 135.875 146.207 137.34L82.8583 185.002C80.0469 187.117 77.4443 189.486 74.874 191.885C63.4243 202.57 47.5601 212.093 35.9662 202.93C30.5244 198.629 32.1095 190.323 34.9884 183.829Z" fill="#F5F5F5"/>
<path d="M302.651 880.35C311.722 873.307 310.844 858.738 301 852.961L263.571 827.059C249.698 818.917 256.063 787.473 262.549 768.415C263.992 764.175 267.122 760.772 271.085 758.685C281.671 753.107 293.656 751.406 305.167 753.738C309.232 754.562 313.009 756.359 316.628 758.374L407.197 808.801C410.816 810.816 414.613 812.477 418.517 813.874C433.219 819.137 457.484 828.64 471.524 833.326C474.532 834.33 477.636 835.015 480.773 835.489L529.437 842.841C539.641 844.383 550.022 844.377 560.225 842.824L607.291 835.66C611.15 835.072 615.034 834.713 618.916 834.304C627.604 833.39 643.744 831.335 655.64 829.778C665.144 828.534 674.218 825.16 682.252 819.965L692.835 813.123C702.483 806.885 711.353 798.126 711.023 786.699C710.838 780.271 709.403 773.402 707.557 766.107L706.709 762.759C705.27 757.071 701.252 752.502 695.98 750.558L685.8 746.803C682.452 745.568 680.722 741.673 681.968 738.173C682.842 735.717 684.994 734.031 687.478 733.857C727.338 731.055 800.389 724.255 803.254 717.211C811.515 696.899 777.105 687.398 756.256 689.781L687.11 697.681L526.632 707.142C515.855 707.777 505.006 709.131 494.992 713.376C483.836 718.106 476.674 724.015 493.127 727.627C522.781 734.137 624.097 727.627 627.803 734.137C629.418 736.972 614.259 746.111 595.725 755.88C566.496 771.287 532.76 773.494 501.214 764.492L422.061 736.899C415.043 734.896 404.355 725.394 405.781 717.881C406.529 713.937 414.374 701.888 417.616 699.765L427.418 694.532C436.261 689.812 445.76 686.449 455.602 684.549C468.479 682.062 486.932 678.491 499.222 676.078C504.915 674.96 510.499 673.38 515.733 670.88C525.137 666.388 537.259 659.582 546.372 652.939L687.983 529.174C709.268 513.656 708.415 499.456 734.798 499.456C738.197 499.456 759.572 496.09 766.104 497.291C772.61 498.488 773.871 498.817 775.587 499.891C780.042 502.681 789.748 507.014 787.229 511.607C779.196 526.252 779.004 526.376 771.237 526.376C764.59 525.651 760.22 524.776 753.712 526.376L739.019 528.785C732.49 530.39 726.724 534.41 722.769 540.114C713.328 553.727 716.61 572.893 729.969 582.172L749.183 595.516C756.143 600.349 764.14 603.27 772.446 604.012L782.156 604.879C813.444 607.673 843.784 592.737 861.828 565.657L867.174 557.633C871.326 551.402 876.648 546.032 882.72 541.904C900.391 529.89 907.032 543.802 925.128 555.092L959 575.874C964.017 579.004 968.594 580.954 972.542 583.368C984.176 590.479 977.425 609.867 964.487 605.515L942.971 598.28C927.191 592.973 909.966 595.698 896.36 605.654L889.699 610.529C879.527 617.972 873.461 630.194 873.461 643.244C873.461 660.98 884.59 676.58 900.76 681.507L949.869 696.47C967.019 701.696 985.145 702.263 1002.56 698.119L1037.11 689.899C1046.92 687.563 1055.23 680.707 1059.73 671.221C1067.06 655.76 1081.84 657.841 1096.59 664.647C1100.65 666.519 1104.76 668.307 1109.05 669.595L1162.46 685.639C1166.75 686.926 1171.11 688.507 1173.93 691.966C1178.75 697.905 1181.71 707.201 1177.08 711.387C1174.28 713.916 1160.56 716.986 1156.99 716.025L1138.32 709.21C1126.64 706.068 1100.21 701.818 1088.4 704.338L1002.56 722.643L893.495 742.809C890.029 743.266 886.525 743.495 883.015 743.495H800.312C792.982 743.495 786.37 748.14 783.551 755.269C779.426 765.703 784.737 777.611 794.993 780.922L957.533 833.394C978.548 840.179 1000.88 841.057 1022.32 835.942L1106.02 815.972C1114.53 813.942 1120.57 805.972 1120.57 796.777C1120.57 785.031 1110.87 775.9 1099.8 777.221L1042.27 788.134C1041.16 788.345 1040.07 788.453 1038.93 788.45C1025.5 788.422 1024.41 773.216 1035.84 766.214C1040.32 763.473 1045.39 761.855 1050.63 761.499L1118.61 756.869C1131.69 755.211 1157.1 759.414 1163.47 771.567C1169.17 782.452 1169.78 787.78 1163.47 798.283M302.651 880.35C305.957 880.35 299.99 882.416 302.651 880.35ZM302.651 880.35C296.951 884.332 290.08 886.822 283.303 885.268C280.912 884.719 278.56 883.986 276.267 883.071C272.757 881.672 269.328 880.056 265.747 878.846L189.176 852.961C159.768 839.56 131.03 835.748 100.385 845.6C67.7194 856.103 32.0305 853.962 19.9039 852.617C11.7985 851.718 7.69753 847.391 5.95229 841.96C1.50525 828.123 13.4718 815.468 24.6333 806.802L37.1629 797.073C48.0644 788.609 54.4997 775.189 54.4997 760.919C54.4997 755.267 53.487 749.665 51.5148 744.409L41.6245 718.047C36.9855 705.683 41.8426 691.615 52.9374 685.282C59.4111 681.587 67.1035 681.095 73.9535 683.939L84.2807 688.226C96.132 693.145 103.922 705.202 103.922 718.625C103.922 729.176 108.758 739.079 116.906 745.212L127.022 752.825C139.836 762.47 162.452 740.951 162.452 740.951C162.452 740.951 199.061 687.699 189.176 676.85L103.7 597.502C92.3252 586.942 86.9823 570.908 89.5955 555.173C92.335 538.677 103.387 525.066 118.43 519.662L122.158 518.323C138.453 512.469 156.466 516.001 169.672 527.64L205.128 558.888C210.912 563.985 219.681 562.172 223.209 555.151C225.726 550.141 224.724 543.985 220.835 540.07C209.307 528.465 193.244 511.402 189.176 503.687C182.998 491.969 174.349 473.741 182.998 447.702C187.539 434.031 200.132 415.502 211.629 400.575C220.476 389.088 233.852 382.973 247.793 382.818C250.334 382.789 252.881 382.534 255.303 381.77C257.726 381.007 260.526 381.047 262.583 379.564C265.102 377.748 266.655 373.928 268.207 370.657C271.053 364.659 267.013 352.855 261.535 349.442C242.703 337.708 238.242 332.289 229.95 327.92C226.644 326.178 223.799 325.65 221.414 325.848C214.185 326.45 210.508 334.932 206.243 341.112L194.994 357.41C187.17 368.747 176.358 377.415 163.901 382.337L156.452 385.281C148.004 388.619 138.775 389.085 130.062 386.613C118.151 383.234 108.179 374.649 102.663 363.023L100.794 359.084C96.4235 349.873 95.195 339.358 97.315 329.305C99.9464 316.827 107.506 306.126 118.095 299.891L143.46 284.954L149.587 280.528C169.933 265.826 186.52 246.059 197.877 222.98L213.813 192.709C218.576 180.164 228.205 170.365 240.27 165.789L247.93 162.883C250.715 161.826 253.169 159.977 255.019 157.541C256.321 155.825 257.25 153.938 257.824 151.98C262.007 137.731 242.074 133.327 227.293 135.544L217.53 137.008C208.64 138.342 199.581 137.83 190.845 135.717L188.428 135.133L177.577 132.745C172.869 131.71 168.045 131.051 163.255 131.603C159.644 132.02 156.067 132.748 152.561 133.783C150.291 134.679 148.154 135.875 146.207 137.34L82.8583 185.002C80.0469 187.117 77.4443 189.486 74.874 191.885C63.4243 202.57 47.5601 212.093 35.9662 202.93C30.5244 198.629 32.1095 190.323 34.9884 183.829C41.3006 169.59 53.0636 148.614 69.3265 133.925C81.4152 123.006 86.8392 90.843 76.5275 78.0595L69.0403 68.7776C63.8198 62.3057 62.036 53.5021 64.293 45.3479C67.2758 34.5715 76.6503 27.1628 87.3031 27.1628H109.932C114.963 27.1628 119.969 27.9016 124.806 29.358L205.481 45.3413C215.817 48.4535 225.827 52.6499 235.36 57.8648C238.661 59.6703 242.037 61.3442 245.551 62.6936L254.714 66.2112C258.229 67.5606 261.607 69.2354 264.907 71.0411C300.767 90.6596 342.287 95.2864 381.159 84.117C387.73 82.2292 394.521 81.0627 401.356 81.3265C408.191 81.5902 414.981 80.4243 421.551 78.5367C442.118 72.6283 463.63 71.0833 484.832 74.0341L578.381 87.0538L638.751 102.662C647.021 104.699 700.422 108.474 698.362 117.155C696.333 125.707 714.665 134.643 722.768 136.832L904.642 192.679C909.389 193.733 914.239 194.292 919.102 194.197C933.485 193.917 947.629 192.691 959.054 189.097C969.677 185.755 979.449 180.056 990.344 177.727L990.55 177.683C1011.38 173.23 1042.1 166.663 1037.52 158.945C1025.17 138.113 882.33 116.999 861.325 110.489C846.22 105.808 800.694 119.714 773.396 129.508C768.43 131.29 762.934 129.338 760.084 124.696C755.838 117.783 759.39 108.525 767.003 106.663L815.399 94.824C818.823 93.9865 822.326 93.5636 825.841 93.5636H955.617C966.859 93.5636 978.019 94.8368 989.05 97.1216C1057.64 111.329 1137.85 135.693 1175.16 116.516C1225.82 90.4767 1085.41 79.318 1138.54 59.7884C1191.67 40.2587 1230.11 114.395 1320.31 93.5637C1326 92.2496 1381.76 40.5108 1418.03 24.559C1438.56 15.5307 1474.45 0.42687 1496.1 6.3322C1558.17 23.2627 1668.31 102.232 1633.27 131.245C1617.13 144.603 1538.58 181.725 1503.08 193.422C1498.46 194.943 1493.98 196.747 1489.52 198.68C1457.56 212.545 1393.62 223.758 1374.27 223.758C1368.44 223.758 1348.81 219.469 1338.65 214.837C1334.75 213.062 1330.89 210.801 1326.72 209.817C1322.55 208.832 1318.87 206.487 1315.8 203.525C1301.42 189.679 1282.05 183.103 1262.76 185.437C1257.15 186.116 1251.91 188.404 1246.98 191.145L1239.07 195.539C1231.62 199.679 1225.04 205.209 1219.71 211.825L1218.94 212.779C1215.08 217.563 1211.98 222.907 1209.2 228.38C1203.85 238.91 1202.48 239.67 1211.5 259.822C1219.41 277.488 1209.72 292.51 1201.22 309.868L1175.16 363.073C1135.62 443.796 1102.26 417.756 1084.96 395.623C1067.66 373.489 1123.26 348.751 1138.09 326.618C1152.92 304.484 1123.26 279.747 1149.21 253.707C1169.97 232.875 1144.68 232.875 1129.44 235.479C1117.91 237.215 1093.88 256.402 1024.69 274.109C981.776 285.092 951.43 299.07 913.911 299.07C892.92 298.761 869.591 296.098 850.198 290.466L731.609 269.629L660.422 231.192C655.28 228.415 649.712 226.544 644.244 224.482C640.764 223.17 637.416 221.538 634.27 219.536C628.019 215.556 620.022 210.054 612.227 203.449C603.366 195.94 592.986 190.046 581.464 188.335C575.901 187.509 570.182 187.561 565.031 189.804C559.608 192.165 553.739 195.543 550.815 198.343C539.097 209.569 542.448 217.127 550.815 231.296L555.884 239.881C565.069 255.436 564.003 276.054 547.419 281.551C541.231 283.602 533.853 284.954 525.252 284.954C520.77 284.954 520.019 285.3 515.913 283.332C475.555 263.986 456.67 217.209 415.267 200.496C363.911 179.764 386.699 187.087 371.679 187.087C356.099 187.087 329.395 223.464 321.822 245.632C320.101 250.67 317.994 255.2 316.087 258.82C313.049 264.586 311.699 271.243 313.219 277.572C315.462 286.912 323.396 293.829 333.013 294.831L352.093 296.818C356.36 297.262 360.528 298.378 364.441 300.124C369.22 302.257 373.536 305.293 377.149 309.062L382.566 314.715C384.775 317.02 387.243 319.132 389.644 321.301C410.713 340.337 432.695 385.444 412.638 406.677C385.885 434.998 321.148 434.728 321.148 447.748C321.148 466.695 322.14 487.231 310.827 501.957L307.747 505.967C297.742 518.99 297.955 537.673 308.253 550.439L321.148 566.426C328.548 575.599 338.39 582.22 349.401 585.432L412.637 603.875C447.85 614.146 455.924 606.98 484.622 589.124C488.596 586.651 492.315 583.785 495.759 580.616C524.617 554.057 552.942 535.427 555.393 517.725C557.619 501.647 557.149 476.877 536.372 465.929C517.107 455.779 505.488 448.677 499.02 443.803C488.44 435.831 507.091 428.615 515.913 418.544C525.48 407.623 539.939 403.072 553.623 406.677L579.745 413.559C590.123 416.293 599.471 422.278 606.555 430.725L625.28 453.052C634.778 464.379 651.28 465.196 661.745 454.858C672.695 444.04 672.435 425.649 661.212 415.147C625.325 381.566 578.381 337.003 578.381 334.43C578.381 321.894 587.452 311.427 599.299 310.292L605.677 309.681C614.247 308.86 622.738 311.954 628.996 318.178L663.613 352.606C703.304 392.081 761.587 402.631 811.503 379.376L830.849 370.364C841.253 365.517 852.115 361.849 863.254 359.42L869.695 358.016C878.105 356.182 886.361 353.641 894.386 350.417L1022.16 299.07C1025.97 297.538 1030.21 297.713 1033.9 299.553L1034.28 299.744C1043 304.099 1045.41 316.002 1039.13 323.724C1037.58 325.625 1035.62 327.1 1033.41 328.023L850.198 404.104C846.936 405.468 824.652 422.733 822.484 425.641C817.728 432.019 819.633 432.31 825.563 437.331C828.436 439.763 841.47 442.526 845.579 442.526C849.687 442.526 859.195 440.884 863.254 440.361C867.267 439.844 879.485 434.06 885.61 432.568C895.6 430.135 924.06 419.929 931.785 414.146L945.198 404.104C958.009 394.511 973.337 389.358 989.053 389.358H1010.64C1021.66 389.358 1032.18 394.156 1039.73 402.617C1054.48 419.171 1054.1 445.082 1038.86 461.142L1034.83 465.392C1030.29 470.169 1024.88 473.871 1018.94 476.286C1014.76 477.988 1010.41 479.313 1006.32 481.219L992.357 487.718C988.264 489.623 983.991 491.232 980.054 493.439C977.494 494.874 975.031 496.508 974.397 497.51C971.487 502.11 986.658 510.589 991.333 513.097L1016.79 526.376C1032.25 534.67 1033.16 527.423 1043.88 513.048C1049.5 505.51 1057.6 500.469 1066.58 498.921L1104.71 492.345C1114.88 490.592 1125.29 493.127 1133.69 499.4L1137.94 502.571C1145.65 508.324 1150.23 517.659 1150.23 527.612C1150.23 540.065 1143.08 551.283 1132.15 556.006L1109.06 565.978C1093.32 572.776 1097.75 590.165 1110.53 602.008C1111.06 602.499 1111.61 602.963 1112.17 603.399C1115.47 605.927 1119.35 607.598 1122.86 609.824L1144.38 623.488C1147.88 625.714 1151.57 627.672 1155.53 628.952C1174.3 635.026 1194.42 635.099 1213.31 629.082L1222.52 626.145C1230.25 623.686 1237.36 619.481 1243.39 613.826L1254.41 602.008C1259.52 597.204 1262.21 585.732 1256.98 581.069C1253.3 577.786 1238.22 578.454 1234.09 581.069L1199.05 602.741C1192.41 606.938 1184.31 607.68 1177.08 604.751C1159.94 597.803 1155.41 574.462 1168.6 560.988L1181.12 548.199L1186.58 541.623C1201.48 523.67 1196.6 495.731 1176.66 484.452C1169.19 480.231 1163.41 473.283 1160.44 464.924C1156.37 453.492 1157.94 440.677 1164.64 430.713L1185.2 400.13C1192.22 389.69 1201.9 381.558 1213.12 376.674L1227.79 370.289C1242.92 363.704 1260.32 367.361 1271.9 379.559C1283.51 391.79 1286.96 410.194 1280.65 426.162L1267.71 458.888C1266.82 461.137 1265.74 463.297 1264.48 465.343L1254.41 481.753C1248.16 491.921 1252.23 505.565 1262.86 510.151C1265.42 511.252 1267.91 512.545 1270.42 513.051C1273.9 513.75 1277.39 512.271 1280.85 511.49L1281.08 511.439C1284.53 510.658 1287.9 509.514 1291.3 508.537C1309.5 503.312 1329.14 508.484 1342.9 522.473C1366.83 546.806 1365.88 587.508 1340.84 610.567L1276.54 672.292C1266.72 681.336 1259.87 693.429 1256.98 706.832L1253.22 724.268C1250.65 736.163 1254.32 748.596 1262.82 756.869C1273.64 767.396 1289.85 768.89 1302.24 760.505L1390.37 700.876C1395.64 697.306 1402.01 695.971 1408.18 697.138C1426.11 700.53 1434.59 722.444 1424.02 738.085L1409.17 760.056C1397.4 777.483 1399.48 801.365 1414.07 816.244L1424.22 826.593C1426.06 828.476 1428.09 830.146 1430.28 831.574L1436.36 835.551C1450.71 844.938 1643.02 934.418 1633.27 948.951C1623.57 963.403 1415.92 897.043 1402.73 886.083L1376.56 864.342C1367.53 856.841 1337.96 837.22 1326.53 835.942C1297.29 832.674 1246.66 825.305 1222.52 843L1221.95 843.307C1209.03 850.231 1194.17 852.26 1179.56 851.081C1169.7 850.285 1163.55 850.285 1156.99 848M1163.47 798.283C1167.08 795.412 1161.05 802.31 1163.47 798.283ZM1163.47 798.283C1139.71 817.18 1130.12 836.949 1156.99 848M1156.99 848C1154.83 846.911 1159.22 848.918 1156.99 848ZM1156.99 848C1159.14 849.088 1154.71 847.204 1156.99 848Z" stroke="#989694" stroke-opacity="0.79" stroke-width="2"/>
</g>
<defs>
<filter id="filter0_ig_764_2" x="0" y="0" width="1645" height="956" filterUnits="userSpaceOnUse" color-interpolation-filters="sRGB">
<feFlood flood-opacity="0" result="BackgroundImageFix"/>
<feBlend mode="normal" in="SourceGraphic" in2="BackgroundImageFix" result="shape"/>
<feColorMatrix in="SourceAlpha" type="matrix" values="0 0 0 0 0 0 0 0 0 0 0 0 0 0 0 0 0 0 127 0" result="hardAlpha"/>
<feOffset dx="17" dy="4"/>
<feGaussianBlur stdDeviation="2"/>
<feComposite in2="hardAlpha" operator="arithmetic" k2="-1" k3="1"/>
<feColorMatrix type="matrix" values="0 0 0 0 0 0 0 0 0 0 0 0 0 0 0 0 0 0 0.25 0"/>
<feBlend mode="normal" in2="shape" result="effect1_innerShadow_764_2"/>
<feTurbulence type="fractalNoise" baseFrequency="0.52631580829620361 0.52631580829620361" numOctaves="3" seed="9970" />
<feDisplacementMap in="effect1_innerShadow_764_2" scale="8" xChannelSelector="R" yChannelSelector="G" result="displacedImage" width="100%" height="100%" />
<feMerge result="effect2_texture_764_2">
<feMergeNode in="displacedImage"/>
</feMerge>
</filter>
</defs>
</svg>
