<svg width="768" height="1024" viewBox="0 0 768 1024" fill="none" xmlns="http://www.w3.org/2000/svg">
<g clip-path="url(#clip0_1174_39)">
<g clip-path="url(#clip1_1174_39)">
<rect width="768" height="1024" fill="#D9D9D9"/>
<g opacity="0.31" filter="url(#filter0_ig_1174_39)">
<path d="M15.7737 359.609C19.094 350.192 25.2813 336.32 33.8356 326.605C40.1943 319.385 43.0473 298.114 37.6233 289.66L33.6851 283.521C30.9391 279.241 30.0008 273.419 31.188 268.026C32.757 260.9 37.688 256 43.2913 256H55.1945C57.8406 256 60.4739 256.489 63.0182 257.452L105.453 268.022C110.89 270.08 116.155 272.855 121.17 276.304C122.906 277.498 124.682 278.605 126.53 279.498L131.35 281.824C133.199 282.716 134.975 283.824 136.712 285.018C155.574 297.993 177.414 301.052 197.86 293.666C201.316 292.417 204.889 291.646 208.484 291.82C212.079 291.995 215.651 291.224 219.107 289.975C229.925 286.068 241.24 285.046 252.392 286.998L301.599 295.608L333.354 305.93C337.704 307.277 350.755 315.808 349.672 321.55C348.605 327.205 358.247 333.114 362.509 334.562L473.214 365.461C475.71 366.158 478.262 366.528 480.82 366.465C488.385 366.28 495.825 365.469 501.834 363.092C507.422 360.882 512.562 357.113 518.293 355.573L518.401 355.544C529.358 352.599 545.517 348.256 543.109 343.152C536.61 329.375 461.477 315.412 450.429 311.107C442.483 308.011 418.536 317.207 404.178 323.684C401.566 324.863 398.675 323.572 397.175 320.502C394.942 315.93 396.811 309.808 400.815 308.576L426.272 300.747C428.073 300.193 429.915 299.913 431.764 299.913H500.026C505.94 299.913 511.81 300.755 517.612 302.266C553.69 311.662 595.882 327.775 615.506 315.092C642.152 297.872 568.296 290.492 596.242 277.576C624.189 264.661 644.41 313.69 691.854 299.913C694.846 299.044 723.906 283.107 742.985 272.558C753.783 266.587 765.817 265.141 777.205 269.047C809.854 280.243 874.905 305.646 856.472 324.833C847.374 334.305 772.859 337.998 776.759 360.385C779.638 374.362 731.174 386.015 720.239 386.015C717.174 386.015 706.846 383.178 701.5 380.115C699.452 378.942 697.421 377.446 695.228 376.795C693.036 376.144 691.1 374.593 689.482 372.634C681.92 363.478 671.73 359.128 661.587 360.672C658.635 361.121 655.877 362.634 653.282 364.447L649.123 367.353C645.204 370.091 641.746 373.748 638.938 378.123L638.533 378.754C636.503 381.918 634.874 385.453 633.411 389.072C630.596 396.036 629.879 396.538 634.623 409.865C638.783 421.549 633.685 431.483 629.213 442.962L615.506 478.149C594.709 531.534 577.161 514.313 568.062 499.675C558.964 485.037 588.21 468.677 596.008 454.04C603.807 439.402 588.21 423.042 601.858 405.821C612.776 392.045 599.475 392.045 591.459 393.767C585.393 394.915 572.755 407.604 536.36 419.314C513.786 426.577 494.546 425.613 474.811 425.613C463.769 425.409 454.777 421.893 444.576 418.169L340.677 388.164C337.255 387.176 333.955 385.589 330.997 383.223C327.709 380.591 323.503 376.952 319.403 372.584C314.741 367.618 309.282 363.72 303.221 362.589C300.295 362.042 297.287 362.077 294.577 363.56C291.725 365.122 288.638 367.355 287.1 369.208C280.936 376.631 282.699 381.63 287.1 391L289.766 396.678C294.597 406.965 294.037 420.6 285.313 424.236C282.059 425.592 278.178 426.486 273.653 426.486C271.296 426.486 270.901 426.715 268.741 425.413C247.513 412.619 237.579 381.684 215.801 370.631C188.788 356.92 200.774 361.763 192.874 361.763C184.679 361.763 170.632 385.821 166.649 400.481C165.743 403.813 164.635 406.809 163.632 409.203C162.034 413.016 161.324 417.418 162.124 421.604C163.304 427.781 167.477 432.355 172.535 433.018L182.571 434.332C184.816 434.626 187.008 435.364 189.066 436.519C191.58 437.929 193.851 439.937 195.751 442.43L198.6 446.168C199.762 447.692 201.06 449.089 202.323 450.524C213.406 463.113 224.969 492.943 214.418 506.986C200.346 525.715 166.294 525.537 166.294 534.147C166.294 546.677 166.816 560.258 160.866 569.997L159.245 572.649C153.983 581.262 154.095 593.618 159.511 602.06L166.294 612.633C170.187 618.7 175.364 623.078 181.156 625.202L214.418 637.4C234.168 644.642 245.687 636.618 263.436 623.046C286.445 605.453 311.877 589.178 306.899 576.379C298.26 554.172 290.432 553.411 279.502 546.171C269.369 539.459 263.258 534.762 259.855 531.539C254.29 526.266 264.101 521.494 268.741 514.834C273.773 507.611 281.379 504.602 288.577 506.986L302.317 511.537C307.776 513.345 312.693 517.303 316.419 522.889L326.268 537.655C331.265 545.146 339.945 545.686 345.449 538.849C351.209 531.695 351.072 519.532 345.169 512.587C326.292 490.379 301.599 460.908 301.599 459.206C301.599 450.916 306.371 443.994 312.602 443.243L315.957 442.839C320.465 442.296 324.931 444.342 328.223 448.458L346.432 471.227C367.309 497.333 397.966 504.31 424.222 488.931L434.398 482.97C439.871 479.765 445.584 477.339 451.443 475.733L454.831 474.804C459.255 473.592 463.598 471.911 467.819 469.779L535.028 435.821C537.033 434.808 539.263 434.924 541.202 436.141L541.404 436.267C545.992 439.147 547.258 447.019 543.954 452.126C543.141 453.383 542.109 454.359 540.948 454.969L444.576 505.284C442.86 506.186 431.139 517.604 429.998 519.527C427.497 523.745 428.499 523.938 431.618 527.258C433.129 528.866 439.985 530.694 442.146 530.694C444.307 530.694 449.308 529.608 451.443 529.262C453.554 528.92 459.981 525.095 463.203 524.108C468.457 522.499 483.428 515.75 487.491 511.925L494.546 505.284C501.285 498.94 509.347 495.532 517.614 495.532H528.97C534.764 495.532 540.301 498.705 544.268 504.301C552.031 515.248 551.829 532.384 543.812 543.005L541.691 545.816C539.306 548.975 536.457 551.423 533.336 553.02C531.135 554.146 528.85 555.022 526.697 556.282L519.352 560.581C517.199 561.841 514.951 562.905 512.88 564.364C511.534 565.313 510.238 566.394 509.905 567.057C508.374 570.098 516.354 575.706 518.813 577.364L532.202 586.147C540.334 591.632 540.814 586.839 546.452 577.332C549.409 572.347 553.669 569.013 558.392 567.989L578.45 563.641C583.797 562.482 589.273 564.158 593.693 568.307L595.928 570.404C599.982 574.208 602.392 580.382 602.392 586.964C602.392 595.2 598.635 602.619 592.883 605.742L580.737 612.337C572.457 616.833 574.791 628.333 581.509 636.165C581.787 636.489 582.077 636.796 582.376 637.085C584.107 638.756 586.15 639.862 587.994 641.334L599.315 650.37C601.16 651.843 603.1 653.137 605.181 653.984C615.056 658 625.637 658.049 635.572 654.07L640.42 652.127C644.482 650.501 648.226 647.72 651.394 643.98L657.19 636.165C659.88 632.988 661.295 625.401 658.544 622.317C656.607 620.146 648.677 620.588 646.501 622.317L628.072 636.649C624.58 639.425 620.318 639.916 616.516 637.979C607.499 633.384 605.12 617.948 612.056 609.037L618.64 600.579L621.512 596.23C629.353 584.357 626.786 565.88 616.293 558.421C612.367 555.629 609.328 551.035 607.763 545.506C605.623 537.946 606.451 529.471 609.974 522.882L620.788 502.656C624.48 495.751 629.571 490.373 635.473 487.143L643.189 482.921C651.148 478.566 660.302 480.985 666.391 489.051C672.497 497.141 674.314 509.312 670.993 519.872L664.186 541.514C663.719 543.002 663.151 544.43 662.49 545.783L657.19 556.636C653.906 563.36 656.043 572.384 661.639 575.416C662.982 576.145 664.293 576.999 665.615 577.334C667.443 577.797 669.281 576.819 671.1 576.302L671.219 576.268C673.037 575.751 674.806 574.995 676.598 574.349C686.17 570.893 696.502 574.314 703.739 583.565L704.425 584.442C717.013 600.534 716.511 627.452 703.338 642.702L668.834 682.646C663.667 688.627 660.065 696.624 658.544 705.488L656.566 717.02C655.216 724.886 657.143 733.108 661.617 738.58C667.309 745.541 675.832 746.529 682.351 740.984L728.706 701.549C731.481 699.189 734.828 698.305 738.074 699.077C747.509 701.321 751.969 715.813 746.409 726.157L738.599 740.687C732.691 751.679 733.412 766.554 740.149 776.443C740.798 777.395 741.655 778.178 742.603 778.831C746.067 781.215 751.053 781.867 754.704 783.955C757.301 785.44 759.622 787.479 760.236 787.984C767.786 794.192 868.942 853.369 863.811 862.979C858.709 872.537 737.685 845.481 730.747 838.233L716.982 823.855C715.906 822.731 714.844 821.42 713.781 820.008C706.446 810.268 695.885 804.271 683.87 802.19L682.351 801.926C666.97 799.765 655.689 803.773 642.992 815.475L623.387 838.233C617.863 843.324 616.674 841.539 611.172 839.128C609.972 838.602 608.786 838.019 607.653 837.299C606.519 836.579 605.323 836.017 604.148 835.41C590.014 828.102 587.021 802.6 599.52 790.103C601.419 788.204 603.044 779.172 604.317 776.509L609.356 765.968C612.677 759.022 612.354 755.498 609.356 748.299C606.009 740.262 592.64 737.483 585.762 738.58L550.315 741.614C547.373 741.866 544.564 742.958 542.224 744.76C536.209 749.39 536.785 759.447 543.852 759.465C544.447 759.467 545.023 759.396 545.608 759.256L575.865 752.039C581.691 751.165 586.794 757.204 586.794 764.972C586.794 771.053 583.616 776.323 579.139 777.666L535.111 790.873C523.836 794.256 512.088 793.675 501.034 789.188L415.538 754.487C410.143 752.297 407.349 744.422 409.519 737.522C411.002 732.806 414.48 729.735 418.336 729.735H461.838C463.684 729.735 465.527 729.583 467.35 729.281L524.718 715.945L569.869 703.839C576.083 702.173 589.985 704.983 596.128 707.061L605.949 711.568C607.828 712.204 612.242 710.173 613.715 708.501C616.152 705.732 614.595 699.584 612.056 695.657C610.577 693.369 611.081 692.324 608.827 691.473L580.732 680.862C578.478 680.011 576.316 678.828 574.181 677.59C566.419 673.089 558.648 671.713 554.789 681.938C552.422 688.211 548.054 692.745 542.89 694.29L524.718 699.726C515.558 702.467 506.024 702.091 497.003 698.636L471.171 688.74C462.666 685.481 456.812 675.165 456.812 663.435C456.812 654.805 460.003 646.722 465.354 641.8L468.857 638.576C476.014 631.992 485.074 630.189 493.375 633.699L504.692 638.484C511.498 641.362 515.048 628.54 508.929 623.837C506.852 622.241 504.445 620.952 501.806 618.881L483.989 605.138C474.471 597.671 470.978 588.471 461.682 596.416C458.489 599.146 455.689 602.697 453.505 606.818L450.693 612.125C441.202 630.033 425.243 639.911 408.786 638.063L403.678 637.49C399.309 636.999 395.103 635.068 391.442 631.871L381.335 623.046C374.308 616.91 372.582 604.235 377.548 595.232C379.628 591.46 382.661 588.801 386.095 587.74L393.824 586.147C397.247 585.088 399.546 585.667 403.042 586.147C407.128 586.147 407.228 586.064 411.454 576.379C412.779 573.342 407.674 570.476 405.33 568.631C404.428 567.921 403.764 567.703 400.342 566.912C396.906 566.117 385.663 568.343 383.875 568.343C369.998 568.343 370.446 577.734 359.25 587.997L284.763 669.847C278.442 675.641 267.348 680.133 259.855 677.864C252.818 675.733 231.504 680.61 225.373 685.66L209.445 699.437C207.74 700.841 204.98 710.187 204.586 712.795C203.836 717.764 205.754 722.036 209.445 723.361L261.009 743.62C277.603 749.574 295.348 748.115 310.723 737.925C320.471 731.465 328.445 725.421 327.596 723.546C325.646 719.241 272.353 723.546 256.756 719.241C248.101 716.852 251.868 712.944 257.737 709.816C263.004 707.009 268.711 706.113 274.38 705.693L358.791 699.437L395.162 694.212C406.129 692.636 424.228 698.919 419.883 712.352C418.376 717.011 379.951 721.508 358.985 723.361C357.678 723.476 356.546 724.591 356.086 726.215C355.431 728.53 356.341 731.106 358.102 731.923L363.457 734.406C366.23 735.692 368.343 738.713 369.1 742.475L369.546 744.689C370.517 749.514 371.272 754.056 371.37 758.307C371.543 765.864 366.877 771.657 361.803 775.782L356.236 780.307C352.01 783.742 347.237 785.974 342.238 786.797C335.981 787.826 327.491 789.185 322.921 789.79C320.879 790.06 318.836 790.298 316.806 790.686L292.05 795.425C286.683 796.452 281.222 796.456 275.855 795.436L250.257 790.573C248.607 790.26 246.975 789.807 245.393 789.143C238.007 786.044 225.244 779.759 217.51 776.279C215.457 775.355 213.46 774.257 211.556 772.924L163.917 739.575C162.013 738.242 160.027 737.054 157.888 736.509C151.833 734.967 145.529 736.092 139.961 739.78L136.733 741.919C132.822 744.51 129.735 748.862 128.027 754.196C124.357 765.657 127.799 778.94 136.009 784.998L161.855 804.071C167.033 807.891 167.495 817.526 162.724 822.184C161.324 823.551 159.631 824.288 157.892 824.288H151.959C148.783 824.288 145.642 823.523 142.687 822.041C140.84 821.116 139.037 820.047 137.153 819.247L96.8769 802.128C81.4081 793.266 66.2918 790.745 50.1723 797.261C32.9903 804.206 14.2179 802.79 7.83923 801.901C3.57575 801.306 1.41865 798.445 0.50065 794.853C-1.8385 785.702 4.45591 777.333 10.3269 771.602L16.9175 765.168C22.6517 759.57 26.0367 750.695 26.0367 741.258C26.0367 737.52 25.504 733.815 24.4666 730.339L19.2643 712.905C16.8242 704.728 19.3791 695.425 25.2149 691.237C28.6201 688.793 32.6663 688.468 36.2695 690.348L41.7016 693.183C47.9354 696.437 52.0331 704.411 52.0331 713.287C52.0331 720.265 54.5768 726.814 58.8628 730.87L64.1834 735.905C70.9239 742.284 79.56 744.733 86.7487 739.281C91.3028 735.826 96.324 730.961 100.776 724.407C110.135 710.63 102.076 692.835 96.8769 685.66L51.9162 633.184C45.933 626.201 43.1226 615.597 44.4972 605.191C45.9382 594.282 51.7518 585.28 59.664 581.706L61.6251 580.821C70.1964 576.949 79.6712 579.285 86.6175 586.982L105.268 607.648C108.31 611.019 112.923 609.82 114.778 605.177C116.102 601.864 115.575 597.792 113.529 595.202C107.466 587.528 99.0164 576.244 96.8769 571.141C93.6273 563.392 89.0779 551.337 93.6273 534.117C96.0157 525.076 102.64 512.822 108.687 502.95C113.341 495.353 120.376 491.309 127.709 491.207C129.046 491.188 130.386 491.019 131.66 490.514C132.934 490.009 134.407 490.035 135.489 489.055C136.814 487.854 137.631 485.327 138.447 483.164C139.944 479.198 137.819 471.391 134.938 469.134C125.032 461.374 122.686 457.79 118.324 454.901C116.585 453.749 115.088 453.4 113.834 453.531C110.032 453.928 108.098 459.538 105.854 463.625L99.9373 474.403C95.8214 481.901 90.1346 487.633 83.5823 490.889L79.664 492.836C75.22 495.043 70.3656 495.352 65.7826 493.717C59.5173 491.482 54.2723 485.804 51.3706 478.116L50.3876 475.511C48.0887 469.419 47.4425 462.465 48.5576 455.817C49.9418 447.565 53.9184 440.488 59.4882 436.364L72.8302 426.486L76.0527 423.559C86.7549 413.836 95.4799 400.763 101.453 385.501L109.836 365.481C112.341 357.185 117.406 350.705 123.752 347.678L127.781 345.756C129.247 345.057 130.537 343.834 131.51 342.223C132.195 341.089 132.684 339.841 132.986 338.546C135.186 329.122 124.701 326.21 116.927 327.676L111.791 328.645C107.115 329.526 102.35 329.188 97.7545 327.791L96.4831 327.404L90.7758 325.825C88.2994 325.14 85.7619 324.705 83.2423 325.07C81.3427 325.346 79.4612 325.827 77.6169 326.511C76.4231 327.104 75.2989 327.895 74.2748 328.864L40.9534 360.385C39.4746 361.783 38.1056 363.35 36.7536 364.936C30.7311 372.003 22.3864 378.3 16.2881 372.241C13.4256 369.396 14.2594 363.904 15.7737 359.609Z" fill="#F5F5F5"/>
<path d="M15.7737 359.609C19.094 350.192 25.2813 336.32 33.8356 326.605C40.1943 319.385 43.0473 298.114 37.6233 289.66L33.6851 283.521C30.9391 279.241 30.0008 273.419 31.188 268.026C32.757 260.9 37.688 256 43.2913 256H55.1945C57.8406 256 60.4739 256.489 63.0182 257.452L105.453 268.022C110.89 270.08 116.155 272.855 121.17 276.304C122.906 277.498 124.682 278.605 126.53 279.498L131.35 281.824C133.199 282.716 134.975 283.824 136.712 285.018C155.574 297.993 177.414 301.052 197.86 293.666C201.316 292.417 204.889 291.646 208.484 291.82C212.079 291.995 215.651 291.224 219.107 289.975C229.925 286.068 241.24 285.046 252.392 286.998L301.599 295.608L333.354 305.93C337.704 307.277 350.755 315.808 349.672 321.55C348.605 327.205 358.247 333.114 362.509 334.562L473.214 365.461C475.71 366.158 478.262 366.528 480.82 366.465C488.385 366.28 495.825 365.469 501.834 363.092C507.422 360.882 512.562 357.113 518.293 355.573L518.401 355.544C529.358 352.599 545.517 348.256 543.109 343.152C536.61 329.375 461.477 315.412 450.429 311.107C442.483 308.011 418.536 317.207 404.178 323.684C401.566 324.863 398.675 323.572 397.175 320.502C394.942 315.93 396.811 309.808 400.815 308.576L426.272 300.747C428.073 300.193 429.915 299.913 431.764 299.913H500.026C505.94 299.913 511.81 300.755 517.612 302.266C553.69 311.662 595.882 327.775 615.506 315.092C642.152 297.872 568.296 290.492 596.242 277.576C624.189 264.661 644.41 313.69 691.854 299.913C694.846 299.044 723.906 283.107 742.985 272.558C753.783 266.587 765.817 265.141 777.205 269.047C809.854 280.243 874.905 305.646 856.472 324.833C847.374 334.305 772.859 337.998 776.759 360.385C779.638 374.362 731.174 386.015 720.239 386.015C717.174 386.015 706.846 383.178 701.5 380.115C699.452 378.942 697.421 377.446 695.228 376.795C693.036 376.144 691.1 374.593 689.482 372.634C681.92 363.478 671.73 359.128 661.587 360.672C658.635 361.121 655.877 362.634 653.282 364.447L649.123 367.353C645.204 370.091 641.746 373.748 638.938 378.123L638.533 378.754C636.503 381.918 634.874 385.453 633.411 389.072C630.596 396.036 629.879 396.538 634.623 409.865C638.783 421.549 633.685 431.483 629.213 442.962L615.506 478.149C594.709 531.534 577.161 514.313 568.062 499.675C558.964 485.037 588.21 468.677 596.008 454.04C603.807 439.402 588.21 423.042 601.858 405.821C612.776 392.045 599.475 392.045 591.459 393.767C585.393 394.915 572.755 407.604 536.36 419.314C513.786 426.577 494.546 425.613 474.811 425.613C463.769 425.409 454.777 421.893 444.576 418.169L340.677 388.164C337.255 387.176 333.955 385.589 330.997 383.223C327.709 380.591 323.503 376.952 319.403 372.584C314.741 367.618 309.282 363.72 303.221 362.589C300.295 362.042 297.287 362.077 294.577 363.56C291.725 365.122 288.638 367.355 287.1 369.208C280.936 376.631 282.699 381.63 287.1 391L289.766 396.678C294.597 406.965 294.037 420.6 285.313 424.236C282.059 425.592 278.178 426.486 273.653 426.486C271.296 426.486 270.901 426.715 268.741 425.413C247.513 412.619 237.579 381.684 215.801 370.631C188.788 356.92 200.774 361.763 192.874 361.763C184.679 361.763 170.632 385.821 166.649 400.481C165.743 403.813 164.635 406.809 163.632 409.203C162.034 413.016 161.324 417.418 162.124 421.604C163.304 427.781 167.477 432.355 172.535 433.018L182.571 434.332C184.816 434.626 187.008 435.364 189.066 436.519C191.58 437.929 193.851 439.937 195.751 442.43L198.6 446.168C199.762 447.692 201.06 449.089 202.323 450.524C213.406 463.113 224.969 492.943 214.418 506.986C200.346 525.715 166.294 525.537 166.294 534.147C166.294 546.677 166.816 560.258 160.866 569.997L159.245 572.649C153.983 581.262 154.095 593.618 159.511 602.06L166.294 612.633C170.187 618.7 175.364 623.078 181.156 625.202L214.418 637.4C234.168 644.642 245.687 636.618 263.436 623.046C286.445 605.453 311.877 589.178 306.899 576.379C298.26 554.172 290.432 553.411 279.502 546.171C269.369 539.459 263.258 534.762 259.855 531.539C254.29 526.266 264.101 521.494 268.741 514.834C273.773 507.611 281.379 504.602 288.577 506.986L302.317 511.537C307.776 513.345 312.693 517.303 316.419 522.889L326.268 537.655C331.265 545.146 339.945 545.686 345.449 538.849C351.209 531.695 351.072 519.532 345.169 512.587C326.292 490.379 301.599 460.908 301.599 459.206C301.599 450.916 306.371 443.994 312.602 443.243L315.957 442.839C320.465 442.296 324.931 444.342 328.223 448.458L346.432 471.227C367.309 497.333 397.966 504.31 424.222 488.931L434.398 482.97C439.871 479.765 445.584 477.339 451.443 475.733L454.831 474.804C459.255 473.592 463.598 471.911 467.819 469.779L535.028 435.821C537.033 434.808 539.263 434.924 541.202 436.141L541.404 436.267C545.992 439.147 547.258 447.019 543.954 452.126C543.141 453.383 542.109 454.359 540.948 454.969L444.576 505.284C442.86 506.186 431.139 517.604 429.998 519.527C427.497 523.745 428.499 523.938 431.618 527.258C433.129 528.866 439.985 530.694 442.146 530.694C444.307 530.694 449.308 529.608 451.443 529.262C453.554 528.92 459.981 525.095 463.203 524.108C468.457 522.499 483.428 515.75 487.491 511.925L494.546 505.284C501.285 498.94 509.347 495.532 517.614 495.532H528.97C534.764 495.532 540.301 498.705 544.268 504.301C552.031 515.248 551.829 532.384 543.812 543.005L541.691 545.816C539.306 548.975 536.457 551.423 533.336 553.02C531.135 554.146 528.85 555.022 526.697 556.282L519.352 560.581C517.199 561.841 514.951 562.905 512.88 564.364C511.534 565.313 510.238 566.394 509.905 567.057C508.374 570.098 516.354 575.706 518.813 577.364L532.202 586.147C540.334 591.632 540.814 586.839 546.452 577.332C549.409 572.347 553.669 569.013 558.392 567.989L578.45 563.641C583.797 562.482 589.273 564.158 593.693 568.307L595.928 570.404C599.982 574.208 602.392 580.382 602.392 586.964C602.392 595.2 598.635 602.619 592.883 605.742L580.737 612.337C572.457 616.833 574.791 628.333 581.509 636.165C581.787 636.489 582.077 636.796 582.376 637.085C584.107 638.756 586.15 639.862 587.994 641.334L599.315 650.37C601.16 651.843 603.1 653.137 605.181 653.984C615.056 658 625.637 658.049 635.572 654.07L640.42 652.127C644.482 650.501 648.226 647.72 651.394 643.98L657.19 636.165C659.88 632.988 661.295 625.401 658.544 622.317C656.607 620.146 648.677 620.588 646.501 622.317L628.072 636.649C624.58 639.425 620.318 639.916 616.516 637.979C607.499 633.384 605.12 617.948 612.056 609.037L618.64 600.579L621.512 596.23C629.353 584.357 626.786 565.88 616.293 558.421C612.367 555.629 609.328 551.035 607.763 545.506C605.623 537.946 606.451 529.471 609.974 522.882L620.788 502.656C624.48 495.751 629.571 490.373 635.473 487.143L643.189 482.921C651.148 478.566 660.302 480.985 666.391 489.051C672.497 497.141 674.314 509.312 670.993 519.872L664.186 541.514C663.719 543.002 663.151 544.43 662.49 545.783L657.19 556.636C653.906 563.36 656.043 572.384 661.639 575.416C662.982 576.145 664.293 576.999 665.615 577.334C667.443 577.797 669.281 576.819 671.1 576.302L671.219 576.268C673.037 575.751 674.806 574.995 676.598 574.349C686.17 570.893 696.502 574.314 703.739 583.565L704.425 584.442C717.013 600.534 716.511 627.452 703.338 642.702L668.834 682.646C663.667 688.627 660.065 696.624 658.544 705.488L656.566 717.02C655.216 724.886 657.143 733.108 661.617 738.58C667.309 745.541 675.832 746.529 682.351 740.984L728.706 701.549C731.481 699.189 734.828 698.305 738.074 699.077C747.509 701.321 751.969 715.813 746.409 726.157L738.599 740.687C732.691 751.679 733.412 766.554 740.149 776.443C740.798 777.395 741.655 778.178 742.603 778.831C746.067 781.215 751.053 781.867 754.704 783.955C757.301 785.44 759.622 787.479 760.236 787.984C767.786 794.192 868.942 853.369 863.811 862.979C858.709 872.537 737.685 845.481 730.747 838.233L716.982 823.855C715.906 822.731 714.844 821.42 713.781 820.008C706.446 810.268 695.885 804.271 683.87 802.19L682.351 801.926C666.97 799.765 655.689 803.773 642.992 815.475L623.387 838.233C617.863 843.324 616.674 841.539 611.172 839.128C609.972 838.602 608.786 838.019 607.653 837.299C606.519 836.579 605.323 836.017 604.148 835.41C590.014 828.102 587.021 802.6 599.52 790.103C601.419 788.204 603.044 779.172 604.317 776.509L609.356 765.968C612.677 759.022 612.354 755.498 609.356 748.299C606.009 740.262 592.64 737.483 585.762 738.58L550.315 741.614C547.373 741.866 544.564 742.958 542.224 744.76C536.209 749.39 536.785 759.447 543.852 759.465C544.447 759.467 545.023 759.396 545.608 759.256L575.865 752.039C581.691 751.165 586.794 757.204 586.794 764.972C586.794 771.053 583.616 776.323 579.139 777.666L535.111 790.873C523.836 794.256 512.088 793.675 501.034 789.188L415.538 754.487C410.143 752.297 407.349 744.422 409.519 737.522C411.002 732.806 414.48 729.735 418.336 729.735H461.838C463.684 729.735 465.527 729.583 467.35 729.281L524.718 715.945L569.869 703.839C576.083 702.173 589.985 704.983 596.128 707.061L605.949 711.568C607.828 712.204 612.242 710.173 613.715 708.501C616.152 705.732 614.595 699.584 612.056 695.657C610.577 693.369 611.081 692.324 608.827 691.473L580.732 680.862C578.478 680.011 576.316 678.828 574.181 677.59C566.419 673.089 558.648 671.713 554.789 681.938C552.422 688.211 548.054 692.745 542.89 694.29L524.718 699.726C515.558 702.467 506.024 702.091 497.003 698.636L471.171 688.74C462.666 685.481 456.812 675.165 456.812 663.435C456.812 654.805 460.003 646.722 465.354 641.8L468.857 638.576C476.014 631.992 485.074 630.189 493.375 633.699L504.692 638.484C511.498 641.362 515.048 628.54 508.929 623.837C506.852 622.241 504.445 620.952 501.806 618.881L483.989 605.138C474.471 597.671 470.978 588.471 461.682 596.416C458.489 599.146 455.689 602.697 453.505 606.818L450.693 612.125C441.202 630.033 425.243 639.911 408.786 638.063L403.678 637.49C399.309 636.999 395.103 635.068 391.442 631.871L381.335 623.046C374.308 616.91 372.582 604.235 377.548 595.232C379.628 591.46 382.661 588.801 386.095 587.74L393.824 586.147C397.247 585.088 399.546 585.667 403.042 586.147C407.128 586.147 407.228 586.064 411.454 576.379C412.779 573.342 407.674 570.476 405.33 568.631C404.428 567.921 403.764 567.703 400.342 566.912C396.906 566.117 385.663 568.343 383.875 568.343C369.998 568.343 370.446 577.734 359.25 587.997L284.763 669.847C278.442 675.641 267.348 680.133 259.855 677.864C252.818 675.733 231.504 680.61 225.373 685.66L209.445 699.437C207.74 700.841 204.98 710.187 204.586 712.795C203.836 717.764 205.754 722.036 209.445 723.361L261.009 743.62C277.603 749.574 295.348 748.115 310.723 737.925C320.471 731.465 328.445 725.421 327.596 723.546C325.646 719.241 272.353 723.546 256.756 719.241C248.101 716.852 251.868 712.944 257.737 709.816C263.004 707.009 268.711 706.113 274.38 705.693L358.791 699.437L395.162 694.212C406.129 692.636 424.228 698.919 419.883 712.352C418.376 717.011 379.951 721.508 358.985 723.361C357.678 723.476 356.546 724.591 356.086 726.215C355.431 728.53 356.341 731.106 358.102 731.923L363.457 734.406C366.23 735.692 368.343 738.713 369.1 742.475L369.546 744.689C370.517 749.514 371.272 754.056 371.37 758.307C371.543 765.864 366.877 771.657 361.803 775.782L356.236 780.307C352.01 783.742 347.237 785.974 342.238 786.797C335.981 787.826 327.491 789.185 322.921 789.79C320.879 790.06 318.836 790.298 316.806 790.686L292.05 795.425C286.683 796.452 281.222 796.456 275.855 795.436L250.257 790.573C248.607 790.26 246.975 789.807 245.393 789.143C238.007 786.044 225.244 779.759 217.51 776.279C215.457 775.355 213.46 774.257 211.556 772.924L163.917 739.575C162.013 738.242 160.027 737.054 157.888 736.509C151.833 734.967 145.529 736.092 139.961 739.78L136.733 741.919C132.822 744.51 129.735 748.862 128.027 754.196C124.357 765.657 127.799 778.94 136.009 784.998L161.855 804.071C167.033 807.891 167.495 817.526 162.724 822.184C161.324 823.551 159.631 824.288 157.892 824.288H151.959C148.783 824.288 145.642 823.523 142.687 822.041C140.84 821.116 139.037 820.047 137.153 819.247L96.8769 802.128C81.4081 793.266 66.2918 790.745 50.1723 797.261C32.9903 804.206 14.2179 802.79 7.83923 801.901C3.57575 801.306 1.41865 798.445 0.50065 794.853C-1.8385 785.702 4.45591 777.333 10.3269 771.602L16.9175 765.168C22.6517 759.57 26.0367 750.695 26.0367 741.258C26.0367 737.52 25.504 733.815 24.4666 730.339L19.2643 712.905C16.8242 704.728 19.3791 695.425 25.2149 691.237C28.6201 688.793 32.6663 688.468 36.2695 690.348L41.7016 693.183C47.9354 696.437 52.0331 704.411 52.0331 713.287C52.0331 720.265 54.5768 726.814 58.8628 730.87L64.1834 735.905C70.9239 742.284 79.56 744.733 86.7487 739.281C91.3028 735.826 96.324 730.961 100.776 724.407C110.135 710.63 102.076 692.835 96.8769 685.66L51.9162 633.184C45.933 626.201 43.1226 615.597 44.4972 605.191C45.9382 594.282 51.7518 585.28 59.664 581.706L61.6251 580.821C70.1964 576.949 79.6712 579.285 86.6175 586.982L105.268 607.648C108.31 611.019 112.923 609.82 114.778 605.177C116.102 601.864 115.575 597.792 113.529 595.202C107.466 587.528 99.0164 576.244 96.8769 571.141C93.6273 563.392 89.0779 551.337 93.6273 534.117C96.0157 525.076 102.64 512.822 108.687 502.95C113.341 495.353 120.376 491.309 127.709 491.207C129.046 491.188 130.386 491.019 131.66 490.514C132.934 490.009 134.407 490.035 135.489 489.055C136.814 487.854 137.631 485.327 138.447 483.164C139.944 479.198 137.819 471.391 134.938 469.134C125.032 461.374 122.686 457.79 118.324 454.901C116.585 453.749 115.088 453.4 113.834 453.531C110.032 453.928 108.098 459.538 105.854 463.625L99.9373 474.403C95.8214 481.901 90.1346 487.633 83.5823 490.889L79.664 492.836C75.22 495.043 70.3656 495.352 65.7826 493.717C59.5173 491.482 54.2723 485.804 51.3706 478.116L50.3876 475.511C48.0887 469.419 47.4425 462.465 48.5576 455.817C49.9418 447.565 53.9184 440.488 59.4882 436.364L72.8302 426.486L76.0527 423.559C86.7549 413.836 95.4799 400.763 101.453 385.501L109.836 365.481C112.341 357.185 117.406 350.705 123.752 347.678L127.781 345.756C129.247 345.057 130.537 343.834 131.51 342.223C132.195 341.089 132.684 339.841 132.986 338.546C135.186 329.122 124.701 326.21 116.927 327.676L111.791 328.645C107.115 329.526 102.35 329.188 97.7545 327.791L96.4831 327.404L90.7758 325.825C88.2994 325.14 85.7619 324.705 83.2423 325.07C81.3427 325.346 79.4612 325.827 77.6169 326.511C76.4231 327.104 75.2989 327.895 74.2748 328.864L40.9534 360.385C39.4746 361.783 38.1056 363.35 36.7536 364.936C30.7311 372.003 22.3864 378.3 16.2881 372.241C13.4256 369.396 14.2594 363.904 15.7737 359.609Z" stroke="#878787"/>
</g>
<rect x="651" y="868" width="64" height="21" fill="white"/>
<path d="M656.792 885.36C653.192 885.36 651.848 880.704 651.848 877.104C651.848 873.528 653.312 868.8 656.864 868.8C659.24 868.8 660.656 870.96 661.304 873.888H659.36C658.976 872.088 658.184 870.576 656.84 870.576C654.536 870.576 653.768 874.32 653.768 877.08C653.768 879.864 654.536 883.584 656.816 883.584C658.208 883.584 659.024 882.024 659.408 880.032H661.352C660.68 883.152 659.192 885.36 656.792 885.36ZM668.529 885V870.936H664.737V869.16H674.145V870.936H670.377V885H668.529ZM677.482 885L680.962 869.16H683.842L687.322 885H685.498L684.202 879.024H680.554L679.258 885H677.482ZM680.962 877.248H683.818L682.45 870.936H682.33L680.962 877.248ZM691.835 885V869.16H696.419C698.987 869.16 700.427 870.984 700.427 872.928C700.427 874.824 698.915 876.72 696.323 876.72H693.683V885H691.835ZM693.683 875.064H696.299C697.643 875.064 698.531 874.032 698.531 872.952C698.531 871.848 697.667 870.864 696.299 870.864H693.683V875.064ZM707.412 885V870.936H703.62V869.16H713.028V870.936H709.26V885H707.412Z" fill="black"/>
<path d="M222.672 110V115.4H219.972V107.336H221.772C222.636 106.292 223.212 103.988 223.428 100.748C223.68 96.572 223.788 92.972 223.824 86.24H234.48V107.336H236.424V115.4H233.724V110H222.672ZM224.652 107.336H231.708V88.904H226.488C226.416 93.98 226.344 97.112 226.164 100.892C226.02 103.916 225.372 106.256 224.652 107.336ZM247.873 110.54C243.445 110.54 241.033 105.824 241.033 101.324C241.033 96.86 243.625 92.036 247.945 92.036C252.373 92.036 254.785 96.752 254.785 101.252C254.785 105.716 252.193 110.54 247.873 110.54ZM243.805 101.288C243.805 104.348 245.137 107.984 247.909 107.984C250.645 107.984 252.013 104.312 252.013 101.288C252.013 98.228 250.681 94.592 247.909 94.592C245.173 94.592 243.805 98.264 243.805 101.288ZM267.315 110.54C262.851 110.54 260.043 105.68 260.043 97.688C260.043 89.624 262.203 86.672 267.891 86.276L270.051 86.132C271.347 86.024 271.851 85.772 271.851 84.152H274.551C274.551 87.896 273.219 88.76 270.555 88.904L267.783 89.048C263.391 89.3 262.491 91.316 262.491 97.256V97.868C263.247 95.06 265.119 92.9 267.711 92.9C271.815 92.9 274.227 97.616 274.227 101.684C274.227 105.716 271.635 110.54 267.315 110.54ZM263.247 101.576C263.247 104.096 264.579 107.984 267.351 107.984C270.087 107.984 271.455 104.312 271.455 101.72C271.455 99.092 270.159 95.456 267.459 95.456C264.903 95.456 263.247 98.732 263.247 101.576ZM286.936 110.54C285.496 110.54 284.2 109.676 283.444 108.236V116.336H280.744V92.576H283.156V94.808C284.056 93.08 285.784 92.036 287.404 92.036C291.472 92.036 293.884 96.968 293.884 101.252C293.884 105.5 291.328 110.54 286.936 110.54ZM283.444 104.6C283.444 106.292 285.136 107.984 286.684 107.984C289.744 107.984 291.112 104.096 291.112 101.288C291.112 98.444 289.78 94.592 286.756 94.592C285.244 94.592 283.444 96.284 283.444 98.012V104.6ZM306.198 110.54C301.77 110.54 299.358 105.824 299.358 101.324C299.358 96.86 301.95 92.036 306.27 92.036C310.698 92.036 313.11 96.752 313.11 101.252C313.11 105.716 310.518 110.54 306.198 110.54ZM302.13 101.288C302.13 104.348 303.462 107.984 306.234 107.984C308.97 107.984 310.338 104.312 310.338 101.288C310.338 98.228 309.006 94.592 306.234 94.592C303.498 94.592 302.13 98.264 302.13 101.288ZM348.248 110V95.132H341.984V110H339.284V92.576H350.948V110H348.248ZM364.522 110.54C360.094 110.54 357.682 105.824 357.682 101.324C357.682 96.86 360.274 92.036 364.594 92.036C369.022 92.036 371.434 96.752 371.434 101.252C371.434 105.716 368.842 110.54 364.522 110.54ZM360.454 101.288C360.454 104.348 361.786 107.984 364.558 107.984C367.294 107.984 368.662 104.312 368.662 101.288C368.662 98.228 367.33 94.592 364.558 94.592C361.822 94.592 360.454 98.264 360.454 101.288ZM389.651 110L387.095 101.216H385.223V110H382.775V101.216H380.867L378.311 110H375.719L378.779 100.064L375.791 92.576H378.419L380.867 98.912H382.775V92.576H385.223V98.912H387.167L389.651 92.576H392.207L389.219 100.028L392.279 110H389.651ZM402.793 110.54C399.877 110.54 397.429 108.632 397.429 105.104C397.429 102.044 399.337 100.208 402.901 99.236L405.241 98.588C406.069 98.372 406.537 97.904 406.537 97.148C406.537 96.284 405.781 94.592 403.585 94.592C401.713 94.592 400.237 95.888 399.877 97.652H397.069C397.861 94.016 400.885 92.036 403.765 92.036C407.149 92.036 409.237 94.592 409.237 97.148V106.04C409.237 107.48 409.561 107.768 410.461 107.768H411.757V110.252H410.029C408.301 110.252 407.365 109.568 407.005 108.056C405.997 109.676 404.269 110.54 402.793 110.54ZM400.201 104.996C400.201 106.976 401.389 108.164 403.081 108.164C404.881 108.164 406.537 106.472 406.537 104.564V100.388C406.321 100.712 405.889 100.928 405.385 101.072L403.477 101.612C401.317 102.224 400.201 103.448 400.201 104.996ZM415.322 110.288V107.66H416.006C417.914 107.66 418.418 106.58 418.598 103.124C418.742 100.46 418.886 97.184 418.922 92.576H428.75V110H426.05V95.132H421.478C421.442 98.48 421.334 101.072 421.226 103.484C420.974 108.92 419.678 110.288 416.222 110.288H415.322ZM442.288 110.54C437.86 110.54 435.448 105.824 435.448 101.324C435.448 96.86 438.04 92.036 442.36 92.036C446.788 92.036 449.2 96.752 449.2 101.252C449.2 105.716 446.608 110.54 442.288 110.54ZM438.22 101.288C438.22 104.348 439.552 107.984 442.324 107.984C445.06 107.984 446.428 104.312 446.428 101.288C446.428 98.228 445.096 94.592 442.324 94.592C439.588 94.592 438.22 98.264 438.22 101.288ZM455.897 110V92.576H463.205C466.121 92.576 467.849 94.592 467.849 96.68C467.849 98.084 466.985 99.344 465.473 100.028C467.165 100.856 468.173 102.512 468.173 104.528C468.173 107.444 466.085 110 462.953 110H455.897ZM458.453 107.732H462.629C464.213 107.732 465.473 106.148 465.473 104.384C465.473 102.62 464.249 101.18 462.629 101.18H458.453V107.732ZM458.453 98.984H462.881C464.177 98.984 465.149 98.012 465.149 96.968C465.149 95.816 464.213 94.916 462.881 94.916H458.453V98.984ZM480.558 110.54C477.642 110.54 475.194 108.632 475.194 105.104C475.194 102.044 477.102 100.208 480.666 99.236L483.006 98.588C483.834 98.372 484.302 97.904 484.302 97.148C484.302 96.284 483.546 94.592 481.35 94.592C479.478 94.592 478.002 95.888 477.642 97.652H474.834C475.626 94.016 478.65 92.036 481.53 92.036C484.914 92.036 487.002 94.592 487.002 97.148V106.04C487.002 107.48 487.326 107.768 488.226 107.768H489.522V110.252H487.794C486.066 110.252 485.13 109.568 484.77 108.056C483.762 109.676 482.034 110.54 480.558 110.54ZM477.966 104.996C477.966 106.976 479.154 108.164 480.846 108.164C482.646 108.164 484.302 106.472 484.302 104.564V100.388C484.086 100.712 483.654 100.928 483.15 101.072L481.242 101.612C479.082 102.224 477.966 103.448 477.966 104.996ZM499.316 110V95.132H494.204V92.576H507.092V95.132H502.016V110H499.316ZM515.013 110V92.576H517.713V98.552H521.349C525.345 98.552 527.361 101.36 527.361 104.204C527.361 107.012 525.237 110 521.205 110H515.013ZM517.713 107.588H521.313C523.509 107.588 524.733 105.824 524.733 104.24C524.733 102.584 523.545 100.856 521.313 100.856H517.713V107.588ZM280.924 157V139.576H288.232C291.148 139.576 292.876 141.592 292.876 143.68C292.876 145.084 292.012 146.344 290.5 147.028C292.192 147.856 293.2 149.512 293.2 151.528C293.2 154.444 291.112 157 287.98 157H280.924ZM283.48 154.732H287.656C289.24 154.732 290.5 153.148 290.5 151.384C290.5 149.62 289.276 148.18 287.656 148.18H283.48V154.732ZM283.48 145.984H287.908C289.204 145.984 290.176 145.012 290.176 143.968C290.176 142.816 289.24 141.916 287.908 141.916H283.48V145.984ZM318.115 157.288V154.66H318.799C320.707 154.66 321.211 153.58 321.391 150.124C321.535 147.46 321.679 144.184 321.715 139.576H331.543V157H328.843V142.132H324.271C324.235 145.48 324.127 148.072 324.019 150.484C323.767 155.92 322.471 157.288 319.015 157.288H318.115ZM344.468 157.54C341.552 157.54 339.104 155.632 339.104 152.104C339.104 149.044 341.012 147.208 344.576 146.236L346.916 145.588C347.744 145.372 348.212 144.904 348.212 144.148C348.212 143.284 347.456 141.592 345.26 141.592C343.388 141.592 341.912 142.888 341.552 144.652H338.744C339.536 141.016 342.56 139.036 345.44 139.036C348.824 139.036 350.912 141.592 350.912 144.148V153.04C350.912 154.48 351.236 154.768 352.136 154.768H353.432V157.252H351.704C349.976 157.252 349.04 156.568 348.68 155.056C347.672 156.676 345.944 157.54 344.468 157.54ZM341.876 151.996C341.876 153.976 343.064 155.164 344.756 155.164C346.556 155.164 348.212 153.472 348.212 151.564V147.388C347.996 147.712 347.564 147.928 347.06 148.072L345.152 148.612C342.992 149.224 341.876 150.448 341.876 151.996ZM364.522 157.54C360.058 157.54 357.25 152.68 357.25 144.688C357.25 136.624 359.41 133.672 365.098 133.276L367.258 133.132C368.554 133.024 369.058 132.772 369.058 131.152H371.758C371.758 134.896 370.426 135.76 367.762 135.904L364.99 136.048C360.598 136.3 359.698 138.316 359.698 144.256V144.868C360.454 142.06 362.326 139.9 364.918 139.9C369.022 139.9 371.434 144.616 371.434 148.684C371.434 152.716 368.842 157.54 364.522 157.54ZM360.454 148.576C360.454 151.096 361.786 154.984 364.558 154.984C367.294 154.984 368.662 151.312 368.662 148.72C368.662 146.092 367.366 142.456 364.666 142.456C362.11 142.456 360.454 145.732 360.454 148.576ZM377.951 157V139.576H380.327L380.291 154.372H380.507L386.123 139.576H390.047V157H387.671L387.707 142.204H387.491L381.875 157H377.951ZM403.585 157.54C402.145 157.54 400.849 156.676 400.093 155.236V163.336H397.393V139.576H399.805V141.808C400.705 140.08 402.433 139.036 404.053 139.036C408.121 139.036 410.533 143.968 410.533 148.252C410.533 152.5 407.977 157.54 403.585 157.54ZM400.093 151.6C400.093 153.292 401.785 154.984 403.333 154.984C406.393 154.984 407.761 151.096 407.761 148.288C407.761 145.444 406.429 141.592 403.405 141.592C401.893 141.592 400.093 143.284 400.093 145.012V151.6ZM416.834 157V139.576H419.21L419.174 154.372H419.39L425.006 139.576H428.93V157H426.554L426.59 142.204H426.374L420.758 157H416.834ZM445.528 157V149.188H439.12V157H436.42V139.576H439.12V146.632H445.528V139.576H448.228V157H445.528ZM460.433 157V142.132H455.321V139.576H468.209V142.132H463.133V157H460.433ZM479.982 148.612L479.37 133.24H483.042L482.43 148.612H479.982ZM477.966 154.192C477.966 152.644 479.622 150.988 481.206 150.988C482.79 150.988 484.446 152.644 484.446 154.192C484.446 155.776 482.79 157.432 481.206 157.432C479.622 157.432 477.966 155.776 477.966 154.192Z" fill="#1F1515"/>
<rect x="650" y="410" width="65" height="21" fill="white"/>
<path d="M655.04 421.456C652.76 421.456 651.32 419.728 651.32 417.688C651.32 415.72 652.832 413.896 655.136 413.896H655.616V411.16H657.344V413.896H657.92C660.2 413.896 661.64 415.648 661.64 417.664C661.64 419.656 660.128 421.456 657.824 421.456H657.344V427H655.616V421.456H655.04ZM653 417.664C653 418.936 653.84 419.848 655.088 419.848H655.688V415.504H655.088C653.864 415.504 653 416.464 653 417.664ZM657.272 419.848H657.872C659.096 419.848 659.96 418.912 659.96 417.688C659.96 416.44 659.12 415.528 657.872 415.528H657.272V419.848ZM665.145 427V411.16H666.849L666.825 424.936H666.945L670.929 411.16H673.737V427H672.033L672.057 413.224H671.937L667.953 427H665.145ZM684.754 427V419.608H680.05V427H678.202V411.16H680.05V417.832H684.754V411.16H686.602V427H684.754ZM691.067 427V411.16H692.771L692.747 424.936H692.867L696.851 411.16H699.659V427H697.955L697.979 413.224H697.859L693.875 427H691.067ZM703.452 427V411.16H705.204V425.296H707.46V411.16H709.188V425.296H711.444V411.16H713.196V427H703.452Z" fill="black"/>
<path d="M646.589 778.852L646.224 778.4C646.19 778.357 646.17 778.305 646.169 778.249C646.164 777.988 646.51 777.832 646.694 778.012L646.99 778.302C647.041 778.352 647.076 778.414 647.093 778.482L647.103 778.52C647.141 778.67 647.242 778.794 647.384 778.865L647.668 779.006L647.806 779.097C648.184 779.344 648.584 779.561 649.003 779.747L649.038 779.762L649.306 779.917C649.431 779.989 649.58 780.022 649.733 780.011C649.952 779.995 650.162 779.892 650.31 779.728L650.4 779.627C650.515 779.498 650.594 779.345 650.627 779.184C650.652 779.061 650.65 778.937 650.62 778.82L650.552 778.547C650.508 778.374 650.488 778.194 650.491 778.012C650.496 777.793 650.535 777.572 650.607 777.358C650.632 777.281 650.662 777.205 650.696 777.131C650.724 777.068 650.756 777.006 650.79 776.945C650.818 776.896 650.847 776.847 650.878 776.8C650.889 776.784 650.899 776.768 650.91 776.753L650.973 776.661L651.686 775.625L653.032 773.689C653.032 773.689 653.157 773.894 653.198 774.008L653.279 774.228C653.279 774.228 653.277 774.222 653.3 774.311C653.319 774.381 653.313 774.365 653.313 774.365C653.293 774.404 653.245 774.576 653.222 774.667C653.214 774.699 653.212 774.732 653.214 774.763C653.217 774.795 653.212 774.828 653.212 774.86C653.212 774.895 653.234 774.883 653.252 774.956C653.275 775.045 653.098 775.481 653.041 775.563L652.757 775.975L651.78 777.173L651.424 777.705C651.226 778.003 651.211 778.364 651.386 778.642C651.562 778.921 651.547 779.285 651.346 779.583L651.251 779.723C651.151 779.87 651.021 779.998 650.869 780.099L650.214 780.531L650.2 780.539C649.846 780.754 649.41 780.76 649.09 780.557L647.969 779.816L647.129 779.317C646.92 779.194 646.738 779.036 646.589 778.852Z" fill="#1F1515"/>
<path d="M642.484 767.357L642.705 767.114C643.302 766.456 644.356 766.479 644.787 767.16C644.858 767.273 644.949 767.371 645.058 767.452L645.531 767.802C645.71 767.934 645.9 768.054 646.1 768.159L646.738 768.496C646.944 768.604 647.16 768.695 647.386 768.767L648.171 769.019C648.518 769.131 648.905 769.131 649.274 769.019L649.52 768.944C650.052 768.782 650.606 768.924 650.933 769.305L650.969 769.347C651.095 769.494 651.264 769.602 651.459 769.66C651.835 769.771 652.102 770.064 652.165 770.434L652.227 770.798C652.253 770.951 652.346 771.082 652.484 771.159C652.697 771.279 652.795 771.52 652.727 771.761L652.716 771.8C652.663 771.989 652.701 772.182 652.82 772.326L652.982 772.521C653.118 772.687 653.162 772.908 653.101 773.124L653.077 773.211C653.023 773.404 652.895 773.562 653.032 773.689C653.204 773.848 653.313 774.365 653.313 774.365L653.285 774.417C653.212 774.559 653.192 774.716 653.228 774.861L653.456 775.767L653.916 777.204L654.305 778.753L654.582 780.245L654.757 780.944C654.828 781.227 654.977 781.481 655.189 781.683C655.401 781.884 655.549 782.138 655.62 782.421L655.634 782.475C655.719 782.815 655.904 783.118 656.168 783.351L656.319 783.485C656.579 783.714 656.784 783.994 656.922 784.307L657.009 784.503C657.115 784.744 657.25 784.971 657.41 785.181L658.342 786.401L659 787.11C659.233 787.361 659.521 787.561 659.848 787.699L660.304 787.891C660.613 788.021 660.972 788.035 661.314 787.931C661.73 787.805 662.082 787.516 662.275 787.142L662.467 786.771L662.706 786.156C662.785 785.954 662.83 785.744 662.839 785.535L662.855 785.148C662.864 784.953 662.943 784.761 663.08 784.602L663.299 784.348C663.448 784.175 663.461 783.94 663.329 783.779C663.247 783.678 663.218 783.545 663.252 783.413L663.322 783.133L663.509 782.509C663.56 782.34 663.524 782.166 663.413 782.04C663.307 781.919 663.27 781.755 663.311 781.593L663.468 780.971C663.538 780.746 663.526 780.512 663.432 780.309L663.331 780.088C663.207 779.817 663.167 779.512 663.214 779.207L663.242 779.028C663.287 778.736 663.275 778.444 663.205 778.167L662.85 776.755C662.814 776.61 662.799 776.458 662.805 776.305C662.813 776.125 662.79 775.948 662.739 775.78L662.111 773.731C662.035 773.483 661.956 773.291 661.772 773.108L661.235 772.145C661.235 772.145 660.881 771.31 660.507 771.007L660.153 770.721C659.989 770.588 659.838 770.442 659.7 770.284L659.008 769.487L658.48 768.813C658.303 768.587 658.066 768.409 657.788 768.296L657.434 768.152C657.162 768.042 656.966 767.82 656.897 767.545L656.887 767.505C656.834 767.298 656.7 767.123 656.51 767.015C656.366 766.933 656.196 766.893 656.019 766.9L656.007 766.9C655.569 766.917 655.199 766.659 655.1 766.267L655.049 766.065C654.986 765.811 654.832 765.593 654.612 765.443L654.347 765.226C654.347 765.226 653.844 765.039 653.688 765.119C653.395 765.268 653.061 765.102 653.052 764.802L653.044 764.541L652.932 763.783C652.823 763.044 652.457 762.38 651.889 761.892C651.596 761.641 651.256 761.441 650.882 761.302L649.316 760.719C649.182 760.669 649.039 760.638 648.892 760.626C648.037 760.557 647.46 759.852 647.59 759.036L647.606 758.933C647.63 758.781 647.632 758.627 647.61 758.478L647.418 757.162C647.341 756.637 647.213 756.125 647.035 755.632L646.496 754.141L645.672 752.245C645.605 752.091 645.445 751.995 645.262 752L645.197 752.002C645.118 752.004 645.04 752.034 644.979 752.087C644.889 752.165 644.848 752.28 644.874 752.385C644.965 752.745 645.082 753.097 645.225 753.44L645.628 754.405L646.389 756.651L646.866 758.55C646.926 758.787 646.921 759.04 646.852 759.286L646.844 759.316C646.653 760 645.994 760.514 645.256 760.554C644.57 760.561 643.943 760.289 643.535 759.806L643.509 759.776C643.349 759.587 643.155 759.427 642.933 759.302L642.179 758.875L640.906 758.348C640.877 758.336 640.843 758.334 640.811 758.344C640.738 758.366 640.692 758.439 640.709 758.506L640.756 758.695C640.774 758.765 640.817 758.825 640.879 758.865L643.552 760.62L643.324 760.48C642.856 760.192 642.356 759.949 641.831 759.753L641.344 759.571C641.219 759.524 641.089 759.486 640.956 759.458L639.707 759.188C639.637 759.172 639.56 759.189 639.499 759.234C639.303 759.376 639.399 759.654 639.635 759.631L639.655 759.629C639.692 759.626 639.729 759.63 639.763 759.642L640.438 759.887C640.674 759.973 640.897 760.085 641.102 760.22L641.914 760.757L642.888 761.268C643.114 761.387 643.209 761.644 643.117 761.891C643.05 762.072 642.892 762.217 642.699 762.276L642.36 762.378C642.072 762.466 641.769 762.455 641.509 762.347L640.901 762.094C640.698 762.01 640.508 761.904 640.335 761.778L639.348 761.058C639.337 761.05 639.327 761.041 639.317 761.031C639.138 760.843 638.788 761.036 638.851 761.287L638.858 761.314C638.866 761.348 638.883 761.379 638.905 761.406L639.366 761.943C639.546 762.153 639.752 762.341 639.982 762.502L640.845 763.108C640.875 763.129 640.908 763.147 640.943 763.16L641.269 763.286C641.583 763.407 641.527 763.848 641.184 763.952C641.129 763.968 641.072 763.974 641.018 763.967L640.036 763.85L638.637 763.562C638.569 763.548 638.495 763.552 638.425 763.573L638.229 763.632C638.119 763.666 638.05 763.775 638.076 763.876C638.093 763.943 638.149 763.993 638.223 764.005L639.077 764.141L640.141 764.268L641.007 764.338C641.131 764.348 641.259 764.334 641.382 764.297L642.068 764.089C642.192 764.051 642.315 764.113 642.343 764.226C642.351 764.256 642.366 764.284 642.387 764.307L642.641 764.587C643.109 765.104 643.1 765.894 642.618 766.485C642.517 766.608 642.399 766.718 642.268 766.812L641.691 767.223C641.402 767.429 641.098 767.614 640.781 767.776L637.552 769.423L634.481 770.896L634.253 771.039C634.06 771.161 633.963 771.38 634.013 771.579C634.042 771.694 634.168 771.757 634.294 771.719L634.434 771.676C634.462 771.668 634.49 771.656 634.516 771.641L635.384 771.163L637.721 770.093L640.392 768.787L642.148 767.643C642.273 767.562 642.386 767.466 642.484 767.357Z" fill="#1F1515"/>
<path d="M649.52 768.944L649.274 769.019C648.905 769.131 648.518 769.131 648.171 769.019L646.701 769.743C646.622 769.772 646.551 769.82 646.496 769.883C646.384 770.012 646.209 770.075 646.046 770.045L642.406 769.382C641.627 769.24 640.798 769.323 640.026 769.621L639.613 769.78C639.573 769.795 639.534 769.815 639.497 769.839L639.305 769.966C639.226 770.018 639.187 770.11 639.207 770.193C639.225 770.262 639.281 770.314 639.356 770.328L639.484 770.353C639.558 770.367 639.637 770.363 639.713 770.34L640.461 770.113C641.062 769.931 641.688 769.904 642.272 770.036L642.995 770.199L645.146 770.538L646.449 770.638L646.71 770.649C647.228 770.67 647.754 770.602 648.262 770.448L648.916 770.249C649.269 770.142 649.546 769.686 649.787 769.234C650.011 768.815 649.99 768.801 649.52 768.944Z" fill="#1F1515"/>
<path d="M650.91 776.753L650.973 776.661C651.029 776.553 651.037 776.43 650.994 776.323L650.923 776.148C650.867 776.01 650.958 775.846 651.116 775.797C651.214 775.768 651.291 775.692 651.317 775.599L651.441 775.158C651.468 775.06 651.51 774.966 651.566 774.878L651.939 774.286L652.421 773.465L652.789 772.932C652.831 772.87 652.969 772.592 652.982 772.521L652.82 772.326C652.701 772.182 652.663 771.989 652.716 771.8L652.727 771.761C652.756 771.656 652.711 771.482 652.679 771.384C652.663 771.335 652.637 771.291 652.604 771.251L652.45 771.705L651.673 772.836L650.991 774.034L650.419 775.311C650.381 775.396 650.372 775.487 650.394 775.571C650.42 775.675 650.4 775.789 650.338 775.888L650.274 775.989C650.195 776.113 650.156 776.254 650.163 776.391L650.173 776.634C650.181 776.804 650.155 776.977 650.096 777.144L649.999 777.421C649.971 777.503 649.919 777.577 649.849 777.635L649.361 778.042C649.231 778.15 649.286 778.341 649.451 778.35C649.495 778.353 649.541 778.34 649.579 778.315L650.286 777.849C650.364 777.797 650.431 777.73 650.48 777.652C650.5 777.619 650.518 777.585 650.532 777.55L650.607 777.358C650.632 777.281 650.662 777.205 650.696 777.131C650.724 777.068 650.756 777.006 650.79 776.945L650.791 776.944C650.811 776.9 650.835 776.858 650.864 776.819L650.878 776.8C650.889 776.784 650.899 776.768 650.91 776.753Z" fill="#1F1515"/>
<path d="M656.704 767.724C656.751 767.681 656.779 767.622 656.823 767.576L658.871 765.414C658.94 765.341 659.017 765.275 659.101 765.217L659.317 765.069C659.473 764.961 659.664 764.915 659.844 764.94C659.991 764.96 660.146 764.933 660.284 764.863L660.398 764.805C660.47 764.768 660.539 764.723 660.602 764.672L660.845 764.477C660.919 764.417 660.99 764.352 661.056 764.283L661.49 763.826C661.572 763.74 661.616 763.629 661.613 763.519L661.607 763.34C661.602 763.175 661.437 763.07 661.265 763.122C661.243 763.129 661.22 763.133 661.197 763.135L661.163 763.137C660.966 763.151 660.781 763.261 660.677 763.427L660.429 763.819C660.255 764.095 659.931 764.262 659.606 764.243C659.467 764.235 659.324 764.262 659.192 764.32L658.889 764.453C658.783 764.499 658.68 764.554 658.581 764.616L658.505 764.664C658.287 764.801 658.086 764.961 657.905 765.14L657.193 765.845L656.507 766.639L656.249 767.008C656.205 767.07 656.237 767.121 656.305 767.084C656.384 767.041 656.467 766.99 656.51 767.015C656.661 767.101 656.582 767.834 656.704 767.724Z" fill="#1F1515"/>
<path d="M654.427 765.601L654.173 762.437L654.054 761.084C653.993 760.404 653.656 759.795 653.11 759.382L651.561 758.475C651.479 758.427 651.389 758.393 651.293 758.375L650.505 758.221C650.26 758.174 650.019 758.381 650.045 758.617C650.059 758.741 650.146 758.841 650.271 758.875L650.955 759.067C651.033 759.088 651.108 759.116 651.181 759.15L651.877 759.475C652.12 759.588 652.353 759.719 652.573 759.865C652.936 760.106 653.218 760.437 653.39 760.827C653.518 761.116 653.582 761.431 653.581 761.755L653.575 762.799L653.462 764.5L653.422 765.013C653.406 765.212 653.495 765.217 653.688 765.119C653.844 765.039 654.347 765.226 654.347 765.226L654.427 765.601Z" fill="#1F1515"/>
<path d="M665.229 775.049L665.822 776.188C665.968 776.469 666.227 776.678 666.548 776.772L666.578 776.781C666.822 776.853 667.09 776.85 667.346 776.772C667.567 776.705 667.797 776.693 668.013 776.738L668.45 776.829C668.525 776.844 668.606 776.84 668.683 776.817L668.84 776.769C668.922 776.744 668.985 776.676 668.998 776.597C669.008 776.531 668.983 776.467 668.93 776.428L668.813 776.341C668.748 776.293 668.667 776.263 668.581 776.255L667.984 776.199C667.866 776.188 667.746 776.193 667.626 776.214L667.564 776.225C667.267 776.277 666.972 776.216 666.744 776.056C666.624 775.972 666.527 775.864 666.46 775.738L665.495 773.944C665.346 773.667 665.172 773.404 664.976 773.157L664.81 772.947C664.733 772.85 664.649 772.76 664.557 772.677C664.231 772.384 663.819 772.186 663.364 772.103L662.668 771.976L661.065 771.791C661.17 771.991 661.235 772.145 661.235 772.145L661.772 773.108C663.354 773.239 664.55 773.744 665.229 775.049Z" fill="#1F1515"/>
<g filter="url(#filter1_d_1174_39)">
<path d="M630.405 533.138L630.662 537.454C630.696 538.024 631.169 538.509 631.796 538.618L631.956 538.646C632.428 538.727 632.893 538.532 633.113 538.16L633.769 537.051C633.992 536.674 634.623 536.75 634.762 537.171C634.926 537.67 635.721 537.649 635.809 537.143L636.312 534.228C636.364 533.925 636.573 533.668 636.875 533.533C637.584 533.216 638.447 533.686 638.484 534.408L639.011 537.163C639.025 537.418 639.259 537.886 639.493 538.039C639.833 538.26 640.396 538.25 640.803 538.072C641.252 537.875 641.294 537.311 641.306 536.821C641.318 536.33 641.321 535.827 641.499 535.37C641.664 534.947 641.951 534.71 642.582 534.82L642.656 534.833C643.547 534.987 644.158 535.757 644.021 536.552C643.805 537.805 645.362 538.749 646.543 538.08L651.824 535.09C653.018 534.413 653.749 533.245 653.784 531.956L654.019 523.364C654.027 523.041 653.871 522.727 653.595 522.51L653.136 522.15C652.633 521.756 651.864 521.99 651.765 522.567C651.694 522.977 651.264 523.245 650.805 523.165L650.624 523.134C650.065 523.037 649.681 522.554 649.768 522.055L650.12 520.012C650.143 519.88 650.152 519.747 650.148 519.613L650.111 518.494C650.078 517.497 648.946 516.797 647.919 517.14L647.851 517.162C647.522 517.272 647.256 517.492 647.108 517.777L646.359 519.217C646.018 519.871 644.926 519.711 644.777 518.986C644.762 518.914 644.759 518.842 644.767 518.771L644.806 518.443C645.209 514.983 639.832 513.555 638.321 516.721L637.367 518.719L631.131 529.956C630.589 530.933 630.339 532.028 630.405 533.138Z" fill="#A6A5A4" fill-opacity="0.58" shape-rendering="crispEdges"/>
</g>
<g filter="url(#filter2_d_1174_39)">
<path d="M406.03 611.557L406.287 615.873C406.321 616.443 406.795 616.928 407.421 617.037L407.582 617.065C408.053 617.146 408.519 616.951 408.739 616.579L409.394 615.47C409.617 615.093 410.249 615.169 410.387 615.59C410.551 616.089 411.347 616.068 411.434 615.562L411.937 612.647C411.99 612.344 412.198 612.087 412.501 611.952C413.209 611.635 414.072 612.105 414.109 612.827L414.637 615.582C414.65 615.837 414.885 616.305 415.119 616.458C415.458 616.679 416.022 616.669 416.428 616.491C416.877 616.294 416.919 615.73 416.931 615.24C416.943 614.749 416.946 614.246 417.125 613.789C417.289 613.366 417.577 613.129 418.208 613.239L418.282 613.252C419.173 613.406 419.784 614.176 419.646 614.971C419.43 616.224 420.988 617.168 422.168 616.499L427.45 613.509C428.644 612.832 429.375 611.664 429.41 610.375L429.644 601.783C429.653 601.46 429.497 601.146 429.22 600.929L428.761 600.569C428.258 600.175 427.49 600.409 427.39 600.986C427.319 601.396 426.89 601.664 426.43 601.584L426.25 601.553C425.69 601.456 425.307 600.973 425.393 600.474L425.746 598.431C425.769 598.299 425.778 598.166 425.773 598.032L425.737 596.913C425.704 595.916 424.572 595.216 423.544 595.559L423.477 595.581C423.148 595.691 422.882 595.911 422.733 596.196L421.984 597.636C421.644 598.29 420.551 598.13 420.402 597.405C420.388 597.333 420.385 597.261 420.393 597.19L420.431 596.862C420.835 593.402 415.458 591.974 413.947 595.14L412.993 597.138L406.757 608.375C406.214 609.352 405.964 610.447 406.03 611.557Z" fill="#A6A5A4" fill-opacity="0.58" shape-rendering="crispEdges"/>
</g>
<g filter="url(#filter3_d_1174_39)">
<path d="M83.0304 304.557L83.2875 308.873C83.3214 309.443 83.7945 309.928 84.4212 310.037L84.5816 310.065C85.0532 310.146 85.5187 309.951 85.7388 309.579L86.3941 308.47C86.6171 308.093 87.2488 308.169 87.387 308.59C87.5511 309.089 88.3469 309.068 88.4343 308.562L88.9375 305.647C88.9897 305.344 89.1983 305.087 89.5007 304.952C90.2093 304.635 91.0722 305.105 91.1095 305.827L91.6369 308.582C91.65 308.837 91.8848 309.305 92.1189 309.458C92.4583 309.679 93.0215 309.669 93.428 309.491C93.8772 309.294 93.9194 308.73 93.9313 308.24C93.9431 307.749 93.9464 307.246 94.1246 306.789C94.2892 306.366 94.5769 306.129 95.2075 306.239L95.2815 306.252C96.1726 306.406 96.7837 307.176 96.6464 307.971C96.4301 309.224 97.9877 310.168 99.1685 309.499L104.45 306.509C105.644 305.832 106.375 304.664 106.41 303.375L106.644 294.783C106.653 294.46 106.497 294.146 106.22 293.929L105.761 293.569C105.258 293.175 104.49 293.409 104.39 293.986C104.319 294.396 103.89 294.664 103.43 294.584L103.25 294.553C102.69 294.456 102.307 293.973 102.393 293.474L102.746 291.431C102.769 291.299 102.778 291.166 102.773 291.032L102.737 289.913C102.704 288.916 101.572 288.216 100.544 288.559L100.477 288.581C100.148 288.691 99.8817 288.911 99.7333 289.196L98.984 290.636C98.6438 291.29 97.5512 291.13 97.4024 290.405C97.3878 290.333 97.3846 290.261 97.3929 290.19L97.4311 289.862C97.8347 286.402 92.4579 284.974 90.9466 288.14L89.9929 290.138L83.7566 301.375C83.2143 302.352 82.9643 303.447 83.0304 304.557Z" fill="#A6A5A4" fill-opacity="0.58" shape-rendering="crispEdges"/>
</g>
<path d="M508.183 520.224L508.648 520.398C508.743 520.434 508.842 520.452 508.943 520.452C509.537 520.452 509.942 521.053 509.719 521.604L509.693 521.668C509.673 521.717 509.657 521.768 509.647 521.821L509.554 522.269C509.472 522.665 509.43 523.068 509.43 523.472V523.74C509.43 524.499 509.531 525.255 509.731 525.987L509.879 526.53C509.967 526.853 510.081 527.169 510.22 527.474L510.373 527.807C510.557 528.212 510.673 528.644 510.716 529.087L510.809 530.04C510.82 530.153 510.862 530.262 510.931 530.353C511.132 530.62 511.086 530.997 510.827 531.208L510.383 531.568C510.253 531.674 510.103 531.751 509.941 531.796L508.355 532.233C507.952 532.344 507.576 532.536 507.248 532.796L507.133 532.887C506.884 533.085 506.677 533.331 506.525 533.61L506.405 533.831C506.255 534.106 506.191 534.42 506.222 534.732L506.225 534.761C506.267 535.187 506.489 535.575 506.836 535.826C506.937 535.899 507.047 535.959 507.163 536.005L507.92 536.304C508.147 536.393 508.341 536.548 508.48 536.748C508.57 536.879 508.634 537.025 508.668 537.18L508.71 537.37C508.763 537.605 508.888 537.817 509.068 537.977C509.333 538.211 509.692 538.309 510.039 538.242L510.283 538.195C510.705 538.114 511.079 537.87 511.323 537.516L512.027 536.497C512.306 536.093 512.47 535.621 512.502 535.131L512.527 534.74C512.555 534.318 512.738 533.922 513.042 533.629L514.037 532.669C514.188 532.523 514.43 532.532 514.57 532.689C514.63 532.757 514.663 532.844 514.663 532.935V533.86C514.663 534.661 515.183 535.37 515.948 535.61L516.673 535.837C516.882 535.903 517.099 535.944 517.318 535.96L518.317 536.035C518.94 536.081 519.566 536.043 520.179 535.921L520.937 535.77C521.133 535.731 521.322 535.662 521.497 535.566L521.576 535.522C522.121 535.222 522.47 534.659 522.497 534.037L522.507 533.808C522.51 533.731 522.528 533.656 522.56 533.586C522.733 533.203 523.236 533.112 523.533 533.41L524.152 534.03C524.333 534.211 524.451 534.445 524.491 534.698L524.552 535.095C524.587 535.318 524.653 535.535 524.747 535.74L525.108 536.525C525.237 536.803 525.412 537.058 525.628 537.276L525.968 537.622C526.249 537.907 526.632 538.068 527.032 538.068C527.515 538.068 527.969 537.834 528.249 537.44L529.198 536.104C529.381 535.857 529.67 535.712 529.977 535.712H530.003C530.397 535.712 530.754 535.479 530.914 535.119C530.971 534.992 531 534.854 531 534.715V534.515C531 533.989 530.786 533.486 530.408 533.12L530.258 532.976C530.019 532.745 529.734 532.566 529.423 532.449L528.517 532.111C528.237 532.006 527.94 531.953 527.64 531.953H526.999C526.732 531.953 526.476 531.845 526.29 531.653C525.955 531.308 525.917 530.771 526.202 530.382L526.212 530.367C526.339 530.195 526.407 529.986 526.407 529.772V529.038C526.407 528.628 526.484 528.223 526.634 527.842L527.337 526.062L527.508 525.445C527.703 524.739 527.784 524.006 527.749 523.275L527.696 522.177C527.689 522.038 527.657 521.901 527.6 521.775C527.333 521.183 527.629 520.491 528.241 520.274L528.849 520.059L529.985 519.472C530.304 519.307 530.561 519.043 530.718 518.719C530.827 518.493 530.884 518.246 530.884 517.995V517.731C530.884 517.46 530.783 517.199 530.601 516.999C530.519 516.908 530.422 516.831 530.314 516.773L529.547 516.356L529.067 516.086C528.923 516.005 528.798 515.895 528.7 515.763C528.606 515.636 528.539 515.492 528.503 515.339L528.445 515.097C528.404 514.928 528.331 514.769 528.23 514.629C528.065 514.403 527.833 514.234 527.567 514.149L527.524 514.135C527.251 514.047 526.957 514.042 526.681 514.12L526.63 514.135C526.296 514.229 526.001 514.428 525.788 514.702L525.418 515.178C525.302 515.328 525.199 515.486 525.109 515.652L524.671 516.459C524.627 516.54 524.593 516.626 524.57 516.715C524.402 517.364 523.71 517.727 523.081 517.495L521.814 517.03L520.419 516.581L520.331 516.562C519.348 516.351 518.34 516.282 517.337 516.356L517.27 516.365C516.195 516.508 515.143 516.788 514.14 517.198L513.649 517.454C513.194 517.692 512.636 517.432 512.526 516.929C512.517 516.884 512.503 516.84 512.485 516.797L512.278 516.297C512.125 515.928 511.912 515.586 511.647 515.286L511.34 514.937C511.155 514.727 510.922 514.564 510.661 514.464C510.351 514.344 510.013 514.316 509.688 514.382L509.649 514.39C509.279 514.465 508.941 514.65 508.678 514.92L508.448 515.156C508.291 515.319 508.166 515.511 508.083 515.722L508.036 515.84C507.854 516.303 507.451 516.642 506.965 516.744L506.775 516.784C506.538 516.834 506.328 516.97 506.186 517.166C506.065 517.333 506 517.533 506 517.739V517.844C506 518.01 506.032 518.175 506.094 518.329L506.162 518.499C506.322 518.895 506.592 519.237 506.94 519.485L507.363 519.787C507.616 519.968 507.892 520.114 508.183 520.224Z" fill="#A6A5A4" fill-opacity="0.58"/>
<path d="M248.183 367.224L248.648 367.398C248.743 367.434 248.842 367.452 248.943 367.452C249.537 367.452 249.942 368.053 249.719 368.604L249.693 368.668C249.673 368.717 249.657 368.768 249.647 368.821L249.554 369.269C249.472 369.665 249.43 370.068 249.43 370.472V370.74C249.43 371.499 249.531 372.255 249.731 372.987L249.879 373.53C249.967 373.853 250.081 374.169 250.22 374.474L250.373 374.807C250.557 375.212 250.673 375.644 250.716 376.087L250.809 377.04C250.82 377.153 250.862 377.262 250.931 377.353C251.132 377.62 251.086 377.997 250.827 378.208L250.383 378.568C250.253 378.674 250.103 378.751 249.941 378.796L248.355 379.233C247.952 379.344 247.576 379.536 247.248 379.796L247.133 379.887C246.884 380.085 246.677 380.331 246.525 380.61L246.405 380.831C246.255 381.106 246.191 381.42 246.222 381.732L246.225 381.761C246.267 382.187 246.489 382.575 246.836 382.826C246.937 382.899 247.047 382.959 247.163 383.005L247.92 383.304C248.147 383.393 248.341 383.548 248.48 383.748C248.57 383.879 248.634 384.025 248.668 384.18L248.71 384.37C248.763 384.605 248.888 384.817 249.068 384.977C249.333 385.211 249.692 385.309 250.039 385.242L250.283 385.195C250.705 385.114 251.079 384.87 251.323 384.516L252.027 383.497C252.306 383.093 252.47 382.621 252.502 382.131L252.527 381.74C252.555 381.318 252.738 380.922 253.042 380.629L254.037 379.669C254.188 379.523 254.43 379.532 254.57 379.689C254.63 379.757 254.663 379.844 254.663 379.935V380.86C254.663 381.661 255.183 382.37 255.948 382.61L256.673 382.837C256.882 382.903 257.099 382.944 257.318 382.96L258.317 383.035C258.94 383.081 259.566 383.043 260.179 382.921L260.937 382.77C261.133 382.731 261.322 382.662 261.497 382.566L261.576 382.522C262.121 382.222 262.47 381.659 262.497 381.037L262.507 380.808C262.51 380.731 262.528 380.656 262.56 380.586C262.733 380.203 263.236 380.112 263.533 380.41L264.152 381.03C264.333 381.211 264.451 381.445 264.491 381.698L264.552 382.095C264.587 382.318 264.653 382.535 264.747 382.74L265.108 383.525C265.237 383.803 265.412 384.058 265.628 384.276L265.968 384.622C266.249 384.907 266.632 385.068 267.032 385.068C267.515 385.068 267.969 384.834 268.249 384.44L269.198 383.104C269.381 382.857 269.67 382.712 269.977 382.712H270.003C270.397 382.712 270.754 382.479 270.914 382.119C270.971 381.992 271 381.854 271 381.715V381.515C271 380.989 270.786 380.486 270.408 380.12L270.258 379.976C270.019 379.745 269.734 379.566 269.423 379.449L268.517 379.111C268.237 379.006 267.94 378.953 267.64 378.953H266.999C266.732 378.953 266.476 378.845 266.29 378.653C265.955 378.308 265.917 377.771 266.202 377.382L266.212 377.367C266.339 377.195 266.407 376.986 266.407 376.772V376.038C266.407 375.628 266.484 375.223 266.634 374.842L267.337 373.062L267.508 372.445C267.703 371.739 267.784 371.006 267.749 370.275L267.696 369.177C267.689 369.038 267.657 368.901 267.6 368.775C267.333 368.183 267.629 367.491 268.241 367.274L268.849 367.059L269.985 366.472C270.304 366.307 270.561 366.043 270.718 365.719C270.827 365.493 270.884 365.246 270.884 364.995V364.731C270.884 364.46 270.783 364.199 270.601 363.999C270.519 363.908 270.422 363.831 270.314 363.773L269.547 363.356L269.067 363.086C268.923 363.005 268.798 362.895 268.7 362.763C268.606 362.636 268.539 362.492 268.503 362.339L268.445 362.097C268.404 361.928 268.331 361.769 268.23 361.629C268.065 361.403 267.833 361.234 267.567 361.149L267.524 361.135C267.251 361.047 266.957 361.042 266.681 361.12L266.63 361.135C266.296 361.229 266.001 361.428 265.788 361.702L265.418 362.178C265.302 362.328 265.199 362.486 265.109 362.652L264.671 363.459C264.627 363.54 264.593 363.626 264.57 363.715C264.402 364.364 263.71 364.727 263.081 364.495L261.814 364.03L260.419 363.581L260.331 363.562C259.348 363.351 258.34 363.282 257.337 363.356L257.27 363.365C256.195 363.508 255.143 363.788 254.14 364.198L253.649 364.454C253.194 364.692 252.636 364.432 252.526 363.929C252.517 363.884 252.503 363.84 252.485 363.797L252.278 363.297C252.125 362.928 251.912 362.586 251.647 362.286L251.34 361.937C251.155 361.727 250.922 361.564 250.661 361.464C250.351 361.344 250.013 361.316 249.688 361.382L249.649 361.39C249.279 361.465 248.941 361.65 248.678 361.92L248.448 362.156C248.291 362.319 248.166 362.511 248.083 362.722L248.036 362.84C247.854 363.303 247.451 363.642 246.965 363.744L246.775 363.784C246.538 363.834 246.328 363.97 246.186 364.166C246.065 364.333 246 364.533 246 364.739V364.844C246 365.01 246.032 365.175 246.094 365.329L246.162 365.499C246.322 365.895 246.592 366.237 246.94 366.485L247.363 366.787C247.616 366.968 247.892 367.114 248.183 367.224Z" fill="#A6A5A4" fill-opacity="0.58"/>
<path d="M483.183 663.224L483.648 663.398C483.743 663.434 483.842 663.452 483.943 663.452C484.537 663.452 484.942 664.053 484.719 664.604L484.693 664.668C484.673 664.717 484.657 664.768 484.647 664.821L484.554 665.269C484.472 665.665 484.43 666.068 484.43 666.472V666.74C484.43 667.499 484.531 668.255 484.731 668.987L484.879 669.53C484.967 669.853 485.081 670.169 485.22 670.474L485.373 670.807C485.557 671.212 485.673 671.644 485.716 672.087L485.809 673.04C485.82 673.153 485.862 673.262 485.931 673.353C486.132 673.62 486.086 673.997 485.827 674.208L485.383 674.568C485.253 674.674 485.103 674.751 484.941 674.796L483.355 675.233C482.952 675.344 482.576 675.536 482.248 675.796L482.133 675.887C481.884 676.085 481.677 676.331 481.525 676.61L481.405 676.831C481.255 677.106 481.191 677.42 481.222 677.732L481.225 677.761C481.267 678.187 481.489 678.575 481.836 678.826C481.937 678.899 482.047 678.959 482.163 679.005L482.92 679.304C483.147 679.393 483.341 679.548 483.48 679.748C483.57 679.879 483.634 680.025 483.668 680.18L483.71 680.37C483.763 680.605 483.888 680.817 484.068 680.977C484.333 681.211 484.692 681.309 485.039 681.242L485.283 681.195C485.705 681.114 486.079 680.87 486.323 680.516L487.027 679.497C487.306 679.093 487.47 678.621 487.502 678.131L487.527 677.74C487.555 677.318 487.738 676.922 488.042 676.629L489.037 675.669C489.188 675.523 489.43 675.532 489.57 675.689C489.63 675.757 489.663 675.844 489.663 675.935V676.86C489.663 677.661 490.183 678.37 490.948 678.61L491.673 678.837C491.882 678.903 492.099 678.944 492.318 678.96L493.317 679.035C493.94 679.081 494.566 679.043 495.179 678.921L495.937 678.77C496.133 678.731 496.322 678.662 496.497 678.566L496.576 678.522C497.121 678.222 497.47 677.659 497.497 677.037L497.507 676.808C497.51 676.731 497.528 676.656 497.56 676.586C497.733 676.203 498.236 676.112 498.533 676.41L499.152 677.03C499.333 677.211 499.451 677.445 499.491 677.698L499.552 678.095C499.587 678.318 499.653 678.535 499.747 678.74L500.108 679.525C500.237 679.803 500.412 680.058 500.628 680.276L500.968 680.622C501.249 680.907 501.632 681.068 502.032 681.068C502.515 681.068 502.969 680.834 503.249 680.44L504.198 679.104C504.381 678.857 504.67 678.712 504.977 678.712H505.003C505.397 678.712 505.754 678.479 505.914 678.119C505.971 677.992 506 677.854 506 677.715V677.515C506 676.989 505.786 676.486 505.408 676.12L505.258 675.976C505.019 675.745 504.734 675.566 504.423 675.449L503.517 675.111C503.237 675.006 502.94 674.953 502.64 674.953H501.999C501.732 674.953 501.476 674.845 501.29 674.653C500.955 674.308 500.917 673.771 501.202 673.382L501.212 673.367C501.339 673.195 501.407 672.986 501.407 672.772V672.038C501.407 671.628 501.484 671.223 501.634 670.842L502.337 669.062L502.508 668.445C502.703 667.739 502.784 667.006 502.749 666.275L502.696 665.177C502.689 665.038 502.657 664.901 502.6 664.775C502.333 664.183 502.629 663.491 503.241 663.274L503.849 663.059L504.985 662.472C505.304 662.307 505.561 662.043 505.718 661.719C505.827 661.493 505.884 661.246 505.884 660.995V660.731C505.884 660.46 505.783 660.199 505.601 659.999C505.519 659.908 505.422 659.831 505.314 659.773L504.547 659.356L504.067 659.086C503.923 659.005 503.798 658.895 503.7 658.763C503.606 658.636 503.539 658.492 503.503 658.339L503.445 658.097C503.404 657.928 503.331 657.769 503.23 657.629C503.065 657.403 502.833 657.234 502.567 657.149L502.524 657.135C502.251 657.047 501.957 657.042 501.681 657.12L501.63 657.135C501.296 657.229 501.001 657.428 500.788 657.702L500.418 658.178C500.302 658.328 500.199 658.486 500.109 658.652L499.671 659.459C499.627 659.54 499.593 659.626 499.57 659.715C499.402 660.364 498.71 660.727 498.081 660.495L496.814 660.03L495.419 659.581L495.331 659.562C494.348 659.351 493.34 659.282 492.337 659.356L492.27 659.365C491.195 659.508 490.143 659.788 489.14 660.198L488.649 660.454C488.194 660.692 487.636 660.432 487.526 659.929C487.517 659.884 487.503 659.84 487.485 659.797L487.278 659.297C487.125 658.928 486.912 658.586 486.647 658.286L486.34 657.937C486.155 657.727 485.922 657.564 485.661 657.464C485.351 657.344 485.013 657.316 484.688 657.382L484.649 657.39C484.279 657.465 483.941 657.65 483.678 657.92L483.448 658.156C483.291 658.319 483.166 658.511 483.083 658.722L483.036 658.84C482.854 659.303 482.451 659.642 481.965 659.744L481.775 659.784C481.538 659.834 481.328 659.97 481.186 660.166C481.065 660.333 481 660.533 481 660.739V660.844C481 661.01 481.032 661.175 481.094 661.329L481.162 661.499C481.322 661.895 481.592 662.237 481.94 662.485L482.363 662.787C482.616 662.968 482.892 663.114 483.183 663.224Z" fill="#A6A5A4" fill-opacity="0.58"/>
<path d="M72.4976 763.879L70.939 765.634C70.3885 766.351 70.6519 767.395 71.4768 767.765L73.238 768.556L76.651 769.566C76.8228 769.616 76.99 769.682 77.1507 769.761L78.1881 770.273C78.9592 770.654 79.3449 771.535 79.1019 772.36C78.4182 774.68 77.5075 776.927 76.3829 779.068L75.8009 780.176L74.9363 781.848C74.1183 783.43 74.6706 785.377 76.1978 786.294C77.3022 786.958 78.6873 786.935 79.7678 786.235L80.7126 785.623C82.1084 784.719 82.9845 783.198 83.0675 781.536L83.2425 778.032C83.264 777.604 83.3361 777.179 83.4574 776.767L83.9885 774.965C84.4152 773.517 85.8083 772.575 87.3111 772.719L90.1248 772.815C91.4827 772.861 92.6216 771.801 92.6732 770.443C92.6925 769.933 92.5537 769.43 92.2756 769.002L90.5872 766.403C88.999 763.959 86.5911 762.162 83.7974 761.335L82.6195 760.987C81.9078 760.776 81.1747 760.647 80.4342 760.602C77.425 760.417 74.4991 761.626 72.4976 763.879Z" fill="#A6A5A4" fill-opacity="0.58"/>
<path d="M564.498 579.879L562.939 581.634C562.388 582.351 562.652 583.395 563.477 583.765L565.238 584.556L568.651 585.566C568.823 585.616 568.99 585.682 569.151 585.761L570.188 586.273C570.959 586.654 571.345 587.535 571.102 588.36C570.418 590.68 569.507 592.927 568.383 595.068L567.801 596.176L566.936 597.848C566.118 599.43 566.671 601.377 568.198 602.294C569.302 602.958 570.687 602.935 571.768 602.235L572.713 601.623C574.108 600.719 574.984 599.198 575.068 597.536L575.243 594.032C575.264 593.604 575.336 593.179 575.457 592.767L575.988 590.965C576.415 589.517 577.808 588.575 579.311 588.719L582.125 588.815C583.483 588.861 584.622 587.801 584.673 586.443C584.693 585.933 584.554 585.43 584.276 585.002L582.587 582.403C580.999 579.959 578.591 578.162 575.797 577.335L574.619 576.987C573.908 576.776 573.175 576.647 572.434 576.602C569.425 576.417 566.499 577.626 564.498 579.879Z" fill="#A6A5A4" fill-opacity="0.58"/>
</g>
</g>
<defs>
<filter id="filter0_ig_1174_39" x="-4.5" y="251.5" width="873" height="618" filterUnits="userSpaceOnUse" color-interpolation-filters="sRGB">
<feFlood flood-opacity="0" result="BackgroundImageFix"/>
<feBlend mode="normal" in="SourceGraphic" in2="BackgroundImageFix" result="shape"/>
<feColorMatrix in="SourceAlpha" type="matrix" values="0 0 0 0 0 0 0 0 0 0 0 0 0 0 0 0 0 0 127 0" result="hardAlpha"/>
<feOffset dx="9" dy="4"/>
<feGaussianBlur stdDeviation="1.9"/>
<feComposite in2="hardAlpha" operator="arithmetic" k2="-1" k3="1"/>
<feColorMatrix type="matrix" values="0 0 0 0 0 0 0 0 0 0 0 0 0 0 0 0 0 0 0.25 0"/>
<feBlend mode="normal" in2="shape" result="effect1_innerShadow_1174_39"/>
<feTurbulence type="fractalNoise" baseFrequency="0.52631580829620361 0.52631580829620361" numOctaves="3" seed="9970" />
<feDisplacementMap in="effect1_innerShadow_1174_39" scale="8" xChannelSelector="R" yChannelSelector="G" result="displacedImage" width="100%" height="100%" />
<feMerge result="effect2_texture_1174_39">
<feMergeNode in="displacedImage"/>
</feMerge>
</filter>
<filter id="filter1_d_1174_39" x="626.395" y="514.961" width="31.6245" height="31.7029" filterUnits="userSpaceOnUse" color-interpolation-filters="sRGB">
<feFlood flood-opacity="0" result="BackgroundImageFix"/>
<feColorMatrix in="SourceAlpha" type="matrix" values="0 0 0 0 0 0 0 0 0 0 0 0 0 0 0 0 0 0 127 0" result="hardAlpha"/>
<feOffset dy="4"/>
<feGaussianBlur stdDeviation="2"/>
<feComposite in2="hardAlpha" operator="out"/>
<feColorMatrix type="matrix" values="0 0 0 0 0.847059 0 0 0 0 0.847059 0 0 0 0 0.847059 0 0 0 1 0"/>
<feBlend mode="normal" in2="BackgroundImageFix" result="effect1_dropShadow_1174_39"/>
<feBlend mode="normal" in="SourceGraphic" in2="effect1_dropShadow_1174_39" result="shape"/>
</filter>
<filter id="filter2_d_1174_39" x="402.02" y="593.38" width="31.6245" height="31.703" filterUnits="userSpaceOnUse" color-interpolation-filters="sRGB">
<feFlood flood-opacity="0" result="BackgroundImageFix"/>
<feColorMatrix in="SourceAlpha" type="matrix" values="0 0 0 0 0 0 0 0 0 0 0 0 0 0 0 0 0 0 127 0" result="hardAlpha"/>
<feOffset dy="4"/>
<feGaussianBlur stdDeviation="2"/>
<feComposite in2="hardAlpha" operator="out"/>
<feColorMatrix type="matrix" values="0 0 0 0 0.847059 0 0 0 0 0.847059 0 0 0 0 0.847059 0 0 0 1 0"/>
<feBlend mode="normal" in2="BackgroundImageFix" result="effect1_dropShadow_1174_39"/>
<feBlend mode="normal" in="SourceGraphic" in2="effect1_dropShadow_1174_39" result="shape"/>
</filter>
<filter id="filter3_d_1174_39" x="79.02" y="286.38" width="31.6245" height="31.7029" filterUnits="userSpaceOnUse" color-interpolation-filters="sRGB">
<feFlood flood-opacity="0" result="BackgroundImageFix"/>
<feColorMatrix in="SourceAlpha" type="matrix" values="0 0 0 0 0 0 0 0 0 0 0 0 0 0 0 0 0 0 127 0" result="hardAlpha"/>
<feOffset dy="4"/>
<feGaussianBlur stdDeviation="2"/>
<feComposite in2="hardAlpha" operator="out"/>
<feColorMatrix type="matrix" values="0 0 0 0 0.847059 0 0 0 0 0.847059 0 0 0 0 0.847059 0 0 0 1 0"/>
<feBlend mode="normal" in2="BackgroundImageFix" result="effect1_dropShadow_1174_39"/>
<feBlend mode="normal" in="SourceGraphic" in2="effect1_dropShadow_1174_39" result="shape"/>
</filter>
<clipPath id="clip0_1174_39">
<rect width="768" height="1024" fill="white"/>
</clipPath>
<clipPath id="clip1_1174_39">
<rect width="768" height="1024" fill="white"/>
</clipPath>
</defs>
</svg>
