<svg width="90" height="124" viewBox="0 0 90 124" fill="none" xmlns="http://www.w3.org/2000/svg">
<path d="M76.8409 122.717L76.5689 122.645C75.7696 122.435 74.9473 122.324 74.1207 122.315L72.7426 122.3C71.3366 122.285 69.9784 121.788 68.8942 120.893C68.5783 120.632 68.2371 120.403 67.8758 120.21L67.2485 119.875C66.3146 119.376 65.444 118.767 64.6551 118.061L63.968 117.447C62.3517 116 60.3689 115.026 58.2363 114.63L57.7665 114.543C56.6625 114.338 55.6052 113.933 54.6464 113.349L53.7205 112.785C52.56 112.078 51.6695 111.003 51.1909 109.731C50.7122 108.459 49.8217 107.384 48.6613 106.677L47.1245 105.74C46.57 105.402 45.9561 105.173 45.3157 105.066C43.7641 104.805 42.4196 103.843 41.6722 102.458L41.2313 101.641C41.0463 101.299 40.8903 100.941 40.7647 100.573L40.4611 99.6812C40.2684 99.1154 39.9802 98.5868 39.6089 98.1184C38.8566 97.1693 37.7982 96.5108 36.6144 96.2551L35.4876 96.0118L33.0384 95.3928C31.7065 95.0562 30.4344 94.5165 29.2668 93.7926C28.0154 93.0168 26.9007 92.0397 25.9675 90.9008L25.0922 89.8325L23.109 86.7158C22.0256 85.0131 21.327 83.0944 21.0622 81.0938L20.9055 79.9104C20.7149 78.4704 20.1786 77.0978 19.3423 75.91C19.0122 75.4411 18.638 75.0047 18.2249 74.607L14.4555 70.9782L11.9509 68.0253C11.352 67.3192 10.8129 66.5644 10.3393 65.7688C9.1836 63.8271 8.43471 61.6707 8.13816 59.4306L7.43444 54.1148C7.28054 52.9522 7.28568 51.7741 7.44973 50.6129C7.61377 49.4518 7.61891 48.2737 7.46501 47.1111L7.24713 45.4652C7.04107 43.9087 6.98181 42.3363 7.07013 40.7687L7.36623 35.5131C7.43656 33.7964 8.39242 32.239 9.89128 31.3991L11.4916 30.5024L14.2306 28.9321C14.4808 28.7886 14.7134 28.6165 14.9237 28.4191L15.6949 27.6951C16.0816 27.3322 16.2696 26.8051 16.2001 26.2794L16.169 26.0447C16.145 25.8638 16.0662 25.6946 15.9431 25.5599C15.7157 25.3111 15.3675 25.2117 15.043 25.3029L14.2924 25.514C13.6442 25.6962 13.1183 26.1705 12.8703 26.7965L12.546 27.6153L11.807 29.0445C11.5534 29.535 11.076 29.8705 10.5286 29.943L10.2971 29.9736C10.0976 30 9.8949 29.9633 9.71743 29.8685C9.28578 29.6379 9.09587 29.1202 9.27609 28.6652L9.57394 27.9133C9.64265 27.7398 9.73695 27.5776 9.8537 27.4321L10.9107 26.1147L11.4516 25.2615C11.862 24.6142 12.5382 24.1821 13.298 24.0815L15.3578 23.8088C15.6374 23.7718 15.8341 23.5151 15.7971 23.2355C15.7601 22.9559 15.5034 22.7592 15.2238 22.7962L13.667 23.0023C13.4746 23.0278 13.2796 23.0262 13.0876 22.9976L12.2823 22.8778C11.3904 22.745 10.528 22.4601 9.73262 22.0353L9.38862 21.8516L8.29088 21.0488C7.96314 20.8091 7.66006 20.5374 7.38615 20.2377L6.85079 19.6519C6.73648 19.5268 6.60171 19.4222 6.45226 19.3423L5.32888 18.7424C4.97933 18.5557 4.91648 18.0809 5.20541 17.8096C5.36658 17.6584 5.59982 17.6121 5.80655 17.6903L7.48527 18.3258L8.84737 19.0533C9.30567 19.298 9.69303 19.657 9.97196 20.0953L10.1032 20.3016C10.5154 20.9494 11.2012 21.3732 11.9649 21.4522L12.8076 21.5393C13.3272 21.593 13.8267 21.3232 14.0666 20.8592C14.2898 20.4276 14.2471 19.9064 13.9568 19.5168L13.7034 19.1768C13.4219 18.7989 13.0129 18.5359 12.5523 18.4364L12.1225 18.3436C11.5806 18.2266 11.0796 17.9673 10.6711 17.5924L10.0846 17.0542C9.80578 16.7983 9.5957 16.4765 9.47369 16.1182L9.29778 15.6017C9.05273 14.8821 8.33359 14.4358 7.58002 14.5355C7.20179 14.5856 6.81815 14.4983 6.49882 14.2895L4.3726 12.8995C3.33941 12.144 2.5752 11.0776 2.19183 9.85634L1.95395 9.09856L0.705534 6.39142C0.642339 6.25439 0.590349 6.11246 0.550074 5.96702L0.0416695 4.13117C-0.142488 3.46617 0.30366 2.79186 0.987716 2.7013C1.35609 2.65254 1.72503 2.78694 1.97571 3.06124L2.4057 3.53174C2.59738 3.74147 2.74958 3.98412 2.85494 4.248L4.12832 7.43699L5.42701 10.0125L6.00644 10.9231C6.40949 11.5565 7.04935 12.0022 7.78321 12.1607L8.91912 12.406C9.32858 12.4944 9.75132 12.3302 9.99379 11.9887C10.2402 11.6415 10.2519 11.1798 10.0233 10.8207L9.75564 10.4C9.45296 9.92427 9.6241 9.29136 10.1253 9.03304L10.2328 8.9776C10.6472 8.76402 11.1562 8.92928 11.3661 9.34553C11.5268 9.66415 11.8714 9.84625 12.2252 9.79942L13.8269 9.58738C14.1755 9.54123 14.4207 9.22119 14.3746 8.87256C14.3113 8.39503 14.7808 8.02293 15.2312 8.19347L16.2512 8.57958L16.7966 8.82284C18.1159 9.4113 19.5697 8.32567 19.3801 6.89358C19.342 6.60584 19.2367 6.33112 19.0726 6.09171L16.9482 2.99243L15.6904 1.01576C15.431 0.608177 15.6823 0.0691302 16.1613 0.00572853C16.3988 -0.0257201 16.6348 0.0738799 16.778 0.266033L20.0655 4.67798C20.8008 5.66475 21.1607 6.88109 21.0808 8.10909L20.9818 9.62923C20.9243 10.5139 21.338 11.3632 22.07 11.8632C22.6586 12.2652 23.0483 12.8986 23.1418 13.6051L23.2697 14.5716C23.3215 14.9629 23.1816 15.3552 22.8938 15.6254L22.5004 15.9946C22.0822 16.3872 22.1732 17.0745 22.6791 17.3447L23.1704 17.704C23.7853 18.1536 24.6452 18.0398 25.1219 17.4456C25.3652 17.1424 25.474 16.7529 25.423 16.3675L24.7785 11.4993C24.7097 10.9795 25.0753 10.5023 25.5951 10.4335C26.115 10.3647 26.5922 10.7303 26.661 11.2501L27.487 17.4898C27.5343 17.847 27.3776 18.2007 27.0812 18.4056C26.3016 18.9448 26.6917 20.1676 27.6396 20.1556L29.8941 20.1271C30.1157 20.1243 30.3356 20.1662 30.5406 20.2503L32.4774 21.0447C32.6646 21.1216 32.8325 21.2389 32.9691 21.3883L33.3888 21.8476C33.6621 22.1466 33.6443 22.6096 33.349 22.8868C33.1521 23.0716 32.8702 23.1346 32.6134 23.0511L29.1938 21.9392C28.7543 21.7963 28.2883 21.7536 27.8302 21.8142L25.7737 22.0865C25.2145 22.1605 24.8212 22.6738 24.8952 23.2331C24.9693 23.7923 25.4826 24.1856 26.0418 24.1116L26.5117 24.0494C27.0492 23.9782 27.5832 24.2035 27.9071 24.6383L27.9647 24.7156C28.3242 25.1981 28.9167 25.4481 29.5132 25.3692L35.6453 24.5574C37.4699 24.3158 39.326 24.5563 41.0289 25.2548C42.6466 25.9184 44.0739 26.974 45.182 28.3266L45.256 28.4169C45.6037 28.8412 45.9191 29.291 46.1997 29.7623L46.9174 30.968C47.7855 32.4266 49.0148 33.6369 50.4866 34.4824L52.8482 35.839C54.7766 36.9467 55.8778 39.0809 55.663 41.2943C55.5014 42.9592 56.0845 44.6103 57.2557 45.8046L57.6668 46.2238C58.7161 47.2938 59.3897 48.6755 59.5864 50.1611L59.6279 50.4748C59.8942 52.4868 60.9276 54.318 62.5121 55.586L64.4771 57.1585C65.4124 57.907 66.0224 58.988 66.1796 60.1756C66.3107 61.1655 66.7572 62.0868 67.4531 62.803L69.2221 64.6235C70.2761 65.7082 71.1212 66.9777 71.7151 68.3686L72.2047 69.515L73.4126 73.5461C74.3012 76.5117 76.0849 79.13 78.5194 81.0425L79.0071 81.5337C80.8121 83.3516 81.7896 85.8319 81.7103 88.3923L81.674 89.5645C81.6601 90.0129 81.5581 90.4542 81.3739 90.8633C80.6822 92.399 81.2113 94.2096 82.6211 95.1312L83.5846 95.7612C84.7466 96.5208 85.5197 97.7493 85.7019 99.1255L86.2504 103.268C86.4661 104.898 86.9711 106.477 87.7415 107.93L88.1153 108.635C88.7837 109.895 89.1775 111.283 89.2706 112.706L89.2965 113.103C89.4859 115.998 88.3129 118.815 86.1252 120.72C84.749 121.918 83.0505 122.685 81.2415 122.924L80.8859 122.971C79.5338 123.15 78.1599 123.064 76.8409 122.717Z" fill="#A6A5A4"/>
</svg>
