<svg width="23" height="18" viewBox="0 0 23 18" fill="none" xmlns="http://www.w3.org/2000/svg">
<path d="M15.9414 6.17365L15.8985 6.1424C15.4873 5.84266 15.3541 5.289 15.584 4.83503C15.6374 4.72952 15.7085 4.63391 15.7941 4.55235L15.9034 4.44831C16.0613 4.29788 16.1923 4.12158 16.2909 3.92699L16.4184 3.67506C16.5525 3.41026 16.7363 3.17377 16.9599 2.97852C17.0934 2.86194 17.213 2.73039 17.3164 2.58647L17.3853 2.49058C17.6217 2.1615 17.9162 1.87828 18.2542 1.65483L18.3647 1.58182L18.9661 1.09427L19.8655 0.437076C19.9576 0.369803 19.9902 0.247338 19.9436 0.143236C19.8952 0.0349849 19.7755 -0.02219 19.6609 0.00824758L19.5904 0.0269532C19.5632 0.0342014 19.5369 0.0449496 19.5124 0.0589304L19.0114 0.344462C18.8324 0.44648 18.6694 0.574322 18.5276 0.723868L18.3393 0.922573C18.195 1.07484 18.0112 1.18399 17.8084 1.23784C17.5668 1.30201 17.3533 1.44436 17.2011 1.64268L15.4614 3.91006L15.128 4.44779C14.8443 4.90525 14.3408 5.17967 13.8027 5.17015L13.5767 5.16499C13.0429 5.15279 12.5705 5.50866 12.435 6.02512L12.2133 6.61886C12.1828 6.70034 12.1071 6.75614 12.0203 6.76108C11.888 6.76861 11.7793 6.65793 11.7892 6.52575L11.8143 6.18997L11.9438 4.92627C12.0243 4.43853 12.3216 4.01358 12.7521 3.77068L13.1691 3.53542L14.0606 2.88889L14.4534 2.61199C14.5642 2.53388 14.665 2.4424 14.7534 2.33963L14.9836 2.072C15.0447 2.00107 15.0835 1.91374 15.0952 1.82091L15.1163 1.65379C15.1311 1.53647 15.0646 1.424 14.9547 1.38041C14.8458 1.33723 14.7214 1.37248 14.6514 1.46639L14.2232 2.04056C14.1313 2.1637 14.0166 2.26796 13.8852 2.34763L12.8823 2.95596L12.164 3.54415C11.953 3.71697 11.771 3.92251 11.625 4.15295C11.4008 4.50678 11.2672 4.91035 11.2359 5.32805L11.2029 5.76814C11.1982 5.83089 11.2001 5.89396 11.2086 5.95631L11.2929 6.5745C11.3163 6.7465 11.191 6.90308 11.018 6.91785C10.931 6.92528 10.8451 6.89489 10.7821 6.83444L10.0786 6.15926L9.51167 5.52405C9.26016 5.24223 8.9706 4.99683 8.65134 4.79495L8.26239 4.54899C7.99423 4.37942 7.69083 4.27343 7.37541 4.23915L7.33229 4.23446C6.95889 4.19387 6.60539 4.04545 6.31493 3.80733L6.27419 3.77393C6.14586 3.66872 6.0347 3.54416 5.9447 3.40474L5.78153 3.15196C5.68296 2.99927 5.6414 2.8167 5.66416 2.63638L5.69961 2.35547C5.70896 2.28134 5.68154 2.20731 5.62616 2.15716C5.50326 2.04589 5.30651 2.09815 5.25502 2.25574L5.1186 2.67326C5.08778 2.76758 5.08493 2.86881 5.11041 2.96471L5.19667 3.28951C5.24826 3.48374 5.33491 3.66691 5.45234 3.82999L5.74232 4.23267C5.97646 4.55782 6.35711 4.74507 6.75758 4.73212C7.02549 4.72345 7.28863 4.8045 7.50524 4.9624L7.71986 5.11886C7.84789 5.21219 7.98668 5.28978 8.13324 5.34996L8.37369 5.4487C8.71011 5.58684 9.02001 5.78231 9.28961 6.02639L9.52058 6.23552C9.56138 6.27246 9.5974 6.31435 9.62781 6.36022L9.8678 6.72225C9.99968 6.9212 9.89729 7.19086 9.6666 7.25213L9.57034 7.27769C9.43731 7.31303 9.30082 7.23382 9.26549 7.10079C9.25412 7.058 9.23157 7.01902 9.20014 6.98784L8.07526 5.87179L8.01403 5.80319C7.74777 5.50484 7.38635 5.30798 6.99128 5.24612C6.75412 5.20899 6.51183 5.22163 6.27982 5.28325L5.45234 5.50303L4.63764 5.75566C3.95582 5.96709 3.30417 6.26571 2.69886 6.64411L2.38499 6.88256C2.16724 7.04798 1.88007 7.0907 1.6236 6.99582C1.55457 6.97028 1.48941 6.93535 1.42994 6.89199L1.10756 6.65699L0.617176 6.34689C0.522502 6.28702 0.407154 6.26934 0.298893 6.29809C0.0841543 6.35513 -0.04369 6.57544 0.0133439 6.79018L0.0257571 6.83692C0.0432909 6.90293 0.0756028 6.9641 0.120249 7.01579L0.144129 7.04344C0.267797 7.18664 0.450968 7.26425 0.639865 7.2535L0.841853 7.242C1.02758 7.23142 1.21266 7.27184 1.37707 7.35888L1.83093 7.59914C1.97406 7.67491 2.14051 7.69391 2.29703 7.65234C2.34149 7.64053 2.38455 7.62399 2.42548 7.60299L3.02414 7.29594C3.24643 7.18192 3.45964 7.051 3.66187 6.90432C4.05148 6.62175 4.48076 6.3984 4.93576 6.24151L5.28433 6.12133L5.85457 5.96988C6.21218 5.8749 6.58915 5.88119 6.94339 5.98806C7.1585 6.05295 7.36111 6.1537 7.54267 6.28606L8.33958 6.86699L8.54856 7.01934C8.66337 7.10302 8.57918 7.28378 8.44124 7.24976L6.76073 7.06108C6.15135 6.99266 5.53455 7.03832 4.94189 7.19573C4.10614 7.4177 3.34332 7.85521 2.72972 8.4645L2.31388 8.87741C2.16464 9.02561 2.03727 9.19431 1.93562 9.37844L1.90621 9.4317C1.64915 9.8973 1.58186 10.4442 1.71839 10.9582C1.9021 11.6499 2.43116 12.1969 3.11631 12.4036L4.03652 12.6813L4.445 12.748C5.17995 12.8681 5.93323 12.8039 6.63726 12.5612L6.88531 12.4757C7.37799 12.3058 7.82471 12.0243 8.19057 11.6532L8.77882 11.0564C8.81773 11.017 8.86651 10.9887 8.92007 10.9744C9.19554 10.9013 9.41553 11.2072 9.25851 11.445L8.8543 12.0573L8.49251 12.7227C8.32452 13.0317 8.03676 13.2579 7.69686 13.3482C7.59705 13.3747 7.49439 13.389 7.39113 13.3908L6.22389 13.4116L4.85946 13.5281L4.27669 13.5673C3.85774 13.5956 3.46991 13.7985 3.20781 14.1265C3.14972 14.1992 3.09853 14.2772 3.05492 14.3594L2.84272 14.7594C2.79274 14.8536 2.71741 14.932 2.62524 14.9857L2.52213 15.0457C2.36042 15.1398 2.28161 15.3304 2.32964 15.5113L2.36076 15.6284C2.39972 15.7751 2.55022 15.8624 2.69691 15.8235C2.76544 15.8053 2.82429 15.7613 2.86115 15.7007L3.22 15.1109L3.48794 14.7846C3.70546 14.5197 4.00072 14.3298 4.33199 14.2419C4.56861 14.179 4.81631 14.1701 5.05683 14.2158L5.32123 14.266C5.73578 14.3447 6.16273 14.3293 6.57055 14.221L7.99926 13.8415C8.71045 13.6526 9.30813 13.1709 9.6438 12.5161L9.84389 12.1258C9.94205 11.9343 10.0128 11.73 10.0541 11.5188L10.2941 10.2919C10.3161 10.1795 10.4003 10.0896 10.5109 10.0602C10.7013 10.0096 10.8878 10.1537 10.887 10.3507L10.8866 10.4238C10.8866 10.4427 10.885 10.4615 10.8819 10.4801L10.7592 11.2236L10.5589 11.9605C10.4686 12.2928 10.4102 12.6331 10.3844 12.9765L10.353 13.3953C10.3413 13.5517 10.3107 13.7062 10.262 13.8553L10.1504 14.197C10.0805 14.411 9.93757 14.5936 9.74668 14.713C9.64076 14.7792 9.54878 14.8654 9.47589 14.9669L9.4108 15.0575C9.33405 15.1643 9.27143 15.2806 9.2245 15.4034L9.05576 15.8452C9.00665 15.9738 8.97786 16.1092 8.97043 16.2466L8.92167 17.1486C8.91729 17.2295 8.96879 17.3029 9.04633 17.3263C9.17797 17.366 9.30214 17.2459 9.26684 17.113L9.20802 16.8916C9.19297 16.8349 9.19465 16.7751 9.21286 16.7194L9.42035 16.0844C9.45885 15.9665 9.50659 15.8519 9.56314 15.7416L9.77228 15.3336C9.86556 15.1517 10.0146 15.0043 10.1976 14.9131C10.4639 14.7804 10.6535 14.5314 10.7106 14.2394L10.7891 13.8381L11.168 12.2623L11.4847 10.703L11.6156 9.87517C11.6265 9.80639 11.6769 9.7505 11.7442 9.73263C11.8244 9.71132 11.9086 9.74899 11.9462 9.823L12.5103 10.934C12.5556 11.0233 12.6087 11.1084 12.6688 11.1884L12.8001 11.363C13.058 11.706 13.4076 11.969 13.8085 12.1218C13.9901 12.191 14.1797 12.2366 14.3729 12.2576L15.1767 12.345L15.5588 12.3601C15.6616 12.3641 15.7645 12.3528 15.864 12.3264C16.1257 12.2568 16.4044 12.2932 16.6396 12.4276L16.885 12.5678C16.998 12.6324 17.1216 12.6762 17.25 12.6972L17.6601 12.7642C17.7601 12.7805 17.8617 12.7463 17.9314 12.6727C17.9925 12.6083 18.0225 12.5205 18.0138 12.4321L18.0107 12.4016C17.9968 12.2609 17.9045 12.1402 17.7724 12.0898L17.2602 11.8947C17.1544 11.8544 17.0437 11.8285 16.931 11.8178L16.591 11.7855C16.4785 11.7748 16.371 11.734 16.2796 11.6674C16.157 11.5781 16.0063 11.536 15.8551 11.5489L15.3517 11.5919C15.2374 11.6016 15.1224 11.6014 15.0081 11.5913L14.6212 11.557C14.2318 11.5225 13.8621 11.37 13.5616 11.1199L13.504 11.072C13.4521 11.0287 13.4042 10.9808 13.361 10.9289L12.38 9.74862C12.3213 9.67796 12.3557 9.57022 12.4445 9.54663C12.4811 9.53689 12.5202 9.54421 12.5509 9.56656L13.1204 9.98175C13.5114 10.2667 14.01 10.3601 14.4776 10.2359L14.6074 10.2015L15.1833 10.0485C15.2948 10.0189 15.3995 9.96774 15.4914 9.89793C15.8026 9.66153 16.232 9.65729 16.5478 9.88749L16.7478 10.0333C16.809 10.0779 16.8741 10.1166 16.9424 10.1491L18.5763 10.9257C19.039 11.1456 19.528 11.3053 20.0312 11.4009L20.1505 11.4235C20.4049 11.4718 20.6629 11.4984 20.9217 11.503L21.0985 11.5061C21.2994 11.5097 21.4993 11.5342 21.6951 11.5794L22.2797 11.7142C22.3532 11.7311 22.4297 11.7299 22.5026 11.7105L22.6448 11.6727C22.8135 11.6279 22.9139 11.4549 22.8691 11.2862C22.8434 11.1894 22.7733 11.1105 22.6802 11.0736L22.5441 11.0196C22.4863 10.9967 22.4253 10.9828 22.3633 10.9785L21.238 10.899L20.3294 10.7306C19.5893 10.6008 18.8695 10.3738 18.1888 10.0556L17.2048 9.59566C17.1285 9.56002 17.0559 9.5171 16.9878 9.46751C16.5947 9.18092 16.3928 8.70003 16.4635 8.21868L16.5074 7.91977C16.5431 7.67691 16.529 7.42933 16.466 7.19208L16.3566 6.78025C16.2918 6.53642 16.1452 6.32226 15.9414 6.17365Z" fill="#A6A5A4"/>
</svg>
