<svg width="48" height="48" viewBox="0 0 48 48" fill="none" xmlns="http://www.w3.org/2000/svg">
<path d="M17.2648 35.8027L16.7644 35.2003C16.7171 35.1432 16.6909 35.0728 16.6894 34.9982C16.6822 34.6505 17.1561 34.4429 17.4085 34.6831L17.8148 35.0699C17.8842 35.1359 17.9329 35.2183 17.9565 35.3097L17.9697 35.3605C18.0213 35.5604 18.1601 35.7258 18.3553 35.8204L18.7441 36.0085L18.934 36.1292C19.4522 36.4584 20.0011 36.748 20.5761 36.9955L20.6229 37.0157L20.9911 37.2224C21.1624 37.3185 21.3664 37.3623 21.5764 37.3479C21.8769 37.3273 22.1652 37.1896 22.3676 36.9701L22.491 36.8362C22.6498 36.664 22.7576 36.4594 22.8026 36.2449C22.8369 36.0813 22.8337 35.9161 22.7934 35.76L22.6993 35.3964C22.6395 35.1651 22.6118 34.9251 22.6168 34.6821C22.6228 34.3901 22.6764 34.0958 22.7747 33.8104C22.8098 33.7083 22.8507 33.6073 22.8971 33.508C22.9363 33.424 22.9796 33.3411 23.0266 33.2597C23.0646 33.1941 23.1049 33.1295 23.1476 33.0661C23.1617 33.0452 23.176 33.0245 23.1905 33.0039L23.2774 32.8811L24.2544 31.4996L26.1009 28.9181C26.1009 28.9181 26.2726 29.1927 26.3293 29.3436L26.4395 29.6371C26.4395 29.6371 26.4368 29.6294 26.4689 29.7485C26.4941 29.842 26.4857 29.8196 26.4857 29.8196C26.4589 29.8726 26.3927 30.1013 26.3613 30.223C26.3504 30.2656 26.3477 30.3087 26.3511 30.3511C26.3545 30.3935 26.3475 30.4369 26.348 30.4796C26.3484 30.5271 26.3778 30.5107 26.4029 30.6076C26.4337 30.7269 26.1915 31.3081 26.1136 31.4178L25.724 31.9668L24.3835 33.5636L23.8959 34.2737C23.6238 34.6701 23.6037 35.1521 23.844 35.5225C24.0854 35.8946 24.0638 36.3795 23.7882 36.7767L23.6582 36.9641C23.522 37.1604 23.3435 37.3313 23.1349 37.465L22.2367 38.0409L22.2171 38.0524C21.7316 38.338 21.1332 38.3471 20.6946 38.0756L19.158 37.0876L18.0054 36.4232C17.7191 36.2582 17.4689 36.0485 17.2648 35.8027Z" fill="black"/>
<path d="M11.6354 20.4763L11.938 20.152C12.7566 19.2746 14.2026 19.3058 14.793 20.2138C14.8904 20.3636 15.0163 20.4949 15.1654 20.6022L15.8136 21.0688C16.0595 21.2457 16.3206 21.4051 16.5949 21.5458L17.4693 21.994C17.7513 22.1386 18.0486 22.2598 18.3578 22.3563L19.4345 22.6926C19.9103 22.8413 20.4405 22.8409 20.9466 22.6915L21.285 22.5917C22.0145 22.3764 22.7744 22.5653 23.222 23.0734L23.2716 23.1296C23.4442 23.3255 23.6766 23.4696 23.9437 23.5462C24.4588 23.694 24.8262 24.0858 24.9121 24.579L24.9965 25.0636C25.0322 25.2681 25.1596 25.4424 25.3491 25.5459C25.642 25.7059 25.7755 26.0272 25.6826 26.3485L25.6675 26.4006C25.5949 26.6518 25.6474 26.9091 25.8105 27.1009L26.0321 27.3617C26.2194 27.582 26.2796 27.8775 26.1962 28.1659L26.1629 28.2811C26.0884 28.5387 25.9135 28.7494 26.1009 28.9181C26.3365 29.1303 26.4857 29.8196 26.4857 29.8196L26.4484 29.8899C26.348 30.0792 26.3204 30.2885 26.3703 30.4815L26.6826 31.6894L27.3128 33.6055L27.8466 35.6702L28.2262 37.6602L28.4673 38.5924C28.5647 38.9692 28.7683 39.3079 29.0589 39.5767C29.3495 39.8454 29.5531 40.1842 29.6506 40.561L29.6694 40.6338C29.7865 41.0865 30.0395 41.49 30.4014 41.8011L30.6093 41.9798C30.9655 42.2859 31.2465 42.6584 31.4364 43.0764L31.5551 43.3374C31.7009 43.6584 31.8852 43.9612 32.1047 44.2407L33.3829 45.8682L34.286 46.8139C34.6055 47.1484 35.0007 47.4151 35.4488 47.5985L36.0741 47.8545C36.4973 48.0278 36.9899 48.0469 37.4593 47.9084C38.0299 47.74 38.5127 47.3546 38.7771 46.8563L39.04 46.3609L39.3689 45.5415C39.477 45.272 39.5384 44.9923 39.5506 44.7132L39.5732 44.1978C39.5845 43.9378 39.6931 43.6808 39.8806 43.4697L40.182 43.1305C40.3865 42.9004 40.4033 42.5862 40.2227 42.3719C40.1096 42.2377 40.0709 42.0595 40.1166 41.8836L40.2136 41.5101L40.4699 40.6793C40.5394 40.4538 40.4905 40.2214 40.338 40.0529C40.1928 39.8925 40.1411 39.6737 40.1973 39.4575L40.4127 38.6285C40.5095 38.328 40.4925 38.0159 40.3645 37.7447L40.2259 37.4508C40.0555 37.0895 39.9999 36.6833 40.0652 36.2754L40.1033 36.0378C40.1656 35.6486 40.1484 35.2589 40.0528 34.8889L39.5662 33.0069C39.516 32.8128 39.4951 32.611 39.5041 32.4069C39.5145 32.1672 39.4839 31.9311 39.4133 31.707L38.552 28.9742C38.4481 28.6445 38.3401 28.3879 38.0874 28.1436L37.3508 26.8595C37.3508 26.8595 36.8649 25.7466 36.3527 25.3432L35.8672 24.9609C35.6421 24.7836 35.4344 24.5888 35.2461 24.3784L34.296 23.3166L33.573 22.4177C33.3299 22.1154 33.0041 21.8789 32.6238 21.7285L32.1378 21.5364C31.7648 21.3889 31.4959 21.0935 31.4012 20.7273L31.3872 20.6731C31.3158 20.3967 31.132 20.164 30.8713 20.0199C30.6731 19.9103 30.4398 19.8571 30.1981 19.8663L30.1812 19.8669C29.5801 19.8899 29.0726 19.5455 28.9376 19.0232L28.8678 18.7532C28.7803 18.415 28.5695 18.1236 28.2682 17.9246L27.9044 17.6353C27.9044 17.6353 27.2149 17.3855 27.0007 17.4917C26.5984 17.6913 26.1409 17.4699 26.1282 17.0694L26.1171 16.7213L25.9636 15.7113C25.8139 14.7252 25.3119 13.8404 24.5333 13.1899C24.1317 12.8544 23.6648 12.5883 23.1521 12.4027L21.0043 11.6252C20.8207 11.5588 20.6253 11.517 20.4239 11.5011C19.2512 11.4087 18.4595 10.4696 18.6372 9.38176L18.6596 9.24456C18.6929 9.04077 18.6946 8.83638 18.6648 8.63754L18.4016 6.88244C18.2967 6.18331 18.1209 5.50048 17.8762 4.8425L17.1372 2.8549L16.0077 0.326929C15.9157 0.120997 15.6962 -0.0063299 15.4444 0.000242798L15.3553 0.00257766C15.2472 0.00539967 15.1406 0.0458765 15.0571 0.115761C14.9329 0.21967 14.8773 0.37359 14.9134 0.513334C15.0374 0.993022 15.1982 1.4633 15.3943 1.91995L15.9468 3.20618L16.9909 6.20135L17.6454 8.73297C17.7272 9.04926 17.7206 9.38643 17.6262 9.71491L17.6149 9.75419C17.3525 10.6673 16.4488 11.352 15.4364 11.4048C14.4965 11.415 13.6359 11.0518 13.0763 10.4086L13.0413 10.3684C12.8217 10.116 12.5548 9.90217 12.2513 9.73539L11.2163 9.16669L9.47146 8.46355C9.43156 8.44747 9.38524 8.44577 9.34111 8.45879C9.2405 8.48848 9.17774 8.58519 9.2009 8.6748L9.26584 8.92604C9.29004 9.01964 9.34919 9.09992 9.43359 9.1538L13.0992 11.4939L12.7875 11.3072C12.1457 10.9229 11.46 10.598 10.7396 10.3368L10.0713 10.0945C9.89968 10.0323 9.7222 9.98186 9.54025 9.94361L7.82714 9.58349C7.73064 9.5632 7.62508 9.58591 7.54118 9.64501C7.2729 9.83404 7.40382 10.2048 7.72826 10.1748L7.75483 10.1724C7.80618 10.1676 7.85693 10.1736 7.9032 10.1899L8.82887 10.5162C9.15312 10.6305 9.45865 10.7794 9.7396 10.96L10.8535 11.6761L12.1886 12.3574C12.499 12.5157 12.6294 12.8591 12.504 13.1876C12.4118 13.4291 12.1954 13.6225 11.9296 13.7009L11.4653 13.8379C11.0701 13.9545 10.6553 13.9395 10.298 13.7954L9.46355 13.4592C9.18579 13.3473 8.9257 13.2057 8.68824 13.0373L7.33396 12.0767C7.31896 12.0661 7.30507 12.0543 7.29239 12.0414C7.04639 11.791 6.56625 12.0476 6.65297 12.3831L6.66218 12.4188C6.67388 12.464 6.69603 12.5056 6.72719 12.541L7.35863 13.2577C7.60527 13.5377 7.88901 13.7877 8.20428 14.003L9.38726 14.8107C9.42863 14.8389 9.47394 14.8624 9.52225 14.8805L9.96906 15.0481C10.4 15.2097 10.3224 15.7968 9.85176 15.9357C9.7769 15.9578 9.69916 15.9647 9.62416 15.956L8.27805 15.7995L6.35987 15.4159C6.26552 15.397 6.16498 15.402 6.06862 15.4305L5.80004 15.5097C5.649 15.5543 5.55476 15.6995 5.58954 15.834C5.61292 15.9245 5.69065 15.9908 5.79139 16.0064L6.96229 16.1878L8.42231 16.3575L9.60932 16.4511C9.77994 16.4645 9.95504 16.4457 10.124 16.3959L11.0644 16.1184C11.2341 16.0683 11.4033 16.1502 11.4424 16.3013C11.4528 16.3416 11.4731 16.3785 11.5018 16.4092L11.85 16.7828C12.493 17.4725 12.4799 18.5253 11.8186 19.3131C11.6807 19.4773 11.5191 19.6243 11.3388 19.7493L10.5481 20.2976C10.1517 20.5726 9.73398 20.8191 9.2994 21.0347L4.87195 23.231L0.659207 25.1949L0.34754 25.3858C0.0829572 25.5479 -0.0507938 25.8396 0.0178082 26.1049C0.057648 26.259 0.230213 26.3425 0.403229 26.2915L0.594599 26.235C0.633964 26.2234 0.672134 26.2077 0.708328 26.1883L1.89747 25.5502L5.10278 24.1238L8.76606 22.3821L11.1745 20.8575C11.3452 20.7494 11.5004 20.6211 11.6354 20.4763Z" fill="black"/>
<path d="M21.285 22.5917L20.9466 22.6915C20.4405 22.8409 19.9103 22.8413 19.4345 22.6926L17.4182 23.6577C17.3096 23.696 17.2121 23.7606 17.1371 23.8442C16.9834 24.0155 16.7435 24.0996 16.5206 24.0601L11.5276 23.1761C10.4593 22.987 9.32365 23.0977 8.26384 23.4944L7.69784 23.7063C7.64232 23.7271 7.58911 23.7537 7.53939 23.7856L7.27603 23.9544C7.1671 24.0243 7.11295 24.1461 7.14158 24.2569C7.16546 24.3492 7.24307 24.4181 7.34494 24.4373L7.5207 24.4705C7.6228 24.4898 7.73116 24.4838 7.83508 24.4532L8.86143 24.1503C9.68444 23.9074 10.5438 23.872 11.3446 24.048L12.3365 24.2659L15.2853 24.717L17.073 24.8501L17.4312 24.8647C18.1406 24.8935 18.8619 24.8027 19.5598 24.5967L20.456 24.3323C20.941 24.1892 21.3198 23.5808 21.6507 22.9791C21.9584 22.4198 21.9296 22.4014 21.285 22.5917Z" fill="black"/>
<path d="M23.1905 33.0039L23.2774 32.8811C23.3534 32.7367 23.3648 32.5738 23.3055 32.4313L23.2084 32.1979C23.1317 32.0136 23.2561 31.7942 23.4736 31.73C23.6071 31.6906 23.7129 31.5888 23.7486 31.4653L23.9188 30.8768C23.9563 30.747 24.0142 30.6212 24.0906 30.5036L24.6024 29.7152L25.2631 28.6193L25.7673 27.9091C25.8259 27.8264 26.0145 27.4561 26.0321 27.3617L25.8105 27.1009C25.6474 26.9091 25.5949 26.6518 25.6675 26.4006L25.6826 26.3485C25.7232 26.2083 25.6603 25.9765 25.6171 25.8456C25.5955 25.7801 25.559 25.7209 25.5135 25.6681L25.3023 26.2728L24.2372 27.781L23.3014 29.3784L22.5176 31.0815C22.4658 31.1941 22.4536 31.3156 22.4826 31.4281C22.5186 31.5673 22.4911 31.7191 22.406 31.8502L22.318 31.9857C22.2105 32.1513 22.1575 32.338 22.1658 32.5216L22.1804 32.8449C22.1906 33.0718 22.1548 33.3024 22.0748 33.5253L21.9421 33.8946C21.903 34.0035 21.8312 34.1028 21.7354 34.1804L21.0666 34.7224C20.8882 34.8669 20.9641 35.121 21.1894 35.1336C21.2505 35.137 21.3131 35.1203 21.3659 35.0864L22.3348 34.4651C22.4427 34.396 22.5338 34.3062 22.6008 34.203C22.6292 34.1592 22.6531 34.1133 22.6721 34.066L22.7747 33.8104C22.8098 33.7083 22.8507 33.6073 22.8971 33.508C22.9363 33.424 22.9796 33.3411 23.0266 33.2597L23.0274 33.2581C23.0544 33.2002 23.0881 33.1446 23.1278 33.0923L23.1476 33.0661C23.1617 33.0452 23.176 33.0245 23.1905 33.0039Z" fill="black"/>
<path d="M31.1367 20.9652C31.2019 20.908 31.2403 20.8292 31.3004 20.7675L34.1082 17.8855C34.2032 17.788 34.3092 17.7 34.4242 17.6231L34.7206 17.4252C34.9349 17.2819 35.1961 17.2198 35.4435 17.2531C35.6453 17.2803 35.8576 17.2441 36.0469 17.1502L36.2024 17.073C36.3022 17.0235 36.3965 16.9642 36.4834 16.8962L36.8155 16.6366C36.9181 16.5564 37.0148 16.4699 37.1048 16.3778L37.7 15.7683C37.8126 15.653 37.8735 15.5052 37.8688 15.3585L37.8611 15.1195C37.8541 14.9001 37.6279 14.7603 37.3923 14.8298C37.3618 14.8388 37.3306 14.8445 37.2993 14.8466L37.2517 14.8499C36.9816 14.8684 36.7286 15.0148 36.5853 15.2355L36.2459 15.7584C36.0068 16.1267 35.5629 16.3494 35.1174 16.3244C34.9259 16.3137 34.73 16.3488 34.5486 16.4263L34.1337 16.6034C33.9877 16.6657 33.8466 16.7386 33.7117 16.8212L33.6069 16.8854C33.3084 17.0682 33.032 17.2815 32.7836 17.5205L31.8077 18.4599L30.8674 19.5181L30.5123 20.0111C30.4531 20.0933 30.4968 20.1611 30.5898 20.1121C30.6975 20.0553 30.8117 19.9869 30.8713 20.0199C31.0779 20.1342 30.9693 21.112 31.1367 20.9652Z" fill="black"/>
<path d="M28.0145 18.1343L27.6658 13.9164L27.502 12.1125C27.4195 11.2048 26.9567 10.3928 26.2079 9.84219L24.0833 8.63282C23.9718 8.56931 23.8477 8.52421 23.7161 8.49935L22.6354 8.29514C22.2997 8.2317 21.969 8.50838 22.0047 8.82287C22.0234 8.98789 22.1428 9.12082 22.3141 9.16732L23.2522 9.422C23.3594 9.45109 23.463 9.48828 23.562 9.5332L24.5167 9.96633C24.8501 10.1176 25.1693 10.2914 25.4718 10.4865C25.9697 10.8076 26.3555 11.2496 26.5917 11.7692C26.767 12.155 26.8559 12.5751 26.8537 13.0067L26.8464 14.3985L26.691 16.6665L26.6359 17.3508C26.6145 17.6166 26.7357 17.6232 27.0007 17.4917C27.2149 17.3855 27.9044 17.6353 27.9044 17.6353L28.0145 18.1343Z" fill="black"/>
<path d="M42.8285 30.732L43.6411 32.2504C43.8417 32.6253 44.1974 32.9036 44.6371 33.0298L44.679 33.0418C45.0124 33.1375 45.3799 33.1332 45.731 33.0296C46.0341 32.9402 46.3503 32.9245 46.647 32.9843L47.245 33.1048C47.3487 33.1256 47.4592 33.1202 47.5651 33.0889L47.7806 33.0253C47.8933 32.9921 47.9789 32.901 47.9966 32.7955C48.0114 32.7075 47.9767 32.6228 47.9045 32.5709L47.744 32.4553C47.6537 32.3904 47.5438 32.3504 47.4255 32.3396L46.6067 32.2648C46.445 32.25 46.2797 32.2568 46.1157 32.2848L46.0303 32.2994C45.6234 32.369 45.2183 32.2881 44.906 32.0749C44.742 31.9629 44.6091 31.8181 44.5161 31.65L43.1928 29.2592C42.9883 28.8897 42.7504 28.5385 42.4814 28.2088L42.2531 27.9289C42.1484 27.8005 42.0324 27.6805 41.9061 27.5699C41.4595 27.1786 40.8948 26.914 40.2706 26.8035L39.3159 26.6345L37.1181 26.3876C37.2611 26.654 37.3508 26.8595 37.3508 26.8595L38.0874 28.1436C40.2567 28.3189 41.8973 28.992 42.8285 30.732Z" fill="black"/>
</svg>
