<svg width="33" height="33" viewBox="0 0 33 33" fill="none" xmlns="http://www.w3.org/2000/svg">
<path d="M2.81544 8.2672L3.41461 8.49853C3.53968 8.54681 3.67259 8.57158 3.80666 8.57158C4.57441 8.57158 5.10089 9.345 4.81935 10.0593L4.76844 10.1884C4.74288 10.2533 4.7231 10.3203 4.70933 10.3886L4.58877 10.987C4.48299 11.5121 4.42971 12.0464 4.42971 12.582V12.94C4.42971 13.949 4.56061 14.9537 4.81915 15.929L5.00968 16.6478C5.12338 17.0767 5.27083 17.496 5.45064 17.9017L5.64581 18.3421C5.88462 18.8809 6.03463 19.4548 6.09004 20.0415L6.20991 21.3109C6.22412 21.4613 6.27877 21.6051 6.36808 21.727C6.62911 22.0833 6.56853 22.5811 6.22965 22.8644L5.66985 23.3324C5.49573 23.478 5.2929 23.5852 5.07456 23.6471L3.05655 24.2195C2.52609 24.37 2.03214 24.6277 1.60526 24.9767L1.47474 25.0834C1.14559 25.3525 0.873456 25.6846 0.674308 26.0603L0.52243 26.3467C0.328574 26.7124 0.246307 27.1269 0.285829 27.5389L0.292122 27.6045C0.345148 28.1572 0.629485 28.6617 1.07486 28.9933C1.20865 29.0929 1.35457 29.1751 1.50911 29.2379L2.46788 29.6273C2.76784 29.7491 3.02455 29.9578 3.20504 30.2266C3.31969 30.3973 3.40088 30.5883 3.44427 30.7893L3.50401 31.0661C3.56893 31.3668 3.72615 31.6398 3.95372 31.8469C4.3003 32.1623 4.77597 32.2945 5.23561 32.2033L5.53672 32.1435C6.07792 32.036 6.55449 31.7185 6.86209 31.2605L7.77967 29.8941C8.1426 29.3536 8.35541 28.7264 8.39631 28.0767L8.43183 27.5125C8.46545 26.9786 8.6937 26.4755 9.07337 26.0986L10.3732 24.8082C10.5696 24.6132 10.89 24.6255 11.0708 24.835C11.1457 24.9217 11.1869 25.0324 11.1869 25.1469V26.3855C11.1869 27.4518 11.8746 28.3963 12.8893 28.7237L13.7697 29.0077C14.049 29.0978 14.3379 29.1546 14.6305 29.177L15.9006 29.274C16.7084 29.3357 17.5208 29.2847 18.3146 29.1224L19.2762 28.9259C19.5377 28.8724 19.7892 28.7781 20.0213 28.6464L20.0857 28.6099C20.8084 28.1999 21.2687 27.4463 21.3036 26.6162L21.3165 26.3088C21.3206 26.2117 21.3428 26.1163 21.3819 26.0275C21.6047 25.5219 22.2686 25.4028 22.6533 25.7993L23.4538 26.6247C23.6792 26.857 23.8263 27.1538 23.8746 27.4738L23.9583 28.0276C24.0029 28.3229 24.0874 28.6107 24.2094 28.8832L24.6835 29.9423C24.8443 30.3014 25.0655 30.6303 25.3376 30.9146L25.7939 31.3914C26.151 31.7646 26.6451 31.9757 27.1617 31.9757C27.7836 31.9757 28.3659 31.6702 28.7194 31.1585L29.9568 29.367C30.1925 29.0394 30.5779 28.8452 30.9814 28.8452C31.4936 28.8452 31.9653 28.5407 32.1683 28.0704L32.1766 28.0512C32.2476 27.8866 32.2843 27.7092 32.2843 27.5299V27.2578C32.2843 26.5564 32.0043 25.884 31.5066 25.3899L31.3368 25.2213C31.0209 24.9077 30.6432 24.6633 30.2278 24.5037L29.0786 24.062C28.7162 23.9228 28.3312 23.8513 27.9429 23.8513H27.1429C26.7825 23.8513 26.438 23.7028 26.1905 23.4408C25.7613 22.9862 25.713 22.2917 26.0753 21.7822L26.1007 21.7465C26.2648 21.5157 26.353 21.2395 26.353 20.9564V19.9767C26.353 19.4339 26.4527 18.8958 26.6472 18.389L27.5543 16.0251L27.7744 15.2057C28.0265 14.2669 28.1318 13.2948 28.0863 12.3238L28.0177 10.8606C28.0091 10.6778 27.9671 10.4981 27.8937 10.3304C27.5471 9.53919 27.9407 8.61973 28.7524 8.32427L29.5063 8.04983L30.9558 7.27895C31.3796 7.05359 31.7189 6.69705 31.9231 6.26271C32.0621 5.96705 32.1341 5.64438 32.1341 5.31769V4.94459C32.1341 4.59208 32.0055 4.25168 31.7725 3.98724C31.664 3.86418 31.5354 3.76045 31.3922 3.68047L30.4073 3.13049L29.7939 2.77525C29.6043 2.66549 29.4402 2.51682 29.3123 2.33904C29.1926 2.17266 29.107 1.98419 29.0606 1.78455L28.9825 1.44845C28.9318 1.23023 28.8393 1.02389 28.7102 0.840793C28.4958 0.536768 28.1895 0.3096 27.8364 0.19273L27.8009 0.180984C27.4447 0.0631182 27.0611 0.0563114 26.701 0.161466L26.6355 0.180572C26.2083 0.30531 25.8327 0.564456 25.5644 0.919556L25.0725 1.57071C24.9253 1.76551 24.7942 1.97188 24.6802 2.18781L24.1087 3.27102C24.0534 3.37572 24.0109 3.48664 23.982 3.60144C23.7652 4.46231 22.8466 4.94201 22.0163 4.62798L20.4217 4.02491L18.6198 3.42863L18.5044 3.40318C17.2368 3.12352 15.9349 3.03164 14.6406 3.13049L14.5609 3.14139C13.1685 3.33206 11.807 3.70427 10.5112 4.24852L9.906 4.57394C9.30778 4.89563 8.56827 4.55268 8.42737 3.88823C8.4151 3.83039 8.39782 3.77373 8.37572 3.71889L8.10078 3.0365C7.90708 2.55578 7.63638 2.10981 7.2993 1.71612L6.88758 1.23525C6.654 0.96245 6.35751 0.750625 6.02373 0.61808C5.62065 0.458016 5.1794 0.419982 4.75487 0.508709L4.70769 0.518569C4.23344 0.617688 3.80091 0.859641 3.46827 1.21189L3.1611 1.53716C2.95769 1.75256 2.79842 2.0057 2.69228 2.2823L2.62009 2.47043C2.39067 3.06829 1.87511 3.51005 1.24916 3.64514L1.01738 3.69517C0.701111 3.76342 0.422065 3.94808 0.235616 4.21251C0.0823006 4.42994 0 4.68948 0 4.95553V5.10721C0 5.32784 0.0413047 5.54653 0.12178 5.75196L0.207314 5.97032C0.415196 6.50099 0.769506 6.96173 1.22901 7.2989L1.76579 7.69277C2.08877 7.92976 2.44172 8.12292 2.81544 8.2672Z" fill="#A6A5A4" fill-opacity="0.58"/>
</svg>
