<svg width="856" height="563" viewBox="0 0 856 563" fill="none" xmlns="http://www.w3.org/2000/svg">
<g filter="url(#filter0_d_486_4)">
<path d="M506.821 478.984H496.244C491.434 478.984 486.742 480.475 482.814 483.252L474.512 489.121C468.883 493.101 467.429 500.829 471.226 506.583C475.047 512.371 473.549 520.15 467.852 524.106L436.645 545.774C427.993 551.781 417.712 555 407.18 555H116.144C103.092 555 90.1652 552.445 78.0943 547.478L65.9501 542.481C28.4666 527.059 4 490.535 4 450.003V424.065C4 410.819 11.3173 398.657 23.0197 392.453C28.1825 389.715 33.9371 388.284 39.7807 388.284H88.7464C93.8253 388.284 98.8968 388.671 103.917 389.441L172.799 400.013C182.903 401.564 193.031 397.366 199.074 389.121C208.705 375.981 204.824 357.393 190.74 349.205L187.202 347.147C182.455 344.388 177.061 342.934 171.57 342.934H106.493C99.7653 342.934 93.055 343.613 86.4638 344.96L41.4035 354.172C34.5858 355.566 27.4978 354.637 21.269 351.535C10.6881 346.265 4 335.462 4 323.641V277.078C4 260.463 13.1787 245.207 27.8579 237.424C29.8709 236.357 31.7998 235.138 33.6277 233.778L57.4905 216.02C64.3325 210.929 72.6337 208.179 81.1622 208.179H111.18C116.501 208.179 120.814 203.866 120.814 198.546C120.814 194.917 118.775 191.596 115.539 189.954L68.0277 165.852L41.0058 152.363C19.6106 141.684 8.98681 117.171 15.8215 94.2563C18.9312 83.8301 18.4988 72.6674 14.5918 62.5131L9.62419 49.602C6.03309 40.2685 6.42923 29.8703 10.7201 20.8372C16.7654 8.1103 29.5966 0 43.6863 0H401.223C403.563 0 405.87 0.555891 407.954 1.62189C416.041 5.75899 418.516 16.1432 413.166 23.4837L408.097 30.439C405.944 33.3929 404.784 36.9538 404.784 40.609C404.784 50.145 412.514 57.8755 422.05 57.8755H429.01C436.539 57.8755 443.64 54.3753 448.225 48.404L459.525 33.6887C471.234 18.4401 489.367 9.50195 508.593 9.50195H729.196C735.125 9.50195 741.035 10.1763 746.812 11.5121L753.895 13.1501C776.52 18.382 794.683 35.2048 801.629 57.3636L804.973 68.0292C808.459 79.1498 816.548 88.241 827.187 92.9972C842.207 99.7116 851.703 114.812 851.249 131.258L847.138 279.879C846.502 302.896 835.806 324.478 817.875 338.925C803.901 350.184 786.496 356.323 768.55 356.323H755.475C752.39 356.323 749.318 356.732 746.339 357.538L740.794 359.04C728.831 362.279 720.523 373.136 720.523 385.53C720.523 395.949 714.624 405.469 705.294 410.107L695.104 415.172C691.216 417.105 687.623 419.58 684.432 422.523L644.765 459.117L638.247 466.556C627.197 479.169 612.679 488.25 596.502 492.666L587.562 495.107C570.72 499.705 552.729 497.198 537.785 488.172L536.06 487.13C527.238 481.801 517.128 478.984 506.821 478.984Z" fill="#F5F5F5"/>
</g>
<path d="M239.924 175V180.4H237.224V172.336H239.024C239.888 171.292 240.464 168.988 240.68 165.748C240.932 161.572 241.04 157.972 241.076 151.24H251.732V172.336H253.676V180.4H250.976V175H239.924ZM241.904 172.336H248.96V153.904H243.74C243.668 158.98 243.596 162.112 243.416 165.892C243.272 168.916 242.624 171.256 241.904 172.336ZM265.125 175.54C259.833 175.54 257.853 168.556 257.853 163.156C257.853 157.792 260.013 150.7 265.197 150.7C270.489 150.7 272.469 157.684 272.469 163.084C272.469 168.448 270.309 175.54 265.125 175.54ZM260.733 163.12C260.733 167.296 261.849 172.876 265.161 172.876C268.473 172.876 269.589 167.26 269.589 163.12C269.589 158.944 268.473 153.364 265.161 153.364C261.885 153.364 260.733 158.98 260.733 163.12ZM278.987 175V151.24H290.327V153.796H281.759V160.996H285.575C289.715 160.996 291.839 164.488 291.839 167.98C291.839 171.4 289.607 175 285.431 175H278.987ZM281.759 172.444H285.395C287.699 172.444 288.995 170.14 288.995 167.944C288.995 165.712 287.735 163.444 285.395 163.444H281.759V172.444ZM298.752 175V151.24H305.628C309.48 151.24 311.64 153.976 311.64 156.892C311.64 159.736 309.372 162.58 305.484 162.58H301.524V175H298.752ZM301.524 160.096H305.448C307.464 160.096 308.796 158.548 308.796 156.928C308.796 155.272 307.5 153.796 305.448 153.796H301.524V160.096ZM323.45 175.54C318.158 175.54 316.178 168.556 316.178 163.156C316.178 157.792 318.338 150.7 323.522 150.7C328.814 150.7 330.794 157.684 330.794 163.084C330.794 168.448 328.634 175.54 323.45 175.54ZM319.058 163.12C319.058 167.296 320.174 172.876 323.486 172.876C326.798 172.876 327.914 167.26 327.914 163.12C327.914 158.944 326.798 153.364 323.486 153.364C320.21 153.364 319.058 158.98 319.058 163.12ZM365.104 175V153.904H358.192V175H355.42V151.24H367.876V175H365.104ZM381.774 175.54C376.482 175.54 374.502 168.556 374.502 163.156C374.502 157.792 376.662 150.7 381.846 150.7C387.138 150.7 389.118 157.684 389.118 163.084C389.118 168.448 386.958 175.54 381.774 175.54ZM377.382 163.12C377.382 167.296 378.498 172.876 381.81 172.876C385.122 172.876 386.238 167.26 386.238 163.12C386.238 158.944 385.122 153.364 381.81 153.364C378.534 153.364 377.382 158.98 377.382 163.12ZM407.191 175L404.419 162.58H402.511V175H399.991V162.58H398.047L395.311 175H392.647L395.779 161.32L392.719 151.24H395.383L398.083 160.168H399.991V151.24H402.511V160.168H404.455L407.155 151.24H409.783L406.723 161.32L409.855 175H407.191ZM413.313 175L418.533 151.24H422.853L428.073 175H425.337L423.393 166.036H417.921L415.977 175H413.313ZM418.533 163.372H422.817L420.765 153.904H420.585L418.533 163.372ZM432.178 175.288V172.588H432.898C434.698 172.588 435.31 171.508 435.49 168.124C435.67 164.308 435.778 157.972 435.814 151.24H446.29V175H443.518V153.904H438.514C438.442 159.628 438.37 164.848 438.19 168.484C437.938 173.884 436.642 175.288 433.114 175.288H432.178ZM459.539 175.54C454.247 175.54 452.267 168.556 452.267 163.156C452.267 157.792 454.427 150.7 459.611 150.7C464.903 150.7 466.883 157.684 466.883 163.084C466.883 168.448 464.723 175.54 459.539 175.54ZM455.147 163.12C455.147 167.296 456.263 172.876 459.575 172.876C462.887 172.876 464.003 167.26 464.003 163.12C464.003 158.944 462.887 153.364 459.575 153.364C456.299 153.364 455.147 158.98 455.147 163.12ZM473.041 175V151.24H479.953C483.697 151.24 485.713 153.976 485.713 156.748C485.713 158.62 484.633 160.384 482.689 161.284C484.885 162.364 486.073 164.704 486.073 167.62C486.073 171.688 483.661 175 479.701 175H473.041ZM475.705 172.516H479.593C481.861 172.516 483.229 170.464 483.229 167.548C483.229 164.56 481.897 162.616 479.593 162.616H475.705V172.516ZM475.705 160.168H479.737C481.717 160.168 482.869 158.62 482.869 156.964C482.869 155.272 481.753 153.796 479.737 153.796H475.705V160.168ZM491.078 175L496.298 151.24H500.618L505.838 175H503.102L501.158 166.036H495.686L493.742 175H491.078ZM496.298 163.372H500.582L498.53 153.904H498.35L496.298 163.372ZM516.532 175V153.904H510.844V151.24H524.956V153.904H519.304V175H516.532ZM532.049 175V151.24H534.821V160.996H538.673C542.777 160.996 544.937 164.488 544.937 167.98C544.937 171.4 542.669 175 538.529 175H532.049ZM534.821 172.444H538.493C540.797 172.444 542.093 170.14 542.093 167.944C542.093 165.712 540.833 163.444 538.493 163.444H534.821V172.444ZM570.248 175V151.24H577.16C580.904 151.24 582.92 153.976 582.92 156.748C582.92 158.62 581.84 160.384 579.896 161.284C582.092 162.364 583.28 164.704 583.28 167.62C583.28 171.688 580.868 175 576.908 175H570.248ZM572.912 172.516H576.8C579.068 172.516 580.436 170.464 580.436 167.548C580.436 164.56 579.104 162.616 576.8 162.616H572.912V172.516ZM572.912 160.168H576.944C578.924 160.168 580.076 158.62 580.076 156.964C580.076 155.272 578.96 153.796 576.944 153.796H572.912V160.168ZM607.151 175.288V172.588H607.871C609.671 172.588 610.283 171.508 610.463 168.124C610.643 164.308 610.751 157.972 610.787 151.24H621.263V175H618.491V153.904H613.487C613.415 159.628 613.343 164.848 613.163 168.484C612.911 173.884 611.615 175.288 608.087 175.288H607.151ZM627.168 175L632.388 151.24H636.708L641.928 175H639.192L637.248 166.036H631.776L629.832 175H627.168ZM632.388 163.372H636.672L634.62 153.904H634.44L632.388 163.372ZM648.374 175V151.24H659.714V153.796H651.146V160.996H654.962C659.102 160.996 661.226 164.488 661.226 167.98C661.226 171.4 658.994 175 654.818 175H648.374ZM651.146 172.444H654.782C657.086 172.444 658.382 170.14 658.382 167.944C658.382 165.712 657.122 163.444 654.782 163.444H651.146V172.444ZM666.987 175V151.24H669.543L669.507 171.904H669.687L675.663 151.24H679.875V175H677.319L677.355 154.336H677.175L671.199 175H666.987ZM687.58 175V151.24H694.456C698.308 151.24 700.468 153.976 700.468 156.892C700.468 159.736 698.2 162.58 694.312 162.58H690.352V175H687.58ZM690.352 160.096H694.276C696.292 160.096 697.624 158.548 697.624 156.928C697.624 155.272 696.328 153.796 694.276 153.796H690.352V160.096ZM705.87 175V151.24H708.426L708.39 171.904H708.57L714.546 151.24H718.758V175H716.202L716.238 154.336H716.058L710.082 175H705.87ZM735.283 175V163.912H728.227V175H725.455V151.24H728.227V161.248H735.283V151.24H738.055V175H735.283ZM749.829 175V153.904H744.141V151.24H758.253V153.904H752.601V175H749.829ZM769.414 166.612L768.802 151.24H772.474L771.862 166.612H769.414ZM767.398 172.192C767.398 170.644 769.054 168.988 770.638 168.988C772.222 168.988 773.878 170.644 773.878 172.192C773.878 173.776 772.222 175.432 770.638 175.432C769.054 175.432 767.398 173.776 767.398 172.192Z" fill="#1F1515"/>
<path d="M240.64 220V208.28H237.48V206.8H245.32V208.28H242.18V220H240.64ZM248.281 220V210.32H249.721V213.64H250.681C252.761 213.64 253.881 215.2 253.881 216.78C253.881 218.34 252.701 220 250.621 220H248.281ZM249.721 218.64H250.521C251.741 218.64 252.401 217.66 252.401 216.8C252.401 215.9 251.761 214.94 250.521 214.94H249.721V218.64ZM254.681 220V210.32H256.121V220H254.681ZM269.402 215.04V213.58H278.202V215.04H269.402ZM294.664 220V211.74H291.824V210.32H298.984V211.74H296.164V220H294.664ZM306.245 220.3C303.705 220.3 302.385 217.68 302.385 215.18C302.385 212.7 303.825 210.02 306.285 210.02C308.685 210.02 310.165 212.86 309.965 215.36H303.925C303.985 217.16 304.725 218.96 306.285 218.96C307.085 218.96 307.725 218.46 308.145 217.42H309.725C309.025 219.14 307.885 220.3 306.245 220.3ZM304.025 214H308.365C308.145 212.6 307.405 211.38 306.265 211.38C305.025 211.38 304.285 212.6 304.025 214ZM317.085 220.3C316.285 220.3 315.565 219.82 315.145 219.02V223.52H313.645V210.32H314.985V211.56C315.485 210.6 316.445 210.02 317.345 210.02C319.605 210.02 320.945 212.76 320.945 215.14C320.945 217.5 319.525 220.3 317.085 220.3ZM315.145 217C315.145 217.94 316.085 218.88 316.945 218.88C318.645 218.88 319.405 216.72 319.405 215.16C319.405 213.58 318.665 211.44 316.985 211.44C316.145 211.44 315.145 212.38 315.145 213.34V217ZM327.386 217.36L325.626 211.9H325.446L325.466 220H324.246V210.32H326.266L327.806 215.18L329.346 210.32H331.366V220H330.086L330.106 211.9H329.926L328.166 217.36H327.386ZM335.247 220V210.32H336.567L336.547 218.54H336.667L339.787 210.32H341.967V220H340.647L340.667 211.78H340.547L337.427 220H335.247ZM348.668 220V211.74H345.828V210.32H352.988V211.74H350.168V220H348.668ZM360.209 220.1C359.329 220.1 358.409 219.24 358.409 218.38C358.409 217.58 359.309 216.66 360.249 216.66C361.289 216.66 362.349 217.84 362.349 219.48C362.349 221.34 361.089 223.22 358.909 223.22V221.84C360.209 221.84 360.789 221.1 360.849 219.96C360.649 220.04 360.429 220.1 360.209 220.1ZM378.65 220V210.32H380.15V213.82H381.73L384.05 210.32H385.67L382.91 214.38L385.73 220H384.05L381.67 215.14H380.15V220H378.65ZM392.591 220.3C390.131 220.3 388.791 217.68 388.791 215.18C388.791 212.7 390.231 210.02 392.631 210.02C395.091 210.02 396.431 212.64 396.431 215.14C396.431 217.62 394.991 220.3 392.591 220.3ZM390.331 215.16C390.331 216.86 391.071 218.88 392.611 218.88C394.131 218.88 394.891 216.84 394.891 215.16C394.891 213.46 394.151 211.44 392.611 211.44C391.091 211.44 390.331 213.48 390.331 215.16ZM402.672 220V211.74H399.832V210.32H406.992V211.74H404.172V220H402.672ZM414.193 220.3C411.733 220.3 410.393 217.68 410.393 215.18C410.393 212.7 411.833 210.02 414.233 210.02C416.693 210.02 418.033 212.64 418.033 215.14C418.033 217.62 416.593 220.3 414.193 220.3ZM411.933 215.16C411.933 216.86 412.673 218.88 414.213 218.88C415.733 218.88 416.493 216.84 416.493 215.16C416.493 213.46 415.753 211.44 414.213 211.44C412.693 211.44 411.933 213.48 411.933 215.16ZM425.093 220.3C424.293 220.3 423.573 219.82 423.153 219.02V223.52H421.653V210.32H422.993V211.56C423.493 210.6 424.453 210.02 425.353 210.02C427.613 210.02 428.953 212.76 428.953 215.14C428.953 217.5 427.533 220.3 425.093 220.3ZM423.153 217C423.153 217.94 424.093 218.88 424.953 218.88C426.653 218.88 427.413 216.72 427.413 215.16C427.413 213.58 426.673 211.44 424.993 211.44C424.153 211.44 423.153 212.38 423.153 213.34V217ZM431.894 220V210.32H433.334V213.64H434.294C436.374 213.64 437.494 215.2 437.494 216.78C437.494 218.34 436.314 220 434.234 220H431.894ZM433.334 218.64H434.134C435.354 218.64 436.014 217.66 436.014 216.8C436.014 215.9 435.374 214.94 434.134 214.94H433.334V218.64ZM438.294 220V210.32H439.734V220H438.294ZM443.255 220V210.32H444.575L444.555 218.54H444.675L447.795 210.32H449.975V220H448.655L448.675 211.78H448.555L445.435 220H443.255ZM444.295 206.32H445.695C445.695 207.22 446.055 207.96 446.615 207.96C447.175 207.96 447.535 207.22 447.535 206.32H448.935C448.935 207.88 447.795 209.12 446.615 209.12C445.435 209.12 444.295 207.88 444.295 206.32ZM469.956 220V211.74H466.476V220H464.976V210.32H471.456V220H469.956ZM478.997 220.3C476.537 220.3 475.197 217.68 475.197 215.18C475.197 212.7 476.637 210.02 479.037 210.02C481.497 210.02 482.837 212.64 482.837 215.14C482.837 217.62 481.397 220.3 478.997 220.3ZM476.737 215.16C476.737 216.86 477.477 218.88 479.017 218.88C480.537 218.88 481.297 216.84 481.297 215.16C481.297 213.46 480.557 211.44 479.017 211.44C477.497 211.44 476.737 213.48 476.737 215.16ZM485.618 220.16V218.7H485.998C487.058 218.7 487.338 218.1 487.438 216.18C487.518 214.7 487.598 212.88 487.618 210.32H493.078V220H491.578V211.74H489.038C489.018 213.6 488.958 215.04 488.898 216.38C488.758 219.4 488.038 220.16 486.118 220.16H485.618ZM500.719 220.3C498.899 220.3 497.539 219.16 496.939 217.1H498.579C498.959 218.32 499.779 218.98 500.739 218.98C501.879 218.98 502.679 217.9 502.679 216.92C502.679 215.94 501.999 215.14 500.939 215.14H499.919V213.8H501.079C501.959 213.8 502.499 213.32 502.499 212.78C502.499 212.16 501.819 211.34 500.739 211.34C499.819 211.34 499.039 211.96 498.639 213.06H496.979C497.699 211.06 499.219 210.02 500.799 210.02C502.719 210.02 503.999 211.5 503.999 212.64C503.999 213.4 503.519 214.08 502.659 214.46C503.619 214.92 504.179 215.82 504.179 216.9C504.179 218.68 502.579 220.3 500.719 220.3ZM511.46 220.3C508.92 220.3 507.6 217.68 507.6 215.18C507.6 212.7 509.04 210.02 511.5 210.02C513.9 210.02 515.38 212.86 515.18 215.36H509.14C509.2 217.16 509.94 218.96 511.5 218.96C512.3 218.96 512.94 218.46 513.36 217.42H514.94C514.24 219.14 513.1 220.3 511.46 220.3ZM508.12 207.64C508.12 206.92 508.86 206.16 509.58 206.16C510.3 206.16 511.04 206.92 511.04 207.64C511.04 208.38 510.3 209.14 509.58 209.14C508.86 209.14 508.12 208.38 508.12 207.64ZM509.24 214H513.58C513.36 212.6 512.62 211.38 511.48 211.38C510.24 211.38 509.5 212.6 509.24 214ZM511.9 207.64C511.9 206.92 512.64 206.16 513.36 206.16C514.08 206.16 514.82 206.92 514.82 207.64C514.82 208.38 514.08 209.14 513.36 209.14C512.64 209.14 511.9 208.38 511.9 207.64ZM521.48 220V211.74H518.64V210.32H525.8V211.74H522.98V220H521.48ZM545.562 220V211.74H542.082V220H540.582V210.32H547.062V220H545.562ZM554.603 220.3C552.143 220.3 550.803 217.68 550.803 215.18C550.803 212.7 552.243 210.02 554.643 210.02C557.103 210.02 558.443 212.64 558.443 215.14C558.443 217.62 557.003 220.3 554.603 220.3ZM552.343 215.16C552.343 216.86 553.083 218.88 554.623 218.88C556.143 218.88 556.903 216.84 556.903 215.16C556.903 213.46 556.163 211.44 554.623 211.44C553.103 211.44 552.343 213.48 552.343 215.16ZM576.324 220.3C574.504 220.3 573.144 219.16 572.544 217.1H574.184C574.564 218.32 575.384 218.98 576.344 218.98C577.484 218.98 578.284 217.9 578.284 216.92C578.284 215.94 577.604 215.14 576.544 215.14H575.524V213.8H576.684C577.564 213.8 578.104 213.32 578.104 212.78C578.104 212.16 577.424 211.34 576.344 211.34C575.424 211.34 574.644 211.96 574.244 213.06H572.584C573.304 211.06 574.824 210.02 576.404 210.02C578.324 210.02 579.604 211.5 579.604 212.64C579.604 213.4 579.124 214.08 578.264 214.46C579.224 214.92 579.784 215.82 579.784 216.9C579.784 218.68 578.184 220.3 576.324 220.3ZM586.665 220.3C585.045 220.3 583.685 219.24 583.685 217.28C583.685 215.58 584.745 214.56 586.725 214.02L588.025 213.66C588.485 213.54 588.745 213.28 588.745 212.86C588.745 212.38 588.325 211.44 587.105 211.44C586.065 211.44 585.245 212.16 585.045 213.14H583.485C583.925 211.12 585.605 210.02 587.205 210.02C589.085 210.02 590.245 211.44 590.245 212.86V217.8C590.245 218.6 590.425 218.76 590.925 218.76H591.645V220.14H590.685C589.725 220.14 589.205 219.76 589.005 218.92C588.445 219.82 587.485 220.3 586.665 220.3ZM585.225 217.22C585.225 218.32 585.885 218.98 586.825 218.98C587.825 218.98 588.745 218.04 588.745 216.98V214.66C588.625 214.84 588.385 214.96 588.105 215.04L587.045 215.34C585.845 215.68 585.225 216.36 585.225 217.22ZM599.566 220V211.74H596.086V220H594.586V210.32H601.066V220H599.566ZM607.047 223.52L608.207 220H607.587L604.747 210.32H606.327L608.587 218.56H608.687L610.967 210.32H612.507L608.627 223.52H607.047ZM618.687 220V211.74H615.847V210.32H623.007V211.74H620.187V220H618.687ZM629.868 220.3C628.248 220.3 626.888 219.24 626.888 217.28C626.888 215.58 627.948 214.56 629.928 214.02L631.228 213.66C631.688 213.54 631.948 213.28 631.948 212.86C631.948 212.38 631.528 211.44 630.308 211.44C629.268 211.44 628.448 212.16 628.248 213.14H626.688C627.128 211.12 628.808 210.02 630.408 210.02C632.288 210.02 633.448 211.44 633.448 212.86V217.8C633.448 218.6 633.628 218.76 634.128 218.76H634.848V220.14H633.888C632.928 220.14 632.408 219.76 632.208 218.92C631.648 219.82 630.688 220.3 629.868 220.3ZM628.428 217.22C628.428 218.32 629.088 218.98 630.028 218.98C631.028 218.98 631.948 218.04 631.948 216.98V214.66C631.828 214.84 631.588 214.96 631.308 215.04L630.248 215.34C629.048 215.68 628.428 216.36 628.428 217.22ZM642.809 220V215.66H639.249V220H637.749V210.32H639.249V214.24H642.809V210.32H644.309V220H642.809ZM653.61 220V215.66H650.05V220H648.55V210.32H650.05V214.24H653.61V210.32H655.11V220H653.61ZM658.71 220V210.32H660.15V213.64H661.11C663.19 213.64 664.31 215.2 664.31 216.78C664.31 218.34 663.13 220 661.05 220H658.71ZM660.15 218.64H660.95C662.17 218.64 662.83 217.66 662.83 216.8C662.83 215.9 662.19 214.94 660.95 214.94H660.15V218.64ZM665.11 220V210.32H666.55V220H665.11ZM673.011 217.36L671.251 211.9H671.071L671.091 220H669.871V210.32H671.891L673.431 215.18L674.971 210.32H676.991V220H675.711L675.731 211.9H675.551L673.791 217.36H673.011ZM240.66 242V233.74H237.82V232.32H244.98V233.74H242.16V242H240.66ZM250.621 245.52L251.781 242H251.161L248.321 232.32H249.901L252.161 240.56H252.261L254.541 232.32H256.081L252.201 245.52H250.621ZM264.782 242V237.66H261.222V242H259.722V232.32H261.222V236.24H264.782V232.32H266.282V242H264.782ZM275.582 242V237.66H272.022V242H270.522V232.32H272.022V236.24H275.582V232.32H277.082V242H275.582ZM284.643 242.3C282.103 242.3 280.783 239.68 280.783 237.18C280.783 234.7 282.223 232.02 284.683 232.02C287.083 232.02 288.563 234.86 288.363 237.36H282.323C282.383 239.16 283.123 240.96 284.683 240.96C285.483 240.96 286.123 240.46 286.543 239.42H288.123C287.423 241.14 286.283 242.3 284.643 242.3ZM282.423 236H286.763C286.543 234.6 285.803 233.38 284.663 233.38C283.423 233.38 282.683 234.6 282.423 236ZM291.204 242.16V240.7H291.584C292.644 240.7 292.924 240.1 293.024 238.18C293.104 236.7 293.184 234.88 293.204 232.32H298.664V242H297.164V233.74H294.624C294.604 235.6 294.544 237.04 294.484 238.38C294.344 241.4 293.624 242.16 291.704 242.16H291.204ZM302.465 242L304.265 237.06C303.185 236.74 302.525 235.88 302.525 234.8C302.525 233.46 303.605 232.32 305.245 232.32H309.225V242H307.725V237.18H305.765L304.065 242H302.465ZM304.065 234.76C304.065 235.42 304.565 235.9 305.325 235.9H307.725V233.62H305.325C304.585 233.62 304.065 234.14 304.065 234.76ZM316.585 239.36L314.825 233.9H314.645L314.665 242H313.445V232.32H315.465L317.005 237.18L318.545 232.32H320.565V242H319.285L319.305 233.9H319.125L317.365 239.36H316.585ZM335.247 242V232.32H336.567L336.547 240.54H336.667L339.787 232.32H341.967V242H340.647L340.667 233.78H340.547L337.427 242H335.247ZM349.508 242.3C347.688 242.3 346.328 241.16 345.728 239.1H347.368C347.748 240.32 348.568 240.98 349.528 240.98C350.668 240.98 351.468 239.9 351.468 238.92C351.468 237.94 350.788 237.14 349.728 237.14H348.708V235.8H349.868C350.748 235.8 351.288 235.32 351.288 234.78C351.288 234.16 350.608 233.34 349.528 233.34C348.608 233.34 347.828 233.96 347.428 235.06H345.768C346.488 233.06 348.008 232.02 349.588 232.02C351.508 232.02 352.788 233.5 352.788 234.64C352.788 235.4 352.308 236.08 351.448 236.46C352.408 236.92 352.968 237.82 352.968 238.9C352.968 240.68 351.368 242.3 349.508 242.3ZM367.749 242V232.32H371.809C373.429 232.32 374.389 233.44 374.389 234.6C374.389 235.38 373.909 236.08 373.069 236.46C374.009 236.92 374.569 237.84 374.569 238.96C374.569 240.58 373.409 242 371.669 242H367.749ZM369.169 240.74H371.489C372.369 240.74 373.069 239.86 373.069 238.88C373.069 237.9 372.389 237.1 371.489 237.1H369.169V240.74ZM369.169 235.88H371.629C372.349 235.88 372.889 235.34 372.889 234.76C372.889 234.12 372.369 233.62 371.629 233.62H369.169V235.88ZM378.65 242V232.32H380.15V235.82H381.73L384.05 232.32H385.67L382.91 236.38L385.73 242H384.05L381.67 237.14H380.15V242H378.65ZM391.031 245.52L392.191 242H391.571L388.731 232.32H390.311L392.571 240.56H392.671L394.951 232.32H396.491L392.611 245.52H391.031ZM403.612 242.3C401.132 242.3 399.792 239.68 399.792 237.18C399.792 234.7 401.272 232.02 403.732 232.02C405.152 232.02 406.612 233.12 407.212 235.34H405.572C405.212 234.06 404.432 233.44 403.712 233.44C402.132 233.44 401.332 235.48 401.332 237.16C401.332 238.86 402.072 240.88 403.632 240.88C404.392 240.88 405.132 240.28 405.572 238.98H407.212C406.492 241.24 405.012 242.3 403.612 242.3ZM415.993 242V237.66H412.433V242H410.933V232.32H412.433V236.24H415.993V232.32H417.493V242H415.993ZM424.993 242.3C422.533 242.3 421.193 239.68 421.193 237.18C421.193 234.7 422.633 232.02 425.033 232.02C427.493 232.02 428.833 234.64 428.833 237.14C428.833 239.62 427.393 242.3 424.993 242.3ZM422.733 237.16C422.733 238.86 423.473 240.88 425.013 240.88C426.533 240.88 427.293 238.84 427.293 237.16C427.293 235.46 426.553 233.44 425.013 233.44C423.493 233.44 422.733 235.48 422.733 237.16ZM433.474 242V232.32H439.374V233.74H434.974V242H433.474ZM446.595 242.3C444.135 242.3 442.795 239.68 442.795 237.18C442.795 234.7 444.235 232.02 446.635 232.02C449.095 232.02 450.435 234.64 450.435 237.14C450.435 239.62 448.995 242.3 446.595 242.3ZM444.335 237.16C444.335 238.86 445.075 240.88 446.615 240.88C448.135 240.88 448.895 238.84 448.895 237.16C448.895 235.46 448.155 233.44 446.615 233.44C445.095 233.44 444.335 235.48 444.335 237.16ZM463.736 245V240.58H464.716C465.176 240 465.456 238.86 465.576 237.28C465.696 235.82 465.736 234.46 465.756 232.32H471.336V240.58H472.416V245H470.936V242H465.196V245H463.736ZM466.256 240.58H469.836V233.76H467.176C467.156 235.26 467.096 236.34 467.036 237.36C466.956 238.84 466.656 240 466.256 240.58ZM479.057 242.3C476.517 242.3 475.197 239.68 475.197 237.18C475.197 234.7 476.637 232.02 479.097 232.02C481.497 232.02 482.977 234.86 482.777 237.36H476.737C476.797 239.16 477.537 240.96 479.097 240.96C479.897 240.96 480.537 240.46 480.957 239.42H482.537C481.837 241.14 480.697 242.3 479.057 242.3ZM476.837 236H481.177C480.957 234.6 480.217 233.38 479.077 233.38C477.837 233.38 477.097 234.6 476.837 236ZM489.898 242.3C489.098 242.3 488.378 241.82 487.958 241.02V245.52H486.458V232.32H487.798V233.56C488.298 232.6 489.258 232.02 490.158 232.02C492.418 232.02 493.758 234.76 493.758 237.14C493.758 239.5 492.338 242.3 489.898 242.3ZM487.958 239C487.958 239.94 488.898 240.88 489.758 240.88C491.458 240.88 492.218 238.72 492.218 237.16C492.218 235.58 491.478 233.44 489.798 233.44C488.958 233.44 487.958 234.38 487.958 235.34V239ZM500.659 242.3C498.119 242.3 496.799 239.68 496.799 237.18C496.799 234.7 498.239 232.02 500.699 232.02C503.099 232.02 504.579 234.86 504.379 237.36H498.339C498.399 239.16 499.139 240.96 500.699 240.96C501.499 240.96 502.139 240.46 502.559 239.42H504.139C503.439 241.14 502.299 242.3 500.659 242.3ZM498.439 236H502.779C502.559 234.6 501.819 233.38 500.679 233.38C499.439 233.38 498.699 234.6 498.439 236ZM508.16 242V232.32H512.22C513.84 232.32 514.8 233.44 514.8 234.6C514.8 235.38 514.32 236.08 513.48 236.46C514.42 236.92 514.98 237.84 514.98 238.96C514.98 240.58 513.82 242 512.08 242H508.16ZM509.58 240.74H511.9C512.78 240.74 513.48 239.86 513.48 238.88C513.48 237.9 512.8 237.1 511.9 237.1H509.58V240.74ZM509.58 235.88H512.04C512.76 235.88 513.3 235.34 513.3 234.76C513.3 234.12 512.78 233.62 512.04 233.62H509.58V235.88ZM521.86 242.3C520.24 242.3 518.88 241.24 518.88 239.28C518.88 237.58 519.94 236.56 521.92 236.02L523.22 235.66C523.68 235.54 523.94 235.28 523.94 234.86C523.94 234.38 523.52 233.44 522.3 233.44C521.26 233.44 520.44 234.16 520.24 235.14H518.68C519.12 233.12 520.8 232.02 522.4 232.02C524.28 232.02 525.44 233.44 525.44 234.86V239.8C525.44 240.6 525.62 240.76 526.12 240.76H526.84V242.14H525.88C524.92 242.14 524.4 241.76 524.2 240.92C523.64 241.82 522.68 242.3 521.86 242.3ZM520.42 239.22C520.42 240.32 521.08 240.98 522.02 240.98C523.02 240.98 523.94 240.04 523.94 238.98V236.66C523.82 236.84 523.58 236.96 523.3 237.04L522.24 237.34C521.04 237.68 520.42 238.36 520.42 239.22ZM533.021 242.24C532.141 242.24 531.221 241.32 531.221 240.44C531.221 239.58 532.141 238.66 533.021 238.66C533.901 238.66 534.821 239.58 534.821 240.44C534.821 241.32 533.901 242.24 533.021 242.24ZM550.783 242V228.8H552.983L554.623 235.42L556.243 228.8H558.463V242H557.123V230.52H557.023L555.003 238.36H554.203L552.163 230.52H552.063L552.083 242H550.783ZM562.063 242V232.32H563.383L563.363 240.54H563.483L566.603 232.32H568.783V242H567.463L567.483 233.78H567.363L564.243 242H562.063ZM576.424 242.3C573.944 242.3 572.604 239.68 572.604 237.18C572.604 234.7 574.084 232.02 576.544 232.02C577.964 232.02 579.424 233.12 580.024 235.34H578.384C578.024 234.06 577.244 233.44 576.524 233.44C574.944 233.44 574.144 235.48 574.144 237.16C574.144 238.86 574.884 240.88 576.444 240.88C577.204 240.88 577.944 240.28 578.384 238.98H580.024C579.304 241.24 577.824 242.3 576.424 242.3ZM587.225 242.3C584.745 242.3 583.405 239.68 583.405 237.18C583.405 234.7 584.885 232.02 587.345 232.02C588.765 232.02 590.225 233.12 590.825 235.34H589.185C588.825 234.06 588.045 233.44 587.325 233.44C585.745 233.44 584.945 235.48 584.945 237.16C584.945 238.86 585.685 240.88 587.245 240.88C588.005 240.88 588.745 240.28 589.185 238.98H590.825C590.105 241.24 588.625 242.3 587.225 242.3ZM594.466 242V232.32H595.786L595.766 240.54H595.886L599.006 232.32H601.186V242H599.866L599.886 233.78H599.766L596.646 242H594.466ZM604.887 242L606.687 237.06C605.607 236.74 604.947 235.88 604.947 234.8C604.947 233.46 606.027 232.32 607.667 232.32H611.647V242H610.147V237.18H608.187L606.487 242H604.887ZM606.487 234.76C606.487 235.42 606.987 235.9 607.747 235.9H610.147V233.62H607.747C607.007 233.62 606.487 234.14 606.487 234.76ZM619.427 242.24C618.547 242.24 617.627 241.32 617.627 240.44C617.627 239.58 618.547 238.66 619.427 238.66C620.307 238.66 621.227 239.58 621.227 240.44C621.227 241.32 620.307 242.24 619.427 242.24ZM617.627 234.82C617.627 233.96 618.547 233.04 619.427 233.04C620.307 233.04 621.227 233.96 621.227 234.82C621.227 235.7 620.307 236.62 619.427 236.62C618.547 236.62 617.627 235.7 617.627 234.82ZM236.92 267V262.58H237.9C238.36 262 238.64 260.86 238.76 259.28C238.88 257.82 238.92 256.46 238.94 254.32H244.52V262.58H245.6V267H244.12V264H238.38V267H236.92ZM239.44 262.58H243.02V255.76H240.36C240.34 257.26 240.28 258.34 240.22 259.36C240.14 260.84 239.84 262 239.44 262.58ZM252.181 264.3C249.721 264.3 248.381 261.68 248.381 259.18C248.381 256.7 249.821 254.02 252.221 254.02C254.681 254.02 256.021 256.64 256.021 259.14C256.021 261.62 254.581 264.3 252.181 264.3ZM249.921 259.16C249.921 260.86 250.661 262.88 252.201 262.88C253.721 262.88 254.481 260.84 254.481 259.16C254.481 257.46 253.741 255.44 252.201 255.44C250.681 255.44 249.921 257.48 249.921 259.16ZM262.982 264.3C260.502 264.3 258.942 261.6 258.942 257.16C258.942 252.68 260.142 251.04 263.302 250.82L264.502 250.74C265.222 250.68 265.502 250.54 265.502 249.64H267.002C267.002 251.72 266.262 252.2 264.782 252.28L263.242 252.36C260.802 252.5 260.302 253.62 260.302 256.92V257.26C260.722 255.7 261.762 254.5 263.202 254.5C265.482 254.5 266.822 257.12 266.822 259.38C266.822 261.62 265.382 264.3 262.982 264.3ZM260.722 259.32C260.722 260.72 261.462 262.88 263.002 262.88C264.522 262.88 265.282 260.84 265.282 259.4C265.282 257.94 264.562 255.92 263.062 255.92C261.642 255.92 260.722 257.74 260.722 259.32ZM273.882 264.3C273.082 264.3 272.362 263.82 271.942 263.02V267.52H270.442V254.32H271.782V255.56C272.282 254.6 273.242 254.02 274.142 254.02C276.402 254.02 277.742 256.76 277.742 259.14C277.742 261.5 276.322 264.3 273.882 264.3ZM271.942 261C271.942 261.94 272.882 262.88 273.742 262.88C275.442 262.88 276.202 260.72 276.202 259.16C276.202 257.58 275.462 255.44 273.782 255.44C272.942 255.44 271.942 256.38 271.942 257.34V261ZM284.243 264.3C282.623 264.3 281.263 263.24 281.263 261.28C281.263 259.58 282.323 258.56 284.303 258.02L285.603 257.66C286.063 257.54 286.323 257.28 286.323 256.86C286.323 256.38 285.903 255.44 284.683 255.44C283.643 255.44 282.823 256.16 282.623 257.14H281.063C281.503 255.12 283.183 254.02 284.783 254.02C286.663 254.02 287.823 255.44 287.823 256.86V261.8C287.823 262.6 288.003 262.76 288.503 262.76H289.223V264.14H288.263C287.303 264.14 286.783 263.76 286.583 262.92C286.023 263.82 285.063 264.3 284.243 264.3ZM282.803 261.22C282.803 262.32 283.463 262.98 284.403 262.98C285.403 262.98 286.323 262.04 286.323 260.98V258.66C286.203 258.84 285.963 258.96 285.683 259.04L284.623 259.34C283.423 259.68 282.803 260.36 282.803 261.22ZM294.664 264V255.74H291.824V254.32H298.984V255.74H296.164V264H294.664ZM303.385 264V254.32H304.885V257.64H306.905C309.125 257.64 310.245 259.2 310.245 260.78C310.245 262.34 309.065 264 306.825 264H303.385ZM304.885 262.66H306.885C308.105 262.66 308.785 261.68 308.785 260.8C308.785 259.88 308.125 258.92 306.885 258.92H304.885V262.66ZM317.205 264.3C314.725 264.3 313.385 261.68 313.385 259.18C313.385 256.7 314.865 254.02 317.325 254.02C318.745 254.02 320.205 255.12 320.805 257.34H319.165C318.805 256.06 318.025 255.44 317.305 255.44C315.725 255.44 314.925 257.48 314.925 259.16C314.925 260.86 315.665 262.88 317.225 262.88C317.985 262.88 318.725 262.28 319.165 260.98H320.805C320.085 263.24 318.605 264.3 317.205 264.3ZM324.066 264L325.866 259.06C324.786 258.74 324.126 257.88 324.126 256.8C324.126 255.46 325.206 254.32 326.846 254.32H330.826V264H329.326V259.18H327.366L325.666 264H324.066ZM325.666 256.76C325.666 257.42 326.166 257.9 326.926 257.9H329.326V255.62H326.926C326.186 255.62 325.666 256.14 325.666 256.76ZM355.729 267V262.58H356.709C357.169 262 357.449 260.86 357.569 259.28C357.689 257.82 357.729 256.46 357.749 254.32H363.329V262.58H364.409V267H362.929V264H357.189V267H355.729ZM358.249 262.58H361.829V255.76H359.169C359.149 257.26 359.089 258.34 359.029 259.36C358.949 260.84 358.649 262 358.249 262.58ZM370.989 264.3C368.529 264.3 367.189 261.68 367.189 259.18C367.189 256.7 368.629 254.02 371.029 254.02C373.489 254.02 374.829 256.64 374.829 259.14C374.829 261.62 373.389 264.3 370.989 264.3ZM368.729 259.16C368.729 260.86 369.469 262.88 371.009 262.88C372.529 262.88 373.289 260.84 373.289 259.16C373.289 257.46 372.549 255.44 371.009 255.44C369.489 255.44 368.729 257.48 368.729 259.16ZM389.351 264V254.32H393.411C395.031 254.32 395.991 255.44 395.991 256.6C395.991 257.38 395.511 258.08 394.671 258.46C395.611 258.92 396.171 259.84 396.171 260.96C396.171 262.58 395.011 264 393.271 264H389.351ZM390.771 262.74H393.091C393.971 262.74 394.671 261.86 394.671 260.88C394.671 259.9 393.991 259.1 393.091 259.1H390.771V262.74ZM390.771 257.88H393.231C393.951 257.88 394.491 257.34 394.491 256.76C394.491 256.12 393.971 255.62 393.231 255.62H390.771V257.88ZM399.492 264V254.32H400.932V257.64H401.892C403.972 257.64 405.092 259.2 405.092 260.78C405.092 262.34 403.912 264 401.832 264H399.492ZM400.932 262.64H401.732C402.952 262.64 403.612 261.66 403.612 260.8C403.612 259.9 402.972 258.94 401.732 258.94H400.932V262.64ZM405.892 264V254.32H407.332V264H405.892ZM410.553 264L413.253 258.94L410.653 254.32H412.273L414.193 257.9H414.293L416.213 254.32H417.773L415.173 258.94L417.873 264H416.253L414.233 260.08H414.133L412.113 264H410.553ZM424.993 264.3C422.533 264.3 421.193 261.68 421.193 259.18C421.193 256.7 422.633 254.02 425.033 254.02C427.493 254.02 428.833 256.64 428.833 259.14C428.833 261.62 427.393 264.3 424.993 264.3ZM422.733 259.16C422.733 260.86 423.473 262.88 425.013 262.88C426.533 262.88 427.293 260.84 427.293 259.16C427.293 257.46 426.553 255.44 425.013 255.44C423.493 255.44 422.733 257.48 422.733 259.16ZM431.334 267V262.58H432.314C432.774 262 433.054 260.86 433.174 259.28C433.294 257.82 433.334 256.46 433.354 254.32H438.934V262.58H440.014V267H438.534V264H432.794V267H431.334ZM433.854 262.58H437.434V255.76H434.774C434.754 257.26 434.694 258.34 434.634 259.36C434.554 260.84 434.254 262 433.854 262.58ZM446.255 264.3C444.635 264.3 443.275 263.24 443.275 261.28C443.275 259.58 444.335 258.56 446.315 258.02L447.615 257.66C448.075 257.54 448.335 257.28 448.335 256.86C448.335 256.38 447.915 255.44 446.695 255.44C445.655 255.44 444.835 256.16 444.635 257.14H443.075C443.515 255.12 445.195 254.02 446.795 254.02C448.675 254.02 449.835 255.44 449.835 256.86V261.8C449.835 262.6 450.015 262.76 450.515 262.76H451.235V264.14H450.275C449.315 264.14 448.795 263.76 448.595 262.92C448.035 263.82 447.075 264.3 446.255 264.3ZM444.815 261.22C444.815 262.32 445.475 262.98 446.415 262.98C447.415 262.98 448.335 262.04 448.335 260.98V258.66C448.215 258.84 447.975 258.96 447.695 259.04L446.635 259.34C445.435 259.68 444.815 260.36 444.815 261.22ZM464.856 264V254.32H466.176L466.156 262.54H466.276L469.396 254.32H471.576V264H470.256L470.276 255.78H470.156L467.036 264H464.856ZM485.338 267V262.58H486.318C486.778 262 487.058 260.86 487.178 259.28C487.298 257.82 487.338 256.46 487.358 254.32H492.938V262.58H494.018V267H492.538V264H486.798V267H485.338ZM487.858 262.58H491.438V255.76H488.778C488.758 257.26 488.698 258.34 488.638 259.36C488.558 260.84 488.258 262 487.858 262.58ZM500.599 264.3C498.139 264.3 496.799 261.68 496.799 259.18C496.799 256.7 498.239 254.02 500.639 254.02C503.099 254.02 504.439 256.64 504.439 259.14C504.439 261.62 502.999 264.3 500.599 264.3ZM498.339 259.16C498.339 260.86 499.079 262.88 500.619 262.88C502.139 262.88 502.899 260.84 502.899 259.16C502.899 257.46 502.159 255.44 500.619 255.44C499.099 255.44 498.339 257.48 498.339 259.16ZM511.62 264.3C509.14 264.3 507.8 261.68 507.8 259.18C507.8 256.7 509.28 254.02 511.74 254.02C513.16 254.02 514.62 255.12 515.22 257.34H513.58C513.22 256.06 512.44 255.44 511.72 255.44C510.14 255.44 509.34 257.48 509.34 259.16C509.34 260.86 510.08 262.88 511.64 262.88C512.4 262.88 513.14 262.28 513.58 260.98H515.22C514.5 263.24 513.02 264.3 511.62 264.3ZM521.48 264V255.74H518.64V254.32H525.8V255.74H522.98V264H521.48ZM529.661 264V254.32H530.981L530.961 262.54H531.081L534.201 254.32H536.381V264H535.061L535.081 255.78H534.961L531.841 264H529.661ZM543.202 260.8C541.642 260.8 540.262 259.46 540.262 258.12V254.32H541.762V257.74C541.762 258.46 542.542 259.38 543.522 259.38C544.222 259.38 544.842 259.18 545.322 258.94V254.32H546.822V264H545.322V260.28C544.662 260.58 543.942 260.8 543.202 260.8ZM551.803 264V254.32H553.303V257.64H555.323C557.543 257.64 558.663 259.2 558.663 260.78C558.663 262.34 557.483 264 555.243 264H551.803ZM553.303 262.66H555.303C556.523 262.66 557.203 261.68 557.203 260.8C557.203 259.88 556.543 258.92 555.303 258.92H553.303V262.66ZM240.98 283.36L239.22 277.9H239.04L239.06 286H237.84V276.32H239.86L241.4 281.18L242.94 276.32H244.96V286H243.68L243.7 277.9H243.52L241.76 283.36H240.98ZM251.841 286.3C250.221 286.3 248.861 285.24 248.861 283.28C248.861 281.58 249.921 280.56 251.901 280.02L253.201 279.66C253.661 279.54 253.921 279.28 253.921 278.86C253.921 278.38 253.501 277.44 252.281 277.44C251.241 277.44 250.421 278.16 250.221 279.14H248.661C249.101 277.12 250.781 276.02 252.381 276.02C254.261 276.02 255.421 277.44 255.421 278.86V283.8C255.421 284.6 255.601 284.76 256.101 284.76H256.821V286.14H255.861C254.901 286.14 254.381 285.76 254.181 284.92C253.621 285.82 252.661 286.3 251.841 286.3ZM250.401 283.22C250.401 284.32 251.061 284.98 252.001 284.98C253.001 284.98 253.921 284.04 253.921 282.98V280.66C253.801 280.84 253.561 280.96 253.281 281.04L252.221 281.34C251.021 281.68 250.401 282.36 250.401 283.22ZM259.842 286V276.32H261.342V279.82H262.922L265.242 276.32H266.862L264.102 280.38L266.922 286H265.242L262.862 281.14H261.342V286H259.842ZM274.002 286.3C271.522 286.3 270.182 283.68 270.182 281.18C270.182 278.7 271.662 276.02 274.122 276.02C275.542 276.02 277.002 277.12 277.602 279.34H275.962C275.602 278.06 274.822 277.44 274.102 277.44C272.522 277.44 271.722 279.48 271.722 281.16C271.722 282.86 272.462 284.88 274.022 284.88C274.782 284.88 275.522 284.28 275.962 282.98H277.602C276.882 285.24 275.402 286.3 274.002 286.3ZM281.243 286V276.32H282.563L282.543 284.54H282.663L285.783 276.32H287.963V286H286.643L286.663 277.78H286.543L283.423 286H281.243ZM294.984 283.36L293.224 277.9H293.044L293.064 286H291.844V276.32H293.864L295.404 281.18L296.944 276.32H298.964V286H297.684L297.704 277.9H297.524L295.764 283.36H294.984ZM305.845 286.3C304.225 286.3 302.865 285.24 302.865 283.28C302.865 281.58 303.925 280.56 305.905 280.02L307.205 279.66C307.665 279.54 307.925 279.28 307.925 278.86C307.925 278.38 307.505 277.44 306.285 277.44C305.245 277.44 304.425 278.16 304.225 279.14H302.665C303.105 277.12 304.785 276.02 306.385 276.02C308.265 276.02 309.425 277.44 309.425 278.86V283.8C309.425 284.6 309.605 284.76 310.105 284.76H310.825V286.14H309.865C308.905 286.14 308.385 285.76 308.185 284.92C307.625 285.82 306.665 286.3 305.845 286.3ZM304.405 283.22C304.405 284.32 305.065 284.98 306.005 284.98C307.005 284.98 307.925 284.04 307.925 282.98V280.66C307.805 280.84 307.565 280.96 307.285 281.04L306.225 281.34C305.025 281.68 304.405 282.36 304.405 283.22ZM312.805 286.16V284.7H313.185C314.245 284.7 314.525 284.1 314.625 282.18C314.705 280.7 314.785 278.88 314.805 276.32H320.265V286H318.765V277.74H316.225C316.205 279.6 316.145 281.04 316.085 282.38C315.945 285.4 315.225 286.16 313.305 286.16H312.805ZM324.986 286V276.32H326.486V279.64H328.506C330.726 279.64 331.846 281.2 331.846 282.78C331.846 284.34 330.666 286 328.426 286H324.986ZM326.486 284.66H328.486C329.706 284.66 330.386 283.68 330.386 282.8C330.386 281.88 329.726 280.92 328.486 280.92H326.486V284.66ZM340.387 286V281.66H336.827V286H335.327V276.32H336.827V280.24H340.387V276.32H341.887V286H340.387ZM349.388 286.3C346.928 286.3 345.588 283.68 345.588 281.18C345.588 278.7 347.028 276.02 349.428 276.02C351.888 276.02 353.228 278.64 353.228 281.14C353.228 283.62 351.788 286.3 349.388 286.3ZM347.128 281.16C347.128 282.86 347.868 284.88 349.408 284.88C350.928 284.88 351.688 282.84 351.688 281.16C351.688 279.46 350.948 277.44 349.408 277.44C347.888 277.44 347.128 279.48 347.128 281.16ZM357.869 286V276.32H363.769V277.74H359.369V286H357.869ZM370.989 286.3C368.529 286.3 367.189 283.68 367.189 281.18C367.189 278.7 368.629 276.02 371.029 276.02C373.489 276.02 374.829 278.64 374.829 281.14C374.829 283.62 373.389 286.3 370.989 286.3ZM368.729 281.16C368.729 282.86 369.469 284.88 371.009 284.88C372.529 284.88 373.289 282.84 373.289 281.16C373.289 279.46 372.549 277.44 371.009 277.44C369.489 277.44 368.729 279.48 368.729 281.16ZM392.691 286.3C391.891 286.3 391.171 285.82 390.751 285.02V289.52H389.251V276.32H390.591V277.56C391.091 276.6 392.051 276.02 392.951 276.02C395.211 276.02 396.551 278.76 396.551 281.14C396.551 283.5 395.131 286.3 392.691 286.3ZM390.751 283C390.751 283.94 391.691 284.88 392.551 284.88C394.251 284.88 395.011 282.72 395.011 281.16C395.011 279.58 394.271 277.44 392.591 277.44C391.751 277.44 390.751 278.38 390.751 279.34V283ZM403.052 286.3C401.432 286.3 400.072 285.24 400.072 283.28C400.072 281.58 401.132 280.56 403.112 280.02L404.412 279.66C404.872 279.54 405.132 279.28 405.132 278.86C405.132 278.38 404.712 277.44 403.492 277.44C402.452 277.44 401.632 278.16 401.432 279.14H399.872C400.312 277.12 401.992 276.02 403.592 276.02C405.472 276.02 406.632 277.44 406.632 278.86V283.8C406.632 284.6 406.812 284.76 407.312 284.76H408.032V286.14H407.072C406.112 286.14 405.592 285.76 405.392 284.92C404.832 285.82 403.872 286.3 403.052 286.3ZM401.612 283.22C401.612 284.32 402.272 284.98 403.212 284.98C404.212 284.98 405.132 284.04 405.132 282.98V280.66C405.012 280.84 404.772 280.96 404.492 281.04L403.432 281.34C402.232 281.68 401.612 282.36 401.612 283.22ZM414.313 286.3C412.493 286.3 411.133 285.16 410.533 283.1H412.173C412.553 284.32 413.373 284.98 414.333 284.98C415.473 284.98 416.273 283.9 416.273 282.92C416.273 281.94 415.593 281.14 414.533 281.14H413.513V279.8H414.673C415.553 279.8 416.093 279.32 416.093 278.78C416.093 278.16 415.413 277.34 414.333 277.34C413.413 277.34 412.633 277.96 412.233 279.06H410.573C411.293 277.06 412.813 276.02 414.393 276.02C416.313 276.02 417.593 277.5 417.593 278.64C417.593 279.4 417.113 280.08 416.253 280.46C417.213 280.92 417.773 281.82 417.773 282.9C417.773 284.68 416.173 286.3 414.313 286.3ZM424.593 283.36L422.833 277.9H422.653L422.673 286H421.453V276.32H423.473L425.013 281.18L426.553 276.32H428.573V286H427.293L427.313 277.9H427.133L425.373 283.36H424.593ZM435.854 286.3C433.314 286.3 431.994 283.68 431.994 281.18C431.994 278.7 433.434 276.02 435.894 276.02C438.294 276.02 439.774 278.86 439.574 281.36H433.534C433.594 283.16 434.334 284.96 435.894 284.96C436.694 284.96 437.334 284.46 437.754 283.42H439.334C438.634 285.14 437.494 286.3 435.854 286.3ZM433.634 280H437.974C437.754 278.6 437.014 277.38 435.874 277.38C434.634 277.38 433.894 278.6 433.634 280ZM446.695 286.3C445.895 286.3 445.175 285.82 444.755 285.02V289.52H443.255V276.32H444.595V277.56C445.095 276.6 446.055 276.02 446.955 276.02C449.215 276.02 450.555 278.76 450.555 281.14C450.555 283.5 449.135 286.3 446.695 286.3ZM444.755 283C444.755 283.94 445.695 284.88 446.555 284.88C448.255 284.88 449.015 282.72 449.015 281.16C449.015 279.58 448.275 277.44 446.595 277.44C445.755 277.44 444.755 278.38 444.755 279.34V283ZM457.056 286.3C455.436 286.3 454.076 285.24 454.076 283.28C454.076 281.58 455.136 280.56 457.116 280.02L458.416 279.66C458.876 279.54 459.136 279.28 459.136 278.86C459.136 278.38 458.716 277.44 457.496 277.44C456.456 277.44 455.636 278.16 455.436 279.14H453.876C454.316 277.12 455.996 276.02 457.596 276.02C459.476 276.02 460.636 277.44 460.636 278.86V283.8C460.636 284.6 460.816 284.76 461.316 284.76H462.036V286.14H461.076C460.116 286.14 459.596 285.76 459.396 284.92C458.836 285.82 457.876 286.3 457.056 286.3ZM455.616 283.22C455.616 284.32 456.276 284.98 457.216 284.98C458.216 284.98 459.136 284.04 459.136 282.98V280.66C459.016 280.84 458.776 280.96 458.496 281.04L457.436 281.34C456.236 281.68 455.616 282.36 455.616 283.22ZM468.216 286.1C467.336 286.1 466.416 285.24 466.416 284.38C466.416 283.58 467.316 282.66 468.256 282.66C469.296 282.66 470.356 283.84 470.356 285.48C470.356 287.34 469.096 289.22 466.916 289.22V287.84C468.216 287.84 468.796 287.1 468.856 285.96C468.656 286.04 468.436 286.1 468.216 286.1ZM491.558 286V277.74H488.078V286H486.578V276.32H493.058V286H491.558ZM500.599 286.3C498.139 286.3 496.799 283.68 496.799 281.18C496.799 278.7 498.239 276.02 500.639 276.02C503.099 276.02 504.439 278.64 504.439 281.14C504.439 283.62 502.999 286.3 500.599 286.3ZM498.339 281.16C498.339 282.86 499.079 284.88 500.619 284.88C502.139 284.88 502.899 282.84 502.899 281.16C502.899 279.46 502.159 277.44 500.619 277.44C499.099 277.44 498.339 279.48 498.339 281.16ZM511.62 286.3C509.14 286.3 507.8 283.68 507.8 281.18C507.8 278.7 509.28 276.02 511.74 276.02C513.16 276.02 514.62 277.12 515.22 279.34H513.58C513.22 278.06 512.44 277.44 511.72 277.44C510.14 277.44 509.34 279.48 509.34 281.16C509.34 282.86 510.08 284.88 511.64 284.88C512.4 284.88 513.14 284.28 513.58 282.98H515.22C514.5 285.24 513.02 286.3 511.62 286.3ZM521.48 286V277.74H518.64V276.32H525.8V277.74H522.98V286H521.48ZM533.061 286.3C530.521 286.3 529.201 283.68 529.201 281.18C529.201 278.7 530.641 276.02 533.101 276.02C535.501 276.02 536.981 278.86 536.781 281.36H530.741C530.801 283.16 531.541 284.96 533.101 284.96C533.901 284.96 534.541 284.46 534.961 283.42H536.541C535.841 285.14 534.701 286.3 533.061 286.3ZM530.841 280H535.181C534.961 278.6 534.221 277.38 533.081 277.38C531.841 277.38 531.101 278.6 530.841 280ZM545.562 286V277.74H542.082V286H540.582V276.32H547.062V286H545.562ZM554.663 286.3C552.123 286.3 550.803 283.68 550.803 281.18C550.803 278.7 552.243 276.02 554.703 276.02C557.103 276.02 558.583 278.86 558.383 281.36H552.343C552.403 283.16 553.143 284.96 554.703 284.96C555.503 284.96 556.143 284.46 556.563 283.42H558.143C557.443 285.14 556.303 286.3 554.663 286.3ZM552.443 280H556.783C556.563 278.6 555.823 277.38 554.683 277.38C553.443 277.38 552.703 278.6 552.443 280ZM567.203 286V281.66H563.643V286H562.143V276.32H563.643V280.24H567.203V276.32H568.703V286H567.203ZM578.004 286V281.66H574.444V286H572.944V276.32H574.444V280.24H578.004V276.32H579.504V286H578.004ZM587.005 286.3C584.545 286.3 583.205 283.68 583.205 281.18C583.205 278.7 584.645 276.02 587.045 276.02C589.505 276.02 590.845 278.64 590.845 281.14C590.845 283.62 589.405 286.3 587.005 286.3ZM584.745 281.16C584.745 282.86 585.485 284.88 587.025 284.88C588.545 284.88 589.305 282.84 589.305 281.16C589.305 279.46 588.565 277.44 587.025 277.44C585.505 277.44 584.745 279.48 584.745 281.16ZM610.367 286V277.74H606.887V286H605.387V276.32H611.867V286H610.367ZM619.407 286.3C616.947 286.3 615.607 283.68 615.607 281.18C615.607 278.7 617.047 276.02 619.447 276.02C621.907 276.02 623.247 278.64 623.247 281.14C623.247 283.62 621.807 286.3 619.407 286.3ZM617.147 281.16C617.147 282.86 617.887 284.88 619.427 284.88C620.947 284.88 621.707 282.84 621.707 281.16C621.707 279.46 620.967 277.44 619.427 277.44C617.907 277.44 617.147 279.48 617.147 281.16ZM630.268 286.3C627.728 286.3 626.408 283.68 626.408 281.18C626.408 278.7 627.848 276.02 630.308 276.02C632.708 276.02 634.188 278.86 633.988 281.36H627.948C628.008 283.16 628.748 284.96 630.308 284.96C631.108 284.96 631.748 284.46 632.168 283.42H633.748C633.048 285.14 631.908 286.3 630.268 286.3ZM628.048 280H632.388C632.168 278.6 631.428 277.38 630.288 277.38C629.048 277.38 628.308 278.6 628.048 280ZM636.549 289V284.58H637.529C637.989 284 638.269 282.86 638.389 281.28C638.509 279.82 638.549 278.46 638.569 276.32H644.149V284.58H645.229V289H643.749V286H638.009V289H636.549ZM639.069 284.58H642.649V277.76H639.989C639.969 279.26 639.909 280.34 639.849 281.36C639.769 282.84 639.469 284 639.069 284.58ZM651.47 286.3C649.85 286.3 648.49 285.24 648.49 283.28C648.49 281.58 649.55 280.56 651.53 280.02L652.83 279.66C653.29 279.54 653.55 279.28 653.55 278.86C653.55 278.38 653.13 277.44 651.91 277.44C650.87 277.44 650.05 278.16 649.85 279.14H648.29C648.73 277.12 650.41 276.02 652.01 276.02C653.89 276.02 655.05 277.44 655.05 278.86V283.8C655.05 284.6 655.23 284.76 655.73 284.76H656.45V286.14H655.49C654.53 286.14 654.01 285.76 653.81 284.92C653.25 285.82 652.29 286.3 651.47 286.3ZM650.03 283.22C650.03 284.32 650.69 284.98 651.63 284.98C652.63 284.98 653.55 284.04 653.55 282.98V280.66C653.43 280.84 653.19 280.96 652.91 281.04L651.85 281.34C650.65 281.68 650.03 282.36 650.03 283.22ZM658.89 286L660.69 281.06C659.61 280.74 658.95 279.88 658.95 278.8C658.95 277.46 660.03 276.32 661.67 276.32H665.65V286H664.15V281.18H662.19L660.49 286H658.89ZM660.49 278.76C660.49 279.42 660.99 279.9 661.75 279.9H664.15V277.62H661.75C661.01 277.62 660.49 278.14 660.49 278.76ZM238.24 308V298.32H239.74V301.82H241.32L243.64 298.32H245.26L242.5 302.38L245.32 308H243.64L241.26 303.14H239.74V308H238.24ZM250.621 311.52L251.781 308H251.161L248.321 298.32H249.901L252.161 306.56H252.261L254.541 298.32H256.081L252.201 311.52H250.621ZM263.202 308.3C260.722 308.3 259.382 305.68 259.382 303.18C259.382 300.7 260.862 298.02 263.322 298.02C264.742 298.02 266.202 299.12 266.802 301.34H265.162C264.802 300.06 264.022 299.44 263.302 299.44C261.722 299.44 260.922 301.48 260.922 303.16C260.922 304.86 261.662 306.88 263.222 306.88C263.982 306.88 264.722 306.28 265.162 304.98H266.802C266.082 307.24 264.602 308.3 263.202 308.3ZM273.782 308.3C271.322 308.3 269.982 305.68 269.982 303.18C269.982 300.7 271.422 298.02 273.822 298.02C276.282 298.02 277.622 300.64 277.622 303.14C277.622 305.62 276.182 308.3 273.782 308.3ZM271.522 303.16C271.522 304.86 272.262 306.88 273.802 306.88C275.322 306.88 276.082 304.84 276.082 303.16C276.082 301.46 275.342 299.44 273.802 299.44C272.282 299.44 271.522 301.48 271.522 303.16ZM283.983 304.8C282.423 304.8 281.043 303.46 281.043 302.12V298.32H282.543V301.74C282.543 302.46 283.323 303.38 284.303 303.38C285.003 303.38 285.623 303.18 286.103 302.94V298.32H287.603V308H286.103V304.28C285.443 304.58 284.723 304.8 283.983 304.8ZM292.244 308V298.32H293.744V301.82H295.324L297.644 298.32H299.264L296.504 302.38L299.324 308H297.644L295.264 303.14H293.744V308H292.244ZM302.845 308V298.32H304.165L304.145 306.54H304.265L307.385 298.32H309.565V308H308.245L308.265 299.78H308.145L305.025 308H302.845ZM328.006 308.3C325.526 308.3 324.186 305.68 324.186 303.18C324.186 300.7 325.666 298.02 328.126 298.02C329.546 298.02 331.006 299.12 331.606 301.34H329.966C329.606 300.06 328.826 299.44 328.106 299.44C326.526 299.44 325.726 301.48 325.726 303.16C325.726 304.86 326.466 306.88 328.026 306.88C328.786 306.88 329.526 306.28 329.966 304.98H331.606C330.886 307.24 329.406 308.3 328.006 308.3ZM337.867 308V299.74H335.027V298.32H342.187V299.74H339.367V308H337.867ZM349.448 308.3C346.908 308.3 345.588 305.68 345.588 303.18C345.588 300.7 347.028 298.02 349.488 298.02C351.888 298.02 353.368 300.86 353.168 303.36H347.128C347.188 305.16 347.928 306.96 349.488 306.96C350.288 306.96 350.928 306.46 351.348 305.42H352.928C352.228 307.14 351.088 308.3 349.448 308.3ZM347.228 302H351.568C351.348 300.6 350.608 299.38 349.468 299.38C348.228 299.38 347.488 300.6 347.228 302ZM361.989 308V303.66H358.429V308H356.929V298.32H358.429V302.24H361.989V298.32H363.489V308H361.989ZM370.989 308.3C368.529 308.3 367.189 305.68 367.189 303.18C367.189 300.7 368.629 298.02 371.029 298.02C373.489 298.02 374.829 300.64 374.829 303.14C374.829 305.62 373.389 308.3 370.989 308.3ZM368.729 303.16C368.729 304.86 369.469 306.88 371.009 306.88C372.529 306.88 373.289 304.84 373.289 303.16C373.289 301.46 372.549 299.44 371.009 299.44C369.489 299.44 368.729 301.48 368.729 303.16ZM378.65 308V298.32H380.15V301.82H381.73L384.05 298.32H385.67L382.91 302.38L385.73 308H384.05L381.67 303.14H380.15V308H378.65ZM400.052 308V298.32H401.372L401.352 306.54H401.472L404.592 298.32H406.772V308H405.452L405.472 299.78H405.352L402.232 308H400.052ZM422.673 308V298.32H428.573V299.74H424.173V308H422.673ZM435.894 308.3C435.094 308.3 434.374 307.82 433.954 307.02V311.52H432.454V298.32H433.794V299.56C434.294 298.6 435.254 298.02 436.154 298.02C438.414 298.02 439.754 300.76 439.754 303.14C439.754 305.5 438.334 308.3 435.894 308.3ZM433.954 305C433.954 305.94 434.894 306.88 435.754 306.88C437.454 306.88 438.214 304.72 438.214 303.16C438.214 301.58 437.474 299.44 435.794 299.44C434.954 299.44 433.954 300.38 433.954 301.34V305ZM443.255 308V298.32H444.575L444.555 306.54H444.675L447.795 298.32H449.975V308H448.655L448.675 299.78H448.555L445.435 308H443.255ZM457.396 308.3C454.916 308.3 453.356 305.6 453.356 301.16C453.356 296.68 454.556 295.04 457.716 294.82L458.916 294.74C459.636 294.68 459.916 294.54 459.916 293.64H461.416C461.416 295.72 460.676 296.2 459.196 296.28L457.656 296.36C455.216 296.5 454.716 297.62 454.716 300.92V301.26C455.136 299.7 456.176 298.5 457.616 298.5C459.896 298.5 461.236 301.12 461.236 303.38C461.236 305.62 459.796 308.3 457.396 308.3ZM455.136 303.32C455.136 304.72 455.876 306.88 457.416 306.88C458.936 306.88 459.696 304.84 459.696 303.4C459.696 301.94 458.976 299.92 457.476 299.92C456.056 299.92 455.136 301.74 455.136 303.32ZM464.296 308V298.32H465.736V301.64H466.696C468.776 301.64 469.896 303.2 469.896 304.78C469.896 306.34 468.716 308 466.636 308H464.296ZM465.736 306.64H466.536C467.756 306.64 468.416 305.66 468.416 304.8C468.416 303.9 467.776 302.94 466.536 302.94H465.736V306.64ZM470.696 308V298.32H472.136V308H470.696ZM479.017 308.1C478.137 308.1 477.217 307.24 477.217 306.38C477.217 305.58 478.117 304.66 479.057 304.66C480.097 304.66 481.157 305.84 481.157 307.48C481.157 309.34 479.897 311.22 477.717 311.22V309.84C479.017 309.84 479.597 309.1 479.657 307.96C479.457 308.04 479.237 308.1 479.017 308.1ZM499.999 304.8C498.439 304.8 497.059 303.46 497.059 302.12V298.32H498.559V301.74C498.559 302.46 499.339 303.38 500.319 303.38C501.019 303.38 501.639 303.18 502.119 302.94V298.32H503.619V308H502.119V304.28C501.459 304.58 500.739 304.8 499.999 304.8ZM510.68 308V299.74H507.84V298.32H515V299.74H512.18V308H510.68ZM522.2 308.3C519.74 308.3 518.4 305.68 518.4 303.18C518.4 300.7 519.84 298.02 522.24 298.02C524.7 298.02 526.04 300.64 526.04 303.14C526.04 305.62 524.6 308.3 522.2 308.3ZM519.94 303.16C519.94 304.86 520.68 306.88 522.22 306.88C523.74 306.88 524.5 304.84 524.5 303.16C524.5 301.46 523.76 299.44 522.22 299.44C520.7 299.44 519.94 301.48 519.94 303.16ZM533.001 308.3C530.521 308.3 528.961 305.6 528.961 301.16C528.961 296.68 530.161 295.04 533.321 294.82L534.521 294.74C535.241 294.68 535.521 294.54 535.521 293.64H537.021C537.021 295.72 536.281 296.2 534.801 296.28L533.261 296.36C530.821 296.5 530.321 297.62 530.321 300.92V301.26C530.741 299.7 531.781 298.5 533.221 298.5C535.501 298.5 536.841 301.12 536.841 303.38C536.841 305.62 535.401 308.3 533.001 308.3ZM530.741 303.32C530.741 304.72 531.481 306.88 533.021 306.88C534.541 306.88 535.301 304.84 535.301 303.4C535.301 301.94 534.581 299.92 533.081 299.92C531.661 299.92 530.741 301.74 530.741 303.32ZM539.902 308V298.32H541.342V301.64H542.302C544.382 301.64 545.502 303.2 545.502 304.78C545.502 306.34 544.322 308 542.242 308H539.902ZM541.342 306.64H542.142C543.362 306.64 544.022 305.66 544.022 304.8C544.022 303.9 543.382 302.94 542.142 302.94H541.342V306.64ZM546.302 308V298.32H547.742V308H546.302ZM567.163 308V299.74H563.683V308H562.183V298.32H568.663V308H567.163ZM576.304 308.3C575.504 308.3 574.784 307.82 574.364 307.02V311.52H572.864V298.32H574.204V299.56C574.704 298.6 575.664 298.02 576.564 298.02C578.824 298.02 580.164 300.76 580.164 303.14C580.164 305.5 578.744 308.3 576.304 308.3ZM574.364 305C574.364 305.94 575.304 306.88 576.164 306.88C577.864 306.88 578.624 304.72 578.624 303.16C578.624 301.58 577.884 299.44 576.204 299.44C575.364 299.44 574.364 300.38 574.364 301.34V305ZM587.005 308.3C584.545 308.3 583.205 305.68 583.205 303.18C583.205 300.7 584.645 298.02 587.045 298.02C589.505 298.02 590.845 300.64 590.845 303.14C590.845 305.62 589.405 308.3 587.005 308.3ZM584.745 303.16C584.745 304.86 585.485 306.88 587.025 306.88C588.545 306.88 589.305 304.84 589.305 303.16C589.305 301.46 588.565 299.44 587.025 299.44C585.505 299.44 584.745 301.48 584.745 303.16ZM594.666 308V298.32H596.166V301.82H597.746L600.066 298.32H601.686L598.926 302.38L601.746 308H600.066L597.686 303.14H596.166V308H594.666ZM604.427 308.16V306.7H604.807C605.867 306.7 606.147 306.1 606.247 304.18C606.327 302.7 606.407 300.88 606.427 298.32H611.887V308H610.387V299.74H607.847C607.827 301.6 607.767 303.04 607.707 304.38C607.567 307.4 606.847 308.16 604.927 308.16H604.427ZM619.067 308.3C617.447 308.3 616.087 307.24 616.087 305.28C616.087 303.58 617.147 302.56 619.127 302.02L620.427 301.66C620.887 301.54 621.147 301.28 621.147 300.86C621.147 300.38 620.727 299.44 619.507 299.44C618.467 299.44 617.647 300.16 617.447 301.14H615.887C616.327 299.12 618.007 298.02 619.607 298.02C621.487 298.02 622.647 299.44 622.647 300.86V305.8C622.647 306.6 622.827 306.76 623.327 306.76H624.047V308.14H623.087C622.127 308.14 621.607 307.76 621.407 306.92C620.847 307.82 619.887 308.3 619.067 308.3ZM617.627 305.22C617.627 306.32 618.287 306.98 619.227 306.98C620.227 306.98 621.147 306.04 621.147 304.98V302.66C621.027 302.84 620.787 302.96 620.507 303.04L619.447 303.34C618.247 303.68 617.627 304.36 617.627 305.22ZM625.748 311V306.58H626.728C627.188 306 627.468 304.86 627.588 303.28C627.708 301.82 627.748 300.46 627.768 298.32H633.348V306.58H634.428V311H632.948V308H627.208V311H625.748ZM628.268 306.58H631.848V299.76H629.188C629.168 301.26 629.108 302.34 629.048 303.36C628.968 304.84 628.668 306 628.268 306.58ZM637.109 308V298.32H638.549V301.64H639.509C641.589 301.64 642.709 303.2 642.709 304.78C642.709 306.34 641.529 308 639.449 308H637.109ZM638.549 306.64H639.349C640.569 306.64 641.229 305.66 641.229 304.8C641.229 303.9 640.589 302.94 639.349 302.94H638.549V306.64ZM643.509 308V298.32H644.949V308H643.509ZM648.57 308V298.32H652.63C654.25 298.32 655.21 299.44 655.21 300.6C655.21 301.38 654.73 302.08 653.89 302.46C654.83 302.92 655.39 303.84 655.39 304.96C655.39 306.58 654.23 308 652.49 308H648.57ZM649.99 306.74H652.31C653.19 306.74 653.89 305.86 653.89 304.88C653.89 303.9 653.21 303.1 652.31 303.1H649.99V306.74ZM649.99 301.88H652.45C653.17 301.88 653.71 301.34 653.71 300.76C653.71 300.12 653.19 299.62 652.45 299.62H649.99V301.88ZM662.27 308.3C660.65 308.3 659.29 307.24 659.29 305.28C659.29 303.58 660.35 302.56 662.33 302.02L663.63 301.66C664.09 301.54 664.35 301.28 664.35 300.86C664.35 300.38 663.93 299.44 662.71 299.44C661.67 299.44 660.85 300.16 660.65 301.14H659.09C659.53 299.12 661.21 298.02 662.81 298.02C664.69 298.02 665.85 299.44 665.85 300.86V305.8C665.85 306.6 666.03 306.76 666.53 306.76H667.25V308.14H666.29C665.33 308.14 664.81 307.76 664.61 306.92C664.05 307.82 663.09 308.3 662.27 308.3ZM660.83 305.22C660.83 306.32 661.49 306.98 662.43 306.98C663.43 306.98 664.35 306.04 664.35 304.98V302.66C664.23 302.84 663.99 302.96 663.71 303.04L662.65 303.34C661.45 303.68 660.83 304.36 660.83 305.22ZM672.691 308V299.74H669.851V298.32H677.011V299.74H674.191V308H672.691ZM681.412 308V298.32H682.912V301.64H684.932C687.152 301.64 688.272 303.2 688.272 304.78C688.272 306.34 687.092 308 684.852 308H681.412ZM682.912 306.66H684.912C686.132 306.66 686.812 305.68 686.812 304.8C686.812 303.88 686.152 302.92 684.912 302.92H682.912V306.66ZM243.14 330V321.74H239.66V330H238.16V320.32H244.64V330H243.14ZM250.621 333.52L251.781 330H251.161L248.321 320.32H249.901L252.161 328.56H252.261L254.541 320.32H256.081L252.201 333.52H250.621ZM262.262 330V321.74H259.422V320.32H266.582V321.74H263.762V330H262.262ZM270.982 330V320.32H272.482V323.64H274.502C276.722 323.64 277.842 325.2 277.842 326.78C277.842 328.34 276.662 330 274.422 330H270.982ZM272.482 328.66H274.482C275.702 328.66 276.382 327.68 276.382 326.8C276.382 325.88 275.722 324.92 274.482 324.92H272.482V328.66ZM284.603 330.24C283.723 330.24 282.803 329.32 282.803 328.44C282.803 327.58 283.723 326.66 284.603 326.66C285.483 326.66 286.403 327.58 286.403 328.44C286.403 329.32 285.483 330.24 284.603 330.24Z" fill="#1F1515"/>
<path d="M241.38 367.3C238.44 367.3 237.34 363.42 237.34 360.42C237.34 357.44 238.54 353.5 241.42 353.5C244.36 353.5 245.46 357.38 245.46 360.38C245.46 363.36 244.26 367.3 241.38 367.3ZM238.94 360.4C238.94 362.72 239.56 365.82 241.4 365.82C243.24 365.82 243.86 362.7 243.86 360.4C243.86 358.08 243.24 354.98 241.4 354.98C239.58 354.98 238.94 358.1 238.94 360.4ZM252.401 367.3C249.921 367.3 248.581 364.68 248.581 362.18C248.581 359.7 250.061 357.02 252.521 357.02C253.941 357.02 255.401 358.12 256.001 360.34H254.361C254.001 359.06 253.221 358.44 252.501 358.44C250.921 358.44 250.121 360.48 250.121 362.16C250.121 363.86 250.861 365.88 252.421 365.88C253.181 365.88 253.921 365.28 254.361 363.98H256.001C255.281 366.24 253.801 367.3 252.401 367.3ZM262.262 367V358.74H259.422V357.32H266.582V358.74H263.762V367H262.262ZM273.782 367.3C271.322 367.3 269.982 364.68 269.982 362.18C269.982 359.7 271.422 357.02 273.822 357.02C276.282 357.02 277.622 359.64 277.622 362.14C277.622 364.62 276.182 367.3 273.782 367.3ZM271.522 362.16C271.522 363.86 272.262 365.88 273.802 365.88C275.322 365.88 276.082 363.84 276.082 362.16C276.082 360.46 275.342 358.44 273.802 358.44C272.282 358.44 271.522 360.48 271.522 362.16ZM284.683 367.3C283.883 367.3 283.163 366.82 282.743 366.02V370.52H281.243V357.32H282.583V358.56C283.083 357.6 284.043 357.02 284.943 357.02C287.203 357.02 288.543 359.76 288.543 362.14C288.543 364.5 287.123 367.3 284.683 367.3ZM282.743 364C282.743 364.94 283.683 365.88 284.543 365.88C286.243 365.88 287.003 363.72 287.003 362.16C287.003 360.58 286.263 358.44 284.583 358.44C283.743 358.44 282.743 359.38 282.743 360.34V364ZM295.384 367.3C292.924 367.3 291.584 364.68 291.584 362.18C291.584 359.7 293.024 357.02 295.424 357.02C297.884 357.02 299.224 359.64 299.224 362.14C299.224 364.62 297.784 367.3 295.384 367.3ZM293.124 362.16C293.124 363.86 293.864 365.88 295.404 365.88C296.924 365.88 297.684 363.84 297.684 362.16C297.684 360.46 296.944 358.44 295.404 358.44C293.884 358.44 293.124 360.48 293.124 362.16ZM309.345 367L307.925 362.12H306.885V367H305.525V362.12H304.465L303.045 367H301.605L303.305 361.48L301.645 357.32H303.105L304.465 360.84H305.525V357.32H306.885V360.84H307.965L309.345 357.32H310.765L309.105 361.46L310.805 367H309.345ZM318.785 367V362.66H315.225V367H313.725V357.32H315.225V361.24H318.785V357.32H320.285V367H318.785ZM327.786 367.3C325.326 367.3 323.986 364.68 323.986 362.18C323.986 359.7 325.426 357.02 327.826 357.02C330.286 357.02 331.626 359.64 331.626 362.14C331.626 364.62 330.186 367.3 327.786 367.3ZM325.526 362.16C325.526 363.86 326.266 365.88 327.806 365.88C329.326 365.88 330.086 363.84 330.086 362.16C330.086 360.46 329.346 358.44 327.806 358.44C326.286 358.44 325.526 360.48 325.526 362.16ZM337.927 362.34L337.587 353.8H339.627L339.287 362.34H337.927ZM336.807 365.44C336.807 364.58 337.727 363.66 338.607 363.66C339.487 363.66 340.407 364.58 340.407 365.44C340.407 366.32 339.487 367.24 338.607 367.24C337.727 367.24 336.807 366.32 336.807 365.44Z" fill="#1F1515"/>
<path d="M242.92 403V391.28H239.08V403H237.54V389.8H244.46V403H242.92ZM252.181 403.3C249.721 403.3 248.381 400.68 248.381 398.18C248.381 395.7 249.821 393.02 252.221 393.02C254.681 393.02 256.021 395.64 256.021 398.14C256.021 400.62 254.581 403.3 252.181 403.3ZM249.921 398.16C249.921 399.86 250.661 401.88 252.201 401.88C253.721 401.88 254.481 399.84 254.481 398.16C254.481 396.46 253.741 394.44 252.201 394.44C250.681 394.44 249.921 396.48 249.921 398.16ZM269.602 403.16V401.7H269.982C271.042 401.7 271.322 401.1 271.422 399.18C271.502 397.7 271.582 395.88 271.602 393.32H277.062V403H275.562V394.74H273.022C273.002 396.6 272.942 398.04 272.882 399.38C272.742 402.4 272.022 403.16 270.102 403.16H269.602ZM284.243 403.3C282.623 403.3 281.263 402.24 281.263 400.28C281.263 398.58 282.323 397.56 284.303 397.02L285.603 396.66C286.063 396.54 286.323 396.28 286.323 395.86C286.323 395.38 285.903 394.44 284.683 394.44C283.643 394.44 282.823 395.16 282.623 396.14H281.063C281.503 394.12 283.183 393.02 284.783 393.02C286.663 393.02 287.823 394.44 287.823 395.86V400.8C287.823 401.6 288.003 401.76 288.503 401.76H289.223V403.14H288.263C287.303 403.14 286.783 402.76 286.583 401.92C286.023 402.82 285.063 403.3 284.243 403.3ZM282.803 400.22C282.803 401.32 283.463 401.98 284.403 401.98C285.403 401.98 286.323 401.04 286.323 399.98V397.66C286.203 397.84 285.963 397.96 285.683 398.04L284.623 398.34C283.423 398.68 282.803 399.36 282.803 400.22ZM295.384 403.3C292.904 403.3 291.344 400.6 291.344 396.16C291.344 391.68 292.544 390.04 295.704 389.82L296.904 389.74C297.624 389.68 297.904 389.54 297.904 388.64H299.404C299.404 390.72 298.664 391.2 297.184 391.28L295.644 391.36C293.204 391.5 292.704 392.62 292.704 395.92V396.26C293.124 394.7 294.164 393.5 295.604 393.5C297.884 393.5 299.224 396.12 299.224 398.38C299.224 400.62 297.784 403.3 295.384 403.3ZM293.124 398.32C293.124 399.72 293.864 401.88 295.404 401.88C296.924 401.88 297.684 399.84 297.684 398.4C297.684 396.94 296.964 394.92 295.464 394.92C294.044 394.92 293.124 396.74 293.124 398.32ZM302.845 403V393.32H304.165L304.145 401.54H304.265L307.385 393.32H309.565V403H308.245L308.265 394.78H308.145L305.025 403H302.845ZM317.085 403.3C316.285 403.3 315.565 402.82 315.145 402.02V406.52H313.645V393.32H314.985V394.56C315.485 393.6 316.445 393.02 317.345 393.02C319.605 393.02 320.945 395.76 320.945 398.14C320.945 400.5 319.525 403.3 317.085 403.3ZM315.145 400C315.145 400.94 316.085 401.88 316.945 401.88C318.645 401.88 319.405 399.72 319.405 398.16C319.405 396.58 318.665 394.44 316.985 394.44C316.145 394.44 315.145 395.38 315.145 396.34V400ZM324.446 403V393.32H325.766L325.746 401.54H325.866L328.986 393.32H331.166V403H329.846L329.866 394.78H329.746L326.626 403H324.446ZM340.387 403V398.66H336.827V403H335.327V393.32H336.827V397.24H340.387V393.32H341.887V403H340.387ZM348.668 403V394.74H345.828V393.32H352.988V394.74H350.168V403H348.668ZM358.629 406.52L359.789 403H359.169L356.329 393.32H357.909L360.169 401.56H360.269L362.549 393.32H364.089L360.209 406.52H358.629ZM381.89 403.3C381.09 403.3 380.37 402.82 379.95 402.02V406.52H378.45V393.32H379.79V394.56C380.29 393.6 381.25 393.02 382.15 393.02C384.41 393.02 385.75 395.76 385.75 398.14C385.75 400.5 384.33 403.3 381.89 403.3ZM379.95 400C379.95 400.94 380.89 401.88 381.75 401.88C383.45 401.88 384.21 399.72 384.21 398.16C384.21 396.58 383.47 394.44 381.79 394.44C380.95 394.44 379.95 395.38 379.95 396.34V400ZM392.251 403.3C390.631 403.3 389.271 402.24 389.271 400.28C389.271 398.58 390.331 397.56 392.311 397.02L393.611 396.66C394.071 396.54 394.331 396.28 394.331 395.86C394.331 395.38 393.911 394.44 392.691 394.44C391.651 394.44 390.831 395.16 390.631 396.14H389.071C389.511 394.12 391.191 393.02 392.791 393.02C394.671 393.02 395.831 394.44 395.831 395.86V400.8C395.831 401.6 396.011 401.76 396.511 401.76H397.231V403.14H396.271C395.311 403.14 394.791 402.76 394.591 401.92C394.031 402.82 393.071 403.3 392.251 403.3ZM390.811 400.22C390.811 401.32 391.471 401.98 392.411 401.98C393.411 401.98 394.331 401.04 394.331 399.98V397.66C394.211 397.84 393.971 397.96 393.691 398.04L392.631 398.34C391.431 398.68 390.811 399.36 390.811 400.22ZM403.512 403.3C401.692 403.3 400.332 402.16 399.732 400.1H401.372C401.752 401.32 402.572 401.98 403.532 401.98C404.672 401.98 405.472 400.9 405.472 399.92C405.472 398.94 404.792 398.14 403.732 398.14H402.712V396.8H403.872C404.752 396.8 405.292 396.32 405.292 395.78C405.292 395.16 404.612 394.34 403.532 394.34C402.612 394.34 401.832 394.96 401.432 396.06H399.772C400.492 394.06 402.012 393.02 403.592 393.02C405.512 393.02 406.792 394.5 406.792 395.64C406.792 396.4 406.312 397.08 405.452 397.46C406.412 397.92 406.972 398.82 406.972 399.9C406.972 401.68 405.372 403.3 403.512 403.3ZM414.193 403.3C411.713 403.3 410.153 400.6 410.153 396.16C410.153 391.68 411.353 390.04 414.513 389.82L415.713 389.74C416.433 389.68 416.713 389.54 416.713 388.64H418.213C418.213 390.72 417.473 391.2 415.993 391.28L414.453 391.36C412.013 391.5 411.513 392.62 411.513 395.92V396.26C411.933 394.7 412.973 393.5 414.413 393.5C416.693 393.5 418.033 396.12 418.033 398.38C418.033 400.62 416.593 403.3 414.193 403.3ZM411.933 398.32C411.933 399.72 412.673 401.88 414.213 401.88C415.733 401.88 416.493 399.84 416.493 398.4C416.493 396.94 415.773 394.92 414.273 394.92C412.853 394.92 411.933 396.74 411.933 398.32ZM425.093 403.3C424.293 403.3 423.573 402.82 423.153 402.02V406.52H421.653V393.32H422.993V394.56C423.493 393.6 424.453 393.02 425.353 393.02C427.613 393.02 428.953 395.76 428.953 398.14C428.953 400.5 427.533 403.3 425.093 403.3ZM423.153 400C423.153 400.94 424.093 401.88 424.953 401.88C426.653 401.88 427.413 399.72 427.413 398.16C427.413 396.58 426.673 394.44 424.993 394.44C424.153 394.44 423.153 395.38 423.153 396.34V400ZM435.794 403.3C433.334 403.3 431.994 400.68 431.994 398.18C431.994 395.7 433.434 393.02 435.834 393.02C438.294 393.02 439.634 395.64 439.634 398.14C439.634 400.62 438.194 403.3 435.794 403.3ZM433.534 398.16C433.534 399.86 434.274 401.88 435.814 401.88C437.334 401.88 438.094 399.84 438.094 398.16C438.094 396.46 437.354 394.44 435.814 394.44C434.294 394.44 433.534 396.48 433.534 398.16ZM446.815 403.3C444.335 403.3 442.995 400.68 442.995 398.18C442.995 395.7 444.475 393.02 446.935 393.02C448.355 393.02 449.815 394.12 450.415 396.34H448.775C448.415 395.06 447.635 394.44 446.915 394.44C445.335 394.44 444.535 396.48 444.535 398.16C444.535 399.86 445.275 401.88 446.835 401.88C447.595 401.88 448.335 401.28 448.775 399.98H450.415C449.695 402.24 448.215 403.3 446.815 403.3ZM457.056 403.3C455.436 403.3 454.076 402.24 454.076 400.28C454.076 398.58 455.136 397.56 457.116 397.02L458.416 396.66C458.876 396.54 459.136 396.28 459.136 395.86C459.136 395.38 458.716 394.44 457.496 394.44C456.456 394.44 455.636 395.16 455.436 396.14H453.876C454.316 394.12 455.996 393.02 457.596 393.02C459.476 393.02 460.636 394.44 460.636 395.86V400.8C460.636 401.6 460.816 401.76 461.316 401.76H462.036V403.14H461.076C460.116 403.14 459.596 402.76 459.396 401.92C458.836 402.82 457.876 403.3 457.056 403.3ZM455.616 400.22C455.616 401.32 456.276 401.98 457.216 401.98C458.216 401.98 459.136 401.04 459.136 399.98V397.66C459.016 397.84 458.776 397.96 458.496 398.04L457.436 398.34C456.236 398.68 455.616 399.36 455.616 400.22ZM469.996 403V398.66H466.436V403H464.936V393.32H466.436V397.24H469.996V393.32H471.496V403H469.996ZM475.097 403V393.32H476.537V396.64H477.497C479.577 396.64 480.697 398.2 480.697 399.78C480.697 401.34 479.517 403 477.437 403H475.097ZM476.537 401.64H477.337C478.557 401.64 479.217 400.66 479.217 399.8C479.217 398.9 478.577 397.94 477.337 397.94H476.537V401.64ZM481.497 403V393.32H482.937V403H481.497ZM496.879 403L498.679 398.06C497.599 397.74 496.939 396.88 496.939 395.8C496.939 394.46 498.019 393.32 499.659 393.32H503.639V403H502.139V398.18H500.179L498.479 403H496.879ZM498.479 395.76C498.479 396.42 498.979 396.9 499.739 396.9H502.139V394.62H499.739C498.999 394.62 498.479 395.14 498.479 395.76ZM506.94 406V401.58H507.92C508.38 401 508.66 399.86 508.78 398.28C508.9 396.82 508.94 395.46 508.96 393.32H514.54V401.58H515.62V406H514.14V403H508.4V406H506.94ZM509.46 401.58H513.04V394.76H510.38C510.36 396.26 510.3 397.34 510.24 398.36C510.16 399.84 509.86 401 509.46 401.58ZM522.2 403.3C519.74 403.3 518.4 400.68 518.4 398.18C518.4 395.7 519.84 393.02 522.24 393.02C524.7 393.02 526.04 395.64 526.04 398.14C526.04 400.62 524.6 403.3 522.2 403.3ZM519.94 398.16C519.94 399.86 520.68 401.88 522.22 401.88C523.74 401.88 524.5 399.84 524.5 398.16C524.5 396.46 523.76 394.44 522.22 394.44C520.7 394.44 519.94 396.48 519.94 398.16ZM529.761 403V393.32H533.821C535.441 393.32 536.401 394.44 536.401 395.6C536.401 396.38 535.921 397.08 535.081 397.46C536.021 397.92 536.581 398.84 536.581 399.96C536.581 401.58 535.421 403 533.681 403H529.761ZM531.181 401.74H533.501C534.381 401.74 535.081 400.86 535.081 399.88C535.081 398.9 534.401 398.1 533.501 398.1H531.181V401.74ZM531.181 396.88H533.641C534.361 396.88 534.901 396.34 534.901 395.76C534.901 395.12 534.381 394.62 533.641 394.62H531.181V396.88ZM540.462 403V393.32H541.782L541.762 401.54H541.882L545.002 393.32H547.182V403H545.862L545.882 394.78H545.762L542.642 403H540.462ZM553.883 403V394.74H551.043V393.32H558.203V394.74H555.383V403H553.883ZM561.503 403V393.32H562.943V396.64H563.903C565.983 396.64 567.103 398.2 567.103 399.78C567.103 401.34 565.923 403 563.843 403H561.503ZM562.943 401.64H563.743C564.963 401.64 565.623 400.66 565.623 399.8C565.623 398.9 564.983 397.94 563.743 397.94H562.943V401.64ZM567.903 403V393.32H569.343V403H567.903ZM576.264 403.3C573.724 403.3 572.404 400.68 572.404 398.18C572.404 395.7 573.844 393.02 576.304 393.02C578.704 393.02 580.184 395.86 579.984 398.36H573.944C574.004 400.16 574.744 401.96 576.304 401.96C577.104 401.96 577.744 401.46 578.164 400.42H579.744C579.044 402.14 577.904 403.3 576.264 403.3ZM574.044 397H578.384C578.164 395.6 577.424 394.38 576.284 394.38C575.044 394.38 574.304 395.6 574.044 397ZM237.2 425.16V423.7H237.58C238.64 423.7 238.92 423.1 239.02 421.18C239.1 419.7 239.18 417.88 239.2 415.32H244.66V425H243.16V416.74H240.62C240.6 418.6 240.54 420.04 240.48 421.38C240.34 424.4 239.62 425.16 237.7 425.16H237.2ZM252.181 425.3C249.721 425.3 248.381 422.68 248.381 420.18C248.381 417.7 249.821 415.02 252.221 415.02C254.681 415.02 256.021 417.64 256.021 420.14C256.021 422.62 254.581 425.3 252.181 425.3ZM249.921 420.16C249.921 421.86 250.661 423.88 252.201 423.88C253.721 423.88 254.481 421.84 254.481 420.16C254.481 418.46 253.741 416.44 252.201 416.44C250.681 416.44 249.921 418.48 249.921 420.16ZM259.742 425V415.32H263.802C265.422 415.32 266.382 416.44 266.382 417.6C266.382 418.38 265.902 419.08 265.062 419.46C266.002 419.92 266.562 420.84 266.562 421.96C266.562 423.58 265.402 425 263.662 425H259.742ZM261.162 423.74H263.482C264.362 423.74 265.062 422.86 265.062 421.88C265.062 420.9 264.382 420.1 263.482 420.1H261.162V423.74ZM261.162 418.88H263.622C264.342 418.88 264.882 418.34 264.882 417.76C264.882 417.12 264.362 416.62 263.622 416.62H261.162V418.88ZM272.222 428.52L273.382 425H272.762L269.922 415.32H271.502L273.762 423.56H273.862L276.142 415.32H277.682L273.802 428.52H272.222ZM280.683 425V415.32H282.103V423.64H283.903V415.32H285.303V423.64H287.103V415.32H288.523V425H280.683ZM292.244 425V415.32H293.744V418.82H295.324L297.644 415.32H299.264L296.504 419.38L299.324 425H297.644L295.264 420.14H293.744V425H292.244ZM302.845 425V415.32H304.165L304.145 423.54H304.265L307.385 415.32H309.565V425H308.245L308.265 416.78H308.145L305.025 425H302.845ZM317.005 425.1C316.125 425.1 315.205 424.24 315.205 423.38C315.205 422.58 316.105 421.66 317.045 421.66C318.085 421.66 319.145 422.84 319.145 424.48C319.145 426.34 317.885 428.22 315.705 428.22V426.84C317.005 426.84 317.585 426.1 317.645 424.96C317.445 425.04 317.225 425.1 317.005 425.1ZM338.187 422.36L336.427 416.9H336.247L336.267 425H335.047V415.32H337.067L338.607 420.18L340.147 415.32H342.167V425H340.887L340.907 416.9H340.727L338.967 422.36H338.187ZM349.048 425.3C347.428 425.3 346.068 424.24 346.068 422.28C346.068 420.58 347.128 419.56 349.108 419.02L350.408 418.66C350.868 418.54 351.128 418.28 351.128 417.86C351.128 417.38 350.708 416.44 349.488 416.44C348.448 416.44 347.628 417.16 347.428 418.14H345.868C346.308 416.12 347.988 415.02 349.588 415.02C351.468 415.02 352.628 416.44 352.628 417.86V422.8C352.628 423.6 352.808 423.76 353.308 423.76H354.028V425.14H353.068C352.108 425.14 351.588 424.76 351.388 423.92C350.828 424.82 349.868 425.3 349.048 425.3ZM347.608 422.22C347.608 423.32 348.268 423.98 349.208 423.98C350.208 423.98 351.128 423.04 351.128 421.98V419.66C351.008 419.84 350.768 419.96 350.488 420.04L349.428 420.34C348.228 420.68 347.608 421.36 347.608 422.22ZM360.409 425.3C357.929 425.3 356.589 422.68 356.589 420.18C356.589 417.7 358.069 415.02 360.529 415.02C361.949 415.02 363.409 416.12 364.009 418.34H362.369C362.009 417.06 361.229 416.44 360.509 416.44C358.929 416.44 358.129 418.48 358.129 420.16C358.129 421.86 358.869 423.88 360.429 423.88C361.189 423.88 361.929 423.28 362.369 421.98H364.009C363.289 424.24 361.809 425.3 360.409 425.3ZM367.849 425V415.32H369.349V418.82H370.929L373.249 415.32H374.869L372.109 419.38L374.929 425H373.249L370.869 420.14H369.349V425H367.849ZM378.45 425V415.32H379.77L379.75 423.54H379.87L382.99 415.32H385.17V425H383.85L383.87 416.78H383.75L380.63 425H378.45ZM392.691 425.3C391.891 425.3 391.171 424.82 390.751 424.02V428.52H389.251V415.32H390.591V416.56C391.091 415.6 392.051 415.02 392.951 415.02C395.211 415.02 396.551 417.76 396.551 420.14C396.551 422.5 395.131 425.3 392.691 425.3ZM390.751 422C390.751 422.94 391.691 423.88 392.551 423.88C394.251 423.88 395.011 421.72 395.011 420.16C395.011 418.58 394.271 416.44 392.591 416.44C391.751 416.44 390.751 417.38 390.751 418.34V422ZM401.832 428.52L402.992 425H402.372L399.532 415.32H401.112L403.372 423.56H403.472L405.752 415.32H407.292L403.412 428.52H401.832ZM410.293 425V415.32H411.713V419.24H412.893C413.053 416.76 413.933 415.02 415.593 415.02C417.473 415.02 418.413 417.16 418.413 420.14C418.413 423.1 417.393 425.3 415.533 425.3C413.753 425.3 412.933 423.38 412.853 420.64H411.713V425H410.293ZM414.193 420.16C414.193 422.32 414.593 423.94 415.553 423.94C416.513 423.94 416.933 422.3 416.933 420.16C416.933 418 416.533 416.38 415.553 416.38C414.613 416.38 414.193 418.02 414.193 420.16ZM421.093 425V415.32H422.513V423.64H424.313V415.32H425.713V423.64H427.513V415.32H428.933V423.6H429.913V428H428.413V425H421.093ZM432.454 425V415.32H433.774L433.754 423.54H433.874L436.994 415.32H439.174V425H437.854L437.874 416.78H437.754L434.634 425H432.454ZM446.655 425.3C444.115 425.3 442.795 422.68 442.795 420.18C442.795 417.7 444.235 415.02 446.695 415.02C449.095 415.02 450.575 417.86 450.375 420.36H444.335C444.395 422.16 445.135 423.96 446.695 423.96C447.495 423.96 448.135 423.46 448.555 422.42H450.135C449.435 424.14 448.295 425.3 446.655 425.3ZM444.435 419H448.775C448.555 417.6 447.815 416.38 446.675 416.38C445.435 416.38 444.695 417.6 444.435 419ZM457.616 425.3C455.136 425.3 453.796 422.68 453.796 420.18C453.796 417.7 455.276 415.02 457.736 415.02C459.156 415.02 460.616 416.12 461.216 418.34H459.576C459.216 417.06 458.436 416.44 457.716 416.44C456.136 416.44 455.336 418.48 455.336 420.16C455.336 421.86 456.076 423.88 457.636 423.88C458.396 423.88 459.136 423.28 459.576 421.98H461.216C460.496 424.24 459.016 425.3 457.616 425.3ZM464.476 425L466.276 420.06C465.196 419.74 464.536 418.88 464.536 417.8C464.536 416.46 465.616 415.32 467.256 415.32H471.236V425H469.736V420.18H467.776L466.076 425H464.476ZM466.076 417.76C466.076 418.42 466.576 418.9 467.336 418.9H469.736V416.62H467.336C466.596 416.62 466.076 417.14 466.076 417.76ZM491.558 425V416.74H488.078V425H486.578V415.32H493.058V425H491.558ZM500.599 425.3C498.139 425.3 496.799 422.68 496.799 420.18C496.799 417.7 498.239 415.02 500.639 415.02C503.099 415.02 504.439 417.64 504.439 420.14C504.439 422.62 502.999 425.3 500.599 425.3ZM498.339 420.16C498.339 421.86 499.079 423.88 500.619 423.88C502.139 423.88 502.899 421.84 502.899 420.16C502.899 418.46 502.159 416.44 500.619 416.44C499.099 416.44 498.339 418.48 498.339 420.16ZM506.94 428V423.58H507.92C508.38 423 508.66 421.86 508.78 420.28C508.9 418.82 508.94 417.46 508.96 415.32H514.54V423.58H515.62V428H514.14V425H508.4V428H506.94ZM509.46 423.58H513.04V416.76H510.38C510.36 418.26 510.3 419.34 510.24 420.36C510.16 421.84 509.86 423 509.46 423.58ZM533.061 425.3C530.521 425.3 529.201 422.68 529.201 420.18C529.201 417.7 530.641 415.02 533.101 415.02C535.501 415.02 536.981 417.86 536.781 420.36H530.741C530.801 422.16 531.541 423.96 533.101 423.96C533.901 423.96 534.541 423.46 534.961 422.42H536.541C535.841 424.14 534.701 425.3 533.061 425.3ZM530.841 419H535.181C534.961 417.6 534.221 416.38 533.081 416.38C531.841 416.38 531.101 417.6 530.841 419ZM539.342 428V423.58H540.322C540.782 423 541.062 421.86 541.182 420.28C541.302 418.82 541.342 417.46 541.362 415.32H546.942V423.58H548.022V428H546.542V425H540.802V428H539.342ZM541.862 423.58H545.442V416.76H542.782C542.762 418.26 542.702 419.34 542.642 420.36C542.562 421.84 542.262 423 541.862 423.58ZM553.043 428.52L554.203 425H553.583L550.743 415.32H552.323L554.583 423.56H554.683L556.963 415.32H558.503L554.623 428.52H553.043ZM564.743 420.34L564.403 411.8H566.443L566.103 420.34H564.743ZM563.623 423.44C563.623 422.58 564.543 421.66 565.423 421.66C566.303 421.66 567.223 422.58 567.223 423.44C567.223 424.32 566.303 425.24 565.423 425.24C564.543 425.24 563.623 424.32 563.623 423.44ZM241.38 447.3C238.44 447.3 237.34 443.42 237.34 440.42C237.34 437.44 238.54 433.5 241.42 433.5C244.36 433.5 245.46 437.38 245.46 440.38C245.46 443.36 244.26 447.3 241.38 447.3ZM238.94 440.4C238.94 442.72 239.56 445.82 241.4 445.82C243.24 445.82 243.86 442.7 243.86 440.4C243.86 438.08 243.24 434.98 241.4 434.98C239.58 434.98 238.94 438.1 238.94 440.4ZM247.721 450V445.58H248.701C249.161 445 249.441 443.86 249.561 442.28C249.681 440.82 249.721 439.46 249.741 437.32H255.321V445.58H256.401V450H254.921V447H249.181V450H247.721ZM250.241 445.58H253.821V438.76H251.161C251.141 440.26 251.081 441.34 251.021 442.36C250.941 443.84 250.641 445 250.241 445.58ZM259.642 447V437.32H260.962L260.942 445.54H261.062L264.182 437.32H266.362V447H265.042L265.062 438.78H264.942L261.822 447H259.642ZM275.582 447V442.66H272.022V447H270.522V437.32H272.022V441.24H275.582V437.32H277.082V447H275.582ZM297.184 447V442.66H293.624V447H292.124V437.32H293.624V441.24H297.184V437.32H298.684V447H297.184ZM306.245 447.3C303.705 447.3 302.385 444.68 302.385 442.18C302.385 439.7 303.825 437.02 306.285 437.02C308.685 437.02 310.165 439.86 309.965 442.36H303.925C303.985 444.16 304.725 445.96 306.285 445.96C307.085 445.96 307.725 445.46 308.145 444.42H309.725C309.025 446.14 307.885 447.3 306.245 447.3ZM304.025 441H308.365C308.145 439.6 307.405 438.38 306.265 438.38C305.025 438.38 304.285 439.6 304.025 441ZM313.745 447V437.32H317.805C319.425 437.32 320.385 438.44 320.385 439.6C320.385 440.38 319.905 441.08 319.065 441.46C320.005 441.92 320.565 442.84 320.565 443.96C320.565 445.58 319.405 447 317.665 447H313.745ZM315.165 445.74H317.485C318.365 445.74 319.065 444.86 319.065 443.88C319.065 442.9 318.385 442.1 317.485 442.1H315.165V445.74ZM315.165 440.88H317.625C318.345 440.88 318.885 440.34 318.885 439.76C318.885 439.12 318.365 438.62 317.625 438.62H315.165V440.88ZM327.846 447.3C325.306 447.3 323.986 444.68 323.986 442.18C323.986 439.7 325.426 437.02 327.886 437.02C330.286 437.02 331.766 439.86 331.566 442.36H325.526C325.586 444.16 326.326 445.96 327.886 445.96C328.686 445.96 329.326 445.46 329.746 444.42H331.326C330.626 446.14 329.486 447.3 327.846 447.3ZM325.626 441H329.966C329.746 439.6 329.006 438.38 327.866 438.38C326.626 438.38 325.886 439.6 325.626 441ZM338.687 447.3C337.887 447.3 337.167 446.82 336.747 446.02V450.52H335.247V437.32H336.587V438.56C337.087 437.6 338.047 437.02 338.947 437.02C341.207 437.02 342.547 439.76 342.547 442.14C342.547 444.5 341.127 447.3 338.687 447.3ZM336.747 444C336.747 444.94 337.687 445.88 338.547 445.88C340.247 445.88 341.007 443.72 341.007 442.16C341.007 440.58 340.267 438.44 338.587 438.44C337.747 438.44 336.747 439.38 336.747 440.34V444ZM351.188 447V442.66H347.628V447H346.128V437.32H347.628V441.24H351.188V437.32H352.688V447H351.188ZM356.289 447V437.32H357.729V440.64H358.689C360.769 440.64 361.889 442.2 361.889 443.78C361.889 445.34 360.709 447 358.629 447H356.289ZM357.729 445.64H358.529C359.749 445.64 360.409 444.66 360.409 443.8C360.409 442.9 359.769 441.94 358.529 441.94H357.729V445.64ZM362.689 447V437.32H364.129V447H362.689ZM367.649 447V437.32H368.969L368.949 445.54H369.069L372.189 437.32H374.369V447H373.049L373.069 438.78H372.949L369.829 447H367.649ZM368.689 433.32H370.089C370.089 434.22 370.449 434.96 371.009 434.96C371.569 434.96 371.929 434.22 371.929 433.32H373.329C373.329 434.88 372.189 436.12 371.009 436.12C369.829 436.12 368.689 434.88 368.689 433.32ZM391.031 450.52L392.191 447H391.571L388.731 437.32H390.311L392.571 445.56H392.671L394.951 437.32H396.491L392.611 450.52H391.031ZM400.252 447V437.32H401.752V440.82H403.332L405.652 437.32H407.272L404.512 441.38L407.332 447H405.652L403.272 442.14H401.752V447H400.252ZM412.633 450.52L413.793 447H413.173L410.333 437.32H411.913L414.173 445.56H414.273L416.553 437.32H418.093L414.213 450.52H412.633ZM425.213 447.3C422.733 447.3 421.393 444.68 421.393 442.18C421.393 439.7 422.873 437.02 425.333 437.02C426.753 437.02 428.213 438.12 428.813 440.34H427.173C426.813 439.06 426.033 438.44 425.313 438.44C423.733 438.44 422.933 440.48 422.933 442.16C422.933 443.86 423.673 445.88 425.233 445.88C425.993 445.88 426.733 445.28 427.173 443.98H428.813C428.093 446.24 426.613 447.3 425.213 447.3ZM442.215 442.04V440.58H451.015V442.04H442.215ZM464.856 447V437.32H466.176L466.156 445.54H466.276L469.396 437.32H471.576V447H470.256L470.276 438.78H470.156L467.036 447H464.856ZM486.658 447V437.32H488.158V440.82H489.738L492.058 437.32H493.678L490.918 441.38L493.738 447H492.058L489.678 442.14H488.158V447H486.658ZM500.599 447.3C498.139 447.3 496.799 444.68 496.799 442.18C496.799 439.7 498.239 437.02 500.639 437.02C503.099 437.02 504.439 439.64 504.439 442.14C504.439 444.62 502.999 447.3 500.599 447.3ZM498.339 442.16C498.339 443.86 499.079 445.88 500.619 445.88C502.139 445.88 502.899 443.84 502.899 442.16C502.899 440.46 502.159 438.44 500.619 438.44C499.099 438.44 498.339 440.48 498.339 442.16ZM513.2 447V442.66H509.64V447H508.14V437.32H509.64V441.24H513.2V437.32H514.7V447H513.2ZM522.26 447.3C519.72 447.3 518.4 444.68 518.4 442.18C518.4 439.7 519.84 437.02 522.3 437.02C524.7 437.02 526.18 439.86 525.98 442.36H519.94C520 444.16 520.74 445.96 522.3 445.96C523.1 445.96 523.74 445.46 524.16 444.42H525.74C525.04 446.14 523.9 447.3 522.26 447.3ZM520.04 441H524.38C524.16 439.6 523.42 438.38 522.28 438.38C521.04 438.38 520.3 439.6 520.04 441ZM529.821 447V437.32H531.321V445.58H534.721V437.32H536.221V445.58H537.301V450H535.821V447H529.821ZM243.14 469V460.74H239.66V469H238.16V459.32H244.64V469H243.14ZM252.281 469.3C251.481 469.3 250.761 468.82 250.341 468.02V472.52H248.841V459.32H250.181V460.56C250.681 459.6 251.641 459.02 252.541 459.02C254.801 459.02 256.141 461.76 256.141 464.14C256.141 466.5 254.721 469.3 252.281 469.3ZM250.341 466C250.341 466.94 251.281 467.88 252.141 467.88C253.841 467.88 254.601 465.72 254.601 464.16C254.601 462.58 253.861 460.44 252.181 460.44C251.341 460.44 250.341 461.38 250.341 462.34V466ZM259.642 469V459.32H260.962L260.942 467.54H261.062L264.182 459.32H266.362V469H265.042L265.062 460.78H264.942L261.822 469H259.642ZM270.642 469V459.32H272.142V462.82H273.722L276.042 459.32H277.662L274.902 463.38L277.722 469H276.042L273.662 464.14H272.142V469H270.642ZM280.403 469.16V467.7H280.783C281.843 467.7 282.123 467.1 282.223 465.18C282.303 463.7 282.383 461.88 282.403 459.32H287.863V469H286.363V460.74H283.823C283.803 462.6 283.743 464.04 283.683 465.38C283.543 468.4 282.823 469.16 280.903 469.16H280.403ZM291.484 469V459.32H292.904V463.24H294.084C294.244 460.76 295.124 459.02 296.784 459.02C298.664 459.02 299.604 461.16 299.604 464.14C299.604 467.1 298.584 469.3 296.724 469.3C294.944 469.3 294.124 467.38 294.044 464.64H292.904V469H291.484ZM295.384 464.16C295.384 466.32 295.784 467.94 296.744 467.94C297.704 467.94 298.124 466.3 298.124 464.16C298.124 462 297.724 460.38 296.744 460.38C295.804 460.38 295.384 462.02 295.384 464.16ZM305.585 465.8C304.025 465.8 302.645 464.46 302.645 463.12V459.32H304.145V462.74C304.145 463.46 304.925 464.38 305.905 464.38C306.605 464.38 307.225 464.18 307.705 463.94V459.32H309.205V469H307.705V465.28C307.045 465.58 306.325 465.8 305.585 465.8ZM317.045 469.3C314.505 469.3 313.185 466.68 313.185 464.18C313.185 461.7 314.625 459.02 317.085 459.02C319.485 459.02 320.965 461.86 320.765 464.36H314.725C314.785 466.16 315.525 467.96 317.085 467.96C317.885 467.96 318.525 467.46 318.945 466.42H320.525C319.825 468.14 318.685 469.3 317.045 469.3ZM314.825 463H319.165C318.945 461.6 318.205 460.38 317.065 460.38C315.825 460.38 315.085 461.6 314.825 463ZM329.586 469V464.66H326.026V469H324.526V459.32H326.026V463.24H329.586V459.32H331.086V469H329.586ZM335.247 469V459.32H336.567L336.547 467.54H336.667L339.787 459.32H341.967V469H340.647L340.667 460.78H340.547L337.427 469H335.247ZM345.488 469V459.32H346.908V463.24H348.088C348.248 460.76 349.128 459.02 350.788 459.02C352.668 459.02 353.608 461.16 353.608 464.14C353.608 467.1 352.588 469.3 350.728 469.3C348.948 469.3 348.128 467.38 348.048 464.64H346.908V469H345.488ZM349.388 464.16C349.388 466.32 349.788 467.94 350.748 467.94C351.708 467.94 352.128 466.3 352.128 464.16C352.128 462 351.728 460.38 350.748 460.38C349.808 460.38 349.388 462.02 349.388 464.16ZM360.209 469.24C359.329 469.24 358.409 468.32 358.409 467.44C358.409 466.58 359.329 465.66 360.209 465.66C361.089 465.66 362.009 466.58 362.009 467.44C362.009 468.32 361.089 469.24 360.209 469.24Z" fill="#1F1515"/>
<defs>
<filter id="filter0_d_486_4" x="0" y="0" width="855.265" height="563" filterUnits="userSpaceOnUse" color-interpolation-filters="sRGB">
<feFlood flood-opacity="0" result="BackgroundImageFix"/>
<feColorMatrix in="SourceAlpha" type="matrix" values="0 0 0 0 0 0 0 0 0 0 0 0 0 0 0 0 0 0 127 0" result="hardAlpha"/>
<feOffset dy="4"/>
<feGaussianBlur stdDeviation="2"/>
<feComposite in2="hardAlpha" operator="out"/>
<feColorMatrix type="matrix" values="0 0 0 0 0 0 0 0 0 0 0 0 0 0 0 0 0 0 0.25 0"/>
<feBlend mode="normal" in2="BackgroundImageFix" result="effect1_dropShadow_486_4"/>
<feBlend mode="normal" in="SourceGraphic" in2="effect1_dropShadow_486_4" result="shape"/>
</filter>
</defs>
</svg>
