<svg width="33" height="33" viewBox="0 0 33 33" fill="none" xmlns="http://www.w3.org/2000/svg">
<path d="M2.81544 8.17992L3.41461 8.41125C3.53968 8.45953 3.67259 8.4843 3.80666 8.4843C4.57441 8.4843 5.10089 9.25772 4.81935 9.97199L4.76844 10.1011C4.74288 10.166 4.7231 10.233 4.70933 10.3013L4.58877 10.8998C4.48299 11.4248 4.42971 11.9591 4.42971 12.4947V12.8527C4.42971 13.8617 4.56061 14.8664 4.81915 15.8418L5.00968 16.5605C5.12338 16.9895 5.27083 17.4087 5.45064 17.8144L5.64581 18.2548C5.88462 18.7936 6.03463 19.3675 6.09004 19.9542L6.20991 21.2236C6.22412 21.374 6.27877 21.5178 6.36808 21.6397C6.62911 21.9961 6.56853 22.4938 6.22965 22.7771L5.66985 23.2451C5.49573 23.3907 5.2929 23.4979 5.07456 23.5599L3.05655 24.1323C2.52609 24.2827 2.03214 24.5404 1.60526 24.8894L1.47474 24.9961C1.14559 25.2652 0.873456 25.5973 0.674308 25.973L0.52243 26.2594C0.328574 26.6251 0.246307 27.0396 0.285829 27.4516L0.292122 27.5172C0.345148 28.0699 0.629485 28.5744 1.07486 28.9061C1.20865 29.0057 1.35457 29.0878 1.50911 29.1506L2.46788 29.54C2.76784 29.6618 3.02455 29.8705 3.20504 30.1393C3.31969 30.31 3.40088 30.501 3.44427 30.702L3.50401 30.9788C3.56893 31.2795 3.72615 31.5525 3.95372 31.7596C4.3003 32.075 4.77597 32.2073 5.23561 32.116L5.53672 32.0562C6.07792 31.9488 6.55449 31.6312 6.86209 31.1732L7.77967 29.8068C8.1426 29.2663 8.35541 28.6392 8.39631 27.9895L8.43183 27.4252C8.46545 26.8913 8.6937 26.3882 9.07337 26.0113L10.3732 24.7209C10.5696 24.526 10.89 24.5383 11.0708 24.7477C11.1457 24.8344 11.1869 24.9451 11.1869 25.0597V26.2983C11.1869 27.3645 11.8746 28.309 12.8893 28.6364L13.7697 28.9205C14.049 29.0106 14.3379 29.0674 14.6305 29.0897L15.9006 29.1867C16.7084 29.2484 17.5208 29.1974 18.3146 29.0352L19.2762 28.8386C19.5377 28.7852 19.7892 28.6909 20.0213 28.5591L20.0857 28.5226C20.8084 28.1126 21.2687 27.3591 21.3036 26.5289L21.3165 26.2215C21.3206 26.1245 21.3428 26.029 21.3819 25.9402C21.6047 25.4346 22.2686 25.3155 22.6533 25.7121L23.4538 26.5374C23.6792 26.7697 23.8263 27.0666 23.8746 27.3866L23.9583 27.9404C24.0029 28.2356 24.0874 28.5234 24.2094 28.7959L24.6835 29.855C24.8443 30.2142 25.0655 30.543 25.3376 30.8273L25.7939 31.3042C26.151 31.6774 26.6451 31.8884 27.1617 31.8884C27.7836 31.8884 28.3659 31.5829 28.7194 31.0712L29.9568 29.2797C30.1925 28.9521 30.5779 28.7579 30.9814 28.7579C31.4936 28.7579 31.9653 28.4534 32.1683 27.9832L32.1766 27.964C32.2476 27.7994 32.2843 27.622 32.2843 27.4427V27.1705C32.2843 26.4691 32.0043 25.7967 31.5066 25.3026L31.3368 25.134C31.0209 24.8204 30.6432 24.576 30.2278 24.4164L29.0786 23.9748C28.7162 23.8355 28.3312 23.7641 27.9429 23.7641H27.1429C26.7825 23.7641 26.438 23.6155 26.1905 23.3535C25.7613 22.8989 25.713 22.2044 26.0753 21.6949L26.1007 21.6592C26.2648 21.4284 26.353 21.1522 26.353 20.8691V19.8894C26.353 19.3467 26.4527 18.8085 26.6472 18.3017L27.5543 15.9378L27.7744 15.1184C28.0265 14.1797 28.1318 13.2075 28.0863 12.2365L28.0177 10.7733C28.0091 10.5905 27.9671 10.4108 27.8937 10.2431C27.5471 9.45191 27.9407 8.53245 28.7524 8.23699L29.5063 7.96255L30.9558 7.19167C31.3796 6.96631 31.7189 6.60977 31.9231 6.17543C32.0621 5.87977 32.1341 5.5571 32.1341 5.23041V4.85731C32.1341 4.5048 32.0055 4.1644 31.7725 3.89996C31.664 3.7769 31.5354 3.67317 31.3922 3.59319L30.4073 3.04321L29.7939 2.68797C29.6043 2.57821 29.4402 2.42954 29.3123 2.25176C29.1926 2.08538 29.107 1.89691 29.0606 1.69727L28.9825 1.36117C28.9318 1.14295 28.8393 0.936609 28.7102 0.753512C28.4958 0.449488 28.1895 0.222319 27.8364 0.10545L27.8009 0.0937036C27.4447 -0.0241621 27.0611 -0.0309689 26.701 0.0741856L26.6355 0.0932917C26.2083 0.21803 25.8327 0.477176 25.5644 0.832276L25.0725 1.48343C24.9253 1.67823 24.7942 1.8846 24.6802 2.10053L24.1087 3.18374C24.0534 3.28844 24.0109 3.39936 23.982 3.51416C23.7652 4.37502 22.8466 4.85473 22.0163 4.5407L20.4217 3.93763L18.6198 3.34135L18.5044 3.3159C17.2368 3.03624 15.9349 2.94436 14.6406 3.04321L14.5609 3.05411C13.1685 3.24478 11.807 3.61699 10.5112 4.16124L9.906 4.48666C9.30778 4.80835 8.56827 4.4654 8.42737 3.80095C8.4151 3.74311 8.39782 3.68645 8.37572 3.63161L8.10078 2.94922C7.90708 2.4685 7.63638 2.02253 7.2993 1.62884L6.88758 1.14797C6.654 0.87517 6.35751 0.663345 6.02373 0.5308C5.62065 0.370736 5.1794 0.332702 4.75487 0.421428L4.70769 0.431289C4.23344 0.530407 3.80091 0.77236 3.46827 1.12461L3.1611 1.44988C2.95769 1.66528 2.79842 1.91842 2.69228 2.19502L2.62009 2.38315C2.39067 2.98101 1.87511 3.42277 1.24916 3.55786L1.01738 3.60789C0.701111 3.67614 0.422065 3.8608 0.235616 4.12523C0.0823006 4.34266 0 4.6022 0 4.86825V5.01993C0 5.24056 0.0413047 5.45925 0.12178 5.66468L0.207314 5.88304C0.415196 6.41371 0.769506 6.87445 1.22901 7.21162L1.76579 7.60549C2.08877 7.84248 2.44172 8.03564 2.81544 8.17992Z" fill="#A6A5A4" fill-opacity="0.58"/>
</svg>
