<svg width="47" height="33" viewBox="0 0 47 33" fill="none" xmlns="http://www.w3.org/2000/svg">
<path d="M33.7227 16.3649L33.6702 16.2758C33.1392 15.3742 33.3506 14.2195 34.1665 13.5645C34.3529 13.4148 34.5635 13.2979 34.7892 13.2189L35.0918 13.113C35.5177 12.9638 35.9152 12.7433 36.2671 12.4607L36.7121 12.1035C37.1917 11.7184 37.7408 11.4288 38.3295 11.2506C38.6801 11.1444 39.0175 10.9985 39.335 10.8157L39.546 10.6943C40.2701 10.2775 41.0635 9.99498 41.888 9.86034L42.1663 9.81488L43.717 9.40608L45.9794 8.92819C46.2082 8.87986 46.3714 8.67728 46.37 8.44344C46.3685 8.20242 46.1929 7.99789 45.9548 7.96009L45.7949 7.93471C45.7377 7.92562 45.6795 7.92385 45.6219 7.92945L44.4288 8.04519C44.004 8.08641 43.5874 8.18927 43.1922 8.35055L42.6718 8.56296C42.2683 8.72762 41.8275 8.77855 41.3971 8.71022C40.8836 8.6287 40.3576 8.71724 39.8992 8.96234L34.7018 11.741L33.6286 12.4598C32.6989 13.0824 31.5126 13.1774 30.4957 12.7107L30.0507 12.5038C29.0554 12.0408 27.8727 12.3142 27.1816 13.1671L26.2631 14.0906C26.1373 14.2172 25.949 14.2584 25.7818 14.1961C25.5228 14.0995 25.4091 13.7961 25.541 13.5531L25.8641 12.9579L27.1667 10.7084C27.7277 9.86538 28.6397 9.32113 29.648 9.22766L30.6584 9.13399L32.8932 8.67005L33.8767 8.47951C34.149 8.42674 34.4139 8.34091 34.6655 8.22393L35.3352 7.91252C35.5074 7.83242 35.6521 7.70322 35.7512 7.54114L35.9269 7.25363C36.0559 7.04266 36.0237 6.77084 35.849 6.59583C35.6803 6.42677 35.42 6.38986 35.2109 6.50533L33.9139 7.22162C33.6347 7.37578 33.3287 7.47519 33.0123 7.51449L30.5978 7.81434L28.7299 8.31645C28.1914 8.46122 27.6794 8.69081 27.2131 8.99662C26.4875 9.47246 25.8911 10.1206 25.4773 10.8832L25.0562 11.6591C24.9937 11.7741 24.9438 11.8955 24.9071 12.0212L24.5546 13.2305C24.4535 13.5771 24.0835 13.7693 23.7418 13.6527C23.5703 13.5941 23.4321 13.465 23.3621 13.2978L22.5907 11.4556L22.0488 9.81233C21.8035 9.06834 21.4551 8.3624 21.0137 7.71514L20.4885 6.94483C20.1184 6.40203 19.6297 5.95045 19.0595 5.62423L18.9659 5.57073C18.2996 5.18952 17.758 4.62332 17.4067 3.94066L17.3523 3.83494C17.1978 3.53468 17.0915 3.21199 17.0373 2.8787L16.9382 2.26938C16.8786 1.90253 16.9523 1.52644 17.1462 1.20931L17.4447 0.720815C17.5266 0.586873 17.5368 0.421072 17.472 0.27811C17.3315 -0.031467 16.9204 -0.0967449 16.691 0.154115L16.084 0.81786C15.943 0.972078 15.8504 1.16431 15.8176 1.3707L15.7117 2.03793C15.6473 2.44349 15.6587 2.85747 15.7454 3.25885L15.9555 4.23123C16.1316 5.04595 16.7008 5.72 17.4746 6.02993C17.9896 6.23622 18.4217 6.60744 18.7033 7.0855L18.9764 7.54922C19.1425 7.83134 19.342 8.09246 19.5705 8.32697L19.9523 8.71886C20.4711 9.25136 20.8934 9.86992 21.2005 10.547L21.4664 11.1332C21.5131 11.2362 21.5466 11.3447 21.5662 11.456L21.7164 12.3129C21.802 12.8012 21.3814 13.2287 20.8918 13.1509L20.6794 13.1172C20.4027 13.0733 20.214 12.8134 20.258 12.5367C20.2723 12.4464 20.262 12.3539 20.2281 12.2691L19.0236 9.25174L18.9711 9.09259C18.7103 8.30157 18.1836 7.62524 17.4806 7.17853C17.0647 6.91421 16.5989 6.73798 16.1122 6.6607L14.3468 6.3804L12.584 6.17308C11.1133 6.00011 9.62656 6.0148 8.15956 6.21679L7.35806 6.40158C6.80826 6.52834 6.2316 6.36975 5.82392 5.9797C5.71272 5.8733 5.61672 5.75209 5.53862 5.61948L5.12438 4.91612L4.45182 3.92974C4.32168 3.73888 4.11858 3.61015 3.89043 3.57393C3.43299 3.5013 3.00329 3.81325 2.93066 4.27069L2.9183 4.34855C2.89616 4.48797 2.90649 4.63062 2.9485 4.7654L2.97134 4.83869C3.08598 5.20657 3.36442 5.50068 3.72547 5.63528L4.1323 5.78694C4.49293 5.92138 4.81042 6.15098 5.05106 6.45135L5.70866 7.27219C5.91936 7.53519 6.22053 7.71021 6.55336 7.76305C6.64743 7.77799 6.74281 7.78296 6.83792 7.77789L8.23331 7.70343C8.75081 7.67582 9.26548 7.60905 9.77289 7.50371C10.7494 7.30099 11.7502 7.24166 12.7438 7.32759L13.5106 7.39389L14.7318 7.58779C15.4842 7.70726 16.1895 8.03067 16.7711 8.52289C17.1284 8.82534 17.4322 9.18582 17.6698 9.5892L18.6939 11.3282L18.9594 11.7789C19.1081 12.0315 18.8002 12.3046 18.5671 12.1268L15.5336 10.3774C14.4305 9.74133 13.2202 9.31283 11.9627 9.11317C10.187 8.83124 8.36855 9.01364 6.68423 9.64264L5.55036 10.0661C5.14964 10.2157 4.77217 10.4215 4.42925 10.6772L4.31382 10.7632C3.4423 11.4131 2.85912 12.3776 2.68866 13.4513C2.46011 14.8907 2.99998 16.345 4.11245 17.2866L5.65446 18.5918L6.37145 19.0541C7.67082 19.8919 9.15524 20.3994 10.6955 20.5326L11.2472 20.5803C12.3217 20.6733 13.4033 20.5199 14.4097 20.1319L16.0295 19.5074C16.1343 19.467 16.2479 19.455 16.3588 19.4726C16.9402 19.5649 17.0966 20.3284 16.5984 20.642L15.3328 21.4385L14.098 22.3716C13.514 22.813 12.7754 22.9975 12.0525 22.8827C11.8414 22.8492 11.635 22.7906 11.4378 22.7083L9.20117 21.775L6.51052 20.8565L5.36012 20.441C4.54556 20.1468 3.64554 20.2031 2.87395 20.5964C2.70083 20.6846 2.5363 20.7888 2.38248 20.9076L1.64771 21.4748C1.47411 21.6088 1.26672 21.692 1.04862 21.7152L0.789026 21.7427C0.409466 21.783 0.104138 22.0729 0.0442856 22.4499L0.00731864 22.6827C-0.0422959 22.9952 0.170804 23.2887 0.483288 23.3384C0.627598 23.3613 0.775213 23.3282 0.895929 23.2458L2.07124 22.4442L2.84699 22.0617C3.48641 21.7464 4.20784 21.6372 4.91194 21.749C5.41393 21.8287 5.89209 22.0184 6.31215 22.3046L6.77123 22.6173C7.49361 23.1094 8.31588 23.4357 9.17914 23.5728L12.2159 24.0549C13.727 24.2948 15.2695 23.8895 16.4673 22.9375L17.1527 22.3929C17.5017 22.1155 17.8098 21.7902 18.0678 21.4265L19.544 19.3457C19.6806 19.1531 19.9147 19.0547 20.148 19.0917C20.553 19.156 20.7856 19.5882 20.6162 19.9617L20.5613 20.0828C20.5453 20.1182 20.5264 20.1523 20.5048 20.1846L19.6502 21.469L18.652 22.6787C18.2035 23.2222 17.8084 23.8078 17.4722 24.4272L17.066 25.1757C16.9107 25.4619 16.721 25.7281 16.5013 25.9684L16.0131 26.5023C15.6974 26.8475 15.2708 27.0715 14.8073 27.1353C14.5514 27.1705 14.3047 27.2549 14.0808 27.3838L13.8843 27.4968C13.6477 27.6331 13.4296 27.7993 13.2356 27.9915L12.5467 28.674C12.3472 28.8716 12.1801 29.0993 12.0514 29.3488L11.2075 30.9851C11.1298 31.1358 11.1664 31.3202 11.2959 31.4298C11.5124 31.613 11.846 31.4892 11.8905 31.209L11.9627 30.7543C11.9818 30.6337 12.0359 30.5215 12.1183 30.4314L13.0383 29.4254C13.2122 29.2351 13.401 29.059 13.6028 28.8986L14.3352 28.3167C14.6667 28.0532 15.0733 27.9017 15.4965 27.8839C16.115 27.858 16.6867 27.5472 17.045 27.0423L17.5212 26.371L19.5586 23.747L21.4644 21.102L22.4036 19.6691C22.4829 19.5482 22.6256 19.4851 22.7684 19.5077C22.9391 19.5348 23.0678 19.6773 23.0775 19.8498L23.2202 22.3816C23.2318 22.5892 23.2619 22.7953 23.3101 22.9975L23.4085 23.4109C23.6145 24.2764 24.062 25.0656 24.6988 25.6868C24.9834 25.9644 25.302 26.2048 25.6471 26.4022L27.1086 27.2382L27.8226 27.5847C28.0144 27.6777 28.2188 27.742 28.4293 27.7754C28.9862 27.8639 29.4867 28.1656 29.8248 28.6167L30.1658 29.0716C30.3288 29.289 30.5291 29.4757 30.7574 29.6229L31.4816 30.0898C31.6561 30.2023 31.8745 30.2226 32.0667 30.1441C32.2387 30.0739 32.3714 29.9321 32.43 29.7558L32.4472 29.7041C32.5384 29.4299 32.4649 29.1277 32.2581 28.9259L31.4404 28.1283C31.2761 27.968 31.091 27.8303 30.8902 27.7189L30.2623 27.3707C30.0587 27.2579 29.8891 27.0926 29.771 26.892C29.6128 26.6234 29.3636 26.4204 29.0686 26.3197L28.0691 25.9785C27.8448 25.9019 27.6275 25.8063 27.4195 25.6927L26.6981 25.2986C25.9954 24.9148 25.4258 24.3265 25.0648 23.6118L24.9937 23.4709C24.9312 23.3472 24.8803 23.218 24.8416 23.085L23.966 20.0741C23.9127 19.8907 24.0684 19.7141 24.257 19.7441C24.3338 19.7563 24.4012 19.8022 24.4407 19.8692L25.1762 21.1182C25.6815 21.9761 26.5437 22.5635 27.527 22.7196L27.8186 22.7659L29.0422 22.9602C29.2783 22.9976 29.5194 22.9893 29.7523 22.9356C30.5439 22.7531 31.3624 23.1049 31.7746 23.8049L32.0257 24.2313C32.1057 24.3671 32.1982 24.4952 32.3019 24.6138L34.7499 27.4134C35.4498 28.2138 36.2487 28.9218 37.1274 29.5204L37.3311 29.6592C37.7749 29.9615 38.2433 30.226 38.7313 30.45L39.0651 30.6032C39.4438 30.777 39.8035 30.9894 40.1385 31.2371L41.1374 31.9757C41.262 32.0677 41.4068 32.1285 41.5598 32.1528L41.8777 32.2032C42.2284 32.2589 42.5579 32.0197 42.6135 31.669C42.6458 31.4659 42.5789 31.2596 42.4336 31.114L42.217 30.897C42.1277 30.8075 42.0252 30.7321 41.9132 30.6734L39.8375 29.5868L38.2516 28.5162C36.9533 27.6579 35.7731 26.6331 34.7411 25.4681L33.2587 23.7947C33.1456 23.6669 33.045 23.5286 32.9584 23.3816C32.4509 22.5198 32.4708 21.446 33.0097 20.6036L33.3377 20.091C33.6083 19.668 33.7886 19.1938 33.8674 18.6979L34.003 17.8435C34.0841 17.333 33.9849 16.8103 33.7227 16.3649Z" fill="#A6A5A4"/>
</svg>
